<svg version="1.1" id="Layer_1" xmlns="http://www.w3.org/2000/svg" xmlns:xlink="http://www.w3.org/1999/xlink" x="0px" y="0px"
	 width="100%" viewBox="0 0 685 673" enable-background="new 0 0 685 673" xml:space="preserve">
<path fill="#000000" opacity="1.000000" stroke="none" 
	d="
M509.000000,674.000000 
	C339.741028,674.000000 170.482086,674.000000 1.000000,674.000000 
	C1.000000,515.644104 1.000000,357.288086 1.376063,198.208282 
	C12.297681,198.999008 22.802937,200.947632 33.397781,201.931183 
	C51.447113,203.606796 69.533325,205.315186 87.638824,205.865387 
	C124.164169,206.975372 160.783661,204.172943 197.242493,208.081512 
	C209.595535,209.405838 221.981491,211.075256 234.108505,213.709686 
	C254.493546,218.138046 273.820007,225.573914 291.536560,236.844757 
	C306.484467,246.354263 320.234161,257.225281 331.603668,270.954437 
	C335.292145,275.408447 339.406219,279.510040 343.676025,283.580658 
	C354.751465,272.356323 365.033020,260.844543 376.314697,250.414490 
	C390.126617,237.645142 406.696442,228.901245 424.129303,222.151779 
	C453.834137,210.650970 485.057770,206.864578 516.621704,206.094025 
	C562.725891,204.968521 608.965149,208.467178 654.905151,201.975769 
	C665.296997,200.507401 675.636414,198.668396 686.000000,197.000000 
	C686.000000,256.355988 686.000000,315.711945 685.588989,375.588104 
	C683.787109,370.103027 682.467773,364.080170 680.992188,358.095825 
	C676.084839,338.194855 666.125061,320.934174 651.793030,306.572266 
	C640.318787,295.074066 626.707642,286.352722 611.648926,279.748840 
	C590.203308,270.344086 567.813538,265.367706 544.603821,264.093323 
	C525.632446,263.051727 507.005646,266.286591 488.743225,271.096344 
	C457.558044,279.309540 429.128082,292.782196 406.786926,316.847687 
	C401.639526,322.392426 394.865601,327.796478 399.150818,337.126801 
	C400.321259,339.675232 401.258057,342.333160 402.473694,344.858215 
	C410.025085,360.543884 421.603760,372.848328 435.065735,383.571899 
	C453.667999,398.390167 474.409241,409.179321 497.456024,414.877838 
	C515.175781,419.259186 533.288269,422.027222 551.096863,426.080872 
	C570.791321,430.563782 589.811401,437.091705 607.192749,447.669983 
	C611.938293,450.558136 616.422302,453.876068 620.898865,457.330017 
	C612.629150,461.447479 604.726196,465.909973 596.297791,468.882751 
	C574.917236,476.423920 552.834045,480.270325 530.100464,477.935455 
	C516.264038,476.514404 502.374695,474.936646 488.759735,472.187988 
	C468.136383,468.024475 448.481964,460.543915 430.515289,449.612274 
	C417.387115,441.624603 405.193726,432.092896 392.655396,423.148926 
	C389.552338,420.935425 386.727905,418.331329 383.000244,415.270264 
	C383.000244,418.374329 383.000244,420.333771 383.000244,422.293182 
	C383.000244,488.756439 383.187134,555.220825 382.790497,621.681702 
	C382.733673,631.203613 384.493195,637.017578 393.824158,641.843323 
	C414.071106,652.314758 435.153015,660.128723 457.267151,664.774109 
	C473.730774,668.232483 490.618805,669.664612 507.303040,672.100464 
	C507.947388,672.194519 508.437836,673.342896 509.000000,674.000000 
M319.000000,655.402283 
	C318.999939,572.104370 319.047119,488.806366 318.914703,405.508636 
	C318.903503,398.447693 318.158112,391.308319 316.957977,384.342468 
	C311.408630,352.132721 293.564178,327.691650 267.927124,308.449890 
	C254.932632,298.696930 240.726120,291.001038 225.521317,285.224335 
	C206.169998,277.872253 186.290009,272.690460 165.594559,271.000275 
	C159.660599,270.515656 153.717194,269.992401 147.769882,269.862061 
	C138.979568,269.669434 130.181900,269.812256 120.889854,269.812256 
	C121.489883,271.339264 121.589951,271.825104 121.844505,272.208374 
	C131.268478,286.397400 135.281738,301.728455 135.217682,319.018616 
	C134.801651,431.302795 135.004242,543.589294 135.004272,655.875000 
	C135.004288,658.125610 135.004288,660.376221 135.004288,662.630066 
	C196.740616,662.630066 257.623291,662.630066 319.000000,662.630066 
	C319.000000,660.300659 319.000000,658.336792 319.000000,655.402283 
z"/>
<path fill="#B72024" opacity="1.000000" stroke="none" 
	d="
M686.000000,196.531342 
	C675.636414,198.668396 665.296997,200.507401 654.905151,201.975769 
	C608.965149,208.467178 562.725891,204.968521 516.621704,206.094025 
	C485.057770,206.864578 453.834137,210.650970 424.129303,222.151779 
	C406.696442,228.901245 390.126617,237.645142 376.314697,250.414490 
	C365.033020,260.844543 354.751465,272.356323 343.688568,282.955627 
	C343.252563,278.861176 343.071289,275.199646 343.068695,271.538025 
	C343.020264,202.416901 342.992981,133.295776 343.278442,64.022461 
	C344.681061,63.132439 345.815247,62.456604 346.844818,61.647621 
	C366.123688,46.499172 386.713135,33.755287 410.139343,25.858511 
	C443.349823,14.663531 477.844757,12.483479 512.408630,11.110614 
	C534.986023,10.213850 557.608032,10.502034 580.202393,9.947947 
	C594.096619,9.607215 607.992798,8.914766 621.858398,7.952280 
	C637.313477,6.879456 652.746643,5.436242 668.161072,3.875728 
	C671.173584,3.570745 674.057007,1.991507 677.000000,0.999999 
	C679.993591,1.000000 682.987183,1.000000 686.000000,1.000000 
	C686.000000,66.020897 686.000000,131.041794 686.000000,196.531342 
z"/>
<path fill="#E4262C" opacity="1.000000" stroke="none" 
	d="
M342.961304,64.174652 
	C342.992981,133.295776 343.020264,202.416901 343.068695,271.538025 
	C343.071289,275.199646 343.252563,278.861176 343.338135,283.147766 
	C339.406219,279.510040 335.292145,275.408447 331.603668,270.954437 
	C320.234161,257.225281 306.484467,246.354263 291.536560,236.844757 
	C273.820007,225.573914 254.493546,218.138046 234.108505,213.709686 
	C221.981491,211.075256 209.595535,209.405838 197.242493,208.081512 
	C160.783661,204.172943 124.164169,206.975372 87.638824,205.865387 
	C69.533325,205.315186 51.447113,203.606796 33.397781,201.931183 
	C22.802937,200.947632 12.297681,198.999008 1.376063,197.742249 
	C1.000000,132.333328 1.000000,66.666664 1.000000,1.000000 
	C3.697088,1.000000 6.357496,1.000000 9.300047,1.384418 
	C12.354179,2.507733 15.086267,3.628535 17.904692,3.923006 
	C35.075043,5.716978 52.237625,7.736407 69.456024,8.877594 
	C87.298721,10.060157 105.198296,10.454329 123.079407,10.971210 
	C149.945099,11.747802 176.836899,11.898756 203.676895,13.173094 
	C217.728745,13.840263 231.760681,15.912019 245.681152,18.111784 
	C263.008667,20.849943 279.552032,26.334995 295.510345,33.754818 
	C312.737457,41.764576 328.014923,52.678936 342.961304,64.174652 
z"/>
<path fill="#888988" opacity="1.000000" stroke="none" 
	d="
M509.468658,674.000000 
	C508.437836,673.342896 507.947388,672.194519 507.303040,672.100464 
	C490.618805,669.664612 473.730774,668.232483 457.267151,664.774109 
	C435.153015,660.128723 414.071106,652.314758 393.824158,641.843323 
	C384.493195,637.017578 382.733673,631.203613 382.790497,621.681702 
	C383.187134,555.220825 383.000244,488.756439 383.000244,422.293182 
	C383.000244,420.333771 383.000244,418.374329 383.000244,415.270264 
	C386.727905,418.331329 389.552338,420.935425 392.655396,423.148926 
	C405.193726,432.092896 417.387115,441.624603 430.515289,449.612274 
	C448.481964,460.543915 468.136383,468.024475 488.759735,472.187988 
	C502.374695,474.936646 516.264038,476.514404 530.100464,477.935455 
	C552.834045,480.270325 574.917236,476.423920 596.297791,468.882751 
	C604.726196,465.909973 612.629150,461.447479 621.260620,457.318176 
	C623.100525,456.367523 624.545227,455.912109 625.787903,455.133942 
	C645.406921,442.848999 661.216431,426.720703 673.362305,407.087616 
	C677.971497,399.637146 681.810120,391.709900 686.000000,384.000000 
	C686.000000,462.354218 686.000000,540.708435 685.745972,619.207336 
	C683.363525,622.030334 681.385620,624.846313 679.082275,627.364563 
	C664.768982,643.013550 646.820068,652.951050 627.114258,660.005737 
	C608.248413,666.759766 588.779358,670.680908 568.786194,672.079529 
	C567.817444,672.147339 566.926941,673.334229 566.000000,674.000000 
	C547.312439,674.000000 528.624878,674.000000 509.468658,674.000000 
z"/>
<path fill="#616262" opacity="1.000000" stroke="none" 
	d="
M686.000000,383.555847 
	C681.810120,391.709900 677.971497,399.637146 673.362305,407.087616 
	C661.216431,426.720703 645.406921,442.848999 625.787903,455.133942 
	C624.545227,455.912109 623.100525,456.367523 621.388062,456.984894 
	C616.422302,453.876068 611.938293,450.558136 607.192749,447.669983 
	C589.811401,437.091705 570.791321,430.563782 551.096863,426.080872 
	C533.288269,422.027222 515.175781,419.259186 497.456024,414.877838 
	C474.409241,409.179321 453.667999,398.390167 435.065735,383.571899 
	C421.603760,372.848328 410.025085,360.543884 402.473694,344.858215 
	C401.258057,342.333160 400.321259,339.675232 399.150818,337.126801 
	C394.865601,327.796478 401.639526,322.392426 406.786926,316.847687 
	C429.128082,292.782196 457.558044,279.309540 488.743225,271.096344 
	C507.005646,266.286591 525.632446,263.051727 544.603821,264.093323 
	C567.813538,265.367706 590.203308,270.344086 611.648926,279.748840 
	C626.707642,286.352722 640.318787,295.074066 651.793030,306.572266 
	C666.125061,320.934174 676.084839,338.194855 680.992188,358.095825 
	C682.467773,364.080170 683.787109,370.103027 685.588989,376.054138 
	C686.000000,378.370575 686.000000,380.741119 686.000000,383.555847 
z"/>
<path fill="#000000" opacity="1.000000" stroke="none" 
	d="
M343.278442,64.022461 
	C328.014923,52.678936 312.737457,41.764576 295.510345,33.754818 
	C279.552032,26.334995 263.008667,20.849943 245.681152,18.111784 
	C231.760681,15.912019 217.728745,13.840263 203.676895,13.173094 
	C176.836899,11.898756 149.945099,11.747802 123.079407,10.971210 
	C105.198296,10.454329 87.298721,10.060157 69.456024,8.877594 
	C52.237625,7.736407 35.075043,5.716978 17.904692,3.923006 
	C15.086267,3.628535 12.354179,2.507733 9.791095,1.384418 
	C232.020889,1.000000 454.041779,1.000000 676.531372,0.999999 
	C674.057007,1.991507 671.173584,3.570745 668.161072,3.875728 
	C652.746643,5.436242 637.313477,6.879456 621.858398,7.952280 
	C607.992798,8.914766 594.096619,9.607215 580.202393,9.947947 
	C557.608032,10.502034 534.986023,10.213850 512.408630,11.110614 
	C477.844757,12.483479 443.349823,14.663531 410.139343,25.858511 
	C386.713135,33.755287 366.123688,46.499172 346.844818,61.647621 
	C345.815247,62.456604 344.681061,63.132439 343.278442,64.022461 
z"/>
<path fill="#000000" opacity="1.000000" stroke="none" 
	d="
M566.468628,674.000000 
	C566.926941,673.334229 567.817444,672.147339 568.786194,672.079529 
	C588.779358,670.680908 608.248413,666.759766 627.114258,660.005737 
	C646.820068,652.951050 664.768982,643.013550 679.082275,627.364563 
	C681.385620,624.846313 683.363525,622.030334 685.745972,619.676025 
	C686.000000,637.954651 686.000000,655.909241 686.000000,674.000000 
	C646.312561,674.000000 606.624939,674.000000 566.468628,674.000000 
z"/>
<path fill="#616262" opacity="1.000000" stroke="none" 
	d="
M319.000000,655.887573 
	C319.000000,658.336792 319.000000,660.300659 319.000000,662.630066 
	C257.623291,662.630066 196.740616,662.630066 135.004288,662.630066 
	C135.004288,660.376221 135.004288,658.125610 135.004272,655.875000 
	C135.004242,543.589294 134.801651,431.302795 135.217682,319.018616 
	C135.281738,301.728455 131.268478,286.397400 121.844505,272.208374 
	C121.589951,271.825104 121.489883,271.339264 120.889854,269.812256 
	C130.181900,269.812256 138.979568,269.669434 147.769882,269.862061 
	C153.717194,269.992401 159.660599,270.515656 165.594559,271.000275 
	C186.290009,272.690460 206.169998,277.872253 225.521317,285.224335 
	C240.726120,291.001038 254.932632,298.696930 267.927124,308.449890 
	C293.564178,327.691650 311.408630,352.132721 316.957977,384.342468 
	C318.158112,391.308319 318.903503,398.447693 318.914703,405.508636 
	C319.047119,488.806366 318.999939,572.104370 319.000000,655.887573 
z"/>
</svg>