<svg width="212" height="50" viewBox="0 0 212 50" fill="none" xmlns="http://www.w3.org/2000/svg">
<path d="M45.952 23.872H41.504L40.768 26H38.416L42.432 14.816H45.04L49.056 26H46.688L45.952 23.872ZM45.344 22.08L43.728 17.408L42.112 22.08H45.344ZM56.1251 26L53.1171 22.224V26H50.8771V14.16H53.1171V20.896L56.0931 17.136H59.0051L55.1011 21.584L59.0371 26H56.1251ZM63.9329 26.144C63.2075 26.144 62.5569 26.016 61.9809 25.76C61.4049 25.4933 60.9462 25.136 60.6049 24.688C60.2742 24.24 60.0929 23.744 60.0609 23.2H62.3169C62.3595 23.5413 62.5249 23.824 62.8129 24.048C63.1115 24.272 63.4795 24.384 63.9169 24.384C64.3435 24.384 64.6742 24.2987 64.9089 24.128C65.1542 23.9573 65.2769 23.7387 65.2769 23.472C65.2769 23.184 65.1275 22.9707 64.8289 22.832C64.5409 22.6827 64.0769 22.5227 63.4369 22.352C62.7755 22.192 62.2315 22.0267 61.8049 21.856C61.3889 21.6853 61.0262 21.424 60.7169 21.072C60.4182 20.72 60.2689 20.2453 60.2689 19.648C60.2689 19.1573 60.4075 18.7093 60.6849 18.304C60.9729 17.8987 61.3782 17.5787 61.9009 17.344C62.4342 17.1093 63.0582 16.992 63.7729 16.992C64.8289 16.992 65.6715 17.2587 66.3009 17.792C66.9302 18.3147 67.2769 19.024 67.3409 19.92H65.1969C65.1649 19.568 65.0155 19.2907 64.7489 19.088C64.4929 18.8747 64.1462 18.768 63.7089 18.768C63.3035 18.768 62.9889 18.8427 62.7649 18.992C62.5515 19.1413 62.4449 19.3493 62.4449 19.616C62.4449 19.9147 62.5942 20.144 62.8929 20.304C63.1915 20.4533 63.6555 20.608 64.2849 20.768C64.9249 20.928 65.4529 21.0933 65.8689 21.264C66.2849 21.4347 66.6422 21.7013 66.9409 22.064C67.2502 22.416 67.4102 22.8853 67.4209 23.472C67.4209 23.984 67.2769 24.4427 66.9889 24.848C66.7115 25.2533 66.3062 25.5733 65.7729 25.808C65.2502 26.032 64.6369 26.144 63.9329 26.144ZM77.8196 21.376C77.8196 21.696 77.7983 21.984 77.7556 22.24H71.2756C71.329 22.88 71.553 23.3813 71.9476 23.744C72.3423 24.1067 72.8276 24.288 73.4036 24.288C74.2356 24.288 74.8276 23.9307 75.1796 23.216H77.5956C77.3396 24.0693 76.849 24.7733 76.1236 25.328C75.3983 25.872 74.5076 26.144 73.4516 26.144C72.5983 26.144 71.8303 25.9573 71.1476 25.584C70.4756 25.2 69.9476 24.6613 69.5636 23.968C69.1903 23.2747 69.0036 22.4747 69.0036 21.568C69.0036 20.6507 69.1903 19.8453 69.5636 19.152C69.937 18.4587 70.4596 17.9253 71.1316 17.552C71.8036 17.1787 72.577 16.992 73.4516 16.992C74.2943 16.992 75.0463 17.1733 75.7076 17.536C76.3796 17.8987 76.897 18.416 77.2596 19.088C77.633 19.7493 77.8196 20.512 77.8196 21.376ZM75.4996 20.736C75.489 20.16 75.281 19.7013 74.8756 19.36C74.4703 19.008 73.9743 18.832 73.3876 18.832C72.833 18.832 72.3636 19.0027 71.9796 19.344C71.6063 19.6747 71.377 20.1387 71.2916 20.736H75.4996ZM83.1666 26.144C82.4413 26.144 81.7906 26.016 81.2146 25.76C80.6386 25.4933 80.18 25.136 79.8386 24.688C79.508 24.24 79.3266 23.744 79.2946 23.2H81.5506C81.5933 23.5413 81.7586 23.824 82.0466 24.048C82.3453 24.272 82.7133 24.384 83.1506 24.384C83.5773 24.384 83.908 24.2987 84.1426 24.128C84.388 23.9573 84.5106 23.7387 84.5106 23.472C84.5106 23.184 84.3613 22.9707 84.0626 22.832C83.7746 22.6827 83.3106 22.5227 82.6706 22.352C82.0093 22.192 81.4653 22.0267 81.0386 21.856C80.6226 21.6853 80.26 21.424 79.9506 21.072C79.652 20.72 79.5026 20.2453 79.5026 19.648C79.5026 19.1573 79.6413 18.7093 79.9186 18.304C80.2066 17.8987 80.612 17.5787 81.1346 17.344C81.668 17.1093 82.292 16.992 83.0066 16.992C84.0626 16.992 84.9053 17.2587 85.5346 17.792C86.164 18.3147 86.5106 19.024 86.5746 19.92H84.4306C84.3986 19.568 84.2493 19.2907 83.9826 19.088C83.7266 18.8747 83.38 18.768 82.9426 18.768C82.5373 18.768 82.2226 18.8427 81.9986 18.992C81.7853 19.1413 81.6786 19.3493 81.6786 19.616C81.6786 19.9147 81.828 20.144 82.1266 20.304C82.4253 20.4533 82.8893 20.608 83.5186 20.768C84.1586 20.928 84.6866 21.0933 85.1026 21.264C85.5186 21.4347 85.876 21.7013 86.1746 22.064C86.484 22.416 86.644 22.8853 86.6546 23.472C86.6546 23.984 86.5106 24.4427 86.2226 24.848C85.9453 25.2533 85.54 25.5733 85.0066 25.808C84.484 26.032 83.8706 26.144 83.1666 26.144ZM101.09 18.288C101.09 18.8853 100.946 19.4453 100.658 19.968C100.381 20.4907 99.9379 20.912 99.3299 21.232C98.7325 21.552 97.9752 21.712 97.0579 21.712H95.1859V26H92.9459V14.832H97.0579C97.9219 14.832 98.6579 14.9813 99.2659 15.28C99.8739 15.5787 100.327 15.9893 100.626 16.512C100.935 17.0347 101.09 17.6267 101.09 18.288ZM96.9619 19.904C97.5805 19.904 98.0392 19.7653 98.3379 19.488C98.6365 19.2 98.7859 18.8 98.7859 18.288C98.7859 17.2 98.1779 16.656 96.9619 16.656H95.1859V19.904H96.9619ZM111.24 21.376C111.24 21.696 111.219 21.984 111.176 22.24H104.696C104.75 22.88 104.974 23.3813 105.368 23.744C105.763 24.1067 106.248 24.288 106.824 24.288C107.656 24.288 108.248 23.9307 108.6 23.216H111.016C110.76 24.0693 110.27 24.7733 109.544 25.328C108.819 25.872 107.928 26.144 106.872 26.144C106.019 26.144 105.251 25.9573 104.568 25.584C103.896 25.2 103.368 24.6613 102.984 23.968C102.611 23.2747 102.424 22.4747 102.424 21.568C102.424 20.6507 102.611 19.8453 102.984 19.152C103.358 18.4587 103.88 17.9253 104.552 17.552C105.224 17.1787 105.998 16.992 106.872 16.992C107.715 16.992 108.467 17.1733 109.128 17.536C109.8 17.8987 110.318 18.416 110.68 19.088C111.054 19.7493 111.24 20.512 111.24 21.376ZM108.92 20.736C108.91 20.16 108.702 19.7013 108.296 19.36C107.891 19.008 107.395 18.832 106.808 18.832C106.254 18.832 105.784 19.0027 105.4 19.344C105.027 19.6747 104.798 20.1387 104.712 20.736H108.92ZM118.107 17.008C119.163 17.008 120.017 17.344 120.667 18.016C121.318 18.6773 121.643 19.6053 121.643 20.8V26H119.403V21.104C119.403 20.4 119.227 19.8613 118.875 19.488C118.523 19.104 118.043 18.912 117.435 18.912C116.817 18.912 116.326 19.104 115.963 19.488C115.611 19.8613 115.435 20.4 115.435 21.104V26H113.195V17.136H115.435V18.24C115.734 17.856 116.113 17.5573 116.571 17.344C117.041 17.12 117.553 17.008 118.107 17.008ZM127.565 16.992C128.227 16.992 128.808 17.1253 129.309 17.392C129.811 17.648 130.205 17.984 130.493 18.4V17.136H132.749V26.064C132.749 26.8853 132.584 27.616 132.253 28.256C131.923 28.9067 131.427 29.4187 130.765 29.792C130.104 30.176 129.304 30.368 128.365 30.368C127.107 30.368 126.072 30.0747 125.261 29.488C124.461 28.9013 124.008 28.1013 123.901 27.088H126.125C126.243 27.4933 126.493 27.8133 126.877 28.048C127.272 28.2933 127.747 28.416 128.301 28.416C128.952 28.416 129.48 28.2187 129.885 27.824C130.291 27.44 130.493 26.8533 130.493 26.064V24.688C130.205 25.104 129.805 25.4507 129.293 25.728C128.792 26.0053 128.216 26.144 127.565 26.144C126.819 26.144 126.136 25.952 125.517 25.568C124.899 25.184 124.408 24.6453 124.045 23.952C123.693 23.248 123.517 22.4427 123.517 21.536C123.517 20.64 123.693 19.8453 124.045 19.152C124.408 18.4587 124.893 17.9253 125.501 17.552C126.12 17.1787 126.808 16.992 127.565 16.992ZM130.493 21.568C130.493 21.024 130.387 20.56 130.173 20.176C129.96 19.7813 129.672 19.4827 129.309 19.28C128.947 19.0667 128.557 18.96 128.141 18.96C127.725 18.96 127.341 19.0613 126.989 19.264C126.637 19.4667 126.349 19.7653 126.125 20.16C125.912 20.544 125.805 21.0027 125.805 21.536C125.805 22.0693 125.912 22.5387 126.125 22.944C126.349 23.3387 126.637 23.6427 126.989 23.856C127.352 24.0693 127.736 24.176 128.141 24.176C128.557 24.176 128.947 24.0747 129.309 23.872C129.672 23.6587 129.96 23.36 130.173 22.976C130.387 22.5813 130.493 22.112 130.493 21.568ZM138.729 16.992C139.39 16.992 139.972 17.1253 140.473 17.392C140.974 17.648 141.369 17.984 141.657 18.4V17.136H143.913V26.064C143.913 26.8853 143.748 27.616 143.417 28.256C143.086 28.9067 142.59 29.4187 141.929 29.792C141.268 30.176 140.468 30.368 139.529 30.368C138.27 30.368 137.236 30.0747 136.425 29.488C135.625 28.9013 135.172 28.1013 135.065 27.088H137.289C137.406 27.4933 137.657 27.8133 138.041 28.048C138.436 28.2933 138.91 28.416 139.465 28.416C140.116 28.416 140.644 28.2187 141.049 27.824C141.454 27.44 141.657 26.8533 141.657 26.064V24.688C141.369 25.104 140.969 25.4507 140.457 25.728C139.956 26.0053 139.38 26.144 138.729 26.144C137.982 26.144 137.3 25.952 136.681 25.568C136.062 25.184 135.572 24.6453 135.209 23.952C134.857 23.248 134.681 22.4427 134.681 21.536C134.681 20.64 134.857 19.8453 135.209 19.152C135.572 18.4587 136.057 17.9253 136.665 17.552C137.284 17.1787 137.972 16.992 138.729 16.992ZM141.657 21.568C141.657 21.024 141.55 20.56 141.337 20.176C141.124 19.7813 140.836 19.4827 140.473 19.28C140.11 19.0667 139.721 18.96 139.305 18.96C138.889 18.96 138.505 19.0613 138.153 19.264C137.801 19.4667 137.513 19.7653 137.289 20.16C137.076 20.544 136.969 21.0027 136.969 21.536C136.969 22.0693 137.076 22.5387 137.289 22.944C137.513 23.3387 137.801 23.6427 138.153 23.856C138.516 24.0693 138.9 24.176 139.305 24.176C139.721 24.176 140.11 24.0747 140.473 23.872C140.836 23.6587 141.124 23.36 141.337 22.976C141.55 22.5813 141.657 22.112 141.657 21.568ZM154.789 17.136V26H152.533V24.88C152.245 25.264 151.866 25.568 151.397 25.792C150.938 26.0053 150.437 26.112 149.893 26.112C149.2 26.112 148.586 25.968 148.053 25.68C147.52 25.3813 147.098 24.9493 146.789 24.384C146.49 23.808 146.341 23.1253 146.341 22.336V17.136H148.581V22.016C148.581 22.72 148.757 23.264 149.109 23.648C149.461 24.0213 149.941 24.208 150.549 24.208C151.168 24.208 151.653 24.0213 152.005 23.648C152.357 23.264 152.533 22.72 152.533 22.016V17.136H154.789ZM162.231 17.008C163.287 17.008 164.14 17.344 164.791 18.016C165.442 18.6773 165.767 19.6053 165.767 20.8V26H163.527V21.104C163.527 20.4 163.351 19.8613 162.999 19.488C162.647 19.104 162.167 18.912 161.559 18.912C160.94 18.912 160.45 19.104 160.087 19.488C159.735 19.8613 159.559 20.4 159.559 21.104V26H157.319V17.136H159.559V18.24C159.858 17.856 160.236 17.5573 160.695 17.344C161.164 17.12 161.676 17.008 162.231 17.008ZM167.641 21.536C167.641 20.64 167.817 19.8453 168.169 19.152C168.532 18.4587 169.017 17.9253 169.625 17.552C170.244 17.1787 170.932 16.992 171.689 16.992C172.35 16.992 172.926 17.1253 173.417 17.392C173.918 17.6587 174.318 17.9947 174.617 18.4V17.136H176.873V26H174.617V24.704C174.329 25.12 173.929 25.4667 173.417 25.744C172.916 26.0107 172.334 26.144 171.673 26.144C170.926 26.144 170.244 25.952 169.625 25.568C169.017 25.184 168.532 24.6453 168.169 23.952C167.817 23.248 167.641 22.4427 167.641 21.536ZM174.617 21.568C174.617 21.024 174.51 20.56 174.297 20.176C174.084 19.7813 173.796 19.4827 173.433 19.28C173.07 19.0667 172.681 18.96 172.265 18.96C171.849 18.96 171.465 19.0613 171.113 19.264C170.761 19.4667 170.473 19.7653 170.249 20.16C170.036 20.544 169.929 21.0027 169.929 21.536C169.929 22.0693 170.036 22.5387 170.249 22.944C170.473 23.3387 170.761 23.6427 171.113 23.856C171.476 24.0693 171.86 24.176 172.265 24.176C172.681 24.176 173.07 24.0747 173.433 23.872C173.796 23.6587 174.084 23.36 174.297 22.976C174.51 22.5813 174.617 22.112 174.617 21.568Z" fill="white"/>
<g clip-path="url(#clip0_725_235)">
<g clip-path="url(#clip1_725_235)">
<path d="M25.4693 15.6836L20.1704 20.4027L25.4161 25.1696L23.7808 26.626L16.9162 20.3879L23.8504 14.2125L25.4693 15.6836Z" fill="white"/>
</g>
</g>
<defs>
<clipPath id="clip0_725_235">
<rect width="38.4426" height="42.7324" fill="white" transform="matrix(-0.00560893 0.999984 -0.99999 -0.0045393 42.9475 11.2958)"/>
</clipPath>
<clipPath id="clip1_725_235">
<rect width="24.8275" height="27.598" fill="white" transform="matrix(-0.00560893 0.999984 -0.99999 -0.0045393 34.9531 8.05591)"/>
</clipPath>
</defs>
</svg>
