<svg width="369" height="41" viewBox="0 0 369 41" fill="none" xmlns="http://www.w3.org/2000/svg">
<path d="M9.3 19.84C10.0867 19.9867 10.7333 20.38 11.24 21.02C11.7467 21.66 12 22.3933 12 23.22C12 23.9667 11.8133 24.6267 11.44 25.2C11.08 25.76 10.5533 26.2 9.86 26.52C9.16667 26.84 8.34667 27 7.4 27H1.38V13.04H7.14C8.08667 13.04 8.9 13.1933 9.58 13.5C10.2733 13.8067 10.7933 14.2333 11.14 14.78C11.5 15.3267 11.68 15.9467 11.68 16.64C11.68 17.4533 11.46 18.1333 11.02 18.68C10.5933 19.2267 10.02 19.6133 9.3 19.84ZM4.18 18.8H6.74C7.40667 18.8 7.92 18.6533 8.28 18.36C8.64 18.0533 8.82 17.62 8.82 17.06C8.82 16.5 8.64 16.0667 8.28 15.76C7.92 15.4533 7.40667 15.3 6.74 15.3H4.18V18.8ZM7 24.72C7.68 24.72 8.20667 24.56 8.58 24.24C8.96667 23.92 9.16 23.4667 9.16 22.88C9.16 22.28 8.96 21.8133 8.56 21.48C8.16 21.1333 7.62 20.96 6.94 20.96H4.18V24.72H7ZM17.3916 13.04V21.68C17.3916 22.6267 17.6382 23.3533 18.1316 23.86C18.6249 24.3533 19.3182 24.6 20.2116 24.6C21.1182 24.6 21.8182 24.3533 22.3116 23.86C22.8049 23.3533 23.0516 22.6267 23.0516 21.68V13.04H25.8716V21.66C25.8716 22.8467 25.6116 23.8533 25.0916 24.68C24.5849 25.4933 23.8982 26.1067 23.0316 26.52C22.1782 26.9333 21.2249 27.14 20.1716 27.14C19.1316 27.14 18.1849 26.9333 17.3316 26.52C16.4916 26.1067 15.8249 25.4933 15.3316 24.68C14.8382 23.8533 14.5916 22.8467 14.5916 21.66V13.04H17.3916ZM36.8569 27L31.7769 20.78V27H28.9769V13.04H31.7769V19.3L36.8569 13.04H40.2369L34.4769 19.96L40.3969 27H36.8569ZM45.3986 13.04V21.68C45.3986 22.6267 45.6453 23.3533 46.1386 23.86C46.6319 24.3533 47.3253 24.6 48.2186 24.6C49.1253 24.6 49.8253 24.3533 50.3186 23.86C50.8119 23.3533 51.0586 22.6267 51.0586 21.68V13.04H53.8786V21.66C53.8786 22.8467 53.6186 23.8533 53.0986 24.68C52.5919 25.4933 51.9053 26.1067 51.0386 26.52C50.1853 26.9333 49.2319 27.14 48.1786 27.14C47.1386 27.14 46.1919 26.9333 45.3386 26.52C44.4986 26.1067 43.8319 25.4933 43.3386 24.68C42.8453 23.8533 42.5986 22.8467 42.5986 21.66V13.04H45.3986ZM71.6495 13.04V15.3H67.9295V27H65.1295V15.3H61.4095V13.04H71.6495ZM82.6525 24.34H77.0925L76.1725 27H73.2325L78.2525 13.02H81.5125L86.5325 27H83.5725L82.6525 24.34ZM81.8925 22.1L79.8725 16.26L77.8525 22.1H81.8925ZM104.029 13.04V27H101.229V17.92L97.4889 27H95.3689L91.6089 17.92V27H88.8089V13.04H91.9889L96.4289 23.42L100.869 13.04H104.029ZM109.957 13.04V21.68C109.957 22.6267 110.204 23.3533 110.697 23.86C111.191 24.3533 111.884 24.6 112.777 24.6C113.684 24.6 114.384 24.3533 114.877 23.86C115.371 23.3533 115.617 22.6267 115.617 21.68V13.04H118.437V21.66C118.437 22.8467 118.177 23.8533 117.657 24.68C117.151 25.4933 116.464 26.1067 115.597 26.52C114.744 26.9333 113.791 27.14 112.737 27.14C111.697 27.14 110.751 26.9333 109.897 26.52C109.057 26.1067 108.391 25.4933 107.897 24.68C107.404 23.8533 107.157 22.8467 107.157 21.66V13.04H109.957ZM131.528 27.14C130.555 27.14 129.675 26.9733 128.888 26.64C128.115 26.3067 127.501 25.8267 127.048 25.2C126.595 24.5733 126.361 23.8333 126.348 22.98H129.348C129.388 23.5533 129.588 24.0067 129.948 24.34C130.321 24.6733 130.828 24.84 131.468 24.84C132.121 24.84 132.635 24.6867 133.008 24.38C133.381 24.06 133.568 23.6467 133.568 23.14C133.568 22.7267 133.441 22.3867 133.188 22.12C132.935 21.8533 132.615 21.6467 132.228 21.5C131.855 21.34 131.335 21.1667 130.668 20.98C129.761 20.7133 129.021 20.4533 128.448 20.2C127.888 19.9333 127.401 19.54 126.988 19.02C126.588 18.4867 126.388 17.78 126.388 16.9C126.388 16.0733 126.595 15.3533 127.008 14.74C127.421 14.1267 128.001 13.66 128.748 13.34C129.495 13.0067 130.348 12.84 131.308 12.84C132.748 12.84 133.915 13.1933 134.808 13.9C135.715 14.5933 136.215 15.5667 136.308 16.82H133.228C133.201 16.34 132.995 15.9467 132.608 15.64C132.235 15.32 131.735 15.16 131.108 15.16C130.561 15.16 130.121 15.3 129.788 15.58C129.468 15.86 129.308 16.2667 129.308 16.8C129.308 17.1733 129.428 17.4867 129.668 17.74C129.921 17.98 130.228 18.18 130.588 18.34C130.961 18.4867 131.481 18.66 132.148 18.86C133.055 19.1267 133.795 19.3933 134.368 19.66C134.941 19.9267 135.435 20.3267 135.848 20.86C136.261 21.3933 136.468 22.0933 136.468 22.96C136.468 23.7067 136.275 24.4 135.888 25.04C135.501 25.68 134.935 26.1933 134.188 26.58C133.441 26.9533 132.555 27.14 131.528 27.14ZM154.516 13.04V27H151.716V17.92L147.976 27H145.856L142.096 17.92V27H139.296V13.04H142.476L146.916 23.42L151.356 13.04H154.516ZM165.564 27L160.484 20.78V27H157.684V13.04H160.484V19.3L165.564 13.04H168.944L163.184 19.96L169.104 27H165.564ZM186.011 13.04V15.3H182.291V27H179.491V15.3H175.771V13.04H186.011ZM198.754 21.22C198.754 21.62 198.728 21.98 198.674 22.3H190.574C190.641 23.1 190.921 23.7267 191.414 24.18C191.908 24.6333 192.514 24.86 193.234 24.86C194.274 24.86 195.014 24.4133 195.454 23.52H198.474C198.154 24.5867 197.541 25.4667 196.634 26.16C195.728 26.84 194.614 27.18 193.294 27.18C192.228 27.18 191.268 26.9467 190.414 26.48C189.574 26 188.914 25.3267 188.434 24.46C187.968 23.5933 187.734 22.5933 187.734 21.46C187.734 20.3133 187.968 19.3067 188.434 18.44C188.901 17.5733 189.554 16.9067 190.394 16.44C191.234 15.9733 192.201 15.74 193.294 15.74C194.348 15.74 195.288 15.9667 196.114 16.42C196.954 16.8733 197.601 17.52 198.054 18.36C198.521 19.1867 198.754 20.14 198.754 21.22ZM195.854 20.42C195.841 19.7 195.581 19.1267 195.074 18.7C194.568 18.26 193.948 18.04 193.214 18.04C192.521 18.04 191.934 18.2533 191.454 18.68C190.988 19.0933 190.701 19.6733 190.594 20.42H195.854ZM203.998 12.2V27H201.198V12.2H203.998ZM213.724 27L209.964 22.28V27H207.164V12.2H209.964V20.62L213.684 15.92H217.324L212.444 21.48L217.364 27H213.724ZM224.164 27.18C223.097 27.18 222.137 26.9467 221.284 26.48C220.431 26 219.757 25.3267 219.264 24.46C218.784 23.5933 218.544 22.5933 218.544 21.46C218.544 20.3267 218.791 19.3267 219.284 18.46C219.791 17.5933 220.477 16.9267 221.344 16.46C222.211 15.98 223.177 15.74 224.244 15.74C225.311 15.74 226.277 15.98 227.144 16.46C228.011 16.9267 228.691 17.5933 229.184 18.46C229.691 19.3267 229.944 20.3267 229.944 21.46C229.944 22.5933 229.684 23.5933 229.164 24.46C228.657 25.3267 227.964 26 227.084 26.48C226.217 26.9467 225.244 27.18 224.164 27.18ZM224.164 24.74C224.671 24.74 225.144 24.62 225.584 24.38C226.037 24.1267 226.397 23.7533 226.664 23.26C226.931 22.7667 227.064 22.1667 227.064 21.46C227.064 20.4067 226.784 19.6 226.224 19.04C225.677 18.4667 225.004 18.18 224.204 18.18C223.404 18.18 222.731 18.4667 222.184 19.04C221.651 19.6 221.384 20.4067 221.384 21.46C221.384 22.5133 221.644 23.3267 222.164 23.9C222.697 24.46 223.364 24.74 224.164 24.74ZM246.158 15.76C247.518 15.76 248.611 16.18 249.438 17.02C250.278 17.8467 250.698 19.0067 250.698 20.5V27H247.898V20.88C247.898 20.0133 247.678 19.3533 247.238 18.9C246.798 18.4333 246.198 18.2 245.438 18.2C244.678 18.2 244.071 18.4333 243.618 18.9C243.178 19.3533 242.958 20.0133 242.958 20.88V27H240.158V20.88C240.158 20.0133 239.938 19.3533 239.498 18.9C239.058 18.4333 238.458 18.2 237.698 18.2C236.925 18.2 236.311 18.4333 235.858 18.9C235.418 19.3533 235.198 20.0133 235.198 20.88V27H232.398V15.92H235.198V17.26C235.558 16.7933 236.018 16.4267 236.578 16.16C237.151 15.8933 237.778 15.76 238.458 15.76C239.325 15.76 240.098 15.9467 240.778 16.32C241.458 16.68 241.985 17.2 242.358 17.88C242.718 17.24 243.238 16.7267 243.918 16.34C244.611 15.9533 245.358 15.76 246.158 15.76ZM274.141 13.04V27H271.341V17.92L267.601 27H265.481L261.721 17.92V27H258.921V13.04H262.101L266.541 23.42L270.981 13.04H274.141ZM276.589 21.42C276.589 20.3 276.809 19.3067 277.249 18.44C277.702 17.5733 278.309 16.9067 279.069 16.44C279.842 15.9733 280.702 15.74 281.649 15.74C282.476 15.74 283.196 15.9067 283.809 16.24C284.436 16.5733 284.936 16.9933 285.309 17.5V15.92H288.129V27H285.309V25.38C284.949 25.9 284.449 26.3333 283.809 26.68C283.182 27.0133 282.456 27.18 281.629 27.18C280.696 27.18 279.842 26.94 279.069 26.46C278.309 25.98 277.702 25.3067 277.249 24.44C276.809 23.56 276.589 22.5533 276.589 21.42ZM285.309 21.46C285.309 20.78 285.176 20.2 284.909 19.72C284.642 19.2267 284.282 18.8533 283.829 18.6C283.376 18.3333 282.889 18.2 282.369 18.2C281.849 18.2 281.369 18.3267 280.929 18.58C280.489 18.8333 280.129 19.2067 279.849 19.7C279.582 20.18 279.449 20.7533 279.449 21.42C279.449 22.0867 279.582 22.6733 279.849 23.18C280.129 23.6733 280.489 24.0533 280.929 24.32C281.382 24.5867 281.862 24.72 282.369 24.72C282.889 24.72 283.376 24.5933 283.829 24.34C284.282 24.0733 284.642 23.7 284.909 23.22C285.176 22.7267 285.309 22.14 285.309 21.46ZM297.824 27L294.064 22.28V27H291.264V12.2H294.064V20.62L297.784 15.92H301.424L296.544 21.48L301.464 27H297.824ZM302.623 21.42C302.623 20.3 302.843 19.3067 303.283 18.44C303.737 17.5733 304.343 16.9067 305.103 16.44C305.877 15.9733 306.737 15.74 307.683 15.74C308.51 15.74 309.23 15.9067 309.843 16.24C310.47 16.5733 310.97 16.9933 311.343 17.5V15.92H314.163V27H311.343V25.38C310.983 25.9 310.483 26.3333 309.843 26.68C309.217 27.0133 308.49 27.18 307.663 27.18C306.73 27.18 305.877 26.94 305.103 26.46C304.343 25.98 303.737 25.3067 303.283 24.44C302.843 23.56 302.623 22.5533 302.623 21.42ZM311.343 21.46C311.343 20.78 311.21 20.2 310.943 19.72C310.677 19.2267 310.317 18.8533 309.863 18.6C309.41 18.3333 308.923 18.2 308.403 18.2C307.883 18.2 307.403 18.3267 306.963 18.58C306.523 18.8333 306.163 19.2067 305.883 19.7C305.617 20.18 305.483 20.7533 305.483 21.42C305.483 22.0867 305.617 22.6733 305.883 23.18C306.163 23.6733 306.523 24.0533 306.963 24.32C307.417 24.5867 307.897 24.72 308.403 24.72C308.923 24.72 309.41 24.5933 309.863 24.34C310.317 24.0733 310.677 23.7 310.943 23.22C311.21 22.7267 311.343 22.14 311.343 21.46ZM321.538 27.18C320.631 27.18 319.818 27.02 319.098 26.7C318.378 26.3667 317.805 25.92 317.378 25.36C316.965 24.8 316.738 24.18 316.698 23.5H319.518C319.571 23.9267 319.778 24.28 320.138 24.56C320.511 24.84 320.971 24.98 321.518 24.98C322.051 24.98 322.465 24.8733 322.758 24.66C323.065 24.4467 323.218 24.1733 323.218 23.84C323.218 23.48 323.031 23.2133 322.658 23.04C322.298 22.8533 321.718 22.6533 320.918 22.44C320.091 22.24 319.411 22.0333 318.878 21.82C318.358 21.6067 317.905 21.28 317.518 20.84C317.145 20.4 316.958 19.8067 316.958 19.06C316.958 18.4467 317.131 17.8867 317.478 17.38C317.838 16.8733 318.345 16.4733 318.998 16.18C319.665 15.8867 320.445 15.74 321.338 15.74C322.658 15.74 323.711 16.0733 324.498 16.74C325.285 17.3933 325.718 18.28 325.798 19.4H323.118C323.078 18.96 322.891 18.6133 322.558 18.36C322.238 18.0933 321.805 17.96 321.258 17.96C320.751 17.96 320.358 18.0533 320.078 18.24C319.811 18.4267 319.678 18.6867 319.678 19.02C319.678 19.3933 319.865 19.68 320.238 19.88C320.611 20.0667 321.191 20.26 321.978 20.46C322.778 20.66 323.438 20.8667 323.958 21.08C324.478 21.2933 324.925 21.6267 325.298 22.08C325.685 22.52 325.885 23.1067 325.898 23.84C325.898 24.48 325.718 25.0533 325.358 25.56C325.011 26.0667 324.505 26.4667 323.838 26.76C323.185 27.04 322.418 27.18 321.538 27.18ZM332.836 27.18C331.93 27.18 331.116 27.02 330.396 26.7C329.676 26.3667 329.103 25.92 328.676 25.36C328.263 24.8 328.036 24.18 327.996 23.5H330.816C330.87 23.9267 331.076 24.28 331.436 24.56C331.81 24.84 332.27 24.98 332.816 24.98C333.35 24.98 333.763 24.8733 334.056 24.66C334.363 24.4467 334.516 24.1733 334.516 23.84C334.516 23.48 334.33 23.2133 333.956 23.04C333.596 22.8533 333.016 22.6533 332.216 22.44C331.39 22.24 330.71 22.0333 330.176 21.82C329.656 21.6067 329.203 21.28 328.816 20.84C328.443 20.4 328.256 19.8067 328.256 19.06C328.256 18.4467 328.43 17.8867 328.776 17.38C329.136 16.8733 329.643 16.4733 330.296 16.18C330.963 15.8867 331.743 15.74 332.636 15.74C333.956 15.74 335.01 16.0733 335.796 16.74C336.583 17.3933 337.016 18.28 337.096 19.4H334.416C334.376 18.96 334.19 18.6133 333.856 18.36C333.536 18.0933 333.103 17.96 332.556 17.96C332.05 17.96 331.656 18.0533 331.376 18.24C331.11 18.4267 330.976 18.6867 330.976 19.02C330.976 19.3933 331.163 19.68 331.536 19.88C331.91 20.0667 332.49 20.26 333.276 20.46C334.076 20.66 334.736 20.8667 335.256 21.08C335.776 21.2933 336.223 21.6267 336.596 22.08C336.983 22.52 337.183 23.1067 337.196 23.84C337.196 24.48 337.016 25.0533 336.656 25.56C336.31 26.0667 335.803 26.4667 335.136 26.76C334.483 27.04 333.716 27.18 332.836 27.18ZM339.175 21.42C339.175 20.3 339.395 19.3067 339.835 18.44C340.288 17.5733 340.895 16.9067 341.655 16.44C342.428 15.9733 343.288 15.74 344.235 15.74C345.061 15.74 345.781 15.9067 346.395 16.24C347.021 16.5733 347.521 16.9933 347.895 17.5V15.92H350.715V27H347.895V25.38C347.535 25.9 347.035 26.3333 346.395 26.68C345.768 27.0133 345.041 27.18 344.215 27.18C343.281 27.18 342.428 26.94 341.655 26.46C340.895 25.98 340.288 25.3067 339.835 24.44C339.395 23.56 339.175 22.5533 339.175 21.42ZM347.895 21.46C347.895 20.78 347.761 20.2 347.495 19.72C347.228 19.2267 346.868 18.8533 346.415 18.6C345.961 18.3333 345.475 18.2 344.955 18.2C344.435 18.2 343.955 18.3267 343.515 18.58C343.075 18.8333 342.715 19.2067 342.435 19.7C342.168 20.18 342.035 20.7533 342.035 21.42C342.035 22.0867 342.168 22.6733 342.435 23.18C342.715 23.6733 343.075 24.0533 343.515 24.32C343.968 24.5867 344.448 24.72 344.955 24.72C345.475 24.72 345.961 24.5933 346.415 24.34C346.868 24.0733 347.228 23.7 347.495 23.22C347.761 22.7267 347.895 22.14 347.895 21.46ZM356.65 17.64C357.01 17.0533 357.476 16.5933 358.05 16.26C358.636 15.9267 359.303 15.76 360.05 15.76V18.7H359.31C358.43 18.7 357.763 18.9067 357.31 19.32C356.87 19.7333 356.65 20.4533 356.65 21.48V27H353.85V15.92H356.65V17.64Z" fill="black"/>
</svg>
