<svg width="128" height="17" viewBox="0 0 128 17" fill="none" xmlns="http://www.w3.org/2000/svg">
<path d="M2.024 0.879999V12H0.2V0.879999H2.024ZM8.86675 3.04C9.56008 3.04 10.1788 3.184 10.7228 3.472C11.2774 3.76 11.7094 4.18667 12.0188 4.752C12.3281 5.31733 12.4828 6 12.4828 6.8V12H10.6748V7.072C10.6748 6.28267 10.4774 5.68 10.0828 5.264C9.68808 4.83733 9.14942 4.624 8.46675 4.624C7.78408 4.624 7.24008 4.83733 6.83475 5.264C6.44008 5.68 6.24275 6.28267 6.24275 7.072V12H4.41875V3.184H6.24275V4.192C6.54142 3.82933 6.92008 3.54667 7.37875 3.344C7.84808 3.14133 8.34408 3.04 8.86675 3.04ZM18.3614 3.04C19.044 3.04 19.6467 3.17867 20.1694 3.456C20.7027 3.72267 21.1187 4.05867 21.4174 4.464V3.184H23.2574V12.144C23.2574 12.9547 23.0867 13.6747 22.7454 14.304C22.404 14.944 21.908 15.4453 21.2574 15.808C20.6174 16.1707 19.8494 16.352 18.9534 16.352C17.7587 16.352 16.7667 16.0693 15.9774 15.504C15.188 14.9493 14.74 14.192 14.6334 13.232H16.4414C16.58 13.6907 16.8734 14.0587 17.3214 14.336C17.78 14.624 18.324 14.768 18.9534 14.768C19.6894 14.768 20.2814 14.544 20.7294 14.096C21.188 13.648 21.4174 12.9973 21.4174 12.144V10.672C21.108 11.088 20.6867 11.44 20.1534 11.728C19.6307 12.0053 19.0334 12.144 18.3614 12.144C17.5934 12.144 16.8894 11.952 16.2494 11.568C15.62 11.1733 15.1187 10.6293 14.7454 9.936C14.3827 9.232 14.2014 8.43733 14.2014 7.552C14.2014 6.66667 14.3827 5.88267 14.7454 5.2C15.1187 4.51733 15.62 3.98933 16.2494 3.616C16.8894 3.232 17.5934 3.04 18.3614 3.04ZM21.4174 7.584C21.4174 6.976 21.2894 6.448 21.0334 6C20.788 5.552 20.4627 5.21067 20.0574 4.976C19.652 4.74133 19.2147 4.624 18.7454 4.624C18.276 4.624 17.8387 4.74133 17.4334 4.976C17.028 5.2 16.6974 5.536 16.4414 5.984C16.196 6.42133 16.0734 6.944 16.0734 7.552C16.0734 8.16 16.196 8.69333 16.4414 9.152C16.6974 9.61067 17.028 9.96267 17.4334 10.208C17.8494 10.4427 18.2867 10.56 18.7454 10.56C19.2147 10.56 19.652 10.4427 20.0574 10.208C20.4627 9.97333 20.788 9.632 21.0334 9.184C21.2894 8.72533 21.4174 8.192 21.4174 7.584ZM25.0451 7.552C25.0451 6.66667 25.2265 5.88267 25.5891 5.2C25.9625 4.51733 26.4638 3.98933 27.0931 3.616C27.7331 3.232 28.4371 3.04 29.2051 3.04C29.8985 3.04 30.5011 3.17867 31.0131 3.456C31.5358 3.72267 31.9518 4.05867 32.2611 4.464V3.184H34.1011V12H32.2611V10.688C31.9518 11.104 31.5305 11.4507 30.9971 11.728C30.4638 12.0053 29.8558 12.144 29.1731 12.144C28.4158 12.144 27.7225 11.952 27.0931 11.568C26.4638 11.1733 25.9625 10.6293 25.5891 9.936C25.2265 9.232 25.0451 8.43733 25.0451 7.552ZM32.2611 7.584C32.2611 6.976 32.1331 6.448 31.8771 6C31.6318 5.552 31.3065 5.21067 30.9011 4.976C30.4958 4.74133 30.0585 4.624 29.5891 4.624C29.1198 4.624 28.6825 4.74133 28.2771 4.976C27.8718 5.2 27.5411 5.536 27.2851 5.984C27.0398 6.42133 26.9171 6.944 26.9171 7.552C26.9171 8.16 27.0398 8.69333 27.2851 9.152C27.5411 9.61067 27.8718 9.96267 28.2771 10.208C28.6931 10.4427 29.1305 10.56 29.5891 10.56C30.0585 10.56 30.4958 10.4427 30.9011 10.208C31.3065 9.97333 31.6318 9.632 31.8771 9.184C32.1331 8.72533 32.2611 8.192 32.2611 7.584ZM38.6249 4.672V9.552C38.6249 9.88267 38.6995 10.1227 38.8489 10.272C39.0089 10.4107 39.2755 10.48 39.6489 10.48H40.7689V12H39.3289C38.5075 12 37.8782 11.808 37.4409 11.424C37.0035 11.04 36.7849 10.416 36.7849 9.552V4.672H35.7449V3.184H36.7849V0.992H38.6249V3.184H40.7689V4.672H38.6249ZM54.5903 3.184V12H52.7663V10.96C52.4783 11.3227 52.0996 11.6107 51.6303 11.824C51.1716 12.0267 50.6809 12.128 50.1583 12.128C49.4649 12.128 48.8409 11.984 48.2863 11.696C47.7423 11.408 47.3103 10.9813 46.9903 10.416C46.6809 9.85067 46.5263 9.168 46.5263 8.368V3.184H48.3343V8.096C48.3343 8.88533 48.5316 9.49333 48.9263 9.92C49.3209 10.336 49.8596 10.544 50.5423 10.544C51.2249 10.544 51.7636 10.336 52.1583 9.92C52.5636 9.49333 52.7663 8.88533 52.7663 8.096V3.184H54.5903ZM60.1969 12.144C59.5035 12.144 58.8795 12.0213 58.3249 11.776C57.7809 11.52 57.3489 11.1787 57.0289 10.752C56.7089 10.3147 56.5382 9.82933 56.5169 9.296H58.4049C58.4369 9.66933 58.6129 9.984 58.9329 10.24C59.2635 10.4853 59.6742 10.608 60.1649 10.608C60.6769 10.608 61.0715 10.512 61.3489 10.32C61.6369 10.1173 61.7809 9.86133 61.7809 9.552C61.7809 9.22133 61.6209 8.976 61.3009 8.816C60.9915 8.656 60.4955 8.48 59.8129 8.288C59.1515 8.10667 58.6129 7.93067 58.1969 7.76C57.7809 7.58933 57.4182 7.328 57.1089 6.976C56.8102 6.624 56.6609 6.16 56.6609 5.584C56.6609 5.11467 56.7995 4.688 57.0769 4.304C57.3542 3.90933 57.7489 3.6 58.2609 3.376C58.7835 3.152 59.3809 3.04 60.0529 3.04C61.0555 3.04 61.8609 3.296 62.4689 3.808C63.0875 4.30933 63.4182 4.99733 63.4609 5.872H61.6369C61.6049 5.47733 61.4449 5.16267 61.1569 4.928C60.8689 4.69333 60.4795 4.576 59.9889 4.576C59.5089 4.576 59.1409 4.66667 58.8849 4.848C58.6289 5.02933 58.5009 5.26933 58.5009 5.568C58.5009 5.80267 58.5862 6 58.7569 6.16C58.9275 6.32 59.1355 6.448 59.3809 6.544C59.6262 6.62933 59.9889 6.74133 60.4689 6.88C61.1089 7.05067 61.6315 7.22667 62.0369 7.408C62.4529 7.57867 62.8102 7.83467 63.1089 8.176C63.4075 8.51733 63.5622 8.97067 63.5729 9.536C63.5729 10.0373 63.4342 10.4853 63.1569 10.88C62.8795 11.2747 62.4849 11.584 61.9729 11.808C61.4715 12.032 60.8795 12.144 60.1969 12.144ZM73.6238 7.376C73.6238 7.70667 73.6024 8.00533 73.5598 8.272H66.8238C66.8771 8.976 67.1384 9.54133 67.6078 9.968C68.0771 10.3947 68.6531 10.608 69.3358 10.608C70.3171 10.608 71.0104 10.1973 71.4158 9.376H73.3837C73.1171 10.1867 72.6318 10.8533 71.9278 11.376C71.2344 11.888 70.3704 12.144 69.3358 12.144C68.4931 12.144 67.7358 11.9573 67.0638 11.584C66.4024 11.2 65.8798 10.6667 65.4958 9.984C65.1224 9.29067 64.9358 8.49067 64.9358 7.584C64.9358 6.67733 65.1171 5.88267 65.4798 5.2C65.8531 4.50667 66.3704 3.97333 67.0318 3.6C67.7038 3.22667 68.4718 3.04 69.3358 3.04C70.1678 3.04 70.9091 3.22133 71.5598 3.584C72.2104 3.94667 72.7171 4.45867 73.0798 5.12C73.4424 5.77067 73.6238 6.52267 73.6238 7.376ZM71.7198 6.8C71.7091 6.128 71.4691 5.58933 70.9998 5.184C70.5304 4.77867 69.9491 4.576 69.2558 4.576C68.6264 4.576 68.0878 4.77867 67.6398 5.184C67.1918 5.57867 66.9251 6.11733 66.8398 6.8H71.7198ZM77.2428 4.464C77.5094 4.016 77.8614 3.66933 78.2988 3.424C78.7468 3.168 79.2748 3.04 79.8828 3.04V4.928H79.4188C78.7041 4.928 78.1601 5.10933 77.7868 5.472C77.4241 5.83467 77.2428 6.464 77.2428 7.36V12H75.4188V3.184H77.2428V4.464ZM86.0074 3.04C86.7007 3.04 87.3194 3.184 87.8634 3.472C88.418 3.76 88.85 4.18667 89.1594 4.752C89.4687 5.31733 89.6234 6 89.6234 6.8V12H87.8154V7.072C87.8154 6.28267 87.618 5.68 87.2234 5.264C86.8287 4.83733 86.29 4.624 85.6074 4.624C84.9247 4.624 84.3807 4.83733 83.9754 5.264C83.5807 5.68 83.3834 6.28267 83.3834 7.072V12H81.5594V3.184H83.3834V4.192C83.682 3.82933 84.0607 3.54667 84.5194 3.344C84.9887 3.14133 85.4847 3.04 86.0074 3.04ZM91.342 7.552C91.342 6.66667 91.5233 5.88267 91.886 5.2C92.2593 4.51733 92.7607 3.98933 93.39 3.616C94.03 3.232 94.734 3.04 95.502 3.04C96.1953 3.04 96.798 3.17867 97.31 3.456C97.8327 3.72267 98.2487 4.05867 98.558 4.464V3.184H100.398V12H98.558V10.688C98.2487 11.104 97.8273 11.4507 97.294 11.728C96.7607 12.0053 96.1527 12.144 95.47 12.144C94.7127 12.144 94.0193 11.952 93.39 11.568C92.7607 11.1733 92.2593 10.6293 91.886 9.936C91.5233 9.232 91.342 8.43733 91.342 7.552ZM98.558 7.584C98.558 6.976 98.43 6.448 98.174 6C97.9287 5.552 97.6033 5.21067 97.198 4.976C96.7927 4.74133 96.3553 4.624 95.886 4.624C95.4167 4.624 94.9793 4.74133 94.574 4.976C94.1687 5.2 93.838 5.536 93.582 5.984C93.3367 6.42133 93.214 6.944 93.214 7.552C93.214 8.16 93.3367 8.69333 93.582 9.152C93.838 9.61067 94.1687 9.96267 94.574 10.208C94.99 10.4427 95.4273 10.56 95.886 10.56C96.3553 10.56 96.7927 10.4427 97.198 10.208C97.6033 9.97333 97.9287 9.632 98.174 9.184C98.43 8.72533 98.558 8.192 98.558 7.584ZM113.466 3.04C114.159 3.04 114.778 3.184 115.322 3.472C115.876 3.76 116.308 4.18667 116.618 4.752C116.938 5.31733 117.098 6 117.098 6.8V12H115.29V7.072C115.29 6.28267 115.092 5.68 114.698 5.264C114.303 4.83733 113.764 4.624 113.082 4.624C112.399 4.624 111.855 4.83733 111.45 5.264C111.055 5.68 110.858 6.28267 110.858 7.072V12H109.05V7.072C109.05 6.28267 108.852 5.68 108.458 5.264C108.063 4.83733 107.524 4.624 106.842 4.624C106.159 4.624 105.615 4.83733 105.21 5.264C104.815 5.68 104.618 6.28267 104.618 7.072V12H102.794V3.184H104.618V4.192C104.916 3.82933 105.295 3.54667 105.754 3.344C106.212 3.14133 106.703 3.04 107.226 3.04C107.93 3.04 108.559 3.18933 109.114 3.488C109.668 3.78667 110.095 4.21867 110.394 4.784C110.66 4.25067 111.076 3.82933 111.642 3.52C112.207 3.2 112.815 3.04 113.466 3.04ZM127.499 7.376C127.499 7.70667 127.477 8.00533 127.435 8.272H120.699C120.752 8.976 121.013 9.54133 121.483 9.968C121.952 10.3947 122.528 10.608 123.211 10.608C124.192 10.608 124.885 10.1973 125.291 9.376H127.259C126.992 10.1867 126.507 10.8533 125.803 11.376C125.109 11.888 124.245 12.144 123.211 12.144C122.368 12.144 121.611 11.9573 120.939 11.584C120.277 11.2 119.755 10.6667 119.371 9.984C118.997 9.29067 118.811 8.49067 118.811 7.584C118.811 6.67733 118.992 5.88267 119.355 5.2C119.728 4.50667 120.245 3.97333 120.907 3.6C121.579 3.22667 122.347 3.04 123.211 3.04C124.043 3.04 124.784 3.22133 125.435 3.584C126.085 3.94667 126.592 4.45867 126.955 5.12C127.317 5.77067 127.499 6.52267 127.499 7.376ZM125.595 6.8C125.584 6.128 125.344 5.58933 124.875 5.184C124.405 4.77867 123.824 4.576 123.131 4.576C122.501 4.576 121.963 4.77867 121.515 5.184C121.067 5.57867 120.8 6.11733 120.715 6.8H125.595Z" fill="black" fill-opacity="0.5"/>
</svg>
