<svg width="54" height="12" viewBox="0 0 54 12" fill="none" xmlns="http://www.w3.org/2000/svg">
<path d="M1.646 1.27V11H0.05V1.27H1.646ZM7.63341 3.16C8.24007 3.16 8.78141 3.286 9.25741 3.538C9.74274 3.79 10.1207 4.16333 10.3914 4.658C10.6621 5.15267 10.7974 5.75 10.7974 6.45V11H9.21541V6.688C9.21541 5.99733 9.04274 5.47 8.69741 5.106C8.35207 4.73267 7.88074 4.546 7.28341 4.546C6.68607 4.546 6.21007 4.73267 5.85541 5.106C5.51007 5.47 5.33741 5.99733 5.33741 6.688V11H3.74141V3.286H5.33741V4.168C5.59874 3.85067 5.93007 3.60333 6.33141 3.426C6.74207 3.24867 7.17607 3.16 7.63341 3.16ZM15.6332 11.126C15.0265 11.126 14.4805 11.0187 13.9952 10.804C13.5192 10.58 13.1412 10.2813 12.8612 9.908C12.5812 9.52533 12.4319 9.10067 12.4132 8.634H14.0652C14.0932 8.96067 14.2472 9.236 14.5272 9.46C14.8165 9.67467 15.1759 9.782 15.6052 9.782C16.0532 9.782 16.3985 9.698 16.6412 9.53C16.8932 9.35267 17.0192 9.12867 17.0192 8.858C17.0192 8.56867 16.8792 8.354 16.5992 8.214C16.3285 8.074 15.8945 7.92 15.2972 7.752C14.7185 7.59333 14.2472 7.43933 13.8832 7.29C13.5192 7.14067 13.2019 6.912 12.9312 6.604C12.6699 6.296 12.5392 5.89 12.5392 5.386C12.5392 4.97533 12.6605 4.602 12.9032 4.266C13.1459 3.92067 13.4912 3.65 13.9392 3.454C14.3965 3.258 14.9192 3.16 15.5072 3.16C16.3845 3.16 17.0892 3.384 17.6212 3.832C18.1625 4.27067 18.4519 4.87267 18.4892 5.638H16.8932C16.8652 5.29267 16.7252 5.01733 16.4732 4.812C16.2212 4.60667 15.8805 4.504 15.4512 4.504C15.0312 4.504 14.7092 4.58333 14.4852 4.742C14.2612 4.90067 14.1492 5.11067 14.1492 5.372C14.1492 5.57733 14.2239 5.75 14.3732 5.89C14.5225 6.03 14.7045 6.142 14.9192 6.226C15.1339 6.30067 15.4512 6.39867 15.8712 6.52C16.4312 6.66933 16.8885 6.82333 17.2432 6.982C17.6072 7.13133 17.9199 7.35533 18.1812 7.654C18.4425 7.95267 18.5779 8.34933 18.5872 8.844C18.5872 9.28267 18.4659 9.67467 18.2232 10.02C17.9805 10.3653 17.6352 10.636 17.1872 10.832C16.7485 11.028 16.2305 11.126 15.6332 11.126ZM22.1737 4.588V8.858C22.1737 9.14733 22.2391 9.35733 22.3697 9.488C22.5097 9.60933 22.7431 9.67 23.0697 9.67H24.0497V11H22.7897C22.0711 11 21.5204 10.832 21.1377 10.496C20.7551 10.16 20.5637 9.614 20.5637 8.858V4.588H19.6537V3.286H20.5637V1.368H22.1737V3.286H24.0497V4.588H22.1737ZM24.9887 7.108C24.9887 6.33333 25.1474 5.64733 25.4647 5.05C25.7914 4.45267 26.23 3.99067 26.7807 3.664C27.3407 3.328 27.9567 3.16 28.6287 3.16C29.2354 3.16 29.7627 3.28133 30.2107 3.524C30.668 3.75733 31.032 4.05133 31.3027 4.406V3.286H32.9127V11H31.3027V9.852C31.032 10.216 30.6634 10.5193 30.1967 10.762C29.73 11.0047 29.198 11.126 28.6007 11.126C27.938 11.126 27.3314 10.958 26.7807 10.622C26.23 10.2767 25.7914 9.80067 25.4647 9.194C25.1474 8.578 24.9887 7.88267 24.9887 7.108ZM31.3027 7.136C31.3027 6.604 31.1907 6.142 30.9667 5.75C30.752 5.358 30.4674 5.05933 30.1127 4.854C29.758 4.64867 29.3754 4.546 28.9647 4.546C28.554 4.546 28.1714 4.64867 27.8167 4.854C27.462 5.05 27.1727 5.344 26.9487 5.736C26.734 6.11867 26.6267 6.576 26.6267 7.108C26.6267 7.64 26.734 8.10667 26.9487 8.508C27.1727 8.90933 27.462 9.21733 27.8167 9.432C28.1807 9.63733 28.5634 9.74 28.9647 9.74C29.3754 9.74 29.758 9.63733 30.1127 9.432C30.4674 9.22667 30.752 8.928 30.9667 8.536C31.1907 8.13467 31.3027 7.668 31.3027 7.136ZM38.901 3.16C39.5077 3.16 40.049 3.286 40.525 3.538C41.0103 3.79 41.3883 4.16333 41.659 4.658C41.9297 5.15267 42.065 5.75 42.065 6.45V11H40.483V6.688C40.483 5.99733 40.3103 5.47 39.965 5.106C39.6197 4.73267 39.1483 4.546 38.551 4.546C37.9537 4.546 37.4777 4.73267 37.123 5.106C36.7777 5.47 36.605 5.99733 36.605 6.688V11H35.009V3.286H36.605V4.168C36.8663 3.85067 37.1977 3.60333 37.599 3.426C38.0097 3.24867 38.4437 3.16 38.901 3.16ZM46.9008 11.126C46.2941 11.126 45.7481 11.0187 45.2628 10.804C44.7868 10.58 44.4088 10.2813 44.1288 9.908C43.8488 9.52533 43.6994 9.10067 43.6808 8.634H45.3328C45.3608 8.96067 45.5148 9.236 45.7948 9.46C46.0841 9.67467 46.4434 9.782 46.8728 9.782C47.3208 9.782 47.6661 9.698 47.9088 9.53C48.1608 9.35267 48.2868 9.12867 48.2868 8.858C48.2868 8.56867 48.1468 8.354 47.8668 8.214C47.5961 8.074 47.1621 7.92 46.5648 7.752C45.9861 7.59333 45.5148 7.43933 45.1508 7.29C44.7868 7.14067 44.4694 6.912 44.1988 6.604C43.9374 6.296 43.8068 5.89 43.8068 5.386C43.8068 4.97533 43.9281 4.602 44.1708 4.266C44.4134 3.92067 44.7588 3.65 45.2068 3.454C45.6641 3.258 46.1868 3.16 46.7748 3.16C47.6521 3.16 48.3568 3.384 48.8888 3.832C49.4301 4.27067 49.7194 4.87267 49.7568 5.638H48.1608C48.1328 5.29267 47.9928 5.01733 47.7408 4.812C47.4888 4.60667 47.1481 4.504 46.7188 4.504C46.2988 4.504 45.9768 4.58333 45.7528 4.742C45.5288 4.90067 45.4168 5.11067 45.4168 5.372C45.4168 5.57733 45.4914 5.75 45.6408 5.89C45.7901 6.03 45.9721 6.142 46.1868 6.226C46.4014 6.30067 46.7188 6.39867 47.1388 6.52C47.6988 6.66933 48.1561 6.82333 48.5108 6.982C48.8748 7.13133 49.1874 7.35533 49.4488 7.654C49.7101 7.95267 49.8454 8.34933 49.8548 8.844C49.8548 9.28267 49.7334 9.67467 49.4908 10.02C49.2481 10.3653 48.9028 10.636 48.4548 10.832C48.0161 11.028 47.4981 11.126 46.9008 11.126ZM52.3913 2.264C52.102 2.264 51.8593 2.166 51.6633 1.97C51.4673 1.774 51.3693 1.53133 51.3693 1.242C51.3693 0.952666 51.4673 0.71 51.6633 0.514C51.8593 0.318 52.102 0.219999 52.3913 0.219999C52.6713 0.219999 52.9093 0.318 53.1053 0.514C53.3013 0.71 53.3993 0.952666 53.3993 1.242C53.3993 1.53133 53.3013 1.774 53.1053 1.97C52.9093 2.166 52.6713 2.264 52.3913 2.264ZM53.1753 3.286V11H51.5793V3.286H53.1753Z" fill="black"/>
</svg>
