<svg width="71" height="14" viewBox="0 0 71 14" fill="none" xmlns="http://www.w3.org/2000/svg">
<path d="M0.518 5.114C0.518 4.162 0.737333 3.308 1.176 2.552C1.624 1.796 2.226 1.208 2.982 0.787999C3.74733 0.358666 4.58267 0.143999 5.488 0.143999C6.524 0.143999 7.44333 0.400666 8.246 0.913999C9.058 1.418 9.646 2.13667 10.01 3.07H8.092C7.84 2.55667 7.49 2.174 7.042 1.922C6.594 1.67 6.076 1.544 5.488 1.544C4.844 1.544 4.27 1.68867 3.766 1.978C3.262 2.26733 2.86533 2.68267 2.576 3.224C2.296 3.76533 2.156 4.39533 2.156 5.114C2.156 5.83267 2.296 6.46267 2.576 7.004C2.86533 7.54533 3.262 7.96533 3.766 8.264C4.27 8.55333 4.844 8.698 5.488 8.698C6.076 8.698 6.594 8.572 7.042 8.32C7.49 8.068 7.84 7.68533 8.092 7.172H10.01C9.646 8.10533 9.058 8.824 8.246 9.328C7.44333 9.832 6.524 10.084 5.488 10.084C4.57333 10.084 3.738 9.874 2.982 9.454C2.226 9.02467 1.624 8.432 1.176 7.676C0.737333 6.92 0.518 6.066 0.518 5.114ZM15.2241 10.126C14.4961 10.126 13.8381 9.96267 13.2501 9.636C12.6621 9.3 12.2001 8.83333 11.8641 8.236C11.5281 7.62933 11.3601 6.92933 11.3601 6.136C11.3601 5.352 11.5328 4.65667 11.8781 4.05C12.2235 3.44333 12.6948 2.97667 13.2921 2.65C13.8895 2.32333 14.5568 2.16 15.2941 2.16C16.0315 2.16 16.6988 2.32333 17.2961 2.65C17.8935 2.97667 18.3648 3.44333 18.7101 4.05C19.0555 4.65667 19.2281 5.352 19.2281 6.136C19.2281 6.92 19.0508 7.61533 18.6961 8.222C18.3415 8.82867 17.8561 9.3 17.2401 9.636C16.6335 9.96267 15.9615 10.126 15.2241 10.126ZM15.2241 8.74C15.6348 8.74 16.0175 8.642 16.3721 8.446C16.7361 8.25 17.0301 7.956 17.2541 7.564C17.4781 7.172 17.5901 6.696 17.5901 6.136C17.5901 5.576 17.4828 5.10467 17.2681 4.722C17.0535 4.33 16.7688 4.036 16.4141 3.84C16.0595 3.644 15.6768 3.546 15.2661 3.546C14.8555 3.546 14.4728 3.644 14.1181 3.84C13.7728 4.036 13.4975 4.33 13.2921 4.722C13.0868 5.10467 12.9841 5.576 12.9841 6.136C12.9841 6.96667 13.1941 7.61067 13.6141 8.068C14.0435 8.516 14.5801 8.74 15.2241 8.74ZM30.1439 2.16C30.7505 2.16 31.2919 2.286 31.7679 2.538C32.2532 2.79 32.6312 3.16333 32.9019 3.658C33.1819 4.15267 33.3219 4.75 33.3219 5.45V10H31.7399V5.688C31.7399 4.99733 31.5672 4.47 31.2219 4.106C30.8765 3.73267 30.4052 3.546 29.8079 3.546C29.2105 3.546 28.7345 3.73267 28.3799 4.106C28.0345 4.47 27.8619 4.99733 27.8619 5.688V10H26.2799V5.688C26.2799 4.99733 26.1072 4.47 25.7619 4.106C25.4165 3.73267 24.9452 3.546 24.3479 3.546C23.7505 3.546 23.2745 3.73267 22.9199 4.106C22.5745 4.47 22.4019 4.99733 22.4019 5.688V10H20.8059V2.286H22.4019V3.168C22.6632 2.85067 22.9945 2.60333 23.3959 2.426C23.7972 2.24867 24.2265 2.16 24.6839 2.16C25.2999 2.16 25.8505 2.29067 26.3359 2.552C26.8212 2.81333 27.1945 3.19133 27.4559 3.686C27.6892 3.21933 28.0532 2.85067 28.5479 2.58C29.0425 2.3 29.5745 2.16 30.1439 2.16ZM36.9487 3.42C37.2194 3.06533 37.5881 2.76667 38.0547 2.524C38.5214 2.28133 39.0487 2.16 39.6367 2.16C40.3087 2.16 40.9201 2.328 41.4707 2.664C42.0307 2.99067 42.4694 3.45267 42.7867 4.05C43.1041 4.64733 43.2627 5.33333 43.2627 6.108C43.2627 6.88267 43.1041 7.578 42.7867 8.194C42.4694 8.80067 42.0307 9.27667 41.4707 9.622C40.9201 9.958 40.3087 10.126 39.6367 10.126C39.0487 10.126 38.5261 10.0093 38.0687 9.776C37.6114 9.53333 37.2381 9.23467 36.9487 8.88V13.668H35.3527V2.286H36.9487V3.42ZM41.6387 6.108C41.6387 5.576 41.5267 5.11867 41.3027 4.736C41.0881 4.344 40.7987 4.05 40.4347 3.854C40.0801 3.64867 39.6974 3.546 39.2867 3.546C38.8854 3.546 38.5027 3.64867 38.1387 3.854C37.7841 4.05933 37.4947 4.358 37.2707 4.75C37.0561 5.142 36.9487 5.604 36.9487 6.136C36.9487 6.668 37.0561 7.13467 37.2707 7.536C37.4947 7.928 37.7841 8.22667 38.1387 8.432C38.5027 8.63733 38.8854 8.74 39.2867 8.74C39.6974 8.74 40.0801 8.63733 40.4347 8.432C40.7987 8.21733 41.0881 7.90933 41.3027 7.508C41.5267 7.10667 41.6387 6.64 41.6387 6.108ZM44.309 6.108C44.309 5.33333 44.4677 4.64733 44.785 4.05C45.1117 3.45267 45.5503 2.99067 46.101 2.664C46.661 2.328 47.277 2.16 47.949 2.16C48.5557 2.16 49.083 2.28133 49.531 2.524C49.9883 2.75733 50.3523 3.05133 50.623 3.406V2.286H52.233V10H50.623V8.852C50.3523 9.216 49.9837 9.51933 49.517 9.762C49.0503 10.0047 48.5183 10.126 47.921 10.126C47.2583 10.126 46.6517 9.958 46.101 9.622C45.5503 9.27667 45.1117 8.80067 44.785 8.194C44.4677 7.578 44.309 6.88267 44.309 6.108ZM50.623 6.136C50.623 5.604 50.511 5.142 50.287 4.75C50.0723 4.358 49.7877 4.05933 49.433 3.854C49.0783 3.64867 48.6957 3.546 48.285 3.546C47.8743 3.546 47.4917 3.64867 47.137 3.854C46.7823 4.05 46.493 4.344 46.269 4.736C46.0543 5.11867 45.947 5.576 45.947 6.108C45.947 6.64 46.0543 7.10667 46.269 7.508C46.493 7.90933 46.7823 8.21733 47.137 8.432C47.501 8.63733 47.8837 8.74 48.285 8.74C48.6957 8.74 49.0783 8.63733 49.433 8.432C49.7877 8.22667 50.0723 7.928 50.287 7.536C50.511 7.13467 50.623 6.668 50.623 6.136ZM58.2213 2.16C58.828 2.16 59.3693 2.286 59.8453 2.538C60.3306 2.79 60.7086 3.16333 60.9793 3.658C61.25 4.15267 61.3853 4.75 61.3853 5.45V10H59.8033V5.688C59.8033 4.99733 59.6306 4.47 59.2853 4.106C58.94 3.73267 58.4686 3.546 57.8713 3.546C57.274 3.546 56.798 3.73267 56.4433 4.106C56.098 4.47 55.9253 4.99733 55.9253 5.688V10H54.3293V2.286H55.9253V3.168C56.1866 2.85067 56.518 2.60333 56.9193 2.426C57.33 2.24867 57.764 2.16 58.2213 2.16ZM70.3651 2.286L65.6331 13.626H63.9811L65.5491 9.874L62.5111 2.286H64.2891L66.4591 8.166L68.7131 2.286H70.3651Z" fill="black"/>
</svg>
