<svg width="287" height="56" viewBox="0 0 287 56" fill="none" xmlns="http://www.w3.org/2000/svg">
<path d="M67.008 21.832C68.1813 21.832 69.2107 22.0613 70.096 22.52C70.992 22.9787 71.68 23.6347 72.16 24.488C72.6507 25.3307 72.896 26.312 72.896 27.432C72.896 28.552 72.6507 29.5333 72.16 30.376C71.68 31.208 70.992 31.8533 70.096 32.312C69.2107 32.7707 68.1813 33 67.008 33H63.104V21.832H67.008ZM66.928 31.096C68.1013 31.096 69.008 30.776 69.648 30.136C70.288 29.496 70.608 28.5947 70.608 27.432C70.608 26.2693 70.288 25.3627 69.648 24.712C69.008 24.0507 68.1013 23.72 66.928 23.72H65.344V31.096H66.928ZM74.3167 28.536C74.3167 27.64 74.4927 26.8453 74.8447 26.152C75.2074 25.4587 75.6927 24.9253 76.3007 24.552C76.9194 24.1787 77.6074 23.992 78.3647 23.992C79.0261 23.992 79.6021 24.1253 80.0928 24.392C80.5941 24.6587 80.9941 24.9947 81.2927 25.4V24.136H83.5487V33H81.2927V31.704C81.0048 32.12 80.6048 32.4667 80.0928 32.744C79.5914 33.0107 79.0101 33.144 78.3488 33.144C77.6021 33.144 76.9194 32.952 76.3007 32.568C75.6927 32.184 75.2074 31.6453 74.8447 30.952C74.4927 30.248 74.3167 29.4427 74.3167 28.536ZM81.2927 28.568C81.2927 28.024 81.1861 27.56 80.9728 27.176C80.7594 26.7813 80.4714 26.4827 80.1087 26.28C79.7461 26.0667 79.3568 25.96 78.9408 25.96C78.5248 25.96 78.1407 26.0613 77.7887 26.264C77.4367 26.4667 77.1487 26.7653 76.9247 27.16C76.7114 27.544 76.6047 28.0027 76.6047 28.536C76.6047 29.0693 76.7114 29.5387 76.9247 29.944C77.1487 30.3387 77.4367 30.6427 77.7887 30.856C78.1514 31.0693 78.5354 31.176 78.9408 31.176C79.3568 31.176 79.7461 31.0747 80.1087 30.872C80.4714 30.6587 80.7594 30.36 80.9728 29.976C81.1861 29.5813 81.2927 29.112 81.2927 28.568ZM90.1205 25.976H88.5685V33H86.2965V25.976H85.2885V24.136H86.2965V23.688C86.2965 22.6 86.6058 21.8 87.2245 21.288C87.8432 20.776 88.7765 20.536 90.0245 20.568V22.456C89.4805 22.4453 89.1018 22.536 88.8885 22.728C88.6752 22.92 88.5685 23.2667 88.5685 23.768V24.136H90.1205V25.976ZM94.5001 25.976V30.264C94.5001 30.5627 94.5695 30.7813 94.7081 30.92C94.8575 31.048 95.1028 31.112 95.4441 31.112H96.4841V33H95.0761C93.1881 33 92.2441 32.0827 92.2441 30.248V25.976H91.1881V24.136H92.2441V21.944H94.5001V24.136H96.4841V25.976H94.5001ZM97.8392 28.536C97.8392 27.64 98.0152 26.8453 98.3672 26.152C98.7299 25.4587 99.2152 24.9253 99.8232 24.552C100.442 24.1787 101.13 23.992 101.887 23.992C102.549 23.992 103.125 24.1253 103.615 24.392C104.117 24.6587 104.517 24.9947 104.815 25.4V24.136H107.071V33H104.815V31.704C104.527 32.12 104.127 32.4667 103.615 32.744C103.114 33.0107 102.533 33.144 101.871 33.144C101.125 33.144 100.442 32.952 99.8232 32.568C99.2152 32.184 98.7299 31.6453 98.3672 30.952C98.0152 30.248 97.8392 29.4427 97.8392 28.536ZM104.815 28.568C104.815 28.024 104.709 27.56 104.495 27.176C104.282 26.7813 103.994 26.4827 103.631 26.28C103.269 26.0667 102.879 25.96 102.463 25.96C102.047 25.96 101.663 26.0613 101.311 26.264C100.959 26.4667 100.671 26.7653 100.447 27.16C100.234 27.544 100.127 28.0027 100.127 28.536C100.127 29.0693 100.234 29.5387 100.447 29.944C100.671 30.3387 100.959 30.6427 101.311 30.856C101.674 31.0693 102.058 31.176 102.463 31.176C102.879 31.176 103.269 31.0747 103.631 30.872C103.994 30.6587 104.282 30.36 104.495 29.976C104.709 29.5813 104.815 29.112 104.815 28.568ZM111.819 25.512C112.107 25.0427 112.48 24.6747 112.939 24.408C113.408 24.1413 113.942 24.008 114.539 24.008V26.36H113.947C113.243 26.36 112.71 26.5253 112.347 26.856C111.995 27.1867 111.819 27.7627 111.819 28.584V33H109.579V24.136H111.819V25.512ZM128.1 21.832V23.64H125.124V33H122.884V23.64H119.908V21.832H128.1ZM129.479 28.536C129.479 27.64 129.655 26.8453 130.007 26.152C130.369 25.4587 130.855 24.9253 131.463 24.552C132.081 24.1787 132.769 23.992 133.527 23.992C134.188 23.992 134.764 24.1253 135.255 24.392C135.756 24.6587 136.156 24.9947 136.455 25.4V24.136H138.711V33H136.455V31.704C136.167 32.12 135.767 32.4667 135.255 32.744C134.753 33.0107 134.172 33.144 133.511 33.144C132.764 33.144 132.081 32.952 131.463 32.568C130.855 32.184 130.369 31.6453 130.007 30.952C129.655 30.248 129.479 29.4427 129.479 28.536ZM136.455 28.568C136.455 28.024 136.348 27.56 136.135 27.176C135.921 26.7813 135.633 26.4827 135.271 26.28C134.908 26.0667 134.519 25.96 134.103 25.96C133.687 25.96 133.303 26.0613 132.951 26.264C132.599 26.4667 132.311 26.7653 132.087 27.16C131.873 27.544 131.767 28.0027 131.767 28.536C131.767 29.0693 131.873 29.5387 132.087 29.944C132.311 30.3387 132.599 30.6427 132.951 30.856C133.313 31.0693 133.697 31.176 134.103 31.176C134.519 31.176 134.908 31.0747 135.271 30.872C135.633 30.6587 135.921 30.36 136.135 29.976C136.348 29.5813 136.455 29.112 136.455 28.568ZM152.226 24.008C153.314 24.008 154.189 24.344 154.85 25.016C155.522 25.6773 155.858 26.6053 155.858 27.8V33H153.618V28.104C153.618 27.4107 153.442 26.8827 153.09 26.52C152.738 26.1467 152.258 25.96 151.65 25.96C151.042 25.96 150.557 26.1467 150.194 26.52C149.842 26.8827 149.666 27.4107 149.666 28.104V33H147.426V28.104C147.426 27.4107 147.25 26.8827 146.898 26.52C146.546 26.1467 146.066 25.96 145.458 25.96C144.84 25.96 144.349 26.1467 143.986 26.52C143.634 26.8827 143.458 27.4107 143.458 28.104V33H141.218V24.136H143.458V25.208C143.746 24.8347 144.114 24.5413 144.562 24.328C145.021 24.1147 145.522 24.008 146.066 24.008C146.76 24.008 147.378 24.1573 147.922 24.456C148.466 24.744 148.888 25.16 149.186 25.704C149.474 25.192 149.89 24.7813 150.434 24.472C150.989 24.1627 151.586 24.008 152.226 24.008ZM166.672 24.136V33H164.416V31.88C164.128 32.264 163.749 32.568 163.28 32.792C162.821 33.0053 162.32 33.112 161.776 33.112C161.083 33.112 160.469 32.968 159.936 32.68C159.403 32.3813 158.981 31.9493 158.672 31.384C158.373 30.808 158.224 30.1253 158.224 29.336V24.136H160.464V29.016C160.464 29.72 160.64 30.264 160.992 30.648C161.344 31.0213 161.824 31.208 162.432 31.208C163.051 31.208 163.536 31.0213 163.888 30.648C164.24 30.264 164.416 29.72 164.416 29.016V24.136H166.672Z" fill="black"/>
<path d="M189 24.7C187.674 24.7 186.6 25.6849 186.6 26.9C186.6 28.115 187.674 29.1 189 29.1C190.325 29.1 191.4 28.115 191.4 26.9C191.4 25.6849 190.325 24.7 189 24.7Z" fill="#212121"/>
<path d="M186.265 30.2C185.53 30.2 184.692 30.656 184.668 31.517C184.652 32.0848 184.781 32.8819 185.458 33.535C186.137 34.1911 187.264 34.6 189 34.6C190.736 34.6 191.863 34.1911 192.542 33.535C193.219 32.8819 193.348 32.0848 193.332 31.517C193.309 30.656 192.47 30.2 191.735 30.2H186.265Z" fill="#212121"/>
<path d="M187.8 19.2C186.475 19.2 185.4 20.1849 185.4 21.4H183.6C182.606 21.4 181.8 22.1387 181.8 23.05V35.15C181.8 36.0612 182.606 36.7999 183.6 36.7999H194.4C195.394 36.7999 196.2 36.0612 196.2 35.15V23.05C196.2 22.1387 195.394 21.4 194.4 21.4H192.6C192.6 20.1849 191.526 19.2 190.2 19.2H187.8ZM192.279 22.5H194.4C194.731 22.5 195 22.7462 195 23.05V35.15C195 35.4537 194.731 35.6999 194.4 35.6999H183.6C183.269 35.6999 183 35.4537 183 35.15V23.05C183 22.7462 183.269 22.5 183.6 22.5H185.721C186.136 23.1575 186.912 23.6 187.8 23.6H190.2C191.088 23.6 191.864 23.1575 192.279 22.5ZM186.6 21.4C186.6 20.7924 187.137 20.3 187.8 20.3H190.2C190.863 20.3 191.4 20.7924 191.4 21.4C191.4 22.0075 190.863 22.5 190.2 22.5H187.8C187.137 22.5 186.6 22.0075 186.6 21.4Z" fill="#212121"/>
<g clip-path="url(#clip0_298_41)">
<g clip-path="url(#clip1_298_41)">
<path d="M49.3118 21.6836L44.0129 26.4027L49.2586 31.1696L47.6233 32.626L40.7586 26.3879L47.6929 20.2125L49.3118 21.6836Z" fill="black"/>
</g>
</g>
<defs>
<clipPath id="clip0_298_41">
<rect width="38.4426" height="42.7324" fill="white" transform="matrix(-0.00560893 0.999984 -0.99999 -0.0045393 66.7898 17.2958)"/>
</clipPath>
<clipPath id="clip1_298_41">
<rect width="24.8275" height="27.598" fill="white" transform="matrix(-0.00560893 0.999984 -0.99999 -0.0045393 58.7955 14.0559)"/>
</clipPath>
</defs>
</svg>
