<svg width="178" height="49" viewBox="0 0 178 49" fill="none" xmlns="http://www.w3.org/2000/svg">
<path d="M43.1658 14.832C44.3391 14.832 45.3684 15.0613 46.2538 15.52C47.1498 15.9787 47.8378 16.6347 48.3178 17.488C48.8084 18.3307 49.0538 19.312 49.0538 20.432C49.0538 21.552 48.8084 22.5333 48.3178 23.376C47.8378 24.208 47.1498 24.8533 46.2538 25.312C45.3684 25.7707 44.3391 26 43.1658 26H39.2618V14.832H43.1658ZM43.0858 24.096C44.2591 24.096 45.1658 23.776 45.8058 23.136C46.4458 22.496 46.7658 21.5947 46.7658 20.432C46.7658 19.2693 46.4458 18.3627 45.8058 17.712C45.1658 17.0507 44.2591 16.72 43.0858 16.72H41.5018V24.096H43.0858ZM50.4745 21.536C50.4745 20.64 50.6505 19.8453 51.0025 19.152C51.3652 18.4587 51.8505 17.9253 52.4585 17.552C53.0772 17.1787 53.7652 16.992 54.5225 16.992C55.1839 16.992 55.7599 17.1253 56.2505 17.392C56.7519 17.6587 57.1519 17.9947 57.4505 18.4V17.136H59.7065V26H57.4505V24.704C57.1625 25.12 56.7625 25.4667 56.2505 25.744C55.7492 26.0107 55.1679 26.144 54.5065 26.144C53.7599 26.144 53.0772 25.952 52.4585 25.568C51.8505 25.184 51.3652 24.6453 51.0025 23.952C50.6505 23.248 50.4745 22.4427 50.4745 21.536ZM57.4505 21.568C57.4505 21.024 57.3439 20.56 57.1305 20.176C56.9172 19.7813 56.6292 19.4827 56.2665 19.28C55.9039 19.0667 55.5145 18.96 55.0985 18.96C54.6825 18.96 54.2985 19.0613 53.9465 19.264C53.5945 19.4667 53.3065 19.7653 53.0825 20.16C52.8692 20.544 52.7625 21.0027 52.7625 21.536C52.7625 22.0693 52.8692 22.5387 53.0825 22.944C53.3065 23.3387 53.5945 23.6427 53.9465 23.856C54.3092 24.0693 54.6932 24.176 55.0985 24.176C55.5145 24.176 55.9039 24.0747 56.2665 23.872C56.6292 23.6587 56.9172 23.36 57.1305 22.976C57.3439 22.5813 57.4505 22.112 57.4505 21.568ZM66.2783 18.976H64.7263V26H62.4543V18.976H61.4463V17.136H62.4543V16.688C62.4543 15.6 62.7636 14.8 63.3823 14.288C64.0009 13.776 64.9343 13.536 66.1823 13.568V15.456C65.6383 15.4453 65.2596 15.536 65.0463 15.728C64.8329 15.92 64.7263 16.2667 64.7263 16.768V17.136H66.2783V18.976ZM70.6579 18.976V23.264C70.6579 23.5627 70.7272 23.7813 70.8659 23.92C71.0152 24.048 71.2606 24.112 71.6019 24.112H72.6419V26H71.2339C69.3459 26 68.4019 25.0827 68.4019 23.248V18.976H67.3459V17.136H68.4019V14.944H70.6579V17.136H72.6419V18.976H70.6579ZM73.997 21.536C73.997 20.64 74.173 19.8453 74.525 19.152C74.8877 18.4587 75.373 17.9253 75.981 17.552C76.5997 17.1787 77.2877 16.992 78.045 16.992C78.7064 16.992 79.2824 17.1253 79.773 17.392C80.2744 17.6587 80.6744 17.9947 80.973 18.4V17.136H83.229V26H80.973V24.704C80.685 25.12 80.285 25.4667 79.773 25.744C79.2717 26.0107 78.6904 26.144 78.029 26.144C77.2824 26.144 76.5997 25.952 75.981 25.568C75.373 25.184 74.8877 24.6453 74.525 23.952C74.173 23.248 73.997 22.4427 73.997 21.536ZM80.973 21.568C80.973 21.024 80.8664 20.56 80.653 20.176C80.4397 19.7813 80.1517 19.4827 79.789 19.28C79.4264 19.0667 79.037 18.96 78.621 18.96C78.205 18.96 77.821 19.0613 77.469 19.264C77.117 19.4667 76.829 19.7653 76.605 20.16C76.3917 20.544 76.285 21.0027 76.285 21.536C76.285 22.0693 76.3917 22.5387 76.605 22.944C76.829 23.3387 77.117 23.6427 77.469 23.856C77.8317 24.0693 78.2157 24.176 78.621 24.176C79.037 24.176 79.4264 24.0747 79.789 23.872C80.1517 23.6587 80.4397 23.36 80.653 22.976C80.8664 22.5813 80.973 22.112 80.973 21.568ZM87.9768 18.512C88.2648 18.0427 88.6381 17.6747 89.0968 17.408C89.5661 17.1413 90.0994 17.008 90.6968 17.008V19.36H90.1048C89.4008 19.36 88.8674 19.5253 88.5048 19.856C88.1528 20.1867 87.9768 20.7627 87.9768 21.584V26H85.7368V17.136H87.9768V18.512ZM104.258 14.832V16.64H101.282V26H99.042V16.64H96.066V14.832H104.258ZM105.636 21.536C105.636 20.64 105.812 19.8453 106.164 19.152C106.527 18.4587 107.012 17.9253 107.62 17.552C108.239 17.1787 108.927 16.992 109.684 16.992C110.346 16.992 110.922 17.1253 111.412 17.392C111.914 17.6587 112.314 17.9947 112.612 18.4V17.136H114.868V26H112.612V24.704C112.324 25.12 111.924 25.4667 111.412 25.744C110.911 26.0107 110.33 26.144 109.668 26.144C108.922 26.144 108.239 25.952 107.62 25.568C107.012 25.184 106.527 24.6453 106.164 23.952C105.812 23.248 105.636 22.4427 105.636 21.536ZM112.612 21.568C112.612 21.024 112.506 20.56 112.292 20.176C112.079 19.7813 111.791 19.4827 111.428 19.28C111.066 19.0667 110.676 18.96 110.26 18.96C109.844 18.96 109.46 19.0613 109.108 19.264C108.756 19.4667 108.468 19.7653 108.244 20.16C108.031 20.544 107.924 21.0027 107.924 21.536C107.924 22.0693 108.031 22.5387 108.244 22.944C108.468 23.3387 108.756 23.6427 109.108 23.856C109.471 24.0693 109.855 24.176 110.26 24.176C110.676 24.176 111.066 24.0747 111.428 23.872C111.791 23.6587 112.079 23.36 112.292 22.976C112.506 22.5813 112.612 22.112 112.612 21.568ZM128.384 17.008C129.472 17.008 130.347 17.344 131.008 18.016C131.68 18.6773 132.016 19.6053 132.016 20.8V26H129.776V21.104C129.776 20.4107 129.6 19.8827 129.248 19.52C128.896 19.1467 128.416 18.96 127.808 18.96C127.2 18.96 126.715 19.1467 126.352 19.52C126 19.8827 125.824 20.4107 125.824 21.104V26H123.584V21.104C123.584 20.4107 123.408 19.8827 123.056 19.52C122.704 19.1467 122.224 18.96 121.616 18.96C120.997 18.96 120.507 19.1467 120.144 19.52C119.792 19.8827 119.616 20.4107 119.616 21.104V26H117.376V17.136H119.616V18.208C119.904 17.8347 120.272 17.5413 120.72 17.328C121.179 17.1147 121.68 17.008 122.224 17.008C122.917 17.008 123.536 17.1573 124.08 17.456C124.624 17.744 125.045 18.16 125.344 18.704C125.632 18.192 126.048 17.7813 126.592 17.472C127.147 17.1627 127.744 17.008 128.384 17.008ZM142.83 17.136V26H140.574V24.88C140.286 25.264 139.907 25.568 139.438 25.792C138.979 26.0053 138.478 26.112 137.934 26.112C137.24 26.112 136.627 25.968 136.094 25.68C135.56 25.3813 135.139 24.9493 134.83 24.384C134.531 23.808 134.382 23.1253 134.382 22.336V17.136H136.622V22.016C136.622 22.72 136.798 23.264 137.15 23.648C137.502 24.0213 137.982 24.208 138.59 24.208C139.208 24.208 139.694 24.0213 140.046 23.648C140.398 23.264 140.574 22.72 140.574 22.016V17.136H142.83Z" fill="white"/>
<path d="M165.158 17.7C163.832 17.7 162.758 18.685 162.758 19.9C162.758 21.1151 163.832 22.1 165.158 22.1C166.483 22.1 167.558 21.1151 167.558 19.9C167.558 18.685 166.483 17.7 165.158 17.7Z" fill="white"/>
<path d="M162.423 23.2C161.688 23.2 160.849 23.6561 160.826 24.517C160.81 25.0849 160.939 25.8819 161.616 26.5351C162.295 27.1911 163.421 27.6 165.158 27.6C166.894 27.6 168.02 27.1911 168.7 26.5351C169.377 25.8819 169.505 25.0849 169.49 24.517C169.466 23.6561 168.628 23.2 167.893 23.2H162.423Z" fill="white"/>
<path d="M163.958 12.2C162.632 12.2 161.558 13.185 161.558 14.4H159.758C158.764 14.4 157.958 15.1387 157.958 16.05V28.15C157.958 29.0613 158.764 29.8 159.758 29.8H170.558C171.552 29.8 172.358 29.0613 172.358 28.15V16.05C172.358 15.1387 171.552 14.4 170.558 14.4H168.758C168.758 13.185 167.683 12.2 166.358 12.2H163.958ZM168.437 15.5H170.558C170.889 15.5 171.158 15.7463 171.158 16.05V28.15C171.158 28.4537 170.889 28.7 170.558 28.7H159.758C159.426 28.7 159.158 28.4537 159.158 28.15V16.05C159.158 15.7463 159.426 15.5 159.758 15.5H161.879C162.294 16.1576 163.069 16.6 163.958 16.6H166.358C167.246 16.6 168.022 16.1576 168.437 15.5ZM162.758 14.4C162.758 13.7925 163.295 13.3 163.958 13.3H166.358C167.021 13.3 167.558 13.7925 167.558 14.4C167.558 15.0075 167.021 15.5 166.358 15.5H163.958C163.295 15.5 162.758 15.0075 162.758 14.4Z" fill="white"/>
<g clip-path="url(#clip0_645_188)">
<g clip-path="url(#clip1_645_188)">
<path d="M25.4696 14.6836L20.1707 19.4027L25.4164 24.1696L23.781 25.626L16.9164 19.3879L23.8507 13.2125L25.4696 14.6836Z" fill="white"/>
</g>
</g>
<defs>
<clipPath id="clip0_645_188">
<rect width="38.4426" height="42.7324" fill="white" transform="matrix(-0.00560893 0.999984 -0.99999 -0.0045393 42.9476 10.2958)"/>
</clipPath>
<clipPath id="clip1_645_188">
<rect width="24.8275" height="27.598" fill="white" transform="matrix(-0.00560893 0.999984 -0.99999 -0.0045393 34.9533 7.05591)"/>
</clipPath>
</defs>
</svg>
