<svg width="175" height="18" viewBox="0 0 175 18" fill="none" xmlns="http://www.w3.org/2000/svg">
<path opacity="0.3" d="M3.832 1.88C5.016 1.88 6.05067 2.10933 6.936 2.568C7.832 3.016 8.52 3.66667 9 4.52C9.49067 5.36267 9.736 6.34933 9.736 7.48C9.736 8.61067 9.49067 9.592 9 10.424C8.52 11.256 7.832 11.896 6.936 12.344C6.05067 12.7813 5.016 13 3.832 13H0.2V1.88H3.832ZM3.832 11.512C5.13333 11.512 6.13067 11.16 6.824 10.456C7.51733 9.752 7.864 8.76 7.864 7.48C7.864 6.18933 7.51733 5.18133 6.824 4.456C6.13067 3.73067 5.13333 3.368 3.832 3.368H2.024V11.512H3.832ZM12.9517 3.016C12.6211 3.016 12.3437 2.904 12.1197 2.68C11.8957 2.456 11.7837 2.17867 11.7837 1.848C11.7837 1.51733 11.8957 1.24 12.1197 1.016C12.3437 0.791999 12.6211 0.679999 12.9517 0.679999C13.2717 0.679999 13.5437 0.791999 13.7677 1.016C13.9917 1.24 14.1037 1.51733 14.1037 1.848C14.1037 2.17867 13.9917 2.456 13.7677 2.68C13.5437 2.904 13.2717 3.016 12.9517 3.016ZM13.8477 4.184V13H12.0237V4.184H13.8477ZM18.5465 5.496C18.8558 5.06933 19.2772 4.72267 19.8105 4.456C20.3545 4.17867 20.9572 4.04 21.6185 4.04C22.3972 4.04 23.1012 4.22667 23.7305 4.6C24.3598 4.97333 24.8558 5.50667 25.2185 6.2C25.5812 6.88267 25.7625 7.66667 25.7625 8.552C25.7625 9.43733 25.5812 10.232 25.2185 10.936C24.8558 11.6293 24.3545 12.1733 23.7145 12.568C23.0852 12.952 22.3865 13.144 21.6185 13.144C20.9358 13.144 20.3278 13.0107 19.7945 12.744C19.2718 12.4773 18.8558 12.136 18.5465 11.72V13H16.7225V1.16H18.5465V5.496ZM23.9065 8.552C23.9065 7.944 23.7785 7.42133 23.5225 6.984C23.2772 6.536 22.9465 6.2 22.5305 5.976C22.1252 5.74133 21.6878 5.624 21.2185 5.624C20.7598 5.624 20.3225 5.74133 19.9065 5.976C19.5012 6.21067 19.1705 6.552 18.9145 7C18.6692 7.448 18.5465 7.976 18.5465 8.584C18.5465 9.192 18.6692 9.72533 18.9145 10.184C19.1705 10.632 19.5012 10.9733 19.9065 11.208C20.3225 11.4427 20.7598 11.56 21.2185 11.56C21.6878 11.56 22.1252 11.4427 22.5305 11.208C22.9465 10.9627 23.2772 10.6107 23.5225 10.152C23.7785 9.69333 23.9065 9.16 23.9065 8.552ZM36.0303 4.184V13H34.2063V11.96C33.9183 12.3227 33.5396 12.6107 33.0703 12.824C32.6116 13.0267 32.1209 13.128 31.5983 13.128C30.9049 13.128 30.2809 12.984 29.7263 12.696C29.1823 12.408 28.7503 11.9813 28.4303 11.416C28.1209 10.8507 27.9663 10.168 27.9663 9.368V4.184H29.7743V9.096C29.7743 9.88533 29.9716 10.4933 30.3663 10.92C30.7609 11.336 31.2996 11.544 31.9823 11.544C32.6649 11.544 33.2036 11.336 33.5983 10.92C34.0036 10.4933 34.2063 9.88533 34.2063 9.096V4.184H36.0303ZM38.3089 8.552C38.3089 7.66667 38.4902 6.88267 38.8529 6.2C39.2262 5.51733 39.7275 4.98933 40.3569 4.616C40.9969 4.232 41.7009 4.04 42.4689 4.04C43.1622 4.04 43.7649 4.17867 44.2769 4.456C44.7995 4.72267 45.2155 5.05867 45.5249 5.464V4.184H47.3649V13H45.5249V11.688C45.2155 12.104 44.7942 12.4507 44.2609 12.728C43.7275 13.0053 43.1195 13.144 42.4369 13.144C41.6795 13.144 40.9862 12.952 40.3569 12.568C39.7275 12.1733 39.2262 11.6293 38.8529 10.936C38.4902 10.232 38.3089 9.43733 38.3089 8.552ZM45.5249 8.584C45.5249 7.976 45.3969 7.448 45.1409 7C44.8955 6.552 44.5702 6.21067 44.1649 5.976C43.7595 5.74133 43.3222 5.624 42.8529 5.624C42.3835 5.624 41.9462 5.74133 41.5409 5.976C41.1355 6.2 40.8049 6.536 40.5489 6.984C40.3035 7.42133 40.1809 7.944 40.1809 8.552C40.1809 9.16 40.3035 9.69333 40.5489 10.152C40.8049 10.6107 41.1355 10.9627 41.5409 11.208C41.9569 11.4427 42.3942 11.56 42.8529 11.56C43.3222 11.56 43.7595 11.4427 44.1649 11.208C44.5702 10.9733 44.8955 10.632 45.1409 10.184C45.3969 9.72533 45.5249 9.192 45.5249 8.584ZM52.3686 5.672V10.552C52.3686 10.8827 52.4433 11.1227 52.5926 11.272C52.7526 11.4107 53.0193 11.48 53.3926 11.48H54.5126V13H53.0726C52.2513 13 51.622 12.808 51.1846 12.424C50.7473 12.04 50.5286 11.416 50.5286 10.552V5.672H49.4886V4.184H50.5286V1.992H52.3686V4.184H54.5126V5.672H52.3686ZM66.382 13.112C65.3473 13.112 64.3927 12.872 63.518 12.392C62.654 11.9013 61.966 11.224 61.454 10.36C60.9527 9.48533 60.702 8.504 60.702 7.416C60.702 6.328 60.9527 5.352 61.454 4.488C61.966 3.624 62.654 2.952 63.518 2.472C64.3927 1.98133 65.3473 1.736 66.382 1.736C67.4273 1.736 68.382 1.98133 69.246 2.472C70.1207 2.952 70.8087 3.624 71.31 4.488C71.8113 5.352 72.062 6.328 72.062 7.416C72.062 8.504 71.8113 9.48533 71.31 10.36C70.8087 11.224 70.1207 11.9013 69.246 12.392C68.382 12.872 67.4273 13.112 66.382 13.112ZM66.382 11.528C67.118 11.528 67.774 11.3627 68.35 11.032C68.926 10.6907 69.374 10.2107 69.694 9.592C70.0247 8.96267 70.19 8.23733 70.19 7.416C70.19 6.59467 70.0247 5.87467 69.694 5.256C69.374 4.63733 68.926 4.16267 68.35 3.832C67.774 3.50133 67.118 3.336 66.382 3.336C65.646 3.336 64.99 3.50133 64.414 3.832C63.838 4.16267 63.3847 4.63733 63.054 5.256C62.734 5.87467 62.574 6.59467 62.574 7.416C62.574 8.23733 62.734 8.96267 63.054 9.592C63.3847 10.2107 63.838 10.6907 64.414 11.032C64.99 11.3627 65.646 11.528 66.382 11.528ZM76.1609 1.16V13H74.3369V1.16H76.1609ZM87.1156 8.376C87.1156 8.70667 87.0943 9.00533 87.0516 9.272H80.3156C80.369 9.976 80.6303 10.5413 81.0996 10.968C81.569 11.3947 82.145 11.608 82.8276 11.608C83.809 11.608 84.5023 11.1973 84.9076 10.376H86.8756C86.609 11.1867 86.1236 11.8533 85.4196 12.376C84.7263 12.888 83.8623 13.144 82.8276 13.144C81.985 13.144 81.2276 12.9573 80.5556 12.584C79.8943 12.2 79.3716 11.6667 78.9876 10.984C78.6143 10.2907 78.4276 9.49067 78.4276 8.584C78.4276 7.67733 78.609 6.88267 78.9716 6.2C79.345 5.50667 79.8623 4.97333 80.5236 4.6C81.1956 4.22667 81.9636 4.04 82.8276 4.04C83.6596 4.04 84.401 4.22133 85.0516 4.584C85.7023 4.94667 86.209 5.45867 86.5716 6.12C86.9343 6.77067 87.1156 7.52267 87.1156 8.376ZM85.2116 7.8C85.201 7.128 84.961 6.58933 84.4916 6.184C84.0223 5.77867 83.441 5.576 82.7476 5.576C82.1183 5.576 81.5796 5.77867 81.1316 6.184C80.6836 6.57867 80.417 7.11733 80.3316 7.8H85.2116ZM93.9506 4.04C94.6226 4.04 95.22 4.184 95.7426 4.472C96.276 4.76 96.692 5.18667 96.9906 5.752C97.3 6.31733 97.4546 7 97.4546 7.8V13H95.6466V8.072C95.6466 7.28267 95.4493 6.68 95.0546 6.264C94.66 5.83733 94.1213 5.624 93.4386 5.624C92.756 5.624 92.212 5.83733 91.8066 6.264C91.412 6.68 91.2146 7.28267 91.2146 8.072V13H89.3906V1.16H91.2146V5.208C91.524 4.83467 91.9133 4.54667 92.3826 4.344C92.8626 4.14133 93.3853 4.04 93.9506 4.04ZM106.722 3.352V6.616H110.562V8.104H106.722V11.512H111.042V13H104.898V1.864H111.042V3.352H106.722ZM117.544 8.536L120.392 13H118.328L116.424 10.008L114.632 13H112.728L115.576 8.664L112.728 4.184H114.792L116.696 7.176L118.488 4.184H120.392L117.544 8.536ZM121.625 8.552C121.625 7.66667 121.806 6.88267 122.169 6.2C122.542 5.51733 123.043 4.98933 123.673 4.616C124.313 4.232 125.017 4.04 125.785 4.04C126.478 4.04 127.081 4.17867 127.593 4.456C128.115 4.72267 128.531 5.05867 128.841 5.464V4.184H130.681V13H128.841V11.688C128.531 12.104 128.11 12.4507 127.577 12.728C127.043 13.0053 126.435 13.144 125.753 13.144C124.995 13.144 124.302 12.952 123.673 12.568C123.043 12.1733 122.542 11.6293 122.169 10.936C121.806 10.232 121.625 9.43733 121.625 8.552ZM128.841 8.584C128.841 7.976 128.713 7.448 128.457 7C128.211 6.552 127.886 6.21067 127.481 5.976C127.075 5.74133 126.638 5.624 126.169 5.624C125.699 5.624 125.262 5.74133 124.857 5.976C124.451 6.2 124.121 6.536 123.865 6.984C123.619 7.42133 123.497 7.944 123.497 8.552C123.497 9.16 123.619 9.69333 123.865 10.152C124.121 10.6107 124.451 10.9627 124.857 11.208C125.273 11.4427 125.71 11.56 126.169 11.56C126.638 11.56 127.075 11.4427 127.481 11.208C127.886 10.9733 128.211 10.632 128.457 10.184C128.713 9.72533 128.841 9.192 128.841 8.584ZM144.228 4.04C144.922 4.04 145.54 4.184 146.084 4.472C146.639 4.76 147.071 5.18667 147.38 5.752C147.7 6.31733 147.86 7 147.86 7.8V13H146.052V8.072C146.052 7.28267 145.855 6.68 145.46 6.264C145.066 5.83733 144.527 5.624 143.844 5.624C143.162 5.624 142.618 5.83733 142.212 6.264C141.818 6.68 141.62 7.28267 141.62 8.072V13H139.812V8.072C139.812 7.28267 139.615 6.68 139.22 6.264C138.826 5.83733 138.287 5.624 137.604 5.624C136.922 5.624 136.378 5.83733 135.972 6.264C135.578 6.68 135.38 7.28267 135.38 8.072V13H133.556V4.184H135.38V5.192C135.679 4.82933 136.058 4.54667 136.516 4.344C136.975 4.14133 137.466 4.04 137.988 4.04C138.692 4.04 139.322 4.18933 139.876 4.488C140.431 4.78667 140.858 5.21867 141.156 5.784C141.423 5.25067 141.839 4.82933 142.404 4.52C142.97 4.2 143.578 4.04 144.228 4.04ZM152.485 5.48C152.795 5.07467 153.216 4.73333 153.749 4.456C154.283 4.17867 154.885 4.04 155.557 4.04C156.325 4.04 157.024 4.232 157.653 4.616C158.293 4.98933 158.795 5.51733 159.157 6.2C159.52 6.88267 159.701 7.66667 159.701 8.552C159.701 9.43733 159.52 10.232 159.157 10.936C158.795 11.6293 158.293 12.1733 157.653 12.568C157.024 12.952 156.325 13.144 155.557 13.144C154.885 13.144 154.288 13.0107 153.765 12.744C153.243 12.4667 152.816 12.1253 152.485 11.72V17.192H150.661V4.184H152.485V5.48ZM157.845 8.552C157.845 7.944 157.717 7.42133 157.461 6.984C157.216 6.536 156.885 6.2 156.469 5.976C156.064 5.74133 155.627 5.624 155.157 5.624C154.699 5.624 154.261 5.74133 153.845 5.976C153.44 6.21067 153.109 6.552 152.853 7C152.608 7.448 152.485 7.976 152.485 8.584C152.485 9.192 152.608 9.72533 152.853 10.184C153.109 10.632 153.44 10.9733 153.845 11.208C154.261 11.4427 154.699 11.56 155.157 11.56C155.627 11.56 156.064 11.4427 156.469 11.208C156.885 10.9627 157.216 10.6107 157.461 10.152C157.717 9.69333 157.845 9.16 157.845 8.552ZM163.809 1.16V13H161.985V1.16H163.809ZM174.764 8.376C174.764 8.70667 174.742 9.00533 174.7 9.272H167.964C168.017 9.976 168.278 10.5413 168.748 10.968C169.217 11.3947 169.793 11.608 170.476 11.608C171.457 11.608 172.15 11.1973 172.556 10.376H174.524C174.257 11.1867 173.772 11.8533 173.068 12.376C172.374 12.888 171.51 13.144 170.476 13.144C169.633 13.144 168.876 12.9573 168.204 12.584C167.542 12.2 167.02 11.6667 166.636 10.984C166.262 10.2907 166.076 9.49067 166.076 8.584C166.076 7.67733 166.257 6.88267 166.62 6.2C166.993 5.50667 167.51 4.97333 168.172 4.6C168.844 4.22667 169.612 4.04 170.476 4.04C171.308 4.04 172.049 4.22133 172.7 4.584C173.35 4.94667 173.857 5.45867 174.22 6.12C174.582 6.77067 174.764 7.52267 174.764 8.376ZM172.86 7.8C172.849 7.128 172.609 6.58933 172.14 6.184C171.67 5.77867 171.089 5.576 170.396 5.576C169.766 5.576 169.228 5.77867 168.78 6.184C168.332 6.57867 168.065 7.11733 167.98 7.8H172.86Z" fill="white"/>
</svg>
