<svg width="252" height="19" viewBox="0 0 252 19" fill="none" xmlns="http://www.w3.org/2000/svg">
<path d="M10.016 2.134V14H7.636V8.951H2.553V14H0.173V2.134H2.553V7.013H7.636V2.134H10.016ZM12.2565 9.257C12.2565 8.305 12.4435 7.46067 12.8175 6.724C13.2029 5.98733 13.7185 5.42067 14.3645 5.024C15.0219 4.62733 15.7529 4.429 16.5575 4.429C17.2602 4.429 17.8722 4.57067 18.3935 4.854C18.9262 5.13733 19.3512 5.49433 19.6685 5.925V4.582H22.0655V14H19.6685V12.623C19.3625 13.065 18.9375 13.4333 18.3935 13.728C17.8609 14.0113 17.2432 14.153 16.5405 14.153C15.7472 14.153 15.0219 13.949 14.3645 13.541C13.7185 13.133 13.2029 12.5607 12.8175 11.824C12.4435 11.076 12.2565 10.2203 12.2565 9.257ZM19.6685 9.291C19.6685 8.713 19.5552 8.22 19.3285 7.812C19.1019 7.39267 18.7959 7.07533 18.4105 6.86C18.0252 6.63333 17.6115 6.52 17.1695 6.52C16.7275 6.52 16.3195 6.62767 15.9455 6.843C15.5715 7.05833 15.2655 7.37567 15.0275 7.795C14.8009 8.203 14.6875 8.69033 14.6875 9.257C14.6875 9.82367 14.8009 10.3223 15.0275 10.753C15.2655 11.1723 15.5715 11.4953 15.9455 11.722C16.3309 11.9487 16.7389 12.062 17.1695 12.062C17.6115 12.062 18.0252 11.9543 18.4105 11.739C18.7959 11.5123 19.1019 11.195 19.3285 10.787C19.5552 10.3677 19.6685 9.869 19.6685 9.291ZM27.28 6.044C27.586 5.54533 27.9827 5.15433 28.47 4.871C28.9687 4.58767 29.5354 4.446 30.17 4.446V6.945H29.541C28.793 6.945 28.2264 7.12067 27.841 7.472C27.467 7.82333 27.28 8.43533 27.28 9.308V14H24.9V4.582H27.28V6.044ZM33.4901 3.46C33.0707 3.46 32.7194 3.32967 32.4361 3.069C32.1641 2.797 32.0281 2.46267 32.0281 2.066C32.0281 1.66933 32.1641 1.34067 32.4361 1.08C32.7194 0.807999 33.0707 0.671999 33.4901 0.671999C33.9094 0.671999 34.2551 0.807999 34.5271 1.08C34.8104 1.34067 34.9521 1.66933 34.9521 2.066C34.9521 2.46267 34.8104 2.797 34.5271 3.069C34.2551 3.32967 33.9094 3.46 33.4901 3.46ZM34.6631 4.582V14H32.2831V4.582H34.6631ZM60.3862 2.185V3.766H57.2412V14H55.3032V3.766H52.1412V2.185H60.3862ZM62.2129 9.274C62.2129 8.33333 62.4056 7.50033 62.7909 6.775C63.1876 6.04967 63.7202 5.48867 64.3889 5.092C65.0689 4.684 65.8169 4.48 66.6329 4.48C67.3696 4.48 68.0099 4.62733 68.5539 4.922C69.1092 5.20533 69.5512 5.56233 69.8799 5.993V4.633H71.8349V14H69.8799V12.606C69.5512 13.048 69.1036 13.4163 68.5369 13.711C67.9702 14.0057 67.3242 14.153 66.5989 14.153C65.7942 14.153 65.0576 13.949 64.3889 13.541C63.7202 13.1217 63.1876 12.5437 62.7909 11.807C62.4056 11.059 62.2129 10.2147 62.2129 9.274ZM69.8799 9.308C69.8799 8.662 69.7439 8.101 69.4719 7.625C69.2112 7.149 68.8656 6.78633 68.4349 6.537C68.0042 6.28767 67.5396 6.163 67.0409 6.163C66.5422 6.163 66.0776 6.28767 65.6469 6.537C65.2162 6.775 64.8649 7.132 64.5929 7.608C64.3322 8.07267 64.2019 8.628 64.2019 9.274C64.2019 9.92 64.3322 10.4867 64.5929 10.974C64.8649 11.4613 65.2162 11.8353 65.6469 12.096C66.0889 12.3453 66.5536 12.47 67.0409 12.47C67.5396 12.47 68.0042 12.3453 68.4349 12.096C68.8656 11.8467 69.2112 11.484 69.4719 11.008C69.7439 10.5207 69.8799 9.954 69.8799 9.308ZM79.6164 4.48C80.3531 4.48 81.0104 4.633 81.5884 4.939C82.1777 5.245 82.6367 5.69833 82.9654 6.299C83.2941 6.89967 83.4584 7.625 83.4584 8.475V14H81.5374V8.764C81.5374 7.92533 81.3277 7.285 80.9084 6.843C80.4891 6.38967 79.9167 6.163 79.1914 6.163C78.4661 6.163 77.8881 6.38967 77.4574 6.843C77.0381 7.285 76.8284 7.92533 76.8284 8.764V14H74.8904V4.633H76.8284V5.704C77.1457 5.31867 77.5481 5.01833 78.0354 4.803C78.5341 4.58767 79.0611 4.48 79.6164 4.48ZM90.2144 4.48C90.9398 4.48 91.5801 4.62733 92.1354 4.922C92.7021 5.20533 93.1441 5.56233 93.4614 5.993V4.633H95.4164V14.153C95.4164 15.0143 95.2351 15.7793 94.8724 16.448C94.5098 17.128 93.9828 17.6607 93.2914 18.046C92.6114 18.4313 91.7954 18.624 90.8434 18.624C89.5741 18.624 88.5201 18.3237 87.6814 17.723C86.8428 17.1337 86.3668 16.329 86.2534 15.309H88.1744C88.3218 15.7963 88.6334 16.1873 89.1094 16.482C89.5968 16.788 90.1748 16.941 90.8434 16.941C91.6254 16.941 92.2544 16.703 92.7304 16.227C93.2178 15.751 93.4614 15.0597 93.4614 14.153V12.589C93.1328 13.031 92.6851 13.405 92.1184 13.711C91.5631 14.0057 90.9284 14.153 90.2144 14.153C89.3984 14.153 88.6504 13.949 87.9704 13.541C87.3018 13.1217 86.7691 12.5437 86.3724 11.807C85.9871 11.059 85.7944 10.2147 85.7944 9.274C85.7944 8.33333 85.9871 7.50033 86.3724 6.775C86.7691 6.04967 87.3018 5.48867 87.9704 5.092C88.6504 4.684 89.3984 4.48 90.2144 4.48ZM93.4614 9.308C93.4614 8.662 93.3254 8.101 93.0534 7.625C92.7928 7.149 92.4471 6.78633 92.0164 6.537C91.5858 6.28767 91.1211 6.163 90.6224 6.163C90.1238 6.163 89.6591 6.28767 89.2284 6.537C88.7978 6.775 88.4464 7.132 88.1744 7.608C87.9138 8.07267 87.7834 8.628 87.7834 9.274C87.7834 9.92 87.9138 10.4867 88.1744 10.974C88.4464 11.4613 88.7978 11.8353 89.2284 12.096C89.6704 12.3453 90.1351 12.47 90.6224 12.47C91.1211 12.47 91.5858 12.3453 92.0164 12.096C92.4471 11.8467 92.7928 11.484 93.0534 11.008C93.3254 10.5207 93.4614 9.954 93.4614 9.308ZM102.246 4.48C102.971 4.48 103.612 4.62733 104.167 4.922C104.734 5.20533 105.176 5.56233 105.493 5.993V4.633H107.448V14.153C107.448 15.0143 107.267 15.7793 106.904 16.448C106.541 17.128 106.014 17.6607 105.323 18.046C104.643 18.4313 103.827 18.624 102.875 18.624C101.606 18.624 100.552 18.3237 99.7129 17.723C98.8742 17.1337 98.3982 16.329 98.2849 15.309H100.206C100.353 15.7963 100.665 16.1873 101.141 16.482C101.628 16.788 102.206 16.941 102.875 16.941C103.657 16.941 104.286 16.703 104.762 16.227C105.249 15.751 105.493 15.0597 105.493 14.153V12.589C105.164 13.031 104.717 13.405 104.15 13.711C103.595 14.0057 102.96 14.153 102.246 14.153C101.43 14.153 100.682 13.949 100.002 13.541C99.3332 13.1217 98.8006 12.5437 98.4039 11.807C98.0186 11.059 97.8259 10.2147 97.8259 9.274C97.8259 8.33333 98.0186 7.50033 98.4039 6.775C98.8006 6.04967 99.3332 5.48867 100.002 5.092C100.682 4.684 101.43 4.48 102.246 4.48ZM105.493 9.308C105.493 8.662 105.357 8.101 105.085 7.625C104.824 7.149 104.479 6.78633 104.048 6.537C103.617 6.28767 103.153 6.163 102.654 6.163C102.155 6.163 101.691 6.28767 101.26 6.537C100.829 6.775 100.478 7.132 100.206 7.608C99.9452 8.07267 99.8149 8.628 99.8149 9.274C99.8149 9.92 99.9452 10.4867 100.206 10.974C100.478 11.4613 100.829 11.8353 101.26 12.096C101.702 12.3453 102.167 12.47 102.654 12.47C103.153 12.47 103.617 12.3453 104.048 12.096C104.479 11.8467 104.824 11.484 105.085 11.008C105.357 10.5207 105.493 9.954 105.493 9.308ZM109.857 9.274C109.857 8.33333 110.05 7.50033 110.435 6.775C110.832 6.04967 111.365 5.48867 112.033 5.092C112.713 4.684 113.461 4.48 114.277 4.48C115.014 4.48 115.654 4.62733 116.198 4.922C116.754 5.20533 117.196 5.56233 117.524 5.993V4.633H119.479V14H117.524V12.606C117.196 13.048 116.748 13.4163 116.181 13.711C115.615 14.0057 114.969 14.153 114.243 14.153C113.439 14.153 112.702 13.949 112.033 13.541C111.365 13.1217 110.832 12.5437 110.435 11.807C110.05 11.059 109.857 10.2147 109.857 9.274ZM117.524 9.308C117.524 8.662 117.388 8.101 117.116 7.625C116.856 7.149 116.51 6.78633 116.079 6.537C115.649 6.28767 115.184 6.163 114.685 6.163C114.187 6.163 113.722 6.28767 113.291 6.537C112.861 6.775 112.509 7.132 112.237 7.608C111.977 8.07267 111.846 8.628 111.846 9.274C111.846 9.92 111.977 10.4867 112.237 10.974C112.509 11.4613 112.861 11.8353 113.291 12.096C113.733 12.3453 114.198 12.47 114.685 12.47C115.184 12.47 115.649 12.3453 116.079 12.096C116.51 11.8467 116.856 11.484 117.116 11.008C117.388 10.5207 117.524 9.954 117.524 9.308ZM124.473 1.42V14H122.535V1.42H124.473ZM129.652 11.671L127.595 16.363H126.337L127.544 11.671H129.652ZM143.106 7.931C143.74 8.04433 144.279 8.37867 144.721 8.934C145.163 9.48933 145.384 10.1183 145.384 10.821C145.384 11.4217 145.225 11.9657 144.908 12.453C144.602 12.929 144.154 13.3087 143.565 13.592C142.975 13.864 142.29 14 141.508 14H136.782V2.185H141.287C142.091 2.185 142.783 2.321 143.361 2.593C143.939 2.865 144.375 3.23333 144.67 3.698C144.964 4.15133 145.112 4.66133 145.112 5.228C145.112 5.908 144.93 6.47467 144.568 6.928C144.205 7.38133 143.718 7.71567 143.106 7.931ZM138.72 7.149H141.117C141.751 7.149 142.244 7.00733 142.596 6.724C142.958 6.42933 143.14 6.01 143.14 5.466C143.14 4.93333 142.958 4.51967 142.596 4.225C142.244 3.919 141.751 3.766 141.117 3.766H138.72V7.149ZM141.338 12.419C141.995 12.419 142.511 12.2603 142.885 11.943C143.259 11.6257 143.446 11.1837 143.446 10.617C143.446 10.039 143.247 9.58 142.851 9.24C142.454 8.9 141.927 8.73 141.27 8.73H138.72V12.419H141.338ZM156.483 4.633V14H154.545V12.895C154.239 13.2803 153.836 13.5863 153.338 13.813C152.85 14.0283 152.329 14.136 151.774 14.136C151.037 14.136 150.374 13.983 149.785 13.677C149.207 13.371 148.748 12.9177 148.408 12.317C148.079 11.7163 147.915 10.991 147.915 10.141V4.633H149.836V9.852C149.836 10.6907 150.045 11.3367 150.465 11.79C150.884 12.232 151.456 12.453 152.182 12.453C152.907 12.453 153.479 12.232 153.899 11.79C154.329 11.3367 154.545 10.6907 154.545 9.852V4.633H156.483ZM161.488 1.42V14H159.55V1.42H161.488ZM163.896 9.274C163.896 8.33333 164.089 7.50033 164.474 6.775C164.871 6.04967 165.403 5.48867 166.072 5.092C166.752 4.684 167.5 4.48 168.316 4.48C169.053 4.48 169.693 4.62733 170.237 4.922C170.792 5.20533 171.234 5.56233 171.563 5.993V4.633H173.518V14H171.563V12.606C171.234 13.048 170.787 13.4163 170.22 13.711C169.653 14.0057 169.007 14.153 168.282 14.153C167.477 14.153 166.741 13.949 166.072 13.541C165.403 13.1217 164.871 12.5437 164.474 11.807C164.089 11.059 163.896 10.2147 163.896 9.274ZM171.563 9.308C171.563 8.662 171.427 8.101 171.155 7.625C170.894 7.149 170.549 6.78633 170.118 6.537C169.687 6.28767 169.223 6.163 168.724 6.163C168.225 6.163 167.761 6.28767 167.33 6.537C166.899 6.775 166.548 7.132 166.276 7.608C166.015 8.07267 165.885 8.628 165.885 9.274C165.885 9.92 166.015 10.4867 166.276 10.974C166.548 11.4613 166.899 11.8353 167.33 12.096C167.772 12.3453 168.237 12.47 168.724 12.47C169.223 12.47 169.687 12.3453 170.118 12.096C170.549 11.8467 170.894 11.484 171.155 11.008C171.427 10.5207 171.563 9.954 171.563 9.308ZM181.3 4.48C182.036 4.48 182.694 4.633 183.272 4.939C183.861 5.245 184.32 5.69833 184.649 6.299C184.977 6.89967 185.142 7.625 185.142 8.475V14H183.221V8.764C183.221 7.92533 183.011 7.285 182.592 6.843C182.172 6.38967 181.6 6.163 180.875 6.163C180.149 6.163 179.571 6.38967 179.141 6.843C178.721 7.285 178.512 7.92533 178.512 8.764V14H176.574V4.633H178.512V5.704C178.829 5.31867 179.231 5.01833 179.719 4.803C180.217 4.58767 180.744 4.48 181.3 4.48ZM190.249 11.671L188.192 16.363H186.934L188.141 11.671H190.249ZM205.011 2.185V3.766H201.866V14H199.928V3.766H196.766V2.185H205.011ZM206.838 9.274C206.838 8.33333 207.03 7.50033 207.416 6.775C207.812 6.04967 208.345 5.48867 209.014 5.092C209.694 4.684 210.442 4.48 211.258 4.48C211.994 4.48 212.635 4.62733 213.179 4.922C213.734 5.20533 214.176 5.56233 214.505 5.993V4.633H216.46V14H214.505V12.606C214.176 13.048 213.728 13.4163 213.162 13.711C212.595 14.0057 211.949 14.153 211.224 14.153C210.419 14.153 209.682 13.949 209.014 13.541C208.345 13.1217 207.812 12.5437 207.416 11.807C207.03 11.059 206.838 10.2147 206.838 9.274ZM214.505 9.308C214.505 8.662 214.369 8.101 214.097 7.625C213.836 7.149 213.49 6.78633 213.06 6.537C212.629 6.28767 212.164 6.163 211.666 6.163C211.167 6.163 210.702 6.28767 210.272 6.537C209.841 6.775 209.49 7.132 209.218 7.608C208.957 8.07267 208.827 8.628 208.827 9.274C208.827 9.92 208.957 10.4867 209.218 10.974C209.49 11.4613 209.841 11.8353 210.272 12.096C210.714 12.3453 211.178 12.47 211.666 12.47C212.164 12.47 212.629 12.3453 213.06 12.096C213.49 11.8467 213.836 11.484 214.097 11.008C214.369 10.5207 214.505 9.954 214.505 9.308ZM224.36 4.48C225.074 4.48 225.709 4.633 226.264 4.939C226.831 5.245 227.273 5.69833 227.59 6.299C227.919 6.89967 228.083 7.625 228.083 8.475V14H226.162V8.764C226.162 7.92533 225.953 7.285 225.533 6.843C225.114 6.38967 224.542 6.163 223.816 6.163C223.091 6.163 222.513 6.38967 222.082 6.843C221.663 7.285 221.453 7.92533 221.453 8.764V14H219.515V1.42H221.453V5.721C221.782 5.32433 222.196 5.01833 222.694 4.803C223.204 4.58767 223.76 4.48 224.36 4.48ZM239.548 4.633V14H237.61V12.895C237.304 13.2803 236.902 13.5863 236.403 13.813C235.916 14.0283 235.395 14.136 234.839 14.136C234.103 14.136 233.44 13.983 232.85 13.677C232.272 13.371 231.813 12.9177 231.473 12.317C231.145 11.7163 230.98 10.991 230.98 10.141V4.633H232.901V9.852C232.901 10.6907 233.111 11.3367 233.53 11.79C233.95 12.232 234.522 12.453 235.247 12.453C235.973 12.453 236.545 12.232 236.964 11.79C237.395 11.3367 237.61 10.6907 237.61 9.852V4.633H239.548ZM247.341 4.48C248.078 4.48 248.735 4.633 249.313 4.939C249.903 5.245 250.362 5.69833 250.69 6.299C251.019 6.89967 251.183 7.625 251.183 8.475V14H249.262V8.764C249.262 7.92533 249.053 7.285 248.633 6.843C248.214 6.38967 247.642 6.163 246.916 6.163C246.191 6.163 245.613 6.38967 245.182 6.843C244.763 7.285 244.553 7.92533 244.553 8.764V14H242.615V4.633H244.553V5.704C244.871 5.31867 245.273 5.01833 245.76 4.803C246.259 4.58767 246.786 4.48 247.341 4.48Z" fill="black"/>
</svg>
