<svg width="44" height="42" viewBox="0 0 44 42" fill="none" xmlns="http://www.w3.org/2000/svg">
<path d="M22 5.25C22 5.25 10.659 14.595 4.32119 19.656C3.94902 19.978 3.66669 20.447 3.66669 21C3.66669 21.9678 4.48619 22.75 5.50002 22.75H9.16669V35C9.16669 35.9678 9.98619 36.75 11 36.75H16.5C17.5139 36.75 18.3334 35.966 18.3334 35V28H25.6667V35C25.6667 35.966 26.4862 36.75 27.5 36.75H33C34.0139 36.75 34.8334 35.9678 34.8334 35V22.75H38.5C39.5139 22.75 40.3334 21.9678 40.3334 21C40.3334 20.447 40.051 19.978 39.6312 19.656C33.3374 14.595 22 5.25 22 5.25Z" fill="white"/>
</svg>
