<svg width="24" height="24" viewBox="0 0 24 24" fill="none" xmlns="http://www.w3.org/2000/svg">
<path d="M13.5322 2C14.6618 2 15.592 2.87549 15.7116 4.00046L17.4323 4C18.5945 4 19.5456 4.92516 19.6229 6.09595L19.628 6.25V19.7546C19.628 20.9455 18.7251 21.9202 17.5826 21.9994L17.4323 22.0046H6.21012C5.04802 22.0046 4.09679 21.0794 4.01953 19.9086L4.01447 19.7546V6.25C4.01447 5.05914 4.91728 4.08436 6.05979 4.00519L6.21012 4L7.93086 4.00046C8.05051 2.87549 8.9806 2 10.1103 2H13.5322ZM13.5322 6.4933H10.1103C9.35264 6.4933 8.6848 6.09953 8.29098 5.50082L6.21012 5.5C5.83959 5.5 5.53338 5.78215 5.48492 6.14823L5.47823 6.25V19.7546C5.47823 20.1343 5.75357 20.4481 6.11081 20.4977L6.21012 20.5046H17.4323C17.8029 20.5046 18.1091 20.2224 18.1576 19.8564L18.1642 19.7546V6.25C18.1642 5.8703 17.8888 5.55651 17.5317 5.50685L17.4323 5.5L15.3514 5.50082C14.9577 6.09953 14.2898 6.4933 13.5322 6.4933ZM14.5048 13.9955C15.1785 13.9955 15.7246 14.5552 15.7246 15.2455V15.7448C15.7246 17.5913 14.2881 18.4992 11.8212 18.4992C9.35433 18.4992 7.91785 17.5904 7.91785 15.7428V15.2455C7.91785 14.5552 8.46397 13.9955 9.13765 13.9955H14.5048ZM11.8212 7.99552C13.1686 7.99552 14.2608 9.11481 14.2608 10.4955C14.2608 11.8762 13.1686 12.9955 11.8212 12.9955C10.4739 12.9955 9.38162 11.8762 9.38162 10.4955C9.38162 9.11481 10.4739 7.99552 11.8212 7.99552ZM13.5322 3.5H10.1103C9.70783 3.5 9.38162 3.83429 9.38162 4.24665C9.38162 4.65902 9.70783 4.9933 10.1103 4.9933H13.5322C13.9346 4.9933 14.2608 4.65902 14.2608 4.24665C14.2608 3.83429 13.9346 3.5 13.5322 3.5Z" fill="#212121"/>
</svg>
