<svg width="30" height="27" viewBox="0 0 30 27" fill="none" xmlns="http://www.w3.org/2000/svg">
<path d="M15 9.44995C13.3431 9.44995 12 10.6588 12 12.15C12 13.6412 13.3431 14.85 15 14.85C16.6569 14.85 18 13.6412 18 12.15C18 10.6588 16.6569 9.44995 15 9.44995Z" fill="white"/>
<path d="M11.5812 16.2C10.6626 16.2 9.61442 16.7597 9.58488 17.8163C9.5654 18.5132 9.72639 19.4914 10.5722 20.293C11.4218 21.0982 12.8295 21.6 15 21.6C17.1705 21.6 18.5782 21.0982 19.4278 20.293C20.2737 19.4914 20.4347 18.5132 20.4152 17.8163C20.3856 16.7597 19.3374 16.2 18.419 16.2H11.5812Z" fill="white"/>
<path d="M13.5 2.69995C11.8431 2.69995 10.5 3.90878 10.5 5.39995H8.25C7.00735 5.39995 6 6.30657 6 7.42495V22.2749C6 23.3933 7.00735 24.2999 8.25 24.2999H21.75C22.9926 24.2999 24 23.3933 24 22.2749V7.42495C24 6.30657 22.9926 5.39995 21.75 5.39995H19.5C19.5 3.90878 18.1569 2.69995 16.5 2.69995H13.5ZM19.0986 6.74995H21.75C22.1642 6.74995 22.5 7.05216 22.5 7.42495V22.2749C22.5 22.6477 22.1642 22.9499 21.75 22.9499H8.25C7.83579 22.9499 7.5 22.6477 7.5 22.2749V7.42495C7.5 7.05216 7.83579 6.74995 8.25 6.74995H10.9013C11.4201 7.55698 12.3896 8.09995 13.5 8.09995H16.5C17.6104 8.09995 18.5799 7.55698 19.0986 6.74995ZM12 5.39995C12 4.65437 12.6716 4.04995 13.5 4.04995H16.5C17.3285 4.04995 18 4.65437 18 5.39995C18 6.14553 17.3285 6.74995 16.5 6.74995H13.5C12.6716 6.74995 12 6.14553 12 5.39995Z" fill="white"/>
</svg>
