<svg width="25" height="25" viewBox="0 0 25 25" fill="none" xmlns="http://www.w3.org/2000/svg">
<path d="M2.5 3.5V24.5H19.5V21.5H22.5V0.5H5.5V3.5H2.5ZM18.5 23.5H3.5V4.5H5.5H15V8H18.5V21.5V23.5ZM16 5.207L17.793 7H16V5.207ZM6.5 1.5H21.5V20.5H19.5V7.293L15.707 3.5H6.5V1.5Z" fill="#E4262C"/>
<path d="M16.5 10H5.5V11H16.5V10Z" fill="#E4262C"/>
<path d="M16.5 13H5.5V14H16.5V13Z" fill="#E4262C"/>
<path d="M16.5 16H5.5V17H16.5V16Z" fill="#E4262C"/>
<path d="M10 20H5.5V21H10V20Z" fill="#E4262C"/>
<path d="M16.5 20H12V21H16.5V20Z" fill="#E4262C"/>
<path d="M13 7H9V8H13V7Z" fill="#E4262C"/>
</svg>
