<svg width="98" height="15" viewBox="0 0 98 15" fill="none" xmlns="http://www.w3.org/2000/svg">
<path d="M8.044 11H6.448L1.646 3.734V11H0.05V1.256H1.646L6.448 8.508V1.256H8.044V11ZM13.4858 11.126C12.7578 11.126 12.0998 10.9627 11.5118 10.636C10.9238 10.3 10.4618 9.83333 10.1258 9.236C9.78984 8.62933 9.62184 7.92933 9.62184 7.136C9.62184 6.352 9.79451 5.65667 10.1398 5.05C10.4852 4.44333 10.9565 3.97667 11.5538 3.65C12.1512 3.32333 12.8185 3.16 13.5558 3.16C14.2932 3.16 14.9605 3.32333 15.5578 3.65C16.1552 3.97667 16.6265 4.44333 16.9718 5.05C17.3172 5.65667 17.4898 6.352 17.4898 7.136C17.4898 7.92 17.3125 8.61533 16.9578 9.222C16.6032 9.82867 16.1178 10.3 15.5018 10.636C14.8952 10.9627 14.2232 11.126 13.4858 11.126ZM13.4858 9.74C13.8965 9.74 14.2792 9.642 14.6338 9.446C14.9978 9.25 15.2918 8.956 15.5158 8.564C15.7398 8.172 15.8518 7.696 15.8518 7.136C15.8518 6.576 15.7445 6.10467 15.5298 5.722C15.3152 5.33 15.0305 5.036 14.6758 4.84C14.3212 4.644 13.9385 4.546 13.5278 4.546C13.1172 4.546 12.7345 4.644 12.3798 4.84C12.0345 5.036 11.7592 5.33 11.5538 5.722C11.3485 6.10467 11.2458 6.576 11.2458 7.136C11.2458 7.96667 11.4558 8.61067 11.8758 9.068C12.3052 9.516 12.8418 9.74 13.4858 9.74ZM28.4056 3.16C29.0122 3.16 29.5536 3.286 30.0296 3.538C30.5149 3.79 30.8929 4.16333 31.1636 4.658C31.4436 5.15267 31.5836 5.75 31.5836 6.45V11H30.0016V6.688C30.0016 5.99733 29.8289 5.47 29.4836 5.106C29.1382 4.73267 28.6669 4.546 28.0696 4.546C27.4722 4.546 26.9962 4.73267 26.6416 5.106C26.2962 5.47 26.1236 5.99733 26.1236 6.688V11H24.5416V6.688C24.5416 5.99733 24.3689 5.47 24.0236 5.106C23.6782 4.73267 23.2069 4.546 22.6096 4.546C22.0122 4.546 21.5362 4.73267 21.1816 5.106C20.8362 5.47 20.6636 5.99733 20.6636 6.688V11H19.0676V3.286H20.6636V4.168C20.9249 3.85067 21.2562 3.60333 21.6576 3.426C22.0589 3.24867 22.4882 3.16 22.9456 3.16C23.5616 3.16 24.1122 3.29067 24.5976 3.552C25.0829 3.81333 25.4562 4.19133 25.7176 4.686C25.9509 4.21933 26.3149 3.85067 26.8096 3.58C27.3042 3.3 27.8362 3.16 28.4056 3.16ZM36.9605 11.126C36.2325 11.126 35.5745 10.9627 34.9865 10.636C34.3985 10.3 33.9365 9.83333 33.6005 9.236C33.2645 8.62933 33.0965 7.92933 33.0965 7.136C33.0965 6.352 33.2691 5.65667 33.6145 5.05C33.9598 4.44333 34.4311 3.97667 35.0285 3.65C35.6258 3.32333 36.2931 3.16 37.0305 3.16C37.7678 3.16 38.4351 3.32333 39.0325 3.65C39.6298 3.97667 40.1011 4.44333 40.4465 5.05C40.7918 5.65667 40.9645 6.352 40.9645 7.136C40.9645 7.92 40.7871 8.61533 40.4325 9.222C40.0778 9.82867 39.5925 10.3 38.9765 10.636C38.3698 10.9627 37.6978 11.126 36.9605 11.126ZM36.9605 9.74C37.3711 9.74 37.7538 9.642 38.1085 9.446C38.4725 9.25 38.7665 8.956 38.9905 8.564C39.2145 8.172 39.3265 7.696 39.3265 7.136C39.3265 6.576 39.2191 6.10467 39.0045 5.722C38.7898 5.33 38.5051 5.036 38.1505 4.84C37.7958 4.644 37.4131 4.546 37.0025 4.546C36.5918 4.546 36.2091 4.644 35.8545 4.84C35.5091 5.036 35.2338 5.33 35.0285 5.722C34.8231 6.10467 34.7205 6.576 34.7205 7.136C34.7205 7.96667 34.9305 8.61067 35.3505 9.068C35.7798 9.516 36.3165 9.74 36.9605 9.74ZM44.1382 4.406C44.3715 4.014 44.6795 3.71067 45.0622 3.496C45.4542 3.272 45.9162 3.16 46.4482 3.16V4.812H46.0422C45.4169 4.812 44.9409 4.97067 44.6142 5.288C44.2969 5.60533 44.1382 6.156 44.1382 6.94V11H42.5422V3.286H44.1382V4.406ZM57.838 1.27V2.572H55.248V11H53.652V2.572H51.048V1.27H57.838ZM66.5243 6.954C66.5243 7.24333 66.5056 7.50467 66.4683 7.738H60.5743C60.621 8.354 60.8496 8.84867 61.2603 9.222C61.671 9.59533 62.175 9.782 62.7723 9.782C63.631 9.782 64.2376 9.42267 64.5923 8.704H66.3143C66.081 9.41333 65.6563 9.99667 65.0403 10.454C64.4336 10.902 63.6776 11.126 62.7723 11.126C62.035 11.126 61.3723 10.9627 60.7843 10.636C60.2056 10.3 59.7483 9.83333 59.4123 9.236C59.0856 8.62933 58.9223 7.92933 58.9223 7.136C58.9223 6.34267 59.081 5.64733 59.3983 5.05C59.725 4.44333 60.1776 3.97667 60.7563 3.65C61.3443 3.32333 62.0163 3.16 62.7723 3.16C63.5003 3.16 64.149 3.31867 64.7183 3.636C65.2876 3.95333 65.731 4.40133 66.0483 4.98C66.3656 5.54933 66.5243 6.20733 66.5243 6.954ZM64.8583 6.45C64.849 5.862 64.639 5.39067 64.2283 5.036C63.8176 4.68133 63.309 4.504 62.7023 4.504C62.1516 4.504 61.6803 4.68133 61.2883 5.036C60.8963 5.38133 60.663 5.85267 60.5883 6.45H64.8583ZM69.6909 0.64V11H68.0949V0.64H69.6909ZM73.3823 4.42C73.653 4.06533 74.0217 3.76667 74.4883 3.524C74.955 3.28133 75.4823 3.16 76.0703 3.16C76.7423 3.16 77.3537 3.328 77.9043 3.664C78.4643 3.99067 78.903 4.45267 79.2203 5.05C79.5377 5.64733 79.6963 6.33333 79.6963 7.108C79.6963 7.88267 79.5377 8.578 79.2203 9.194C78.903 9.80067 78.4643 10.2767 77.9043 10.622C77.3537 10.958 76.7423 11.126 76.0703 11.126C75.4823 11.126 74.9597 11.0093 74.5023 10.776C74.045 10.5333 73.6717 10.2347 73.3823 9.88V14.668H71.7863V3.286H73.3823V4.42ZM78.0723 7.108C78.0723 6.576 77.9603 6.11867 77.7363 5.736C77.5217 5.344 77.2323 5.05 76.8683 4.854C76.5137 4.64867 76.131 4.546 75.7203 4.546C75.319 4.546 74.9363 4.64867 74.5723 4.854C74.2177 5.05933 73.9283 5.358 73.7043 5.75C73.4897 6.142 73.3823 6.604 73.3823 7.136C73.3823 7.668 73.4897 8.13467 73.7043 8.536C73.9283 8.928 74.2177 9.22667 74.5723 9.432C74.9363 9.63733 75.319 9.74 75.7203 9.74C76.131 9.74 76.5137 9.63733 76.8683 9.432C77.2323 9.21733 77.5217 8.90933 77.7363 8.508C77.9603 8.10667 78.0723 7.64 78.0723 7.108ZM84.6206 11.126C83.8926 11.126 83.2346 10.9627 82.6466 10.636C82.0586 10.3 81.5966 9.83333 81.2606 9.236C80.9246 8.62933 80.7566 7.92933 80.7566 7.136C80.7566 6.352 80.9293 5.65667 81.2746 5.05C81.6199 4.44333 82.0913 3.97667 82.6886 3.65C83.2859 3.32333 83.9533 3.16 84.6906 3.16C85.4279 3.16 86.0953 3.32333 86.6926 3.65C87.2899 3.97667 87.7613 4.44333 88.1066 5.05C88.4519 5.65667 88.6246 6.352 88.6246 7.136C88.6246 7.92 88.4473 8.61533 88.0926 9.222C87.7379 9.82867 87.2526 10.3 86.6366 10.636C86.0299 10.9627 85.3579 11.126 84.6206 11.126ZM84.6206 9.74C85.0313 9.74 85.4139 9.642 85.7686 9.446C86.1326 9.25 86.4266 8.956 86.6506 8.564C86.8746 8.172 86.9866 7.696 86.9866 7.136C86.9866 6.576 86.8793 6.10467 86.6646 5.722C86.4499 5.33 86.1653 5.036 85.8106 4.84C85.4559 4.644 85.0733 4.546 84.6626 4.546C84.2519 4.546 83.8693 4.644 83.5146 4.84C83.1693 5.036 82.8939 5.33 82.6886 5.722C82.4833 6.10467 82.3806 6.576 82.3806 7.136C82.3806 7.96667 82.5906 8.61067 83.0106 9.068C83.4399 9.516 83.9766 9.74 84.6206 9.74ZM94.0943 3.16C94.701 3.16 95.2423 3.286 95.7183 3.538C96.2037 3.79 96.5817 4.16333 96.8523 4.658C97.123 5.15267 97.2583 5.75 97.2583 6.45V11H95.6763V6.688C95.6763 5.99733 95.5037 5.47 95.1583 5.106C94.813 4.73267 94.3417 4.546 93.7443 4.546C93.147 4.546 92.671 4.73267 92.3163 5.106C91.971 5.47 91.7983 5.99733 91.7983 6.688V11H90.2023V3.286H91.7983V4.168C92.0597 3.85067 92.391 3.60333 92.7923 3.426C93.203 3.24867 93.637 3.16 94.0943 3.16Z" fill="black"/>
</svg>
