<svg width="90" height="15" viewBox="0 0 90 15" fill="none" xmlns="http://www.w3.org/2000/svg">
<path d="M1.646 1.27V11H0.05V1.27H1.646ZM3.20941 7.108C3.20941 6.33333 3.36807 5.64733 3.68541 5.05C4.01207 4.45267 4.45074 3.99067 5.00141 3.664C5.56141 3.328 6.18207 3.16 6.86341 3.16C7.36741 3.16 7.86207 3.272 8.34741 3.496C8.84207 3.71067 9.23407 4 9.52341 4.364V0.64H11.1334V11H9.52341V9.838C9.26207 10.2113 8.89807 10.5193 8.43141 10.762C7.97407 11.0047 7.44674 11.126 6.84941 11.126C6.17741 11.126 5.56141 10.958 5.00141 10.622C4.45074 10.2767 4.01207 9.80067 3.68541 9.194C3.36807 8.578 3.20941 7.88267 3.20941 7.108ZM9.52341 7.136C9.52341 6.604 9.41141 6.142 9.18741 5.75C8.97274 5.358 8.68807 5.05933 8.33341 4.854C7.97874 4.64867 7.59607 4.546 7.18541 4.546C6.77474 4.546 6.39207 4.64867 6.03741 4.854C5.68274 5.05 5.39341 5.344 5.16941 5.736C4.95474 6.11867 4.84741 6.576 4.84741 7.108C4.84741 7.64 4.95474 8.10667 5.16941 8.508C5.39341 8.90933 5.68274 9.21733 6.03741 9.432C6.40141 9.63733 6.78407 9.74 7.18541 9.74C7.59607 9.74 7.97874 9.63733 8.33341 9.432C8.68807 9.22667 8.97274 8.928 9.18741 8.536C9.41141 8.13467 9.52341 7.668 9.52341 7.136ZM20.2997 6.954C20.2997 7.24333 20.281 7.50467 20.2437 7.738H14.3497C14.3964 8.354 14.625 8.84867 15.0357 9.222C15.4464 9.59533 15.9504 9.782 16.5477 9.782C17.4064 9.782 18.013 9.42267 18.3677 8.704H20.0897C19.8564 9.41333 19.4317 9.99667 18.8157 10.454C18.209 10.902 17.453 11.126 16.5477 11.126C15.8104 11.126 15.1477 10.9627 14.5597 10.636C13.981 10.3 13.5237 9.83333 13.1877 9.236C12.861 8.62933 12.6977 7.92933 12.6977 7.136C12.6977 6.34267 12.8564 5.64733 13.1737 5.05C13.5004 4.44333 13.953 3.97667 14.5317 3.65C15.1197 3.32333 15.7917 3.16 16.5477 3.16C17.2757 3.16 17.9244 3.31867 18.4937 3.636C19.063 3.95333 19.5064 4.40133 19.8237 4.98C20.141 5.54933 20.2997 6.20733 20.2997 6.954ZM18.6337 6.45C18.6244 5.862 18.4144 5.39067 18.0037 5.036C17.593 4.68133 17.0844 4.504 16.4777 4.504C15.927 4.504 15.4557 4.68133 15.0637 5.036C14.6717 5.38133 14.4384 5.85267 14.3637 6.45H18.6337ZM25.7623 3.16C26.369 3.16 26.9103 3.286 27.3863 3.538C27.8716 3.79 28.2496 4.16333 28.5203 4.658C28.791 5.15267 28.9263 5.75 28.9263 6.45V11H27.3443V6.688C27.3443 5.99733 27.1716 5.47 26.8263 5.106C26.481 4.73267 26.0096 4.546 25.4123 4.546C24.815 4.546 24.339 4.73267 23.9843 5.106C23.639 5.47 23.4663 5.99733 23.4663 6.688V11H21.8703V3.286H23.4663V4.168C23.7276 3.85067 24.059 3.60333 24.4603 3.426C24.871 3.24867 25.305 3.16 25.7623 3.16ZM32.8241 4.588V8.858C32.8241 9.14733 32.8894 9.35733 33.0201 9.488C33.1601 9.60933 33.3934 9.67 33.7201 9.67H34.7001V11H33.4401C32.7214 11 32.1708 10.832 31.7881 10.496C31.4054 10.16 31.2141 9.614 31.2141 8.858V4.588H30.3041V3.286H31.2141V1.368H32.8241V3.286H34.7001V4.588H32.8241ZM36.9831 2.264C36.6938 2.264 36.4511 2.166 36.2551 1.97C36.0591 1.774 35.9611 1.53133 35.9611 1.242C35.9611 0.952666 36.0591 0.71 36.2551 0.514C36.4511 0.318 36.6938 0.219999 36.9831 0.219999C37.2631 0.219999 37.5011 0.318 37.6971 0.514C37.8931 0.71 37.9911 0.952666 37.9911 1.242C37.9911 1.53133 37.8931 1.774 37.6971 1.97C37.5011 2.166 37.2631 2.264 36.9831 2.264ZM37.7671 3.286V11H36.1711V3.286H37.7671ZM41.7245 4.588V8.858C41.7245 9.14733 41.7898 9.35733 41.9205 9.488C42.0605 9.60933 42.2938 9.67 42.6205 9.67H43.6005V11H42.3405C41.6218 11 41.0712 10.832 40.6885 10.496C40.3058 10.16 40.1145 9.614 40.1145 8.858V4.588H39.2045V3.286H40.1145V1.368H41.7245V3.286H43.6005V4.588H41.7245ZM52.0155 3.286L47.2835 14.626H45.6315L47.1995 10.874L44.1615 3.286H45.9395L48.1095 9.166L50.3635 3.286H52.0155ZM56.3246 6.114C56.3246 5.162 56.544 4.308 56.9826 3.552C57.4306 2.796 58.0326 2.208 58.7886 1.788C59.554 1.35867 60.3893 1.144 61.2946 1.144C62.3306 1.144 63.25 1.40067 64.0526 1.914C64.8646 2.418 65.4526 3.13667 65.8166 4.07H63.8986C63.6466 3.55667 63.2966 3.174 62.8486 2.922C62.4006 2.67 61.8826 2.544 61.2946 2.544C60.6506 2.544 60.0766 2.68867 59.5726 2.978C59.0686 3.26733 58.672 3.68267 58.3826 4.224C58.1026 4.76533 57.9626 5.39533 57.9626 6.114C57.9626 6.83267 58.1026 7.46267 58.3826 8.004C58.672 8.54533 59.0686 8.96533 59.5726 9.264C60.0766 9.55333 60.6506 9.698 61.2946 9.698C61.8826 9.698 62.4006 9.572 62.8486 9.32C63.2966 9.068 63.6466 8.68533 63.8986 8.172H65.8166C65.4526 9.10533 64.8646 9.824 64.0526 10.328C63.25 10.832 62.3306 11.084 61.2946 11.084C60.38 11.084 59.5446 10.874 58.7886 10.454C58.0326 10.0247 57.4306 9.432 56.9826 8.676C56.544 7.92 56.3246 7.066 56.3246 6.114ZM67.1528 7.108C67.1528 6.33333 67.3114 5.64733 67.6288 5.05C67.9554 4.45267 68.3941 3.99067 68.9448 3.664C69.5048 3.328 70.1208 3.16 70.7928 3.16C71.3994 3.16 71.9268 3.28133 72.3748 3.524C72.8321 3.75733 73.1961 4.05133 73.4668 4.406V3.286H75.0768V11H73.4668V9.852C73.1961 10.216 72.8274 10.5193 72.3608 10.762C71.8941 11.0047 71.3621 11.126 70.7648 11.126C70.1021 11.126 69.4954 10.958 68.9448 10.622C68.3941 10.2767 67.9554 9.80067 67.6288 9.194C67.3114 8.578 67.1528 7.88267 67.1528 7.108ZM73.4668 7.136C73.4668 6.604 73.3548 6.142 73.1308 5.75C72.9161 5.358 72.6314 5.05933 72.2768 4.854C71.9221 4.64867 71.5394 4.546 71.1288 4.546C70.7181 4.546 70.3354 4.64867 69.9808 4.854C69.6261 5.05 69.3368 5.344 69.1128 5.736C68.8981 6.11867 68.7908 6.576 68.7908 7.108C68.7908 7.64 68.8981 8.10667 69.1128 8.508C69.3368 8.90933 69.6261 9.21733 69.9808 9.432C70.3448 9.63733 70.7274 9.74 71.1288 9.74C71.5394 9.74 71.9221 9.63733 72.2768 9.432C72.6314 9.22667 72.9161 8.928 73.1308 8.536C73.3548 8.13467 73.4668 7.668 73.4668 7.136ZM78.769 4.406C79.0024 4.014 79.3104 3.71067 79.693 3.496C80.085 3.272 80.547 3.16 81.079 3.16V4.812H80.673C80.0477 4.812 79.5717 4.97067 79.245 5.288C78.9277 5.60533 78.769 6.156 78.769 6.94V11H77.173V3.286H78.769V4.406ZM82.0141 7.108C82.0141 6.33333 82.1728 5.64733 82.4901 5.05C82.8168 4.45267 83.2554 3.99067 83.8061 3.664C84.3661 3.328 84.9868 3.16 85.6681 3.16C86.1721 3.16 86.6668 3.272 87.1521 3.496C87.6468 3.71067 88.0388 4 88.3281 4.364V0.64H89.9381V11H88.3281V9.838C88.0668 10.2113 87.7028 10.5193 87.2361 10.762C86.7788 11.0047 86.2514 11.126 85.6541 11.126C84.9821 11.126 84.3661 10.958 83.8061 10.622C83.2554 10.2767 82.8168 9.80067 82.4901 9.194C82.1728 8.578 82.0141 7.88267 82.0141 7.108ZM88.3281 7.136C88.3281 6.604 88.2161 6.142 87.9921 5.75C87.7774 5.358 87.4928 5.05933 87.1381 4.854C86.7834 4.64867 86.4008 4.546 85.9901 4.546C85.5794 4.546 85.1968 4.64867 84.8421 4.854C84.4874 5.05 84.1981 5.344 83.9741 5.736C83.7594 6.11867 83.6521 6.576 83.6521 7.108C83.6521 7.64 83.7594 8.10667 83.9741 8.508C84.1981 8.90933 84.4874 9.21733 84.8421 9.432C85.2061 9.63733 85.5888 9.74 85.9901 9.74C86.4008 9.74 86.7834 9.63733 87.1381 9.432C87.4928 9.22667 87.7774 8.928 87.9921 8.536C88.2161 8.13467 88.3281 7.668 88.3281 7.136Z" fill="black"/>
</svg>
