<svg width="165" height="46" viewBox="0 0 165 46" fill="none" xmlns="http://www.w3.org/2000/svg">
<path d="M78.41 22.86C79.1567 22.9933 79.79 23.3867 80.31 24.04C80.83 24.6933 81.09 25.4333 81.09 26.26C81.09 26.9667 80.9033 27.6067 80.53 28.18C80.17 28.74 79.6433 29.1867 78.95 29.52C78.2567 29.84 77.45 30 76.53 30H70.97V16.1H76.27C77.2167 16.1 78.03 16.26 78.71 16.58C79.39 16.9 79.9033 17.3333 80.25 17.88C80.5967 18.4133 80.77 19.0133 80.77 19.68C80.77 20.48 80.5567 21.1467 80.13 21.68C79.7033 22.2133 79.13 22.6067 78.41 22.86ZM73.25 21.94H76.07C76.8167 21.94 77.3967 21.7733 77.81 21.44C78.2367 21.0933 78.45 20.6 78.45 19.96C78.45 19.3333 78.2367 18.8467 77.81 18.5C77.3967 18.14 76.8167 17.96 76.07 17.96H73.25V21.94ZM76.33 28.14C77.1033 28.14 77.71 27.9533 78.15 27.58C78.59 27.2067 78.81 26.6867 78.81 26.02C78.81 25.34 78.5767 24.8 78.11 24.4C77.6433 24 77.0233 23.8 76.25 23.8H73.25V28.14H76.33ZM83.4077 24.44C83.4077 23.3333 83.6343 22.3533 84.0877 21.5C84.5543 20.6467 85.181 19.9867 85.9677 19.52C86.7677 19.04 87.6477 18.8 88.6077 18.8C89.4743 18.8 90.2277 18.9733 90.8677 19.32C91.521 19.6533 92.041 20.0733 92.4277 20.58V18.98H94.7277V30H92.4277V28.36C92.041 28.88 91.5143 29.3133 90.8477 29.66C90.181 30.0067 89.421 30.18 88.5677 30.18C87.621 30.18 86.7543 29.94 85.9677 29.46C85.181 28.9667 84.5543 28.2867 84.0877 27.42C83.6343 26.54 83.4077 25.5467 83.4077 24.44ZM92.4277 24.48C92.4277 23.72 92.2677 23.06 91.9477 22.5C91.641 21.94 91.2343 21.5133 90.7277 21.22C90.221 20.9267 89.6743 20.78 89.0877 20.78C88.501 20.78 87.9543 20.9267 87.4477 21.22C86.941 21.5 86.5277 21.92 86.2077 22.48C85.901 23.0267 85.7477 23.68 85.7477 24.44C85.7477 25.2 85.901 25.8667 86.2077 26.44C86.5277 27.0133 86.941 27.4533 87.4477 27.76C87.9677 28.0533 88.5143 28.2 89.0877 28.2C89.6743 28.2 90.221 28.0533 90.7277 27.76C91.2343 27.4667 91.641 27.04 91.9477 26.48C92.2677 25.9067 92.4277 25.24 92.4277 24.48ZM97.5623 24.48C97.5623 23.3467 97.789 22.3533 98.2423 21.5C98.709 20.6333 99.349 19.9667 100.162 19.5C100.976 19.0333 101.909 18.8 102.962 18.8C104.296 18.8 105.396 19.12 106.262 19.76C107.142 20.3867 107.736 21.2867 108.042 22.46H105.582C105.382 21.9133 105.062 21.4867 104.622 21.18C104.182 20.8733 103.629 20.72 102.962 20.72C102.029 20.72 101.282 21.0533 100.722 21.72C100.176 22.3733 99.9023 23.2933 99.9023 24.48C99.9023 25.6667 100.176 26.5933 100.722 27.26C101.282 27.9267 102.029 28.26 102.962 28.26C104.282 28.26 105.156 27.68 105.582 26.52H108.042C107.722 27.64 107.122 28.5333 106.242 29.2C105.362 29.8533 104.269 30.18 102.962 30.18C101.909 30.18 100.976 29.9467 100.162 29.48C99.349 29 98.709 28.3333 98.2423 27.48C97.789 26.6133 97.5623 25.6133 97.5623 24.48ZM115.275 24.5L120.355 30H117.275L113.195 25.26V30H110.915V15.2H113.195V23.8L117.195 18.98H120.355L115.275 24.5Z" fill="#404040"/>
<path d="M47.9389 23.4546C47.9389 23.7558 47.621 24 47.2282 24H37.1828L40.7098 28.0609C40.9277 28.3115 40.8396 28.6503 40.5128 28.8172C40.3912 28.8793 40.2546 28.9088 40.1192 28.9088C39.8895 28.9088 39.6639 28.8236 39.5272 28.666L35 23.4546L39.5272 18.2432C39.7444 17.9923 40.1844 17.9244 40.5127 18.0919C40.8396 18.259 40.9277 18.5977 40.7098 18.8483L37.1828 22.9091H47.2282C47.621 22.9091 47.9389 23.1534 47.9389 23.4546Z" fill="#404040"/>
</svg>
