<svg width="109" height="36" viewBox="0 0 109 36" fill="none" xmlns="http://www.w3.org/2000/svg">
<g clip-path="url(#clip0_701_75)">
<path d="M20.4827 16.6615L19.3341 15.5862L13.6552 20.8965L19.3341 26.2069L20.4827 25.1315L15.9559 20.8965L20.4827 16.6615Z" fill="#AF1318"/>
</g>
<path d="M33.328 26L29.024 21.024V26H27.2V14.88H29.024V19.952L33.344 14.88H35.632L30.8 20.448L35.712 26H33.328ZM45.405 21.376C45.405 21.7067 45.3837 22.0053 45.341 22.272H38.605C38.6583 22.976 38.9197 23.5413 39.389 23.968C39.8583 24.3947 40.4343 24.608 41.117 24.608C42.0983 24.608 42.7917 24.1973 43.197 23.376H45.165C44.8983 24.1867 44.413 24.8533 43.709 25.376C43.0157 25.888 42.1517 26.144 41.117 26.144C40.2743 26.144 39.517 25.9573 38.845 25.584C38.1837 25.2 37.661 24.6667 37.277 23.984C36.9037 23.2907 36.717 22.4907 36.717 21.584C36.717 20.6773 36.8983 19.8827 37.261 19.2C37.6343 18.5067 38.1517 17.9733 38.813 17.6C39.485 17.2267 40.253 17.04 41.117 17.04C41.949 17.04 42.6903 17.2213 43.341 17.584C43.9917 17.9467 44.4983 18.4587 44.861 19.12C45.2237 19.7707 45.405 20.5227 45.405 21.376ZM43.501 20.8C43.4903 20.128 43.2503 19.5893 42.781 19.184C42.3117 18.7787 41.7303 18.576 41.037 18.576C40.4077 18.576 39.869 18.7787 39.421 19.184C38.973 19.5787 38.7063 20.1173 38.621 20.8H43.501ZM57.872 17.04C58.5653 17.04 59.184 17.184 59.728 17.472C60.2827 17.76 60.7147 18.1867 61.024 18.752C61.344 19.3173 61.504 20 61.504 20.8V26H59.696V21.072C59.696 20.2827 59.4987 19.68 59.104 19.264C58.7093 18.8373 58.1707 18.624 57.488 18.624C56.8053 18.624 56.2613 18.8373 55.856 19.264C55.4613 19.68 55.264 20.2827 55.264 21.072V26H53.456V21.072C53.456 20.2827 53.2587 19.68 52.864 19.264C52.4693 18.8373 51.9307 18.624 51.248 18.624C50.5653 18.624 50.0213 18.8373 49.616 19.264C49.2213 19.68 49.024 20.2827 49.024 21.072V26H47.2V17.184H49.024V18.192C49.3227 17.8293 49.7013 17.5467 50.16 17.344C50.6187 17.1413 51.1093 17.04 51.632 17.04C52.336 17.04 52.9653 17.1893 53.52 17.488C54.0747 17.7867 54.5013 18.2187 54.8 18.784C55.0667 18.2507 55.4827 17.8293 56.048 17.52C56.6133 17.2 57.2213 17.04 57.872 17.04ZM65.649 18.496C65.9583 18.0693 66.3797 17.7227 66.913 17.456C67.457 17.1787 68.0597 17.04 68.721 17.04C69.4997 17.04 70.2037 17.2267 70.833 17.6C71.4623 17.9733 71.9583 18.5067 72.321 19.2C72.6837 19.8827 72.865 20.6667 72.865 21.552C72.865 22.4373 72.6837 23.232 72.321 23.936C71.9583 24.6293 71.457 25.1733 70.817 25.568C70.1877 25.952 69.489 26.144 68.721 26.144C68.0383 26.144 67.4303 26.0107 66.897 25.744C66.3743 25.4773 65.9583 25.136 65.649 24.72V26H63.825V14.16H65.649V18.496ZM71.009 21.552C71.009 20.944 70.881 20.4213 70.625 19.984C70.3797 19.536 70.049 19.2 69.633 18.976C69.2277 18.7413 68.7903 18.624 68.321 18.624C67.8623 18.624 67.425 18.7413 67.009 18.976C66.6037 19.2107 66.273 19.552 66.017 20C65.7717 20.448 65.649 20.976 65.649 21.584C65.649 22.192 65.7717 22.7253 66.017 23.184C66.273 23.632 66.6037 23.9733 67.009 24.208C67.425 24.4427 67.8623 24.56 68.321 24.56C68.7903 24.56 69.2277 24.4427 69.633 24.208C70.049 23.9627 70.3797 23.6107 70.625 23.152C70.881 22.6933 71.009 22.16 71.009 21.552ZM74.0608 21.552C74.0608 20.6667 74.2421 19.8827 74.6048 19.2C74.9781 18.5173 75.4794 17.9893 76.1088 17.616C76.7488 17.232 77.4528 17.04 78.2208 17.04C78.9141 17.04 79.5168 17.1787 80.0288 17.456C80.5514 17.7227 80.9674 18.0587 81.2768 18.464V17.184H83.1168V26H81.2768V24.688C80.9674 25.104 80.5461 25.4507 80.0128 25.728C79.4794 26.0053 78.8714 26.144 78.1888 26.144C77.4314 26.144 76.7381 25.952 76.1088 25.568C75.4794 25.1733 74.9781 24.6293 74.6048 23.936C74.2421 23.232 74.0608 22.4373 74.0608 21.552ZM81.2768 21.584C81.2768 20.976 81.1488 20.448 80.8928 20C80.6474 19.552 80.3221 19.2107 79.9168 18.976C79.5114 18.7413 79.0741 18.624 78.6048 18.624C78.1354 18.624 77.6981 18.7413 77.2928 18.976C76.8874 19.2 76.5568 19.536 76.3008 19.984C76.0554 20.4213 75.9328 20.944 75.9328 21.552C75.9328 22.16 76.0554 22.6933 76.3008 23.152C76.5568 23.6107 76.8874 23.9627 77.2928 24.208C77.7088 24.4427 78.1461 24.56 78.6048 24.56C79.0741 24.56 79.5114 24.4427 79.9168 24.208C80.3221 23.9733 80.6474 23.632 80.8928 23.184C81.1488 22.7253 81.2768 22.192 81.2768 21.584ZM87.3365 14.16V26H85.5125V14.16H87.3365ZM90.6593 16.016C90.3286 16.016 90.0513 15.904 89.8273 15.68C89.6033 15.456 89.4913 15.1787 89.4913 14.848C89.4913 14.5173 89.6033 14.24 89.8273 14.016C90.0513 13.792 90.3286 13.68 90.6593 13.68C90.9793 13.68 91.2513 13.792 91.4753 14.016C91.6993 14.24 91.8113 14.5173 91.8113 14.848C91.8113 15.1787 91.6993 15.456 91.4753 15.68C91.2513 15.904 90.9793 16.016 90.6593 16.016ZM91.5553 17.184V26H89.7313V17.184H91.5553Z" fill="#AF1318"/>
<defs>
<clipPath id="clip0_701_75">
<rect width="24.2759" height="22" fill="white" transform="translate(0 8)"/>
</clipPath>
</defs>
</svg>
