<svg width="112" height="11" viewBox="0 0 112 11" fill="none" xmlns="http://www.w3.org/2000/svg">
<path d="M2.28941 8.896H5.10941V10H0.921408V1.66H2.28941V8.896ZM7.18944 2.512C6.94144 2.512 6.73344 2.428 6.56544 2.26C6.39744 2.092 6.31344 1.884 6.31344 1.636C6.31344 1.388 6.39744 1.18 6.56544 1.012C6.73344 0.844 6.94144 0.76 7.18944 0.76C7.42944 0.76 7.63344 0.844 7.80144 1.012C7.96944 1.18 8.05344 1.388 8.05344 1.636C8.05344 1.884 7.96944 2.092 7.80144 2.26C7.63344 2.428 7.42944 2.512 7.18944 2.512ZM7.86144 3.388V10H6.49344V3.388H7.86144ZM13.3175 3.28C13.8215 3.28 14.2695 3.388 14.6615 3.604C15.0615 3.82 15.3735 4.14 15.5975 4.564C15.8295 4.988 15.9455 5.5 15.9455 6.1V10H14.5895V6.304C14.5895 5.712 14.4415 5.26 14.1455 4.948C13.8495 4.628 13.4455 4.468 12.9335 4.468C12.4215 4.468 12.0135 4.628 11.7095 4.948C11.4135 5.26 11.2655 5.712 11.2655 6.304V10H9.8975V1.12H11.2655V4.156C11.4975 3.876 11.7895 3.66 12.1415 3.508C12.5015 3.356 12.8935 3.28 13.3175 3.28ZM17.4745 6.664C17.4745 6 17.6105 5.412 17.8825 4.9C18.1625 4.388 18.5385 3.992 19.0105 3.712C19.4905 3.424 20.0185 3.28 20.5945 3.28C21.1145 3.28 21.5665 3.384 21.9505 3.592C22.3425 3.792 22.6545 4.044 22.8865 4.348V3.388H24.2665V10H22.8865V9.016C22.6545 9.328 22.3385 9.588 21.9385 9.796C21.5385 10.004 21.0825 10.108 20.5705 10.108C20.0025 10.108 19.4825 9.964 19.0105 9.676C18.5385 9.38 18.1625 8.972 17.8825 8.452C17.6105 7.924 17.4745 7.328 17.4745 6.664ZM22.8865 6.688C22.8865 6.232 22.7905 5.836 22.5985 5.5C22.4145 5.164 22.1705 4.908 21.8665 4.732C21.5625 4.556 21.2345 4.468 20.8825 4.468C20.5305 4.468 20.2025 4.556 19.8985 4.732C19.5945 4.9 19.3465 5.152 19.1545 5.488C18.9705 5.816 18.8785 6.208 18.8785 6.664C18.8785 7.12 18.9705 7.52 19.1545 7.864C19.3465 8.208 19.5945 8.472 19.8985 8.656C20.2105 8.832 20.5385 8.92 20.8825 8.92C21.2345 8.92 21.5625 8.832 21.8665 8.656C22.1705 8.48 22.4145 8.224 22.5985 7.888C22.7905 7.544 22.8865 7.144 22.8865 6.688ZM27.8993 4.504V8.164C27.8993 8.412 27.9553 8.592 28.0673 8.704C28.1873 8.808 28.3873 8.86 28.6673 8.86H29.5073V10H28.4273C27.8113 10 27.3393 9.856 27.0113 9.568C26.6833 9.28 26.5193 8.812 26.5193 8.164V4.504H25.7393V3.388H26.5193V1.744H27.8993V3.388H29.5073V4.504H27.8993ZM37.0893 1.66C37.9773 1.66 38.7533 1.832 39.4173 2.176C40.0893 2.512 40.6053 3 40.9653 3.64C41.3333 4.272 41.5173 5.012 41.5173 5.86C41.5173 6.708 41.3333 7.444 40.9653 8.068C40.6053 8.692 40.0893 9.172 39.4173 9.508C38.7533 9.836 37.9773 10 37.0893 10H34.3653V1.66H37.0893ZM37.0893 8.884C38.0653 8.884 38.8133 8.62 39.3333 8.092C39.8533 7.564 40.1133 6.82 40.1133 5.86C40.1133 4.892 39.8533 4.136 39.3333 3.592C38.8133 3.048 38.0653 2.776 37.0893 2.776H35.7333V8.884H37.0893ZM42.6571 6.664C42.6571 6 42.7931 5.412 43.0651 4.9C43.3451 4.388 43.7211 3.992 44.1931 3.712C44.6731 3.424 45.2011 3.28 45.7771 3.28C46.2971 3.28 46.7491 3.384 47.1331 3.592C47.5251 3.792 47.8371 4.044 48.0691 4.348V3.388H49.4491V10H48.0691V9.016C47.8371 9.328 47.5211 9.588 47.1211 9.796C46.7211 10.004 46.2651 10.108 45.7531 10.108C45.1851 10.108 44.6651 9.964 44.1931 9.676C43.7211 9.38 43.3451 8.972 43.0651 8.452C42.7931 7.924 42.6571 7.328 42.6571 6.664ZM48.0691 6.688C48.0691 6.232 47.9731 5.836 47.7811 5.5C47.5971 5.164 47.3531 4.908 47.0491 4.732C46.7451 4.556 46.4171 4.468 46.0651 4.468C45.7131 4.468 45.3851 4.556 45.0811 4.732C44.7771 4.9 44.5291 5.152 44.3371 5.488C44.1531 5.816 44.0611 6.208 44.0611 6.664C44.0611 7.12 44.1531 7.52 44.3371 7.864C44.5291 8.208 44.7771 8.472 45.0811 8.656C45.3931 8.832 45.7211 8.92 46.0651 8.92C46.4171 8.92 46.7451 8.832 47.0491 8.656C47.3531 8.48 47.5971 8.224 47.7811 7.888C47.9731 7.544 48.0691 7.144 48.0691 6.688ZM54.2579 4.504H53.0339V10H51.6539V4.504H50.8739V3.388H51.6539V2.92C51.6539 2.16 51.8539 1.608 52.2539 1.264C52.6619 0.912 53.2979 0.736 54.1619 0.736V1.876C53.7459 1.876 53.4539 1.956 53.2859 2.116C53.1179 2.268 53.0339 2.536 53.0339 2.92V3.388H54.2579V4.504ZM57.3063 4.504V8.164C57.3063 8.412 57.3623 8.592 57.4743 8.704C57.5943 8.808 57.7943 8.86 58.0743 8.86H58.9143V10H57.8343C57.2183 10 56.7463 9.856 56.4183 9.568C56.0903 9.28 55.9263 8.812 55.9263 8.164V4.504H55.1463V3.388H55.9263V1.744H57.3063V3.388H58.9143V4.504H57.3063ZM59.9592 6.664C59.9592 6 60.0952 5.412 60.3672 4.9C60.6472 4.388 61.0232 3.992 61.4952 3.712C61.9752 3.424 62.5032 3.28 63.0792 3.28C63.5992 3.28 64.0512 3.384 64.4352 3.592C64.8272 3.792 65.1392 4.044 65.3712 4.348V3.388H66.7512V10H65.3712V9.016C65.1392 9.328 64.8232 9.588 64.4232 9.796C64.0232 10.004 63.5672 10.108 63.0552 10.108C62.4872 10.108 61.9672 9.964 61.4952 9.676C61.0232 9.38 60.6472 8.972 60.3672 8.452C60.0952 7.924 59.9592 7.328 59.9592 6.664ZM65.3712 6.688C65.3712 6.232 65.2752 5.836 65.0832 5.5C64.8992 5.164 64.6552 4.908 64.3512 4.732C64.0472 4.556 63.7192 4.468 63.3672 4.468C63.0152 4.468 62.6872 4.556 62.3832 4.732C62.0792 4.9 61.8312 5.152 61.6392 5.488C61.4552 5.816 61.3632 6.208 61.3632 6.664C61.3632 7.12 61.4552 7.52 61.6392 7.864C61.8312 8.208 62.0792 8.472 62.3832 8.656C62.6952 8.832 63.0232 8.92 63.3672 8.92C63.7192 8.92 64.0472 8.832 64.3512 8.656C64.6552 8.48 64.8992 8.224 65.0832 7.888C65.2752 7.544 65.3712 7.144 65.3712 6.688ZM70.156 4.348C70.356 4.012 70.62 3.752 70.948 3.568C71.284 3.376 71.68 3.28 72.136 3.28V4.696H71.788C71.252 4.696 70.844 4.832 70.564 5.104C70.292 5.376 70.156 5.848 70.156 6.52V10H68.788V3.388H70.156V4.348ZM82.3786 1.66V2.776H80.1586V10H78.7906V2.776H76.5586V1.66H82.3786ZM83.5481 6.664C83.5481 6 83.6841 5.412 83.9561 4.9C84.2361 4.388 84.6121 3.992 85.0841 3.712C85.5641 3.424 86.0921 3.28 86.6681 3.28C87.1881 3.28 87.6401 3.384 88.0241 3.592C88.4161 3.792 88.7281 4.044 88.9601 4.348V3.388H90.3401V10H88.9601V9.016C88.7281 9.328 88.4121 9.588 88.0121 9.796C87.6121 10.004 87.1561 10.108 86.6441 10.108C86.0761 10.108 85.5561 9.964 85.0841 9.676C84.6121 9.38 84.2361 8.972 83.9561 8.452C83.6841 7.924 83.5481 7.328 83.5481 6.664ZM88.9601 6.688C88.9601 6.232 88.8641 5.836 88.6721 5.5C88.4881 5.164 88.2441 4.908 87.9401 4.732C87.6361 4.556 87.3081 4.468 86.9561 4.468C86.6041 4.468 86.2761 4.556 85.9721 4.732C85.6681 4.9 85.4201 5.152 85.2281 5.488C85.0441 5.816 84.9521 6.208 84.9521 6.664C84.9521 7.12 85.0441 7.52 85.2281 7.864C85.4201 8.208 85.6681 8.472 85.9721 8.656C86.2841 8.832 86.6121 8.92 86.9561 8.92C87.3081 8.92 87.6361 8.832 87.9401 8.656C88.2441 8.48 88.4881 8.224 88.6721 7.888C88.8641 7.544 88.9601 7.144 88.9601 6.688ZM100.381 3.28C100.901 3.28 101.365 3.388 101.773 3.604C102.189 3.82 102.513 4.14 102.745 4.564C102.985 4.988 103.105 5.5 103.105 6.1V10H101.749V6.304C101.749 5.712 101.601 5.26 101.305 4.948C101.009 4.628 100.605 4.468 100.093 4.468C99.5809 4.468 99.1729 4.628 98.8689 4.948C98.5729 5.26 98.4249 5.712 98.4249 6.304V10H97.0689V6.304C97.0689 5.712 96.9209 5.26 96.6249 4.948C96.3289 4.628 95.9249 4.468 95.4129 4.468C94.9009 4.468 94.4929 4.628 94.1889 4.948C93.8929 5.26 93.7449 5.712 93.7449 6.304V10H92.3769V3.388H93.7449V4.144C93.9689 3.872 94.2529 3.66 94.5969 3.508C94.9409 3.356 95.3089 3.28 95.7009 3.28C96.2289 3.28 96.7009 3.392 97.1169 3.616C97.5329 3.84 97.8529 4.164 98.0769 4.588C98.2769 4.188 98.5889 3.872 99.0129 3.64C99.4369 3.4 99.8929 3.28 100.381 3.28ZM111.074 3.388V10H109.706V9.22C109.49 9.492 109.206 9.708 108.854 9.868C108.51 10.02 108.142 10.096 107.75 10.096C107.23 10.096 106.762 9.988 106.346 9.772C105.938 9.556 105.614 9.236 105.374 8.812C105.142 8.388 105.026 7.876 105.026 7.276V3.388H106.382V7.072C106.382 7.664 106.53 8.12 106.826 8.44C107.122 8.752 107.526 8.908 108.038 8.908C108.55 8.908 108.954 8.752 109.25 8.44C109.554 8.12 109.706 7.664 109.706 7.072V3.388H111.074Z" fill="white"/>
</svg>
