<svg width="26" height="26" viewBox="0 0 26 26" fill="none" xmlns="http://www.w3.org/2000/svg">
<path d="M9.75 9.75C9.75 7.90833 11.1583 6.5 13 6.5C14.8417 6.5 16.25 7.90833 16.25 9.75C16.25 11.5917 14.8417 13 13 13C11.1583 13 9.75 11.5917 9.75 9.75ZM13 15.1667C8.01667 15.1667 6.5 18.7417 6.5 18.7417V20.5833H19.5V18.7417C19.5 18.7417 17.9833 15.1667 13 15.1667Z" fill="white" fill-opacity="0.55"/>
<path d="M20.0417 11.9167C21.5375 11.9167 22.75 10.7041 22.75 9.20833C22.75 7.71256 21.5375 6.5 20.0417 6.5C18.5459 6.5 17.3334 7.71256 17.3334 9.20833C17.3334 10.7041 18.5459 11.9167 20.0417 11.9167Z" fill="white" fill-opacity="0.55"/>
<path d="M20.0417 14.0834C18.7417 14.0834 17.7667 14.4084 17.0084 14.95C19.5 16.1417 20.475 18.2 20.475 18.4167V18.525H24.9167V17.1167C24.9167 17.0084 23.725 14.0834 20.0417 14.0834Z" fill="white" fill-opacity="0.55"/>
<path d="M20.0417 11.9167C21.5375 11.9167 22.75 10.7041 22.75 9.20833C22.75 7.71256 21.5375 6.5 20.0417 6.5C18.5459 6.5 17.3334 7.71256 17.3334 9.20833C17.3334 10.7041 18.5459 11.9167 20.0417 11.9167Z" fill="white" fill-opacity="0.1"/>
<path d="M20.0417 14.0834C18.7417 14.0834 17.7667 14.4084 17.0084 14.95C19.5 16.1417 20.475 18.2 20.475 18.4167V18.525H24.9167V17.1167C24.9167 17.0084 23.725 14.0834 20.0417 14.0834Z" fill="white" fill-opacity="0.1"/>
<path d="M5.95833 11.9167C7.4541 11.9167 8.66667 10.7041 8.66667 9.20833C8.66667 7.71256 7.4541 6.5 5.95833 6.5C4.46256 6.5 3.25 7.71256 3.25 9.20833C3.25 10.7041 4.46256 11.9167 5.95833 11.9167Z" fill="white" fill-opacity="0.55"/>
<path d="M5.95831 14.0834C7.25831 14.0834 8.23331 14.4084 8.99165 14.95C6.49998 16.1417 5.52498 18.2 5.52498 18.4167V18.525H1.08331V17.1167C1.08331 17.0084 2.27498 14.0834 5.95831 14.0834Z" fill="white" fill-opacity="0.55"/>
</svg>
