<svg width="46" height="45" viewBox="0 0 46 45" fill="none" xmlns="http://www.w3.org/2000/svg">
<path d="M0 10C0 4.47715 4.47715 0 10 0H36C41.5228 0 46 4.47715 46 10V35C46 40.5228 41.5228 45 36 45H10C4.47715 45 0 40.5228 0 35V10Z" fill="#9C0006"/>
<path d="M19.75 19.75C19.75 17.9083 21.1583 16.5 23 16.5C24.8417 16.5 26.25 17.9083 26.25 19.75C26.25 21.5917 24.8417 23 23 23C21.1583 23 19.75 21.5917 19.75 19.75ZM23 25.1667C18.0167 25.1667 16.5 28.7417 16.5 28.7417V30.5833H29.5V28.7417C29.5 28.7417 27.9833 25.1667 23 25.1667Z" fill="white"/>
<path d="M30.0416 21.9167C31.5374 21.9167 32.7499 20.7041 32.7499 19.2083C32.7499 17.7126 31.5374 16.5 30.0416 16.5C28.5458 16.5 27.3333 17.7126 27.3333 19.2083C27.3333 20.7041 28.5458 21.9167 30.0416 21.9167Z" fill="white"/>
<path d="M30.0416 24.0834C28.7416 24.0834 27.7666 24.4084 27.0083 24.95C29.5 26.1417 30.475 28.2 30.475 28.4167V28.525H34.9166V27.1167C34.9166 27.0084 33.725 24.0834 30.0416 24.0834Z" fill="white"/>
<path d="M30.0416 21.9167C31.5374 21.9167 32.7499 20.7041 32.7499 19.2083C32.7499 17.7126 31.5374 16.5 30.0416 16.5C28.5458 16.5 27.3333 17.7126 27.3333 19.2083C27.3333 20.7041 28.5458 21.9167 30.0416 21.9167Z" fill="white"/>
<path d="M30.0416 24.0834C28.7416 24.0834 27.7666 24.4084 27.0083 24.95C29.5 26.1417 30.475 28.2 30.475 28.4167V28.525H34.9166V27.1167C34.9166 27.0084 33.725 24.0834 30.0416 24.0834Z" fill="white"/>
<path d="M15.9583 21.9167C17.4541 21.9167 18.6667 20.7041 18.6667 19.2083C18.6667 17.7126 17.4541 16.5 15.9583 16.5C14.4626 16.5 13.25 17.7126 13.25 19.2083C13.25 20.7041 14.4626 21.9167 15.9583 21.9167Z" fill="white"/>
<path d="M15.9583 24.0834C17.2583 24.0834 18.2333 24.4084 18.9916 24.95C16.4999 26.1417 15.5249 28.2 15.5249 28.4167V28.525H11.0833V27.1167C11.0833 27.0084 12.2749 24.0834 15.9583 24.0834Z" fill="white"/>
</svg>
