<svg width="46" height="45" viewBox="0 0 46 45" fill="none" xmlns="http://www.w3.org/2000/svg">
<path d="M0 10C0 4.47715 4.47715 0 10 0H36C41.5228 0 46 4.47715 46 10V35C46 40.5228 41.5228 45 36 45H10C4.47715 45 0 40.5228 0 35V10Z" fill="#9C0006"/>
<path d="M23 18.45C21.3431 18.45 20 19.6588 20 21.15C20 22.6412 21.3431 23.85 23 23.85C24.6569 23.85 26 22.6412 26 21.15C26 19.6588 24.6569 18.45 23 18.45Z" fill="white"/>
<path d="M19.5812 25.2C18.6626 25.2 17.6144 25.7597 17.5849 26.8163C17.5654 27.5132 17.7264 28.4914 18.5722 29.293C19.4218 30.0982 20.8295 30.6 23 30.6C25.1705 30.6 26.5782 30.0982 27.4278 29.293C28.2737 28.4914 28.4347 27.5132 28.4152 26.8163C28.3856 25.7597 27.3374 25.2 26.419 25.2H19.5812Z" fill="white"/>
<path d="M21.5 11.7C19.8431 11.7 18.5 12.9088 18.5 14.4H16.25C15.0074 14.4 14 15.3066 14 16.425V31.2749C14 32.3933 15.0074 33.2999 16.25 33.2999H29.75C30.9926 33.2999 32 32.3933 32 31.2749V16.425C32 15.3066 30.9926 14.4 29.75 14.4H27.5C27.5 12.9088 26.1569 11.7 24.5 11.7H21.5ZM27.0986 15.75H29.75C30.1642 15.75 30.5 16.0522 30.5 16.425V31.2749C30.5 31.6477 30.1642 31.9499 29.75 31.9499H16.25C15.8358 31.9499 15.5 31.6477 15.5 31.2749V16.425C15.5 16.0522 15.8358 15.75 16.25 15.75H18.9013C19.4201 16.557 20.3896 17.1 21.5 17.1H24.5C25.6104 17.1 26.5799 16.557 27.0986 15.75ZM20 14.4C20 13.6544 20.6716 13.05 21.5 13.05H24.5C25.3285 13.05 26 13.6544 26 14.4C26 15.1455 25.3285 15.75 24.5 15.75H21.5C20.6716 15.75 20 15.1455 20 14.4Z" fill="white"/>
</svg>
