<svg width="25" height="25" viewBox="0 0 25 25" fill="none" xmlns="http://www.w3.org/2000/svg">
<g clip-path="url(#clip0_956_91)">
<path d="M4.16669 18.75H6.25002V20.8334H18.75V4.16671H6.25002V6.25004H4.16669V3.12504C4.16669 2.84877 4.27643 2.58382 4.47178 2.38847C4.66714 2.19312 4.93209 2.08337 5.20835 2.08337H19.7917C20.068 2.08337 20.3329 2.19312 20.5283 2.38847C20.7236 2.58382 20.8334 2.84877 20.8334 3.12504V21.875C20.8334 22.1513 20.7236 22.4163 20.5283 22.6116C20.3329 22.807 20.068 22.9167 19.7917 22.9167H5.20835C4.93209 22.9167 4.66714 22.807 4.47178 22.6116C4.27643 22.4163 4.16669 22.1513 4.16669 21.875V18.75ZM6.25002 11.4584H13.5417V13.5417H6.25002V16.6667L1.04169 12.5L6.25002 8.33337V11.4584Z" fill="white" fill-opacity="0.55"/>
</g>
<defs>
<clipPath id="clip0_956_91">
<rect width="25" height="25" fill="white"/>
</clipPath>
</defs>
</svg>
