<svg width="26" height="26" viewBox="0 0 26 26" fill="none" xmlns="http://www.w3.org/2000/svg">
<path d="M9.75 9.75C9.75 7.90833 11.1583 6.5 13 6.5C14.8417 6.5 16.25 7.90833 16.25 9.75C16.25 11.5917 14.8417 13 13 13C11.1583 13 9.75 11.5917 9.75 9.75ZM13 15.1667C8.01667 15.1667 6.5 18.7417 6.5 18.7417V20.5833H19.5V18.7417C19.5 18.7417 17.9833 15.1667 13 15.1667Z" fill="white"/>
<path d="M20.0416 11.9167C21.5374 11.9167 22.7499 10.7041 22.7499 9.20833C22.7499 7.71256 21.5374 6.5 20.0416 6.5C18.5458 6.5 17.3333 7.71256 17.3333 9.20833C17.3333 10.7041 18.5458 11.9167 20.0416 11.9167Z" fill="white"/>
<path d="M20.0416 14.0834C18.7416 14.0834 17.7666 14.4084 17.0083 14.95C19.5 16.1417 20.475 18.2 20.475 18.4167V18.525H24.9166V17.1167C24.9166 17.0084 23.725 14.0834 20.0416 14.0834Z" fill="white"/>
<path d="M20.0416 11.9167C21.5374 11.9167 22.7499 10.7041 22.7499 9.20833C22.7499 7.71256 21.5374 6.5 20.0416 6.5C18.5458 6.5 17.3333 7.71256 17.3333 9.20833C17.3333 10.7041 18.5458 11.9167 20.0416 11.9167Z" fill="white"/>
<path d="M20.0416 14.0834C18.7416 14.0834 17.7666 14.4084 17.0083 14.95C19.5 16.1417 20.475 18.2 20.475 18.4167V18.525H24.9166V17.1167C24.9166 17.0084 23.725 14.0834 20.0416 14.0834Z" fill="white"/>
<path d="M5.95833 11.9167C7.4541 11.9167 8.66667 10.7041 8.66667 9.20833C8.66667 7.71256 7.4541 6.5 5.95833 6.5C4.46256 6.5 3.25 7.71256 3.25 9.20833C3.25 10.7041 4.46256 11.9167 5.95833 11.9167Z" fill="white"/>
<path d="M5.95825 14.0834C7.25825 14.0834 8.23325 14.4084 8.99159 14.95C6.49992 16.1417 5.52492 18.2 5.52492 18.4167V18.525H1.08325V17.1167C1.08325 17.0084 2.27492 14.0834 5.95825 14.0834Z" fill="white"/>
</svg>
