<svg width="29" height="26" viewBox="0 0 29 26" fill="none" xmlns="http://www.w3.org/2000/svg">
<path d="M14.5 9.09998C12.8983 9.09998 11.6 10.264 11.6 11.7C11.6 13.136 12.8983 14.3 14.5 14.3C16.1016 14.3 17.4 13.136 17.4 11.7C17.4 10.264 16.1016 9.09998 14.5 9.09998Z" fill="white" fill-opacity="0.55"/>
<path d="M11.1951 15.6C10.3071 15.6 9.29392 16.139 9.26537 17.1565C9.24654 17.8275 9.40216 18.7695 10.2198 19.5414C11.041 20.3168 12.4019 20.8 14.5 20.8C16.5981 20.8 17.959 20.3168 18.7802 19.5414C19.5979 18.7695 19.7535 17.8275 19.7346 17.1565C19.7061 16.139 18.6928 15.6 17.805 15.6H11.1951Z" fill="white" fill-opacity="0.55"/>
<path d="M13.05 2.59998C11.4484 2.59998 10.15 3.76403 10.15 5.19998H7.97499C6.77376 5.19998 5.79999 6.07302 5.79999 7.14997V21.45C5.79999 22.5269 6.77376 23.4 7.97499 23.4H21.025C22.2262 23.4 23.2 22.5269 23.2 21.45V7.14997C23.2 6.07302 22.2262 5.19998 21.025 5.19998H18.85C18.85 3.76403 17.5517 2.59998 15.95 2.59998H13.05ZM18.462 6.49998H21.025C21.4253 6.49998 21.75 6.79099 21.75 7.14997V21.45C21.75 21.8089 21.4253 22.1 21.025 22.1H7.97499C7.57458 22.1 7.24999 21.8089 7.24999 21.45V7.14997C7.24999 6.79099 7.57458 6.49998 7.97499 6.49998H10.5379C11.0394 7.27711 11.9766 7.79997 13.05 7.79997H15.95C17.0234 7.79997 17.9606 7.27711 18.462 6.49998ZM11.6 5.19998C11.6 4.48201 12.2492 3.89998 13.05 3.89998H15.95C16.7508 3.89998 17.4 4.48201 17.4 5.19998C17.4 5.91794 16.7508 6.49998 15.95 6.49998H13.05C12.2492 6.49998 11.6 5.91794 11.6 5.19998Z" fill="white" fill-opacity="0.55"/>
</svg>
