<svg width="42" height="11" viewBox="0 0 42 11" fill="none" xmlns="http://www.w3.org/2000/svg">
<path d="M8.044 10H6.448L1.646 2.734V10H0.05V0.255999H1.646L6.448 7.508V0.255999H8.044V10ZM9.60784 6.108C9.60784 5.33333 9.76651 4.64733 10.0838 4.05C10.4105 3.45267 10.8492 2.99067 11.3998 2.664C11.9598 2.328 12.5758 2.16 13.2478 2.16C13.8545 2.16 14.3818 2.28133 14.8298 2.524C15.2872 2.75733 15.6512 3.05133 15.9218 3.406V2.286H17.5318V10H15.9218V8.852C15.6512 9.216 15.2825 9.51933 14.8158 9.762C14.3492 10.0047 13.8172 10.126 13.2198 10.126C12.5572 10.126 11.9505 9.958 11.3998 9.622C10.8492 9.27667 10.4105 8.80067 10.0838 8.194C9.76651 7.578 9.60784 6.88267 9.60784 6.108ZM15.9218 6.136C15.9218 5.604 15.8098 5.142 15.5858 4.75C15.3712 4.358 15.0865 4.05933 14.7318 3.854C14.3772 3.64867 13.9945 3.546 13.5838 3.546C13.1732 3.546 12.7905 3.64867 12.4358 3.854C12.0812 4.05 11.7918 4.344 11.5678 4.736C11.3532 5.11867 11.2458 5.576 11.2458 6.108C11.2458 6.64 11.3532 7.10667 11.5678 7.508C11.7918 7.90933 12.0812 8.21733 12.4358 8.432C12.7998 8.63733 13.1825 8.74 13.5838 8.74C13.9945 8.74 14.3772 8.63733 14.7318 8.432C15.0865 8.22667 15.3712 7.928 15.5858 7.536C15.8098 7.13467 15.9218 6.668 15.9218 6.136ZM28.9661 2.16C29.5728 2.16 30.1141 2.286 30.5901 2.538C31.0755 2.79 31.4535 3.16333 31.7241 3.658C32.0041 4.15267 32.1441 4.75 32.1441 5.45V10H30.5621V5.688C30.5621 4.99733 30.3895 4.47 30.0441 4.106C29.6988 3.73267 29.2275 3.546 28.6301 3.546C28.0328 3.546 27.5568 3.73267 27.2021 4.106C26.8568 4.47 26.6841 4.99733 26.6841 5.688V10H25.1021V5.688C25.1021 4.99733 24.9295 4.47 24.5841 4.106C24.2388 3.73267 23.7675 3.546 23.1701 3.546C22.5728 3.546 22.0968 3.73267 21.7421 4.106C21.3968 4.47 21.2241 4.99733 21.2241 5.688V10H19.6281V2.286H21.2241V3.168C21.4855 2.85067 21.8168 2.60333 22.2181 2.426C22.6195 2.24867 23.0488 2.16 23.5061 2.16C24.1221 2.16 24.6728 2.29067 25.1581 2.552C25.6435 2.81333 26.0168 3.19133 26.2781 3.686C26.5115 3.21933 26.8755 2.85067 27.3701 2.58C27.8648 2.3 28.3968 2.16 28.9661 2.16ZM33.643 6.108C33.643 5.33333 33.8017 4.64733 34.119 4.05C34.4457 3.45267 34.8843 2.99067 35.435 2.664C35.995 2.328 36.611 2.16 37.283 2.16C37.8897 2.16 38.417 2.28133 38.865 2.524C39.3223 2.75733 39.6863 3.05133 39.957 3.406V2.286H41.567V10H39.957V8.852C39.6863 9.216 39.3177 9.51933 38.851 9.762C38.3843 10.0047 37.8523 10.126 37.255 10.126C36.5923 10.126 35.9857 9.958 35.435 9.622C34.8843 9.27667 34.4457 8.80067 34.119 8.194C33.8017 7.578 33.643 6.88267 33.643 6.108ZM39.957 6.136C39.957 5.604 39.845 5.142 39.621 4.75C39.4063 4.358 39.1217 4.05933 38.767 3.854C38.4123 3.64867 38.0297 3.546 37.619 3.546C37.2083 3.546 36.8257 3.64867 36.471 3.854C36.1163 4.05 35.827 4.344 35.603 4.736C35.3883 5.11867 35.281 5.576 35.281 6.108C35.281 6.64 35.3883 7.10667 35.603 7.508C35.827 7.90933 36.1163 8.21733 36.471 8.432C36.835 8.63733 37.2177 8.74 37.619 8.74C38.0297 8.74 38.4123 8.63733 38.767 8.432C39.1217 8.22667 39.4063 7.928 39.621 7.536C39.845 7.13467 39.957 6.668 39.957 6.136Z" fill="black"/>
</svg>
