<svg width="92" height="18" viewBox="0 0 92 18" fill="none" xmlns="http://www.w3.org/2000/svg">
<path d="M7.336 4.27V5.572H4.746V14H3.15V5.572H0.546V4.27H7.336ZM15.9383 6.286V14H14.3423V13.09C14.0903 13.4073 13.759 13.6593 13.3483 13.846C12.947 14.0233 12.5177 14.112 12.0603 14.112C11.4537 14.112 10.9077 13.986 10.4223 13.734C9.94634 13.482 9.56834 13.1087 9.28834 12.614C9.01768 12.1193 8.88234 11.522 8.88234 10.822V6.286H10.4643V10.584C10.4643 11.2747 10.637 11.8067 10.9823 12.18C11.3277 12.544 11.799 12.726 12.3963 12.726C12.9937 12.726 13.465 12.544 13.8103 12.18C14.165 11.8067 14.3423 11.2747 14.3423 10.584V6.286H15.9383ZM18.8561 5.264C18.5668 5.264 18.3241 5.166 18.1281 4.97C17.9321 4.774 17.8341 4.53133 17.8341 4.242C17.8341 3.95267 17.9321 3.71 18.1281 3.514C18.3241 3.318 18.5668 3.22 18.8561 3.22C19.1361 3.22 19.3741 3.318 19.5701 3.514C19.7661 3.71 19.8641 3.95267 19.8641 4.242C19.8641 4.53133 19.7661 4.774 19.5701 4.97C19.3741 5.166 19.1361 5.264 18.8561 5.264ZM19.6401 15.512C19.6401 16.268 19.4488 16.814 19.0661 17.15C18.6928 17.4953 18.1468 17.668 17.4281 17.668H16.6021V16.324H17.1481C17.4748 16.324 17.7035 16.2587 17.8341 16.128C17.9741 16.0067 18.0441 15.8013 18.0441 15.512V6.286H19.6401V15.512ZM28.7215 6.286V14H27.1255V13.09C26.8735 13.4073 26.5422 13.6593 26.1315 13.846C25.7302 14.0233 25.3009 14.112 24.8435 14.112C24.2369 14.112 23.6909 13.986 23.2055 13.734C22.7295 13.482 22.3515 13.1087 22.0715 12.614C21.8009 12.1193 21.6655 11.522 21.6655 10.822V6.286H23.2475V10.584C23.2475 11.2747 23.4202 11.8067 23.7655 12.18C24.1109 12.544 24.5822 12.726 25.1795 12.726C25.7769 12.726 26.2482 12.544 26.5935 12.18C26.9482 11.8067 27.1255 11.2747 27.1255 10.584V6.286H28.7215ZM30.2953 10.108C30.2953 9.33333 30.454 8.64733 30.7713 8.05C31.098 7.45267 31.5367 6.99067 32.0873 6.664C32.6473 6.328 33.2633 6.16 33.9353 6.16C34.542 6.16 35.0693 6.28133 35.5173 6.524C35.9747 6.75733 36.3387 7.05133 36.6093 7.406V6.286H38.2193V14H36.6093V12.852C36.3387 13.216 35.97 13.5193 35.5033 13.762C35.0367 14.0047 34.5047 14.126 33.9073 14.126C33.2447 14.126 32.638 13.958 32.0873 13.622C31.5367 13.2767 31.098 12.8007 30.7713 12.194C30.454 11.578 30.2953 10.8827 30.2953 10.108ZM36.6093 10.136C36.6093 9.604 36.4973 9.142 36.2733 8.75C36.0587 8.358 35.774 8.05933 35.4193 7.854C35.0647 7.64867 34.682 7.546 34.2713 7.546C33.8607 7.546 33.478 7.64867 33.1233 7.854C32.7687 8.05 32.4793 8.344 32.2553 8.736C32.0407 9.11867 31.9333 9.576 31.9333 10.108C31.9333 10.64 32.0407 11.1067 32.2553 11.508C32.4793 11.9093 32.7687 12.2173 33.1233 12.432C33.4873 12.6373 33.87 12.74 34.2713 12.74C34.682 12.74 35.0647 12.6373 35.4193 12.432C35.774 12.2267 36.0587 11.928 36.2733 11.536C36.4973 11.1347 36.6093 10.668 36.6093 10.136ZM44.2076 6.16C44.8143 6.16 45.3556 6.286 45.8316 6.538C46.317 6.79 46.695 7.16333 46.9656 7.658C47.2363 8.15267 47.3716 8.75 47.3716 9.45V14H45.7896V9.688C45.7896 8.99733 45.617 8.47 45.2716 8.106C44.9263 7.73267 44.455 7.546 43.8576 7.546C43.2603 7.546 42.7843 7.73267 42.4296 8.106C42.0843 8.47 41.9116 8.99733 41.9116 9.688V14H40.3156V6.286H41.9116V7.168C42.173 6.85067 42.5043 6.60333 42.9056 6.426C43.3163 6.24867 43.7503 6.16 44.2076 6.16ZM56.5721 16.604C55.6575 15.7267 54.9528 14.6113 54.4581 13.258C53.9728 11.9047 53.7301 10.4533 53.7301 8.904C53.7301 7.31733 53.9915 5.81933 54.5141 4.41C55.0461 3.00067 55.8255 1.83867 56.8521 0.924H58.5041V1.078C57.4308 2.06733 56.6235 3.25267 56.0821 4.634C55.5408 6.01533 55.2701 7.43867 55.2701 8.904C55.2701 10.3133 55.5221 11.676 56.0261 12.992C56.5301 14.308 57.2628 15.4607 58.2241 16.45V16.604H56.5721ZM61.5168 4.27V10.472C61.5168 11.2093 61.7081 11.7647 62.0908 12.138C62.4828 12.5113 63.0241 12.698 63.7148 12.698C64.4148 12.698 64.9561 12.5113 65.3388 12.138C65.7308 11.7647 65.9268 11.2093 65.9268 10.472V4.27H67.5228V10.444C67.5228 11.2373 67.3501 11.9093 67.0048 12.46C66.6594 13.0107 66.1974 13.4213 65.6188 13.692C65.0401 13.9627 64.4008 14.098 63.7008 14.098C63.0008 14.098 62.3614 13.9627 61.7828 13.692C61.2134 13.4213 60.7608 13.0107 60.4248 12.46C60.0888 11.9093 59.9208 11.2373 59.9208 10.444V4.27H61.5168ZM73.4928 6.16C74.0994 6.16 74.6408 6.286 75.1168 6.538C75.6021 6.79 75.9801 7.16333 76.2508 7.658C76.5214 8.15267 76.6568 8.75 76.6568 9.45V14H75.0748V9.688C75.0748 8.99733 74.9021 8.47 74.5568 8.106C74.2114 7.73267 73.7401 7.546 73.1428 7.546C72.5454 7.546 72.0694 7.73267 71.7148 8.106C71.3694 8.47 71.1968 8.99733 71.1968 9.688V14H69.6008V6.286H71.1968V7.168C71.4581 6.85067 71.7894 6.60333 72.1908 6.426C72.6014 6.24867 73.0354 6.16 73.4928 6.16ZM79.5046 5.264C79.2152 5.264 78.9726 5.166 78.7766 4.97C78.5806 4.774 78.4826 4.53133 78.4826 4.242C78.4826 3.95267 78.5806 3.71 78.7766 3.514C78.9726 3.318 79.2152 3.22 79.5046 3.22C79.7846 3.22 80.0226 3.318 80.2186 3.514C80.4146 3.71 80.5126 3.95267 80.5126 4.242C80.5126 4.53133 80.4146 4.774 80.2186 4.97C80.0226 5.166 79.7846 5.264 79.5046 5.264ZM80.2886 6.286V14H78.6926V6.286H80.2886ZM84.246 7.588V11.858C84.246 12.1473 84.3113 12.3573 84.442 12.488C84.582 12.6093 84.8153 12.67 85.142 12.67H86.122V14H84.862C84.1433 14 83.5927 13.832 83.21 13.496C82.8273 13.16 82.636 12.614 82.636 11.858V7.588H81.726V6.286H82.636V4.368H84.246V6.286H86.122V7.588H84.246ZM87.201 16.604V16.45C88.1623 15.4607 88.895 14.308 89.399 12.992C89.903 11.676 90.155 10.3133 90.155 8.904C90.155 7.43867 89.8843 6.01533 89.343 4.634C88.8016 3.25267 87.9943 2.06733 86.921 1.078V0.924H88.573C89.5996 1.83867 90.3743 3.00067 90.897 4.41C91.429 5.81933 91.695 7.31733 91.695 8.904C91.695 10.4533 91.4476 11.9047 90.953 13.258C90.4676 14.6113 89.7676 15.7267 88.853 16.604H87.201Z" fill="black"/>
</svg>
    