<svg width="43" height="12" viewBox="0 0 43 12" fill="none" xmlns="http://www.w3.org/2000/svg">
<path d="M8.044 11H6.448L1.646 3.734V11H0.05V1.256H1.646L6.448 8.508V1.256H8.044V11ZM17.2098 6.954C17.2098 7.24333 17.1912 7.50467 17.1538 7.738H11.2598C11.3065 8.354 11.5352 8.84867 11.9458 9.222C12.3565 9.59533 12.8605 9.782 13.4578 9.782C14.3165 9.782 14.9232 9.42267 15.2778 8.704H16.9998C16.7665 9.41333 16.3418 9.99667 15.7258 10.454C15.1192 10.902 14.3632 11.126 13.4578 11.126C12.7205 11.126 12.0578 10.9627 11.4698 10.636C10.8912 10.3 10.4338 9.83333 10.0978 9.236C9.77118 8.62933 9.60784 7.92933 9.60784 7.136C9.60784 6.34267 9.76651 5.64733 10.0838 5.05C10.4105 4.44333 10.8632 3.97667 11.4418 3.65C12.0298 3.32333 12.7018 3.16 13.4578 3.16C14.1858 3.16 14.8345 3.31867 15.4038 3.636C15.9732 3.95333 16.4165 4.40133 16.7338 4.98C17.0512 5.54933 17.2098 6.20733 17.2098 6.954ZM15.5438 6.45C15.5345 5.862 15.3245 5.39067 14.9138 5.036C14.5032 4.68133 13.9945 4.504 13.3878 4.504C12.8372 4.504 12.3658 4.68133 11.9738 5.036C11.5818 5.38133 11.3485 5.85267 11.2738 6.45H15.5438ZM25.8505 6.954C25.8505 7.24333 25.8318 7.50467 25.7945 7.738H19.9005C19.9471 8.354 20.1758 8.84867 20.5865 9.222C20.9971 9.59533 21.5011 9.782 22.0985 9.782C22.9571 9.782 23.5638 9.42267 23.9185 8.704H25.6405C25.4071 9.41333 24.9825 9.99667 24.3665 10.454C23.7598 10.902 23.0038 11.126 22.0985 11.126C21.3611 11.126 20.6985 10.9627 20.1105 10.636C19.5318 10.3 19.0745 9.83333 18.7385 9.236C18.4118 8.62933 18.2485 7.92933 18.2485 7.136C18.2485 6.34267 18.4071 5.64733 18.7245 5.05C19.0511 4.44333 19.5038 3.97667 20.0825 3.65C20.6705 3.32333 21.3425 3.16 22.0985 3.16C22.8265 3.16 23.4751 3.31867 24.0445 3.636C24.6138 3.95333 25.0571 4.40133 25.3745 4.98C25.6918 5.54933 25.8505 6.20733 25.8505 6.954ZM24.1845 6.45C24.1751 5.862 23.9651 5.39067 23.5545 5.036C23.1438 4.68133 22.6351 4.504 22.0285 4.504C21.4778 4.504 21.0065 4.68133 20.6145 5.036C20.2225 5.38133 19.9891 5.85267 19.9145 6.45H24.1845ZM26.8891 7.108C26.8891 6.33333 27.0478 5.64733 27.3651 5.05C27.6918 4.45267 28.1304 3.99067 28.6811 3.664C29.2411 3.328 29.8618 3.16 30.5431 3.16C31.0471 3.16 31.5418 3.272 32.0271 3.496C32.5218 3.71067 32.9138 4 33.2031 4.364V0.64H34.8131V11H33.2031V9.838C32.9418 10.2113 32.5778 10.5193 32.1111 10.762C31.6538 11.0047 31.1264 11.126 30.5291 11.126C29.8571 11.126 29.2411 10.958 28.6811 10.622C28.1304 10.2767 27.6918 9.80067 27.3651 9.194C27.0478 8.578 26.8891 7.88267 26.8891 7.108ZM33.2031 7.136C33.2031 6.604 33.0911 6.142 32.8671 5.75C32.6524 5.358 32.3678 5.05933 32.0131 4.854C31.6584 4.64867 31.2758 4.546 30.8651 4.546C30.4544 4.546 30.0718 4.64867 29.7171 4.854C29.3624 5.05 29.0731 5.344 28.8491 5.736C28.6344 6.11867 28.5271 6.576 28.5271 7.108C28.5271 7.64 28.6344 8.10667 28.8491 8.508C29.0731 8.90933 29.3624 9.21733 29.7171 9.432C30.0811 9.63733 30.4638 9.74 30.8651 9.74C31.2758 9.74 31.6584 9.63733 32.0131 9.432C32.3678 9.22667 32.6524 8.928 32.8671 8.536C33.0911 8.13467 33.2031 7.668 33.2031 7.136ZM39.7094 11.126C39.1027 11.126 38.5567 11.0187 38.0714 10.804C37.5954 10.58 37.2174 10.2813 36.9374 9.908C36.6574 9.52533 36.508 9.10067 36.4894 8.634H38.1414C38.1694 8.96067 38.3234 9.236 38.6034 9.46C38.8927 9.67467 39.252 9.782 39.6814 9.782C40.1294 9.782 40.4747 9.698 40.7174 9.53C40.9694 9.35267 41.0954 9.12867 41.0954 8.858C41.0954 8.56867 40.9554 8.354 40.6754 8.214C40.4047 8.074 39.9707 7.92 39.3734 7.752C38.7947 7.59333 38.3234 7.43933 37.9594 7.29C37.5954 7.14067 37.278 6.912 37.0074 6.604C36.746 6.296 36.6154 5.89 36.6154 5.386C36.6154 4.97533 36.7367 4.602 36.9794 4.266C37.222 3.92067 37.5674 3.65 38.0154 3.454C38.4727 3.258 38.9954 3.16 39.5834 3.16C40.4607 3.16 41.1654 3.384 41.6974 3.832C42.2387 4.27067 42.528 4.87267 42.5654 5.638H40.9694C40.9414 5.29267 40.8014 5.01733 40.5494 4.812C40.2974 4.60667 39.9567 4.504 39.5274 4.504C39.1074 4.504 38.7854 4.58333 38.5614 4.742C38.3374 4.90067 38.2254 5.11067 38.2254 5.372C38.2254 5.57733 38.3 5.75 38.4494 5.89C38.5987 6.03 38.7807 6.142 38.9954 6.226C39.21 6.30067 39.5274 6.39867 39.9474 6.52C40.5074 6.66933 40.9647 6.82333 41.3194 6.982C41.6834 7.13133 41.996 7.35533 42.2574 7.654C42.5187 7.95267 42.654 8.34933 42.6634 8.844C42.6634 9.28267 42.542 9.67467 42.2994 10.02C42.0567 10.3653 41.7114 10.636 41.2634 10.832C40.8247 11.028 40.3067 11.126 39.7094 11.126Z" fill="black"/>
</svg>
