<svg width="31" height="31" viewBox="0 0 31 31" fill="none" xmlns="http://www.w3.org/2000/svg">
<g clip-path="url(#clip0_211_28)">
<path d="M15.5 6.78125C12.5574 6.78125 10.1719 9.1668 10.1719 12.1094C10.1719 15.052 12.5574 17.4375 15.5 17.4375C18.4426 17.4375 20.8281 15.052 20.8281 12.1094C20.8281 9.1668 18.4426 6.78125 15.5 6.78125ZM15.5 14.5312C14.1643 14.5312 13.0781 13.4444 13.0781 12.1094C13.0781 10.7713 14.1619 9.6875 15.5 9.6875C16.8381 9.6875 17.9219 10.7737 17.9219 12.1094C17.9219 13.4475 16.8381 14.5312 15.5 14.5312ZM15.5 0C6.93867 0 0 6.93867 0 15.5C0 24.0613 6.93867 31 15.5 31C24.0613 31 31 24.0613 31 15.5C31 6.93867 24.0613 0 15.5 0ZM15.5 28.0938C12.6706 28.0938 10.0653 27.1444 7.96191 25.5635C9.00937 23.5527 11.0437 22.2812 13.3324 22.2812H17.673C19.9587 22.2812 21.9906 23.5533 23.0423 25.5635C20.9371 27.1432 18.3275 28.0938 15.5 28.0938ZM25.1996 23.5225C23.5648 20.9674 20.7797 19.375 17.6676 19.375H13.3324C10.2227 19.375 7.43818 20.9644 5.80039 23.5212C3.99367 21.3428 2.90625 18.5455 2.90625 15.5C2.90625 8.55527 8.55588 2.90625 15.5 2.90625C22.4441 2.90625 28.0938 8.55588 28.0938 15.5C28.0938 18.5455 27.0039 21.3428 25.1996 23.5225Z" fill="white"/>
</g>
<defs>
<clipPath id="clip0_211_28">
<rect width="31" height="31" fill="white"/>
</clipPath>
</defs>
</svg>
