<svg width="27" height="26" viewBox="0 0 27 26" fill="none" xmlns="http://www.w3.org/2000/svg">
<g clip-path="url(#clip0_576_83)">
<path d="M13.3418 5.81767C10.8089 5.81767 8.75554 7.80562 8.75554 10.2578C8.75554 12.7099 10.8089 14.6979 13.3418 14.6979C15.8746 14.6979 17.928 12.7099 17.928 10.2578C17.928 7.80562 15.8746 5.81767 13.3418 5.81767ZM13.3418 12.276C12.1921 12.276 11.2571 11.3703 11.2571 10.2578C11.2571 9.1427 12.19 8.23954 13.3418 8.23954C14.4935 8.23954 15.4264 9.14472 15.4264 10.2578C15.4264 11.3728 14.4935 12.276 13.3418 12.276ZM13.3418 0.166626C5.97253 0.166626 0 5.94885 0 13.0833C0 20.2177 5.97253 26 13.3418 26C20.711 26 26.6835 20.2177 26.6835 13.0833C26.6835 5.94885 20.711 0.166626 13.3418 0.166626ZM13.3418 23.5781C10.9064 23.5781 8.66381 22.7869 6.85329 21.4695C7.7549 19.7939 9.50601 18.7343 11.476 18.7343H15.2122C17.1796 18.7343 18.9286 19.7944 19.8339 21.4695C18.0218 22.7859 15.7756 23.5781 13.3418 23.5781ZM21.6908 19.7687C20.2837 17.6394 17.8863 16.3125 15.2075 16.3125H11.476C8.79932 16.3125 6.40249 17.6369 4.99274 19.7677C3.43759 17.9523 2.50158 15.6212 2.50158 13.0833C2.50158 7.29602 7.36455 2.5885 13.3418 2.5885C19.319 2.5885 24.182 7.29653 24.182 13.0833C24.182 15.6212 23.2439 17.9523 21.6908 19.7687Z" fill="black"/>
</g>
<defs>
<clipPath id="clip0_576_83">
<rect width="26.6835" height="25.8333" fill="white" transform="translate(0 0.166626)"/>
</clipPath>
</defs>
</svg>
