<svg width="594" height="332" viewBox="0 0 594 332" fill="none" xmlns="http://www.w3.org/2000/svg">
<path d="M387.419 73.4713L283.177 10H562.653L387.419 73.4713Z" fill="#BA272D"/>
<path d="M400.5 91L631 0.5L337 182.5L400.5 91Z" fill="#BA272D"/>
<path d="M283.177 66.5546L223.867 10H103L283.177 66.5546Z" fill="#BA272D"/>
<path d="M255.5 247.5L444 183C452.333 204.5 469.4 247.5 471 247.5H255.5Z" fill="#D9D9D9"/>
<path d="M270.339 191.081L357.745 98.8999C320.51 99.4385 246.287 100.252 247.269 99.1954C248.251 98.1392 115.47 51.9584 48.9562 29L270.339 191.081Z" fill="#D9D9D9"/>
<path d="M80 106L205.5 206L115 177L0.5 26.5L80 106Z" fill="#D9D9D9"/>
<path d="M490 157L581.5 83L549 332L490 157Z" fill="#D9D9D9"/>
</svg>
