<svg width="519" height="450" viewBox="0 0 519 450" fill="none" xmlns="http://www.w3.org/2000/svg">
<path d="M165.076 448.21L44.6416 428.449L256.666 610.527L165.076 448.21Z" fill="#BA272D" fill-opacity="0.7"/>
<path d="M186.42 443.434L302.328 662.263L197.858 332.648L186.42 443.434Z" fill="#BA272D" fill-opacity="0.7"/>
<path d="M81.4869 385.544L-0.353846 389.808L-92.0492 311.064L81.4869 385.544Z" fill="#BA272D" fill-opacity="0.7"/>
<path d="M178.376 230.238L279.36 401.979C299.689 391.097 340.651 369.594 341.865 370.636L178.376 230.238Z" fill="#D9D9D9" fill-opacity="0.7"/>
<path d="M152.876 282.707L159.131 409.586C131.234 384.919 75.4541 335.946 75.5109 337.387C75.5678 338.828 -55.2533 287.356 -120.671 261.44L152.876 282.707Z" fill="#D9D9D9" fill-opacity="0.7"/>
<path d="M-46.9542 223.249L113.406 229.147L25.8549 192.187L-159.061 231.767L-46.9542 223.249Z" fill="#D9D9D9" fill-opacity="0.7"/>
<path d="M297.318 451.673L318.524 567.425L456.091 357.347L297.318 451.673Z" fill="#D9D9D9" fill-opacity="0.7"/>
</svg>
