<svg width="471" height="720" viewBox="0 0 471 720" fill="none" xmlns="http://www.w3.org/2000/svg">
<path d="M254.597 362.51L353.394 524.287L176.635 524.314L254.597 362.51Z" fill="white" fill-opacity="0.05"/>
<path d="M155.806 349.042L171.186 424.75L39.0719 472.479L155.806 349.042Z" fill="white" fill-opacity="0.05"/>
<path d="M324.109 380.13L390.906 524.281L467.35 524.27L324.109 380.13Z" fill="white" fill-opacity="0.05"/>
<path d="M228.932 681.547L39.1102 829.342L4.71681 682.351L228.932 681.547Z" fill="white" fill-opacity="0.05"/>
<path d="M227.129 593.924L132.3 637.428L44.9519 546.918L227.129 593.924Z" fill="white" fill-opacity="0.05"/>
<path d="M219.676 746.505L46.4091 860.536L61.2834 924.106L219.676 746.505Z" fill="white" fill-opacity="0.05"/>
<path d="M436.166 70.414L283.154 105.392L206.154 29.3917L294.456 -39.9363L436.166 70.414Z" fill="white" fill-opacity="0.05"/>
<path d="M470.176 -23.3113L392.927 -24.2529L374.152 -163.463L470.176 -23.3113Z" fill="white" fill-opacity="0.05"/>
<path d="M404.274 134.642L249.274 169.517L233.154 244.243L404.274 134.642Z" fill="white" fill-opacity="0.05"/>
<path d="M-109.46 171.943L69.6901 109.991L139.5 135L31.9511 282.675L-109.46 171.943Z" fill="white" fill-opacity="0.05"/>
<path d="M-143.724 265.576L-66.4778 266.726L-48.0783 405.987L-143.724 265.576Z" fill="white" fill-opacity="0.05"/>
<path d="M-77.3949 107.801L77.699 73.3446L94.0202 -1.33703L-77.3949 107.801Z" fill="white" fill-opacity="0.05"/>
</svg>
