<svg width="570" height="89" viewBox="0 0 570 89" fill="none" xmlns="http://www.w3.org/2000/svg">
<path d="M12.88 38.336C10.544 38.336 8.432 37.936 6.544 37.136C4.688 36.336 3.216 35.184 2.128 33.68C1.04 32.176 0.48 30.4 0.448 28.352H7.648C7.744 29.728 8.224 30.816 9.088 31.616C9.984 32.416 11.2 32.816 12.736 32.816C14.304 32.816 15.536 32.448 16.432 31.712C17.328 30.944 17.776 29.952 17.776 28.736C17.776 27.744 17.472 26.928 16.864 26.288C16.256 25.648 15.488 25.152 14.56 24.8C13.664 24.416 12.416 24 10.816 23.552C8.64 22.912 6.864 22.288 5.488 21.68C4.144 21.04 2.976 20.096 1.984 18.848C1.024 17.568 0.544 15.872 0.544 13.76C0.544 11.776 1.04 10.048 2.032 8.576C3.024 7.104 4.416 5.984 6.208 5.216C8 4.416 10.048 4.016 12.352 4.016C15.808 4.016 18.608 4.864 20.752 6.56C22.928 8.224 24.128 10.56 24.352 13.568H16.96C16.896 12.416 16.4 11.472 15.472 10.736C14.576 9.968 13.376 9.584 11.872 9.584C10.56 9.584 9.504 9.92 8.704 10.592C7.936 11.264 7.552 12.24 7.552 13.52C7.552 14.416 7.84 15.168 8.416 15.776C9.024 16.352 9.76 16.832 10.624 17.216C11.52 17.568 12.768 17.984 14.368 18.464C16.544 19.104 18.32 19.744 19.696 20.384C21.072 21.024 22.256 21.984 23.248 23.264C24.24 24.544 24.736 26.224 24.736 28.304C24.736 30.096 24.272 31.76 23.344 33.296C22.416 34.832 21.056 36.064 19.264 36.992C17.472 37.888 15.344 38.336 12.88 38.336ZM56.722 24.128C56.722 25.088 56.658 25.952 56.53 26.72H37.09C37.25 28.64 37.922 30.144 39.106 31.232C40.29 32.32 41.746 32.864 43.474 32.864C45.97 32.864 47.746 31.792 48.802 29.648H56.05C55.282 32.208 53.81 34.32 51.634 35.984C49.458 37.616 46.786 38.432 43.618 38.432C41.058 38.432 38.754 37.872 36.706 36.752C34.69 35.6 33.106 33.984 31.954 31.904C30.834 29.824 30.274 27.424 30.274 24.704C30.274 21.952 30.834 19.536 31.954 17.456C33.074 15.376 34.642 13.776 36.658 12.656C38.674 11.536 40.994 10.976 43.618 10.976C46.146 10.976 48.402 11.52 50.386 12.608C52.402 13.696 53.954 15.248 55.042 17.264C56.162 19.248 56.722 21.536 56.722 24.128ZM49.762 22.208C49.73 20.48 49.106 19.104 47.89 18.08C46.674 17.024 45.186 16.496 43.426 16.496C41.762 16.496 40.354 17.008 39.202 18.032C38.082 19.024 37.394 20.416 37.138 22.208H49.762ZM69.787 2.48V38H63.067V2.48H69.787ZM76.1384 24.608C76.1384 21.92 76.6664 19.536 77.7224 17.456C78.8104 15.376 80.2664 13.776 82.0904 12.656C83.9464 11.536 86.0104 10.976 88.2824 10.976C90.2664 10.976 91.9944 11.376 93.4664 12.176C94.9704 12.976 96.1704 13.984 97.0664 15.2V11.408H103.834V38H97.0664V34.112C96.2024 35.36 95.0024 36.4 93.4664 37.232C91.9624 38.032 90.2184 38.432 88.2344 38.432C85.9944 38.432 83.9464 37.856 82.0904 36.704C80.2664 35.552 78.8104 33.936 77.7224 31.856C76.6664 29.744 76.1384 27.328 76.1384 24.608ZM97.0664 24.704C97.0664 23.072 96.7464 21.68 96.1064 20.528C95.4664 19.344 94.6024 18.448 93.5144 17.84C92.4264 17.2 91.2584 16.88 90.0104 16.88C88.7624 16.88 87.6104 17.184 86.5544 17.792C85.4984 18.4 84.6344 19.296 83.9624 20.48C83.3224 21.632 83.0024 23.008 83.0024 24.608C83.0024 26.208 83.3224 27.616 83.9624 28.832C84.6344 30.016 85.4984 30.928 86.5544 31.568C87.6424 32.208 88.7944 32.528 90.0104 32.528C91.2584 32.528 92.4264 32.224 93.5144 31.616C94.6024 30.976 95.4664 30.08 96.1064 28.928C96.7464 27.744 97.0664 26.336 97.0664 24.704ZM144.862 11.024C148.126 11.024 150.75 12.032 152.734 14.048C154.75 16.032 155.758 18.816 155.758 22.4V38H149.038V23.312C149.038 21.232 148.51 19.648 147.454 18.56C146.398 17.44 144.958 16.88 143.134 16.88C141.31 16.88 139.854 17.44 138.766 18.56C137.71 19.648 137.182 21.232 137.182 23.312V38H130.462V23.312C130.462 21.232 129.934 19.648 128.878 18.56C127.822 17.44 126.382 16.88 124.558 16.88C122.702 16.88 121.23 17.44 120.142 18.56C119.086 19.648 118.558 21.232 118.558 23.312V38H111.838V11.408H118.558V14.624C119.422 13.504 120.526 12.624 121.87 11.984C123.246 11.344 124.75 11.024 126.382 11.024C128.462 11.024 130.318 11.472 131.95 12.368C133.582 13.232 134.846 14.48 135.742 16.112C136.606 14.576 137.854 13.344 139.486 12.416C141.15 11.488 142.942 11.024 144.862 11.024ZM161.846 24.608C161.846 21.92 162.374 19.536 163.43 17.456C164.518 15.376 165.974 13.776 167.798 12.656C169.654 11.536 171.718 10.976 173.99 10.976C175.974 10.976 177.702 11.376 179.174 12.176C180.678 12.976 181.878 13.984 182.774 15.2V11.408H189.542V38H182.774V34.112C181.91 35.36 180.71 36.4 179.174 37.232C177.67 38.032 175.926 38.432 173.942 38.432C171.702 38.432 169.654 37.856 167.798 36.704C165.974 35.552 164.518 33.936 163.43 31.856C162.374 29.744 161.846 27.328 161.846 24.608ZM182.774 24.704C182.774 23.072 182.454 21.68 181.814 20.528C181.174 19.344 180.31 18.448 179.222 17.84C178.134 17.2 176.966 16.88 175.718 16.88C174.47 16.88 173.318 17.184 172.262 17.792C171.206 18.4 170.342 19.296 169.67 20.48C169.03 21.632 168.71 23.008 168.71 24.608C168.71 26.208 169.03 27.616 169.67 28.832C170.342 30.016 171.206 30.928 172.262 31.568C173.35 32.208 174.502 32.528 175.718 32.528C176.966 32.528 178.134 32.224 179.222 31.616C180.31 30.976 181.174 30.08 181.814 28.928C182.454 27.744 182.774 26.336 182.774 24.704ZM205.37 16.928V29.792C205.37 30.688 205.578 31.344 205.994 31.76C206.442 32.144 207.178 32.336 208.202 32.336H211.322V38H207.098C201.434 38 198.602 35.248 198.602 29.744V16.928H195.434V11.408H198.602V4.832H205.37V11.408H211.322V16.928H205.37ZM228.745 24.608C228.745 21.92 229.273 19.536 230.329 17.456C231.417 15.376 232.889 13.776 234.745 12.656C236.601 11.536 238.665 10.976 240.937 10.976C242.665 10.976 244.313 11.36 245.881 12.128C247.449 12.864 248.697 13.856 249.625 15.104V2.48H256.441V38H249.625V34.064C248.793 35.376 247.625 36.432 246.121 37.232C244.617 38.032 242.873 38.432 240.889 38.432C238.649 38.432 236.601 37.856 234.745 36.704C232.889 35.552 231.417 33.936 230.329 31.856C229.273 29.744 228.745 27.328 228.745 24.608ZM249.673 24.704C249.673 23.072 249.353 21.68 248.713 20.528C248.073 19.344 247.209 18.448 246.121 17.84C245.033 17.2 243.865 16.88 242.617 16.88C241.369 16.88 240.217 17.184 239.161 17.792C238.105 18.4 237.241 19.296 236.569 20.48C235.929 21.632 235.609 23.008 235.609 24.608C235.609 26.208 235.929 27.616 236.569 28.832C237.241 30.016 238.105 30.928 239.161 31.568C240.249 32.208 241.401 32.528 242.617 32.528C243.865 32.528 245.033 32.224 246.121 31.616C247.209 30.976 248.073 30.08 248.713 28.928C249.353 27.744 249.673 26.336 249.673 24.704ZM262.716 24.608C262.716 21.92 263.244 19.536 264.3 17.456C265.388 15.376 266.844 13.776 268.668 12.656C270.524 11.536 272.588 10.976 274.86 10.976C276.844 10.976 278.572 11.376 280.044 12.176C281.548 12.976 282.748 13.984 283.644 15.2V11.408H290.412V38H283.644V34.112C282.78 35.36 281.58 36.4 280.044 37.232C278.54 38.032 276.796 38.432 274.812 38.432C272.572 38.432 270.524 37.856 268.668 36.704C266.844 35.552 265.388 33.936 264.3 31.856C263.244 29.744 262.716 27.328 262.716 24.608ZM283.644 24.704C283.644 23.072 283.324 21.68 282.684 20.528C282.044 19.344 281.18 18.448 280.092 17.84C279.004 17.2 277.836 16.88 276.588 16.88C275.34 16.88 274.188 17.184 273.132 17.792C272.076 18.4 271.212 19.296 270.54 20.48C269.9 21.632 269.58 23.008 269.58 24.608C269.58 26.208 269.9 27.616 270.54 28.832C271.212 30.016 272.076 30.928 273.132 31.568C274.22 32.208 275.372 32.528 276.588 32.528C277.836 32.528 279.004 32.224 280.092 31.616C281.18 30.976 282.044 30.08 282.684 28.928C283.324 27.744 283.644 26.336 283.644 24.704ZM306.239 16.928V29.792C306.239 30.688 306.447 31.344 306.863 31.76C307.311 32.144 308.047 32.336 309.071 32.336H312.191V38H307.967C302.303 38 299.471 35.248 299.471 29.744V16.928H296.303V11.408H299.471V4.832H306.239V11.408H312.191V16.928H306.239ZM316.736 24.608C316.736 21.92 317.264 19.536 318.32 17.456C319.408 15.376 320.864 13.776 322.688 12.656C324.544 11.536 326.608 10.976 328.88 10.976C330.864 10.976 332.592 11.376 334.064 12.176C335.568 12.976 336.768 13.984 337.664 15.2V11.408H344.432V38H337.664V34.112C336.8 35.36 335.6 36.4 334.064 37.232C332.56 38.032 330.816 38.432 328.832 38.432C326.592 38.432 324.544 37.856 322.688 36.704C320.864 35.552 319.408 33.936 318.32 31.856C317.264 29.744 316.736 27.328 316.736 24.608ZM337.664 24.704C337.664 23.072 337.344 21.68 336.704 20.528C336.064 19.344 335.2 18.448 334.112 17.84C333.024 17.2 331.856 16.88 330.608 16.88C329.36 16.88 328.208 17.184 327.152 17.792C326.096 18.4 325.232 19.296 324.56 20.48C323.92 21.632 323.6 23.008 323.6 24.608C323.6 26.208 323.92 27.616 324.56 28.832C325.232 30.016 326.096 30.928 327.152 31.568C328.24 32.208 329.392 32.528 330.608 32.528C331.856 32.528 333.024 32.224 334.112 31.616C335.2 30.976 336.064 30.08 336.704 28.928C337.344 27.744 337.664 26.336 337.664 24.704ZM367.172 11.024C370.34 11.024 372.9 12.032 374.852 14.048C376.804 16.032 377.78 18.816 377.78 22.4V38H371.06V23.312C371.06 21.2 370.532 19.584 369.476 18.464C368.42 17.312 366.98 16.736 365.156 16.736C363.3 16.736 361.828 17.312 360.74 18.464C359.684 19.584 359.156 21.2 359.156 23.312V38H352.436V11.408H359.156V14.72C360.052 13.568 361.188 12.672 362.564 12.032C363.972 11.36 365.508 11.024 367.172 11.024ZM396.026 10.976C398.01 10.976 399.754 11.376 401.258 12.176C402.762 12.944 403.946 13.952 404.81 15.2V11.408H411.578V38.192C411.578 40.656 411.082 42.848 410.09 44.768C409.098 46.72 407.61 48.256 405.626 49.376C403.642 50.528 401.242 51.104 398.426 51.104C394.65 51.104 391.546 50.224 389.114 48.464C386.714 46.704 385.354 44.304 385.034 41.264H391.706C392.058 42.48 392.81 43.44 393.962 44.144C395.146 44.88 396.57 45.248 398.234 45.248C400.186 45.248 401.77 44.656 402.986 43.472C404.202 42.32 404.81 40.56 404.81 38.192V34.064C403.946 35.312 402.746 36.352 401.21 37.184C399.706 38.016 397.978 38.432 396.026 38.432C393.786 38.432 391.738 37.856 389.882 36.704C388.026 35.552 386.554 33.936 385.466 31.856C384.41 29.744 383.882 27.328 383.882 24.608C383.882 21.92 384.41 19.536 385.466 17.456C386.554 15.376 388.01 13.776 389.834 12.656C391.69 11.536 393.754 10.976 396.026 10.976ZM404.81 24.704C404.81 23.072 404.49 21.68 403.85 20.528C403.21 19.344 402.346 18.448 401.258 17.84C400.17 17.2 399.002 16.88 397.754 16.88C396.506 16.88 395.354 17.184 394.298 17.792C393.242 18.4 392.378 19.296 391.706 20.48C391.066 21.632 390.746 23.008 390.746 24.608C390.746 26.208 391.066 27.616 391.706 28.832C392.378 30.016 393.242 30.928 394.298 31.568C395.386 32.208 396.538 32.528 397.754 32.528C399.002 32.528 400.17 32.224 401.258 31.616C402.346 30.976 403.21 30.08 403.85 28.928C404.49 27.744 404.81 26.336 404.81 24.704ZM430.731 24.608C430.731 21.92 431.259 19.536 432.315 17.456C433.403 15.376 434.875 13.776 436.731 12.656C438.587 11.536 440.651 10.976 442.923 10.976C444.651 10.976 446.299 11.36 447.867 12.128C449.435 12.864 450.683 13.856 451.611 15.104V2.48H458.427V38H451.611V34.064C450.779 35.376 449.611 36.432 448.107 37.232C446.603 38.032 444.859 38.432 442.875 38.432C440.635 38.432 438.587 37.856 436.731 36.704C434.875 35.552 433.403 33.936 432.315 31.856C431.259 29.744 430.731 27.328 430.731 24.608ZM451.659 24.704C451.659 23.072 451.339 21.68 450.699 20.528C450.059 19.344 449.195 18.448 448.107 17.84C447.019 17.2 445.851 16.88 444.603 16.88C443.355 16.88 442.203 17.184 441.147 17.792C440.091 18.4 439.227 19.296 438.555 20.48C437.915 21.632 437.595 23.008 437.595 24.608C437.595 26.208 437.915 27.616 438.555 28.832C439.227 30.016 440.091 30.928 441.147 31.568C442.235 32.208 443.387 32.528 444.603 32.528C445.851 32.528 447.019 32.224 448.107 31.616C449.195 30.976 450.059 30.08 450.699 28.928C451.339 27.744 451.659 26.336 451.659 24.704ZM469.838 8.24C468.654 8.24 467.662 7.872 466.862 7.136C466.094 6.368 465.71 5.424 465.71 4.304C465.71 3.184 466.094 2.256 466.862 1.52C467.662 0.751998 468.654 0.367998 469.838 0.367998C471.022 0.367998 471.998 0.751998 472.766 1.52C473.566 2.256 473.966 3.184 473.966 4.304C473.966 5.424 473.566 6.368 472.766 7.136C471.998 7.872 471.022 8.24 469.838 8.24ZM473.15 11.408V38H466.43V11.408H473.15ZM12.88 88.336C10.544 88.336 8.432 87.936 6.544 87.136C4.688 86.336 3.216 85.184 2.128 83.68C1.04 82.176 0.48 80.4 0.448 78.352H7.648C7.744 79.728 8.224 80.816 9.088 81.616C9.984 82.416 11.2 82.816 12.736 82.816C14.304 82.816 15.536 82.448 16.432 81.712C17.328 80.944 17.776 79.952 17.776 78.736C17.776 77.744 17.472 76.928 16.864 76.288C16.256 75.648 15.488 75.152 14.56 74.8C13.664 74.416 12.416 74 10.816 73.552C8.64 72.912 6.864 72.288 5.488 71.68C4.144 71.04 2.976 70.096 1.984 68.848C1.024 67.568 0.544 65.872 0.544 63.76C0.544 61.776 1.04 60.048 2.032 58.576C3.024 57.104 4.416 55.984 6.208 55.216C8 54.416 10.048 54.016 12.352 54.016C15.808 54.016 18.608 54.864 20.752 56.56C22.928 58.224 24.128 60.56 24.352 63.568H16.96C16.896 62.416 16.4 61.472 15.472 60.736C14.576 59.968 13.376 59.584 11.872 59.584C10.56 59.584 9.504 59.92 8.704 60.592C7.936 61.264 7.552 62.24 7.552 63.52C7.552 64.416 7.84 65.168 8.416 65.776C9.024 66.352 9.76 66.832 10.624 67.216C11.52 67.568 12.768 67.984 14.368 68.464C16.544 69.104 18.32 69.744 19.696 70.384C21.072 71.024 22.256 71.984 23.248 73.264C24.24 74.544 24.736 76.224 24.736 78.304C24.736 80.096 24.272 81.76 23.344 83.296C22.416 84.832 21.056 86.064 19.264 86.992C17.472 87.888 15.344 88.336 12.88 88.336ZM68.53 54.496V88H61.81V66.208L52.834 88H47.746L38.722 66.208V88H32.002V54.496H39.634L50.29 79.408L60.946 54.496H68.53ZM95.5259 88L83.3339 73.072V88H76.6139V54.496H83.3339V69.52L95.5259 54.496H103.638L89.8139 71.104L104.022 88H95.5259ZM145.56 54.496V59.92H136.632V88H129.912V59.92H120.984V54.496H145.56ZM176.623 74.128C176.623 75.088 176.559 75.952 176.431 76.72H156.991C157.151 78.64 157.823 80.144 159.007 81.232C160.191 82.32 161.647 82.864 163.375 82.864C165.871 82.864 167.647 81.792 168.703 79.648H175.951C175.183 82.208 173.711 84.32 171.535 85.984C169.359 87.616 166.687 88.432 163.519 88.432C160.959 88.432 158.655 87.872 156.607 86.752C154.591 85.6 153.007 83.984 151.855 81.904C150.735 79.824 150.175 77.424 150.175 74.704C150.175 71.952 150.735 69.536 151.855 67.456C152.975 65.376 154.543 63.776 156.559 62.656C158.575 61.536 160.895 60.976 163.519 60.976C166.047 60.976 168.303 61.52 170.287 62.608C172.303 63.696 173.855 65.248 174.943 67.264C176.063 69.248 176.623 71.536 176.623 74.128ZM169.663 72.208C169.631 70.48 169.007 69.104 167.791 68.08C166.575 67.024 165.087 66.496 163.327 66.496C161.663 66.496 160.255 67.008 159.103 68.032C157.983 69.024 157.295 70.416 157.039 72.208H169.663ZM189.688 52.48V88H182.968V52.48H189.688ZM213.511 88L204.487 76.672V88H197.767V52.48H204.487V72.688L213.415 61.408H222.151L210.439 74.752L222.247 88H213.511ZM239.046 88.432C236.486 88.432 234.182 87.872 232.134 86.752C230.086 85.6 228.47 83.984 227.286 81.904C226.134 79.824 225.558 77.424 225.558 74.704C225.558 71.984 226.15 69.584 227.334 67.504C228.55 65.424 230.198 63.824 232.278 62.704C234.358 61.552 236.678 60.976 239.238 60.976C241.798 60.976 244.118 61.552 246.198 62.704C248.278 63.824 249.91 65.424 251.094 67.504C252.31 69.584 252.918 71.984 252.918 74.704C252.918 77.424 252.294 79.824 251.046 81.904C249.83 83.984 248.166 85.6 246.054 86.752C243.974 87.872 241.638 88.432 239.046 88.432ZM239.046 82.576C240.262 82.576 241.398 82.288 242.454 81.712C243.542 81.104 244.406 80.208 245.046 79.024C245.686 77.84 246.006 76.4 246.006 74.704C246.006 72.176 245.334 70.24 243.99 68.896C242.678 67.52 241.062 66.832 239.142 66.832C237.222 66.832 235.606 67.52 234.294 68.896C233.014 70.24 232.374 72.176 232.374 74.704C232.374 77.232 232.998 79.184 234.246 80.56C235.526 81.904 237.126 82.576 239.046 82.576ZM292.312 61.024C295.576 61.024 298.2 62.032 300.184 64.048C302.2 66.032 303.208 68.816 303.208 72.4V88H296.488V73.312C296.488 71.232 295.96 69.648 294.904 68.56C293.848 67.44 292.408 66.88 290.584 66.88C288.76 66.88 287.304 67.44 286.216 68.56C285.16 69.648 284.632 71.232 284.632 73.312V88H277.912V73.312C277.912 71.232 277.384 69.648 276.328 68.56C275.272 67.44 273.832 66.88 272.008 66.88C270.152 66.88 268.68 67.44 267.592 68.56C266.536 69.648 266.008 71.232 266.008 73.312V88H259.288V61.408H266.008V64.624C266.872 63.504 267.976 62.624 269.32 61.984C270.696 61.344 272.2 61.024 273.832 61.024C275.912 61.024 277.768 61.472 279.4 62.368C281.032 63.232 282.296 64.48 283.192 66.112C284.056 64.576 285.304 63.344 286.936 62.416C288.6 61.488 290.392 61.024 292.312 61.024ZM360.43 54.496V88H353.71V66.208L344.734 88H339.646L330.622 66.208V88H323.902V54.496H331.534L342.19 79.408L352.846 54.496H360.43ZM366.786 74.608C366.786 71.92 367.314 69.536 368.37 67.456C369.458 65.376 370.914 63.776 372.738 62.656C374.594 61.536 376.658 60.976 378.93 60.976C380.914 60.976 382.642 61.376 384.114 62.176C385.618 62.976 386.818 63.984 387.714 65.2V61.408H394.482V88H387.714V84.112C386.85 85.36 385.65 86.4 384.114 87.232C382.61 88.032 380.866 88.432 378.882 88.432C376.642 88.432 374.594 87.856 372.738 86.704C370.914 85.552 369.458 83.936 368.37 81.856C367.314 79.744 366.786 77.328 366.786 74.608ZM387.714 74.704C387.714 73.072 387.394 71.68 386.754 70.528C386.114 69.344 385.25 68.448 384.162 67.84C383.074 67.2 381.906 66.88 380.658 66.88C379.41 66.88 378.258 67.184 377.202 67.792C376.146 68.4 375.282 69.296 374.61 70.48C373.97 71.632 373.65 73.008 373.65 74.608C373.65 76.208 373.97 77.616 374.61 78.832C375.282 80.016 376.146 80.928 377.202 81.568C378.29 82.208 379.442 82.528 380.658 82.528C381.906 82.528 383.074 82.224 384.162 81.616C385.25 80.976 386.114 80.08 386.754 78.928C387.394 77.744 387.714 76.336 387.714 74.704ZM418.229 88L409.205 76.672V88H402.485V52.48H409.205V72.688L418.133 61.408H426.869L415.157 74.752L426.965 88H418.229ZM430.228 74.608C430.228 71.92 430.756 69.536 431.812 67.456C432.9 65.376 434.356 63.776 436.18 62.656C438.036 61.536 440.1 60.976 442.372 60.976C444.356 60.976 446.084 61.376 447.556 62.176C449.06 62.976 450.26 63.984 451.156 65.2V61.408H457.924V88H451.156V84.112C450.292 85.36 449.092 86.4 447.556 87.232C446.052 88.032 444.308 88.432 442.324 88.432C440.084 88.432 438.036 87.856 436.18 86.704C434.356 85.552 432.9 83.936 431.812 81.856C430.756 79.744 430.228 77.328 430.228 74.608ZM451.156 74.704C451.156 73.072 450.836 71.68 450.196 70.528C449.556 69.344 448.692 68.448 447.604 67.84C446.516 67.2 445.348 66.88 444.1 66.88C442.852 66.88 441.7 67.184 440.644 67.792C439.588 68.4 438.724 69.296 438.052 70.48C437.412 71.632 437.092 73.008 437.092 74.608C437.092 76.208 437.412 77.616 438.052 78.832C438.724 80.016 439.588 80.928 440.644 81.568C441.732 82.208 442.884 82.528 444.1 82.528C445.348 82.528 446.516 82.224 447.604 81.616C448.692 80.976 449.556 80.08 450.196 78.928C450.836 77.744 451.156 76.336 451.156 74.704ZM476.104 88.432C473.928 88.432 471.976 88.048 470.248 87.28C468.52 86.48 467.144 85.408 466.12 84.064C465.128 82.72 464.584 81.232 464.488 79.6H471.256C471.384 80.624 471.88 81.472 472.744 82.144C473.64 82.816 474.744 83.152 476.056 83.152C477.336 83.152 478.328 82.896 479.032 82.384C479.768 81.872 480.136 81.216 480.136 80.416C480.136 79.552 479.688 78.912 478.792 78.496C477.928 78.048 476.536 77.568 474.616 77.056C472.632 76.576 471 76.08 469.72 75.568C468.472 75.056 467.384 74.272 466.456 73.216C465.56 72.16 465.112 70.736 465.112 68.944C465.112 67.472 465.528 66.128 466.36 64.912C467.224 63.696 468.44 62.736 470.008 62.032C471.608 61.328 473.48 60.976 475.624 60.976C478.792 60.976 481.32 61.776 483.208 63.376C485.096 64.944 486.136 67.072 486.328 69.76H479.896C479.8 68.704 479.352 67.872 478.552 67.264C477.784 66.624 476.744 66.304 475.432 66.304C474.216 66.304 473.272 66.528 472.6 66.976C471.96 67.424 471.64 68.048 471.64 68.848C471.64 69.744 472.088 70.432 472.984 70.912C473.88 71.36 475.272 71.824 477.16 72.304C479.08 72.784 480.664 73.28 481.912 73.792C483.16 74.304 484.232 75.104 485.128 76.192C486.056 77.248 486.536 78.656 486.568 80.416C486.568 81.952 486.136 83.328 485.272 84.544C484.44 85.76 483.224 86.72 481.624 87.424C480.056 88.096 478.216 88.432 476.104 88.432ZM503.7 88.432C501.524 88.432 499.572 88.048 497.844 87.28C496.116 86.48 494.74 85.408 493.716 84.064C492.724 82.72 492.18 81.232 492.084 79.6H498.852C498.98 80.624 499.476 81.472 500.34 82.144C501.236 82.816 502.34 83.152 503.652 83.152C504.932 83.152 505.924 82.896 506.628 82.384C507.364 81.872 507.732 81.216 507.732 80.416C507.732 79.552 507.284 78.912 506.388 78.496C505.524 78.048 504.132 77.568 502.212 77.056C500.228 76.576 498.596 76.08 497.316 75.568C496.068 75.056 494.98 74.272 494.052 73.216C493.156 72.16 492.708 70.736 492.708 68.944C492.708 67.472 493.124 66.128 493.956 64.912C494.82 63.696 496.036 62.736 497.604 62.032C499.204 61.328 501.076 60.976 503.22 60.976C506.388 60.976 508.916 61.776 510.804 63.376C512.692 64.944 513.732 67.072 513.924 69.76H507.492C507.396 68.704 506.948 67.872 506.148 67.264C505.38 66.624 504.34 66.304 503.028 66.304C501.812 66.304 500.868 66.528 500.196 66.976C499.556 67.424 499.236 68.048 499.236 68.848C499.236 69.744 499.684 70.432 500.58 70.912C501.476 71.36 502.868 71.824 504.756 72.304C506.676 72.784 508.26 73.28 509.508 73.792C510.756 74.304 511.828 75.104 512.724 76.192C513.652 77.248 514.132 78.656 514.164 80.416C514.164 81.952 513.732 83.328 512.868 84.544C512.036 85.76 510.82 86.72 509.22 87.424C507.652 88.096 505.812 88.432 503.7 88.432ZM519.392 74.608C519.392 71.92 519.92 69.536 520.976 67.456C522.064 65.376 523.52 63.776 525.344 62.656C527.2 61.536 529.264 60.976 531.536 60.976C533.52 60.976 535.248 61.376 536.72 62.176C538.224 62.976 539.424 63.984 540.32 65.2V61.408H547.088V88H540.32V84.112C539.456 85.36 538.256 86.4 536.72 87.232C535.216 88.032 533.472 88.432 531.488 88.432C529.248 88.432 527.2 87.856 525.344 86.704C523.52 85.552 522.064 83.936 520.976 81.856C519.92 79.744 519.392 77.328 519.392 74.608ZM540.32 74.704C540.32 73.072 540 71.68 539.36 70.528C538.72 69.344 537.856 68.448 536.768 67.84C535.68 67.2 534.512 66.88 533.264 66.88C532.016 66.88 530.864 67.184 529.808 67.792C528.752 68.4 527.888 69.296 527.216 70.48C526.576 71.632 526.256 73.008 526.256 74.608C526.256 76.208 526.576 77.616 527.216 78.832C527.888 80.016 528.752 80.928 529.808 81.568C530.896 82.208 532.048 82.528 533.264 82.528C534.512 82.528 535.68 82.224 536.768 81.616C537.856 80.976 538.72 80.08 539.36 78.928C540 77.744 540.32 76.336 540.32 74.704ZM561.811 65.536C562.675 64.128 563.795 63.024 565.171 62.224C566.579 61.424 568.179 61.024 569.971 61.024V68.08H568.195C566.083 68.08 564.483 68.576 563.395 69.568C562.339 70.56 561.811 72.288 561.811 74.752V88H555.091V61.408H561.811V65.536Z" fill="white"/>
</svg>
