<svg width="571" height="87" viewBox="0 0 571 87" fill="none" xmlns="http://www.w3.org/2000/svg">
<path d="M47.096 2.496L37.736 36H29.816L23.528 12.144L16.952 36L9.08 36.048L0.0560001 2.496H7.256L13.16 28.512L19.976 2.496H27.464L33.896 28.368L39.848 2.496H47.096ZM77.6439 22.128C77.6439 23.088 77.5799 23.952 77.4519 24.72H58.0119C58.1719 26.64 58.8439 28.144 60.0279 29.232C61.2119 30.32 62.6679 30.864 64.3959 30.864C66.8919 30.864 68.6679 29.792 69.7239 27.648H76.9719C76.2039 30.208 74.7319 32.32 72.5559 33.984C70.3799 35.616 67.7079 36.432 64.5399 36.432C61.9799 36.432 59.6759 35.872 57.6279 34.752C55.6119 33.6 54.0279 31.984 52.8759 29.904C51.7559 27.824 51.1959 25.424 51.1959 22.704C51.1959 19.952 51.7559 17.536 52.8759 15.456C53.9959 13.376 55.5639 11.776 57.5799 10.656C59.5959 9.536 61.9159 8.976 64.5399 8.976C67.0679 8.976 69.3239 9.52 71.3079 10.608C73.3239 11.696 74.8759 13.248 75.9639 15.264C77.0839 17.248 77.6439 19.536 77.6439 22.128ZM70.6839 20.208C70.6519 18.48 70.0279 17.104 68.8119 16.08C67.5959 15.024 66.1079 14.496 64.3479 14.496C62.6839 14.496 61.2759 15.008 60.1239 16.032C59.0039 17.024 58.3159 18.416 58.0599 20.208H70.6839ZM90.7089 0.48V36H83.9889V0.48H90.7089ZM97.0602 22.704C97.0602 19.952 97.6202 17.552 98.7402 15.504C99.8602 13.424 101.412 11.824 103.396 10.704C105.38 9.552 107.652 8.976 110.212 8.976C113.508 8.976 116.228 9.808 118.372 11.472C120.548 13.104 122.004 15.408 122.74 18.384H115.492C115.108 17.232 114.452 16.336 113.524 15.696C112.628 15.024 111.508 14.688 110.164 14.688C108.244 14.688 106.724 15.392 105.604 16.8C104.484 18.176 103.924 20.144 103.924 22.704C103.924 25.232 104.484 27.2 105.604 28.608C106.724 29.984 108.244 30.672 110.164 30.672C112.884 30.672 114.66 29.456 115.492 27.024H122.74C122.004 29.904 120.548 32.192 118.372 33.888C116.196 35.584 113.476 36.432 110.212 36.432C107.652 36.432 105.38 35.872 103.396 34.752C101.412 33.6 99.8602 32 98.7402 29.952C97.6202 27.872 97.0602 25.456 97.0602 22.704ZM140.911 36.432C138.351 36.432 136.047 35.872 133.999 34.752C131.951 33.6 130.335 31.984 129.151 29.904C127.999 27.824 127.423 25.424 127.423 22.704C127.423 19.984 128.015 17.584 129.199 15.504C130.415 13.424 132.063 11.824 134.143 10.704C136.223 9.552 138.543 8.976 141.103 8.976C143.663 8.976 145.983 9.552 148.063 10.704C150.143 11.824 151.775 13.424 152.959 15.504C154.175 17.584 154.783 19.984 154.783 22.704C154.783 25.424 154.159 27.824 152.911 29.904C151.695 31.984 150.031 33.6 147.919 34.752C145.839 35.872 143.503 36.432 140.911 36.432ZM140.911 30.576C142.127 30.576 143.263 30.288 144.319 29.712C145.407 29.104 146.271 28.208 146.911 27.024C147.551 25.84 147.871 24.4 147.871 22.704C147.871 20.176 147.199 18.24 145.855 16.896C144.543 15.52 142.927 14.832 141.007 14.832C139.087 14.832 137.471 15.52 136.159 16.896C134.879 18.24 134.239 20.176 134.239 22.704C134.239 25.232 134.863 27.184 136.111 28.56C137.391 29.904 138.991 30.576 140.911 30.576ZM194.177 9.024C197.441 9.024 200.065 10.032 202.049 12.048C204.065 14.032 205.073 16.816 205.073 20.4V36H198.353V21.312C198.353 19.232 197.825 17.648 196.769 16.56C195.713 15.44 194.273 14.88 192.449 14.88C190.625 14.88 189.169 15.44 188.081 16.56C187.025 17.648 186.497 19.232 186.497 21.312V36H179.777V21.312C179.777 19.232 179.249 17.648 178.193 16.56C177.137 15.44 175.697 14.88 173.873 14.88C172.017 14.88 170.545 15.44 169.457 16.56C168.401 17.648 167.873 19.232 167.873 21.312V36H161.153V9.408H167.873V12.624C168.737 11.504 169.841 10.624 171.185 9.984C172.561 9.344 174.065 9.024 175.697 9.024C177.777 9.024 179.633 9.472 181.265 10.368C182.897 11.232 184.161 12.48 185.057 14.112C185.921 12.576 187.169 11.344 188.801 10.416C190.465 9.488 192.257 9.024 194.177 9.024ZM237.61 22.128C237.61 23.088 237.546 23.952 237.418 24.72H217.977C218.137 26.64 218.809 28.144 219.993 29.232C221.177 30.32 222.634 30.864 224.362 30.864C226.858 30.864 228.634 29.792 229.69 27.648H236.938C236.17 30.208 234.697 32.32 232.522 33.984C230.346 35.616 227.674 36.432 224.506 36.432C221.945 36.432 219.641 35.872 217.593 34.752C215.577 33.6 213.993 31.984 212.841 29.904C211.721 27.824 211.161 25.424 211.161 22.704C211.161 19.952 211.721 17.536 212.841 15.456C213.961 13.376 215.529 11.776 217.545 10.656C219.562 9.536 221.882 8.976 224.506 8.976C227.034 8.976 229.29 9.52 231.274 10.608C233.29 11.696 234.842 13.248 235.93 15.264C237.05 17.248 237.61 19.536 237.61 22.128ZM230.649 20.208C230.618 18.48 229.994 17.104 228.777 16.08C227.562 15.024 226.074 14.496 224.313 14.496C222.65 14.496 221.242 15.008 220.089 16.032C218.97 17.024 218.282 18.416 218.026 20.208H230.649ZM264.656 14.928V27.792C264.656 28.688 264.864 29.344 265.28 29.76C265.728 30.144 266.464 30.336 267.488 30.336H270.608V36H266.384C260.72 36 257.888 33.248 257.888 27.744V14.928H254.72V9.408H257.888V2.832H264.656V9.408H270.608V14.928H264.656ZM288.689 36.432C286.129 36.432 283.825 35.872 281.777 34.752C279.729 33.6 278.113 31.984 276.929 29.904C275.777 27.824 275.201 25.424 275.201 22.704C275.201 19.984 275.793 17.584 276.977 15.504C278.193 13.424 279.841 11.824 281.921 10.704C284.001 9.552 286.321 8.976 288.881 8.976C291.441 8.976 293.761 9.552 295.841 10.704C297.921 11.824 299.553 13.424 300.737 15.504C301.953 17.584 302.561 19.984 302.561 22.704C302.561 25.424 301.937 27.824 300.689 29.904C299.473 31.984 297.809 33.6 295.697 34.752C293.617 35.872 291.281 36.432 288.689 36.432ZM288.689 30.576C289.905 30.576 291.041 30.288 292.097 29.712C293.185 29.104 294.049 28.208 294.689 27.024C295.329 25.84 295.649 24.4 295.649 22.704C295.649 20.176 294.977 18.24 293.633 16.896C292.321 15.52 290.705 14.832 288.785 14.832C286.865 14.832 285.249 15.52 283.937 16.896C282.657 18.24 282.017 20.176 282.017 22.704C282.017 25.232 282.641 27.184 283.889 28.56C285.169 29.904 286.769 30.576 288.689 30.576ZM13.88 86.336C11.544 86.336 9.432 85.936 7.544 85.136C5.688 84.336 4.216 83.184 3.128 81.68C2.04 80.176 1.48 78.4 1.448 76.352H8.648C8.744 77.728 9.224 78.816 10.088 79.616C10.984 80.416 12.2 80.816 13.736 80.816C15.304 80.816 16.536 80.448 17.432 79.712C18.328 78.944 18.776 77.952 18.776 76.736C18.776 75.744 18.472 74.928 17.864 74.288C17.256 73.648 16.488 73.152 15.56 72.8C14.664 72.416 13.416 72 11.816 71.552C9.64 70.912 7.864 70.288 6.488 69.68C5.144 69.04 3.976 68.096 2.984 66.848C2.024 65.568 1.544 63.872 1.544 61.76C1.544 59.776 2.04 58.048 3.032 56.576C4.024 55.104 5.416 53.984 7.208 53.216C9 52.416 11.048 52.016 13.352 52.016C16.808 52.016 19.608 52.864 21.752 54.56C23.928 56.224 25.128 58.56 25.352 61.568H17.96C17.896 60.416 17.4 59.472 16.472 58.736C15.576 57.968 14.376 57.584 12.872 57.584C11.56 57.584 10.504 57.92 9.704 58.592C8.936 59.264 8.552 60.24 8.552 61.52C8.552 62.416 8.84 63.168 9.416 63.776C10.024 64.352 10.76 64.832 11.624 65.216C12.52 65.568 13.768 65.984 15.368 66.464C17.544 67.104 19.32 67.744 20.696 68.384C22.072 69.024 23.256 69.984 24.248 71.264C25.24 72.544 25.736 74.224 25.736 76.304C25.736 78.096 25.272 79.76 24.344 81.296C23.416 82.832 22.056 84.064 20.264 84.992C18.472 85.888 16.344 86.336 13.88 86.336ZM69.53 52.496V86H62.81V64.208L53.834 86H48.746L39.722 64.208V86H33.002V52.496H40.634L51.29 77.408L61.946 52.496H69.53ZM96.5259 86L84.3339 71.072V86H77.6139V52.496H84.3339V67.52L96.5259 52.496H104.638L90.8139 69.104L105.022 86H96.5259ZM146.56 52.496V57.92H137.632V86H130.912V57.92H121.984V52.496H146.56ZM177.623 72.128C177.623 73.088 177.559 73.952 177.431 74.72H157.991C158.151 76.64 158.823 78.144 160.007 79.232C161.191 80.32 162.647 80.864 164.375 80.864C166.871 80.864 168.647 79.792 169.703 77.648H176.951C176.183 80.208 174.711 82.32 172.535 83.984C170.359 85.616 167.687 86.432 164.519 86.432C161.959 86.432 159.655 85.872 157.607 84.752C155.591 83.6 154.007 81.984 152.855 79.904C151.735 77.824 151.175 75.424 151.175 72.704C151.175 69.952 151.735 67.536 152.855 65.456C153.975 63.376 155.543 61.776 157.559 60.656C159.575 59.536 161.895 58.976 164.519 58.976C167.047 58.976 169.303 59.52 171.287 60.608C173.303 61.696 174.855 63.248 175.943 65.264C177.063 67.248 177.623 69.536 177.623 72.128ZM170.663 70.208C170.631 68.48 170.007 67.104 168.791 66.08C167.575 65.024 166.087 64.496 164.327 64.496C162.663 64.496 161.255 65.008 160.103 66.032C158.983 67.024 158.295 68.416 158.039 70.208H170.663ZM190.688 50.48V86H183.968V50.48H190.688ZM214.511 86L205.487 74.672V86H198.767V50.48H205.487V70.688L214.415 59.408H223.151L211.439 72.752L223.247 86H214.511ZM240.046 86.432C237.486 86.432 235.182 85.872 233.134 84.752C231.086 83.6 229.47 81.984 228.286 79.904C227.134 77.824 226.558 75.424 226.558 72.704C226.558 69.984 227.15 67.584 228.334 65.504C229.55 63.424 231.198 61.824 233.278 60.704C235.358 59.552 237.678 58.976 240.238 58.976C242.798 58.976 245.118 59.552 247.198 60.704C249.278 61.824 250.91 63.424 252.094 65.504C253.31 67.584 253.918 69.984 253.918 72.704C253.918 75.424 253.294 77.824 252.046 79.904C250.83 81.984 249.166 83.6 247.054 84.752C244.974 85.872 242.638 86.432 240.046 86.432ZM240.046 80.576C241.262 80.576 242.398 80.288 243.454 79.712C244.542 79.104 245.406 78.208 246.046 77.024C246.686 75.84 247.006 74.4 247.006 72.704C247.006 70.176 246.334 68.24 244.99 66.896C243.678 65.52 242.062 64.832 240.142 64.832C238.222 64.832 236.606 65.52 235.294 66.896C234.014 68.24 233.374 70.176 233.374 72.704C233.374 75.232 233.998 77.184 235.246 78.56C236.526 79.904 238.126 80.576 240.046 80.576ZM293.312 59.024C296.576 59.024 299.2 60.032 301.184 62.048C303.2 64.032 304.208 66.816 304.208 70.4V86H297.488V71.312C297.488 69.232 296.96 67.648 295.904 66.56C294.848 65.44 293.408 64.88 291.584 64.88C289.76 64.88 288.304 65.44 287.216 66.56C286.16 67.648 285.632 69.232 285.632 71.312V86H278.912V71.312C278.912 69.232 278.384 67.648 277.328 66.56C276.272 65.44 274.832 64.88 273.008 64.88C271.152 64.88 269.68 65.44 268.592 66.56C267.536 67.648 267.008 69.232 267.008 71.312V86H260.288V59.408H267.008V62.624C267.872 61.504 268.976 60.624 270.32 59.984C271.696 59.344 273.2 59.024 274.832 59.024C276.912 59.024 278.768 59.472 280.4 60.368C282.032 61.232 283.296 62.48 284.192 64.112C285.056 62.576 286.304 61.344 287.936 60.416C289.6 59.488 291.392 59.024 293.312 59.024ZM361.43 52.496V86H354.71V64.208L345.734 86H340.646L331.622 64.208V86H324.902V52.496H332.534L343.19 77.408L353.846 52.496H361.43ZM367.786 72.608C367.786 69.92 368.314 67.536 369.37 65.456C370.458 63.376 371.914 61.776 373.738 60.656C375.594 59.536 377.658 58.976 379.93 58.976C381.914 58.976 383.642 59.376 385.114 60.176C386.618 60.976 387.818 61.984 388.714 63.2V59.408H395.482V86H388.714V82.112C387.85 83.36 386.65 84.4 385.114 85.232C383.61 86.032 381.866 86.432 379.882 86.432C377.642 86.432 375.594 85.856 373.738 84.704C371.914 83.552 370.458 81.936 369.37 79.856C368.314 77.744 367.786 75.328 367.786 72.608ZM388.714 72.704C388.714 71.072 388.394 69.68 387.754 68.528C387.114 67.344 386.25 66.448 385.162 65.84C384.074 65.2 382.906 64.88 381.658 64.88C380.41 64.88 379.258 65.184 378.202 65.792C377.146 66.4 376.282 67.296 375.61 68.48C374.97 69.632 374.65 71.008 374.65 72.608C374.65 74.208 374.97 75.616 375.61 76.832C376.282 78.016 377.146 78.928 378.202 79.568C379.29 80.208 380.442 80.528 381.658 80.528C382.906 80.528 384.074 80.224 385.162 79.616C386.25 78.976 387.114 78.08 387.754 76.928C388.394 75.744 388.714 74.336 388.714 72.704ZM419.229 86L410.205 74.672V86H403.485V50.48H410.205V70.688L419.133 59.408H427.869L416.157 72.752L427.965 86H419.229ZM431.228 72.608C431.228 69.92 431.756 67.536 432.812 65.456C433.9 63.376 435.356 61.776 437.18 60.656C439.036 59.536 441.1 58.976 443.372 58.976C445.356 58.976 447.084 59.376 448.556 60.176C450.06 60.976 451.26 61.984 452.156 63.2V59.408H458.924V86H452.156V82.112C451.292 83.36 450.092 84.4 448.556 85.232C447.052 86.032 445.308 86.432 443.324 86.432C441.084 86.432 439.036 85.856 437.18 84.704C435.356 83.552 433.9 81.936 432.812 79.856C431.756 77.744 431.228 75.328 431.228 72.608ZM452.156 72.704C452.156 71.072 451.836 69.68 451.196 68.528C450.556 67.344 449.692 66.448 448.604 65.84C447.516 65.2 446.348 64.88 445.1 64.88C443.852 64.88 442.7 65.184 441.644 65.792C440.588 66.4 439.724 67.296 439.052 68.48C438.412 69.632 438.092 71.008 438.092 72.608C438.092 74.208 438.412 75.616 439.052 76.832C439.724 78.016 440.588 78.928 441.644 79.568C442.732 80.208 443.884 80.528 445.1 80.528C446.348 80.528 447.516 80.224 448.604 79.616C449.692 78.976 450.556 78.08 451.196 76.928C451.836 75.744 452.156 74.336 452.156 72.704ZM477.104 86.432C474.928 86.432 472.976 86.048 471.248 85.28C469.52 84.48 468.144 83.408 467.12 82.064C466.128 80.72 465.584 79.232 465.488 77.6H472.256C472.384 78.624 472.88 79.472 473.744 80.144C474.64 80.816 475.744 81.152 477.056 81.152C478.336 81.152 479.328 80.896 480.032 80.384C480.768 79.872 481.136 79.216 481.136 78.416C481.136 77.552 480.688 76.912 479.792 76.496C478.928 76.048 477.536 75.568 475.616 75.056C473.632 74.576 472 74.08 470.72 73.568C469.472 73.056 468.384 72.272 467.456 71.216C466.56 70.16 466.112 68.736 466.112 66.944C466.112 65.472 466.528 64.128 467.36 62.912C468.224 61.696 469.44 60.736 471.008 60.032C472.608 59.328 474.48 58.976 476.624 58.976C479.792 58.976 482.32 59.776 484.208 61.376C486.096 62.944 487.136 65.072 487.328 67.76H480.896C480.8 66.704 480.352 65.872 479.552 65.264C478.784 64.624 477.744 64.304 476.432 64.304C475.216 64.304 474.272 64.528 473.6 64.976C472.96 65.424 472.64 66.048 472.64 66.848C472.64 67.744 473.088 68.432 473.984 68.912C474.88 69.36 476.272 69.824 478.16 70.304C480.08 70.784 481.664 71.28 482.912 71.792C484.16 72.304 485.232 73.104 486.128 74.192C487.056 75.248 487.536 76.656 487.568 78.416C487.568 79.952 487.136 81.328 486.272 82.544C485.44 83.76 484.224 84.72 482.624 85.424C481.056 86.096 479.216 86.432 477.104 86.432ZM504.7 86.432C502.524 86.432 500.572 86.048 498.844 85.28C497.116 84.48 495.74 83.408 494.716 82.064C493.724 80.72 493.18 79.232 493.084 77.6H499.852C499.98 78.624 500.476 79.472 501.34 80.144C502.236 80.816 503.34 81.152 504.652 81.152C505.932 81.152 506.924 80.896 507.628 80.384C508.364 79.872 508.732 79.216 508.732 78.416C508.732 77.552 508.284 76.912 507.388 76.496C506.524 76.048 505.132 75.568 503.212 75.056C501.228 74.576 499.596 74.08 498.316 73.568C497.068 73.056 495.98 72.272 495.052 71.216C494.156 70.16 493.708 68.736 493.708 66.944C493.708 65.472 494.124 64.128 494.956 62.912C495.82 61.696 497.036 60.736 498.604 60.032C500.204 59.328 502.076 58.976 504.22 58.976C507.388 58.976 509.916 59.776 511.804 61.376C513.692 62.944 514.732 65.072 514.924 67.76H508.492C508.396 66.704 507.948 65.872 507.148 65.264C506.38 64.624 505.34 64.304 504.028 64.304C502.812 64.304 501.868 64.528 501.196 64.976C500.556 65.424 500.236 66.048 500.236 66.848C500.236 67.744 500.684 68.432 501.58 68.912C502.476 69.36 503.868 69.824 505.756 70.304C507.676 70.784 509.26 71.28 510.508 71.792C511.756 72.304 512.828 73.104 513.724 74.192C514.652 75.248 515.132 76.656 515.164 78.416C515.164 79.952 514.732 81.328 513.868 82.544C513.036 83.76 511.82 84.72 510.22 85.424C508.652 86.096 506.812 86.432 504.7 86.432ZM520.392 72.608C520.392 69.92 520.92 67.536 521.976 65.456C523.064 63.376 524.52 61.776 526.344 60.656C528.2 59.536 530.264 58.976 532.536 58.976C534.52 58.976 536.248 59.376 537.72 60.176C539.224 60.976 540.424 61.984 541.32 63.2V59.408H548.088V86H541.32V82.112C540.456 83.36 539.256 84.4 537.72 85.232C536.216 86.032 534.472 86.432 532.488 86.432C530.248 86.432 528.2 85.856 526.344 84.704C524.52 83.552 523.064 81.936 521.976 79.856C520.92 77.744 520.392 75.328 520.392 72.608ZM541.32 72.704C541.32 71.072 541 69.68 540.36 68.528C539.72 67.344 538.856 66.448 537.768 65.84C536.68 65.2 535.512 64.88 534.264 64.88C533.016 64.88 531.864 65.184 530.808 65.792C529.752 66.4 528.888 67.296 528.216 68.48C527.576 69.632 527.256 71.008 527.256 72.608C527.256 74.208 527.576 75.616 528.216 76.832C528.888 78.016 529.752 78.928 530.808 79.568C531.896 80.208 533.048 80.528 534.264 80.528C535.512 80.528 536.68 80.224 537.768 79.616C538.856 78.976 539.72 78.08 540.36 76.928C541 75.744 541.32 74.336 541.32 72.704ZM562.811 63.536C563.675 62.128 564.795 61.024 566.171 60.224C567.579 59.424 569.179 59.024 570.971 59.024V66.08H569.195C567.083 66.08 565.483 66.576 564.395 67.568C563.339 68.56 562.811 70.288 562.811 72.752V86H556.091V59.408H562.811V63.536Z" fill="white"/>
</svg>
