<svg width="495" height="113" viewBox="0 0 495 113" fill="none" xmlns="http://www.w3.org/2000/svg">
<path d="M10.16 29.252C8.408 29.252 6.824 28.952 5.408 28.352C4.016 27.752 2.912 26.888 2.096 25.76C1.28 24.632 0.86 23.3 0.836 21.764H6.236C6.308 22.796 6.668 23.612 7.316 24.212C7.988 24.812 8.9 25.112 10.052 25.112C11.228 25.112 12.152 24.836 12.824 24.284C13.496 23.708 13.832 22.964 13.832 22.052C13.832 21.308 13.604 20.696 13.148 20.216C12.692 19.736 12.116 19.364 11.42 19.1C10.748 18.812 9.812 18.5 8.612 18.164C6.98 17.684 5.648 17.216 4.616 16.76C3.608 16.28 2.732 15.572 1.988 14.636C1.268 13.676 0.908 12.404 0.908 10.82C0.908 9.332 1.28 8.036 2.024 6.932C2.768 5.828 3.812 4.988 5.156 4.412C6.5 3.812 8.036 3.512 9.764 3.512C12.356 3.512 14.456 4.148 16.064 5.42C17.696 6.668 18.596 8.42 18.764 10.676H13.22C13.172 9.812 12.8 9.104 12.104 8.552C11.432 7.976 10.532 7.688 9.404 7.688C8.42 7.688 7.628 7.94 7.028 8.444C6.452 8.948 6.164 9.68 6.164 10.64C6.164 11.312 6.38 11.876 6.812 12.332C7.268 12.764 7.82 13.124 8.468 13.412C9.14 13.676 10.076 13.988 11.276 14.348C12.908 14.828 14.24 15.308 15.272 15.788C16.304 16.268 17.192 16.988 17.936 17.948C18.68 18.908 19.052 20.168 19.052 21.728C19.052 23.072 18.704 24.32 18.008 25.472C17.312 26.624 16.292 27.548 14.948 28.244C13.604 28.916 12.008 29.252 10.16 29.252ZM43.0415 18.596C43.0415 19.316 42.9935 19.964 42.8975 20.54H28.3175C28.4375 21.98 28.9415 23.108 29.8295 23.924C30.7175 24.74 31.8095 25.148 33.1055 25.148C34.9775 25.148 36.3095 24.344 37.1015 22.736H42.5375C41.9615 24.656 40.8575 26.24 39.2255 27.488C37.5935 28.712 35.5895 29.324 33.2135 29.324C31.2935 29.324 29.5655 28.904 28.0295 28.064C26.5175 27.2 25.3295 25.988 24.4655 24.428C23.6255 22.868 23.2055 21.068 23.2055 19.028C23.2055 16.964 23.6255 15.152 24.4655 13.592C25.3055 12.032 26.4815 10.832 27.9935 9.992C29.5055 9.152 31.2455 8.732 33.2135 8.732C35.1095 8.732 36.8015 9.14 38.2895 9.956C39.8015 10.772 40.9655 11.936 41.7815 13.448C42.6215 14.936 43.0415 16.652 43.0415 18.596ZM37.8215 17.156C37.7975 15.86 37.3295 14.828 36.4175 14.06C35.5055 13.268 34.3895 12.872 33.0695 12.872C31.8215 12.872 30.7655 13.256 29.9015 14.024C29.0615 14.768 28.5455 15.812 28.3535 17.156H37.8215ZM52.8403 2.36V29H47.8003V2.36H52.8403ZM57.6038 18.956C57.6038 16.94 57.9998 15.152 58.7918 13.592C59.6078 12.032 60.6998 10.832 62.0678 9.992C63.4598 9.152 65.0078 8.732 66.7118 8.732C68.1998 8.732 69.4958 9.032 70.5998 9.632C71.7278 10.232 72.6278 10.988 73.2998 11.9V9.056H78.3758V29H73.2998V26.084C72.6518 27.02 71.7518 27.8 70.5998 28.424C69.4718 29.024 68.1638 29.324 66.6758 29.324C64.9958 29.324 63.4598 28.892 62.0678 28.028C60.6998 27.164 59.6078 25.952 58.7918 24.392C57.9998 22.808 57.6038 20.996 57.6038 18.956ZM73.2998 19.028C73.2998 17.804 73.0598 16.76 72.5798 15.896C72.0998 15.008 71.4518 14.336 70.6358 13.88C69.8198 13.4 68.9438 13.16 68.0078 13.16C67.0718 13.16 66.2078 13.388 65.4158 13.844C64.6238 14.3 63.9758 14.972 63.4718 15.86C62.9918 16.724 62.7518 17.756 62.7518 18.956C62.7518 20.156 62.9918 21.212 63.4718 22.124C63.9758 23.012 64.6238 23.696 65.4158 24.176C66.2318 24.656 67.0958 24.896 68.0078 24.896C68.9438 24.896 69.8198 24.668 70.6358 24.212C71.4518 23.732 72.0998 23.06 72.5798 22.196C73.0598 21.308 73.2998 20.252 73.2998 19.028ZM109.146 8.768C111.594 8.768 113.562 9.524 115.05 11.036C116.562 12.524 117.318 14.612 117.318 17.3V29H112.278V17.984C112.278 16.424 111.882 15.236 111.09 14.42C110.298 13.58 109.218 13.16 107.85 13.16C106.482 13.16 105.39 13.58 104.574 14.42C103.782 15.236 103.386 16.424 103.386 17.984V29H98.3462V17.984C98.3462 16.424 97.9502 15.236 97.1582 14.42C96.3662 13.58 95.2862 13.16 93.9182 13.16C92.5262 13.16 91.4222 13.58 90.6062 14.42C89.8142 15.236 89.4182 16.424 89.4182 17.984V29H84.3782V9.056H89.4182V11.468C90.0662 10.628 90.8942 9.968 91.9022 9.488C92.9342 9.008 94.0622 8.768 95.2862 8.768C96.8462 8.768 98.2382 9.104 99.4622 9.776C100.686 10.424 101.634 11.36 102.306 12.584C102.954 11.432 103.89 10.508 105.114 9.812C106.362 9.116 107.706 8.768 109.146 8.768ZM121.885 18.956C121.885 16.94 122.281 15.152 123.073 13.592C123.889 12.032 124.981 10.832 126.349 9.992C127.741 9.152 129.289 8.732 130.993 8.732C132.481 8.732 133.777 9.032 134.881 9.632C136.009 10.232 136.909 10.988 137.581 11.9V9.056H142.657V29H137.581V26.084C136.933 27.02 136.033 27.8 134.881 28.424C133.753 29.024 132.445 29.324 130.957 29.324C129.277 29.324 127.741 28.892 126.349 28.028C124.981 27.164 123.889 25.952 123.073 24.392C122.281 22.808 121.885 20.996 121.885 18.956ZM137.581 19.028C137.581 17.804 137.341 16.76 136.861 15.896C136.381 15.008 135.733 14.336 134.917 13.88C134.101 13.4 133.225 13.16 132.289 13.16C131.353 13.16 130.489 13.388 129.697 13.844C128.905 14.3 128.257 14.972 127.753 15.86C127.273 16.724 127.033 17.756 127.033 18.956C127.033 20.156 127.273 21.212 127.753 22.124C128.257 23.012 128.905 23.696 129.697 24.176C130.513 24.656 131.377 24.896 132.289 24.896C133.225 24.896 134.101 24.668 134.917 24.212C135.733 23.732 136.381 23.06 136.861 22.196C137.341 21.308 137.581 20.252 137.581 19.028ZM154.527 13.196V22.844C154.527 23.516 154.683 24.008 154.995 24.32C155.331 24.608 155.883 24.752 156.651 24.752H158.991V29H155.823C151.575 29 149.451 26.936 149.451 22.808V13.196H147.075V9.056H149.451V4.124H154.527V9.056H158.991V13.196H154.527ZM172.058 18.956C172.058 16.94 172.454 15.152 173.246 13.592C174.062 12.032 175.166 10.832 176.558 9.992C177.95 9.152 179.498 8.732 181.202 8.732C182.498 8.732 183.734 9.02 184.91 9.596C186.086 10.148 187.022 10.892 187.718 11.828V2.36H192.83V29H187.718V26.048C187.094 27.032 186.218 27.824 185.09 28.424C183.962 29.024 182.654 29.324 181.166 29.324C179.486 29.324 177.95 28.892 176.558 28.028C175.166 27.164 174.062 25.952 173.246 24.392C172.454 22.808 172.058 20.996 172.058 18.956ZM187.754 19.028C187.754 17.804 187.514 16.76 187.034 15.896C186.554 15.008 185.906 14.336 185.09 13.88C184.274 13.4 183.398 13.16 182.462 13.16C181.526 13.16 180.662 13.388 179.87 13.844C179.078 14.3 178.43 14.972 177.926 15.86C177.446 16.724 177.206 17.756 177.206 18.956C177.206 20.156 177.446 21.212 177.926 22.124C178.43 23.012 179.078 23.696 179.87 24.176C180.686 24.656 181.55 24.896 182.462 24.896C183.398 24.896 184.274 24.668 185.09 24.212C185.906 23.732 186.554 23.06 187.034 22.196C187.514 21.308 187.754 20.252 187.754 19.028ZM197.537 18.956C197.537 16.94 197.933 15.152 198.725 13.592C199.541 12.032 200.633 10.832 202.001 9.992C203.393 9.152 204.941 8.732 206.645 8.732C208.133 8.732 209.429 9.032 210.533 9.632C211.661 10.232 212.561 10.988 213.233 11.9V9.056H218.309V29H213.233V26.084C212.585 27.02 211.685 27.8 210.533 28.424C209.405 29.024 208.097 29.324 206.609 29.324C204.929 29.324 203.393 28.892 202.001 28.028C200.633 27.164 199.541 25.952 198.725 24.392C197.933 22.808 197.537 20.996 197.537 18.956ZM213.233 19.028C213.233 17.804 212.993 16.76 212.513 15.896C212.033 15.008 211.385 14.336 210.569 13.88C209.753 13.4 208.877 13.16 207.941 13.16C207.005 13.16 206.141 13.388 205.349 13.844C204.557 14.3 203.909 14.972 203.405 15.86C202.925 16.724 202.685 17.756 202.685 18.956C202.685 20.156 202.925 21.212 203.405 22.124C203.909 23.012 204.557 23.696 205.349 24.176C206.165 24.656 207.029 24.896 207.941 24.896C208.877 24.896 209.753 24.668 210.569 24.212C211.385 23.732 212.033 23.06 212.513 22.196C212.993 21.308 213.233 20.252 213.233 19.028ZM230.179 13.196V22.844C230.179 23.516 230.335 24.008 230.647 24.32C230.983 24.608 231.535 24.752 232.303 24.752H234.643V29H231.475C227.227 29 225.103 26.936 225.103 22.808V13.196H222.727V9.056H225.103V4.124H230.179V9.056H234.643V13.196H230.179ZM238.052 18.956C238.052 16.94 238.448 15.152 239.24 13.592C240.056 12.032 241.148 10.832 242.516 9.992C243.908 9.152 245.456 8.732 247.16 8.732C248.648 8.732 249.944 9.032 251.048 9.632C252.176 10.232 253.076 10.988 253.748 11.9V9.056H258.824V29H253.748V26.084C253.1 27.02 252.2 27.8 251.048 28.424C249.92 29.024 248.612 29.324 247.124 29.324C245.444 29.324 243.908 28.892 242.516 28.028C241.148 27.164 240.056 25.952 239.24 24.392C238.448 22.808 238.052 20.996 238.052 18.956ZM253.748 19.028C253.748 17.804 253.508 16.76 253.028 15.896C252.548 15.008 251.9 14.336 251.084 13.88C250.268 13.4 249.392 13.16 248.456 13.16C247.52 13.16 246.656 13.388 245.864 13.844C245.072 14.3 244.424 14.972 243.92 15.86C243.44 16.724 243.2 17.756 243.2 18.956C243.2 20.156 243.44 21.212 243.92 22.124C244.424 23.012 245.072 23.696 245.864 24.176C246.68 24.656 247.544 24.896 248.456 24.896C249.392 24.896 250.268 24.668 251.084 24.212C251.9 23.732 252.548 23.06 253.028 22.196C253.508 21.308 253.748 20.252 253.748 19.028ZM275.879 8.768C278.255 8.768 280.175 9.524 281.639 11.036C283.103 12.524 283.835 14.612 283.835 17.3V29H278.795V17.984C278.795 16.4 278.399 15.188 277.607 14.348C276.815 13.484 275.735 13.052 274.367 13.052C272.975 13.052 271.871 13.484 271.055 14.348C270.263 15.188 269.867 16.4 269.867 17.984V29H264.827V9.056H269.867V11.54C270.539 10.676 271.391 10.004 272.423 9.524C273.479 9.02 274.631 8.768 275.879 8.768ZM297.52 8.732C299.008 8.732 300.316 9.032 301.444 9.632C302.572 10.208 303.46 10.964 304.108 11.9V9.056H309.184V29.144C309.184 30.992 308.812 32.636 308.068 34.076C307.324 35.54 306.208 36.692 304.72 37.532C303.232 38.396 301.432 38.828 299.32 38.828C296.488 38.828 294.16 38.168 292.336 36.848C290.536 35.528 289.516 33.728 289.276 31.448H294.28C294.544 32.36 295.108 33.08 295.972 33.608C296.86 34.16 297.928 34.436 299.176 34.436C300.64 34.436 301.828 33.992 302.74 33.104C303.652 32.24 304.108 30.92 304.108 29.144V26.048C303.46 26.984 302.56 27.764 301.408 28.388C300.28 29.012 298.984 29.324 297.52 29.324C295.84 29.324 294.304 28.892 292.912 28.028C291.52 27.164 290.416 25.952 289.6 24.392C288.808 22.808 288.412 20.996 288.412 18.956C288.412 16.94 288.808 15.152 289.6 13.592C290.416 12.032 291.508 10.832 292.876 9.992C294.268 9.152 295.816 8.732 297.52 8.732ZM304.108 19.028C304.108 17.804 303.868 16.76 303.388 15.896C302.908 15.008 302.26 14.336 301.444 13.88C300.628 13.4 299.752 13.16 298.816 13.16C297.88 13.16 297.016 13.388 296.224 13.844C295.432 14.3 294.784 14.972 294.28 15.86C293.8 16.724 293.56 17.756 293.56 18.956C293.56 20.156 293.8 21.212 294.28 22.124C294.784 23.012 295.432 23.696 296.224 24.176C297.04 24.656 297.904 24.896 298.816 24.896C299.752 24.896 300.628 24.668 301.444 24.212C302.26 23.732 302.908 23.06 303.388 22.196C303.868 21.308 304.108 20.252 304.108 19.028ZM323.548 18.956C323.548 16.94 323.944 15.152 324.736 13.592C325.552 12.032 326.656 10.832 328.048 9.992C329.44 9.152 330.988 8.732 332.692 8.732C333.988 8.732 335.224 9.02 336.4 9.596C337.576 10.148 338.512 10.892 339.208 11.828V2.36H344.32V29H339.208V26.048C338.584 27.032 337.708 27.824 336.58 28.424C335.452 29.024 334.144 29.324 332.656 29.324C330.976 29.324 329.44 28.892 328.048 28.028C326.656 27.164 325.552 25.952 324.736 24.392C323.944 22.808 323.548 20.996 323.548 18.956ZM339.244 19.028C339.244 17.804 339.004 16.76 338.524 15.896C338.044 15.008 337.396 14.336 336.58 13.88C335.764 13.4 334.888 13.16 333.952 13.16C333.016 13.16 332.152 13.388 331.36 13.844C330.568 14.3 329.92 14.972 329.416 15.86C328.936 16.724 328.696 17.756 328.696 18.956C328.696 20.156 328.936 21.212 329.416 22.124C329.92 23.012 330.568 23.696 331.36 24.176C332.176 24.656 333.04 24.896 333.952 24.896C334.888 24.896 335.764 24.668 336.58 24.212C337.396 23.732 338.044 23.06 338.524 22.196C339.004 21.308 339.244 20.252 339.244 19.028ZM352.879 6.68C351.991 6.68 351.247 6.404 350.647 5.852C350.071 5.276 349.783 4.568 349.783 3.728C349.783 2.888 350.071 2.192 350.647 1.64C351.247 1.064 351.991 0.775999 352.879 0.775999C353.767 0.775999 354.499 1.064 355.075 1.64C355.675 2.192 355.975 2.888 355.975 3.728C355.975 4.568 355.675 5.276 355.075 5.852C354.499 6.404 353.767 6.68 352.879 6.68ZM355.363 9.056V29H350.323V9.056H355.363ZM378.712 29.324C377.08 29.324 375.616 29.036 374.32 28.46C373.024 27.86 371.992 27.056 371.224 26.048C370.48 25.04 370.072 23.924 370 22.7H375.076C375.172 23.468 375.544 24.104 376.192 24.608C376.864 25.112 377.692 25.364 378.676 25.364C379.636 25.364 380.38 25.172 380.908 24.788C381.46 24.404 381.736 23.912 381.736 23.312C381.736 22.664 381.4 22.184 380.728 21.872C380.08 21.536 379.036 21.176 377.596 20.792C376.108 20.432 374.884 20.06 373.924 19.676C372.988 19.292 372.172 18.704 371.476 17.912C370.804 17.12 370.468 16.052 370.468 14.708C370.468 13.604 370.78 12.596 371.404 11.684C372.052 10.772 372.964 10.052 374.14 9.524C375.34 8.996 376.744 8.732 378.352 8.732C380.728 8.732 382.624 9.332 384.04 10.532C385.456 11.708 386.236 13.304 386.38 15.32H381.556C381.484 14.528 381.148 13.904 380.548 13.448C379.972 12.968 379.192 12.728 378.208 12.728C377.296 12.728 376.588 12.896 376.084 13.232C375.604 13.568 375.364 14.036 375.364 14.636C375.364 15.308 375.7 15.824 376.372 16.184C377.044 16.52 378.088 16.868 379.504 17.228C380.944 17.588 382.132 17.96 383.068 18.344C384.004 18.728 384.808 19.328 385.48 20.144C386.176 20.936 386.536 21.992 386.56 23.312C386.56 24.464 386.236 25.496 385.588 26.408C384.964 27.32 384.052 28.04 382.852 28.568C381.676 29.072 380.296 29.324 378.712 29.324ZM394.333 6.68C393.445 6.68 392.701 6.404 392.101 5.852C391.525 5.276 391.237 4.568 391.237 3.728C391.237 2.888 391.525 2.192 392.101 1.64C392.701 1.064 393.445 0.775999 394.333 0.775999C395.221 0.775999 395.953 1.064 396.529 1.64C397.129 2.192 397.429 2.888 397.429 3.728C397.429 4.568 397.129 5.276 396.529 5.852C395.953 6.404 395.221 6.68 394.333 6.68ZM396.817 9.056V29H391.777V9.056H396.817ZM410.509 29.324C408.877 29.324 407.413 29.036 406.117 28.46C404.821 27.86 403.789 27.056 403.021 26.048C402.277 25.04 401.869 23.924 401.797 22.7H406.873C406.969 23.468 407.341 24.104 407.989 24.608C408.661 25.112 409.489 25.364 410.473 25.364C411.433 25.364 412.177 25.172 412.705 24.788C413.257 24.404 413.533 23.912 413.533 23.312C413.533 22.664 413.197 22.184 412.525 21.872C411.877 21.536 410.833 21.176 409.393 20.792C407.905 20.432 406.681 20.06 405.721 19.676C404.785 19.292 403.969 18.704 403.273 17.912C402.601 17.12 402.265 16.052 402.265 14.708C402.265 13.604 402.577 12.596 403.201 11.684C403.849 10.772 404.761 10.052 405.937 9.524C407.137 8.996 408.541 8.732 410.149 8.732C412.525 8.732 414.421 9.332 415.837 10.532C417.253 11.708 418.033 13.304 418.177 15.32H413.353C413.281 14.528 412.945 13.904 412.345 13.448C411.769 12.968 410.989 12.728 410.005 12.728C409.093 12.728 408.385 12.896 407.881 13.232C407.401 13.568 407.161 14.036 407.161 14.636C407.161 15.308 407.497 15.824 408.169 16.184C408.841 16.52 409.885 16.868 411.301 17.228C412.741 17.588 413.929 17.96 414.865 18.344C415.801 18.728 416.605 19.328 417.277 20.144C417.973 20.936 418.333 21.992 418.357 23.312C418.357 24.464 418.033 25.496 417.385 26.408C416.761 27.32 415.849 28.04 414.649 28.568C413.473 29.072 412.093 29.324 410.509 29.324ZM429.442 13.196V22.844C429.442 23.516 429.598 24.008 429.91 24.32C430.246 24.608 430.798 24.752 431.566 24.752H433.906V29H430.738C426.49 29 424.366 26.936 424.366 22.808V13.196H421.99V9.056H424.366V4.124H429.442V9.056H433.906V13.196H429.442ZM457.151 18.596C457.151 19.316 457.103 19.964 457.007 20.54H442.427C442.547 21.98 443.051 23.108 443.939 23.924C444.827 24.74 445.919 25.148 447.215 25.148C449.087 25.148 450.419 24.344 451.211 22.736H456.647C456.071 24.656 454.967 26.24 453.335 27.488C451.703 28.712 449.699 29.324 447.323 29.324C445.403 29.324 443.675 28.904 442.139 28.064C440.627 27.2 439.439 25.988 438.575 24.428C437.735 22.868 437.315 21.068 437.315 19.028C437.315 16.964 437.735 15.152 438.575 13.592C439.415 12.032 440.591 10.832 442.103 9.992C443.615 9.152 445.355 8.732 447.323 8.732C449.219 8.732 450.911 9.14 452.399 9.956C453.911 10.772 455.075 11.936 455.891 13.448C456.731 14.936 457.151 16.652 457.151 18.596ZM451.931 17.156C451.907 15.86 451.439 14.828 450.527 14.06C449.615 13.268 448.499 12.872 447.179 12.872C445.931 12.872 444.875 13.256 444.011 14.024C443.171 14.768 442.655 15.812 442.463 17.156H451.931ZM486.678 8.768C489.126 8.768 491.094 9.524 492.582 11.036C494.094 12.524 494.85 14.612 494.85 17.3V29H489.81V17.984C489.81 16.424 489.414 15.236 488.622 14.42C487.83 13.58 486.75 13.16 485.382 13.16C484.014 13.16 482.922 13.58 482.106 14.42C481.314 15.236 480.918 16.424 480.918 17.984V29H475.878V17.984C475.878 16.424 475.482 15.236 474.69 14.42C473.898 13.58 472.818 13.16 471.45 13.16C470.058 13.16 468.954 13.58 468.138 14.42C467.346 15.236 466.95 16.424 466.95 17.984V29H461.91V9.056H466.95V11.468C467.598 10.628 468.426 9.968 469.434 9.488C470.466 9.008 471.594 8.768 472.818 8.768C474.378 8.768 475.77 9.104 476.994 9.776C478.218 10.424 479.166 11.36 479.838 12.584C480.486 11.432 481.422 10.508 482.646 9.812C483.894 9.116 485.238 8.768 486.678 8.768ZM26.252 53.768C28.7 53.768 30.668 54.524 32.156 56.036C33.668 57.524 34.424 59.612 34.424 62.3V74H29.384V62.984C29.384 61.424 28.988 60.236 28.196 59.42C27.404 58.58 26.324 58.16 24.956 58.16C23.588 58.16 22.496 58.58 21.68 59.42C20.888 60.236 20.492 61.424 20.492 62.984V74H15.452V62.984C15.452 61.424 15.056 60.236 14.264 59.42C13.472 58.58 12.392 58.16 11.024 58.16C9.632 58.16 8.528 58.58 7.712 59.42C6.92 60.236 6.524 61.424 6.524 62.984V74H1.484V54.056H6.524V56.468C7.172 55.628 8 54.968 9.008 54.488C10.04 54.008 11.168 53.768 12.392 53.768C13.952 53.768 15.344 54.104 16.568 54.776C17.792 55.424 18.74 56.36 19.412 57.584C20.06 56.432 20.996 55.508 22.22 54.812C23.468 54.116 24.812 53.768 26.252 53.768ZM38.9907 63.956C38.9907 61.94 39.3867 60.152 40.1787 58.592C40.9947 57.032 42.0867 55.832 43.4547 54.992C44.8467 54.152 46.3947 53.732 48.0987 53.732C49.5867 53.732 50.8827 54.032 51.9867 54.632C53.1147 55.232 54.0147 55.988 54.6867 56.9V54.056H59.7627V74H54.6867V71.084C54.0387 72.02 53.1387 72.8 51.9867 73.424C50.8587 74.024 49.5507 74.324 48.0627 74.324C46.3827 74.324 44.8467 73.892 43.4547 73.028C42.0867 72.164 40.9947 70.952 40.1787 69.392C39.3867 67.808 38.9907 65.996 38.9907 63.956ZM54.6867 64.028C54.6867 62.804 54.4467 61.76 53.9667 60.896C53.4867 60.008 52.8387 59.336 52.0227 58.88C51.2067 58.4 50.3307 58.16 49.3947 58.16C48.4587 58.16 47.5947 58.388 46.8027 58.844C46.0107 59.3 45.3627 59.972 44.8587 60.86C44.3787 61.724 44.1387 62.756 44.1387 63.956C44.1387 65.156 44.3787 66.212 44.8587 67.124C45.3627 68.012 46.0107 68.696 46.8027 69.176C47.6187 69.656 48.4827 69.896 49.3947 69.896C50.3307 69.896 51.2067 69.668 52.0227 69.212C52.8387 68.732 53.4867 68.06 53.9667 67.196C54.4467 66.308 54.6867 65.252 54.6867 64.028ZM76.8171 53.768C79.1931 53.768 81.1131 54.524 82.5771 56.036C84.0411 57.524 84.7731 59.612 84.7731 62.3V74H79.7331V62.984C79.7331 61.4 79.3371 60.188 78.5451 59.348C77.7531 58.484 76.6731 58.052 75.3051 58.052C73.9131 58.052 72.8091 58.484 71.9931 59.348C71.2011 60.188 70.8051 61.4 70.8051 62.984V74H65.7651V54.056H70.8051V56.54C71.4771 55.676 72.3291 55.004 73.3611 54.524C74.4171 54.02 75.5691 53.768 76.8171 53.768ZM89.3499 63.956C89.3499 61.94 89.7459 60.152 90.5379 58.592C91.3539 57.032 92.4459 55.832 93.8139 54.992C95.2059 54.152 96.7539 53.732 98.4579 53.732C99.9459 53.732 101.242 54.032 102.346 54.632C103.474 55.232 104.374 55.988 105.046 56.9V54.056H110.122V74H105.046V71.084C104.398 72.02 103.498 72.8 102.346 73.424C101.218 74.024 99.9099 74.324 98.4219 74.324C96.7419 74.324 95.2059 73.892 93.8139 73.028C92.4459 72.164 91.3539 70.952 90.5379 69.392C89.7459 67.808 89.3499 65.996 89.3499 63.956ZM105.046 64.028C105.046 62.804 104.806 61.76 104.326 60.896C103.846 60.008 103.198 59.336 102.382 58.88C101.566 58.4 100.69 58.16 99.7539 58.16C98.8179 58.16 97.9539 58.388 97.1619 58.844C96.3699 59.3 95.7219 59.972 95.2179 60.86C94.7379 61.724 94.4979 62.756 94.4979 63.956C94.4979 65.156 94.7379 66.212 95.2179 67.124C95.7219 68.012 96.3699 68.696 97.1619 69.176C97.9779 69.656 98.8419 69.896 99.7539 69.896C100.69 69.896 101.566 69.668 102.382 69.212C103.198 68.732 103.846 68.06 104.326 67.196C104.806 66.308 105.046 65.252 105.046 64.028ZM118.68 51.68C117.768 51.68 117.012 51.404 116.412 50.852C115.836 50.276 115.548 49.568 115.548 48.728C115.548 47.888 115.836 47.192 116.412 46.64C117.012 46.064 117.768 45.776 118.68 45.776C119.568 45.776 120.3 46.064 120.876 46.64C121.452 47.192 121.74 47.888 121.74 48.728C121.74 49.568 121.452 50.276 120.876 50.852C120.3 51.404 119.568 51.68 118.68 51.68ZM121.164 77.276C121.164 79.484 120.612 81.068 119.508 82.028C118.428 83.012 116.868 83.504 114.828 83.504H112.596V79.22H114.036C114.804 79.22 115.344 79.064 115.656 78.752C115.968 78.464 116.124 77.984 116.124 77.312V54.056H121.164V77.276ZM145.764 63.596C145.764 64.316 145.716 64.964 145.62 65.54H131.04C131.16 66.98 131.664 68.108 132.552 68.924C133.44 69.74 134.532 70.148 135.828 70.148C137.7 70.148 139.032 69.344 139.824 67.736H145.26C144.684 69.656 143.58 71.24 141.948 72.488C140.316 73.712 138.312 74.324 135.936 74.324C134.016 74.324 132.288 73.904 130.752 73.064C129.24 72.2 128.052 70.988 127.188 69.428C126.348 67.868 125.928 66.068 125.928 64.028C125.928 61.964 126.348 60.152 127.188 58.592C128.028 57.032 129.204 55.832 130.716 54.992C132.228 54.152 133.968 53.732 135.936 53.732C137.832 53.732 139.524 54.14 141.012 54.956C142.524 55.772 143.688 56.936 144.504 58.448C145.344 59.936 145.764 61.652 145.764 63.596ZM140.544 62.156C140.52 60.86 140.052 59.828 139.14 59.06C138.228 58.268 137.112 57.872 135.792 57.872C134.544 57.872 133.488 58.256 132.624 59.024C131.784 59.768 131.268 60.812 131.076 62.156H140.544ZM175.291 53.768C177.739 53.768 179.707 54.524 181.195 56.036C182.707 57.524 183.463 59.612 183.463 62.3V74H178.423V62.984C178.423 61.424 178.027 60.236 177.235 59.42C176.443 58.58 175.363 58.16 173.995 58.16C172.627 58.16 171.535 58.58 170.719 59.42C169.927 60.236 169.531 61.424 169.531 62.984V74H164.491V62.984C164.491 61.424 164.095 60.236 163.303 59.42C162.511 58.58 161.431 58.16 160.063 58.16C158.671 58.16 157.567 58.58 156.751 59.42C155.959 60.236 155.563 61.424 155.563 62.984V74H150.523V54.056H155.563V56.468C156.211 55.628 157.039 54.968 158.047 54.488C159.079 54.008 160.207 53.768 161.431 53.768C162.991 53.768 164.383 54.104 165.607 54.776C166.831 55.424 167.779 56.36 168.451 57.584C169.099 56.432 170.035 55.508 171.259 54.812C172.507 54.116 173.851 53.768 175.291 53.768ZM207.865 63.596C207.865 64.316 207.817 64.964 207.721 65.54H193.141C193.261 66.98 193.765 68.108 194.653 68.924C195.541 69.74 196.633 70.148 197.929 70.148C199.801 70.148 201.133 69.344 201.925 67.736H207.361C206.785 69.656 205.681 71.24 204.049 72.488C202.417 73.712 200.413 74.324 198.037 74.324C196.117 74.324 194.389 73.904 192.853 73.064C191.341 72.2 190.153 70.988 189.289 69.428C188.449 67.868 188.029 66.068 188.029 64.028C188.029 61.964 188.449 60.152 189.289 58.592C190.129 57.032 191.305 55.832 192.817 54.992C194.329 54.152 196.069 53.732 198.037 53.732C199.933 53.732 201.625 54.14 203.113 54.956C204.625 55.772 205.789 56.936 206.605 58.448C207.445 59.936 207.865 61.652 207.865 63.596ZM202.645 62.156C202.621 60.86 202.153 59.828 201.241 59.06C200.329 58.268 199.213 57.872 197.893 57.872C196.645 57.872 195.589 58.256 194.725 59.024C193.885 59.768 193.369 60.812 193.177 62.156H202.645ZM223.676 53.768C226.052 53.768 227.972 54.524 229.436 56.036C230.9 57.524 231.632 59.612 231.632 62.3V74H226.592V62.984C226.592 61.4 226.196 60.188 225.404 59.348C224.612 58.484 223.532 58.052 222.164 58.052C220.772 58.052 219.668 58.484 218.852 59.348C218.06 60.188 217.664 61.4 217.664 62.984V74H212.624V54.056H217.664V56.54C218.336 55.676 219.188 55.004 220.22 54.524C221.276 54.02 222.428 53.768 223.676 53.768ZM253.031 58.196V67.844C253.031 68.516 253.187 69.008 253.499 69.32C253.835 69.608 254.387 69.752 255.155 69.752H257.495V74H254.327C250.079 74 247.955 71.936 247.955 67.808V58.196H245.579V54.056H247.955V49.124H253.031V54.056H257.495V58.196H253.031ZM260.904 63.956C260.904 61.94 261.3 60.152 262.092 58.592C262.908 57.032 264 55.832 265.368 54.992C266.76 54.152 268.308 53.732 270.012 53.732C271.5 53.732 272.796 54.032 273.9 54.632C275.028 55.232 275.928 55.988 276.6 56.9V54.056H281.676V74H276.6V71.084C275.952 72.02 275.052 72.8 273.9 73.424C272.772 74.024 271.464 74.324 269.976 74.324C268.296 74.324 266.76 73.892 265.368 73.028C264 72.164 262.908 70.952 262.092 69.392C261.3 67.808 260.904 65.996 260.904 63.956ZM276.6 64.028C276.6 62.804 276.36 61.76 275.88 60.896C275.4 60.008 274.752 59.336 273.936 58.88C273.12 58.4 272.244 58.16 271.308 58.16C270.372 58.16 269.508 58.388 268.716 58.844C267.924 59.3 267.276 59.972 266.772 60.86C266.292 61.724 266.052 62.756 266.052 63.956C266.052 65.156 266.292 66.212 266.772 67.124C267.276 68.012 267.924 68.696 268.716 69.176C269.532 69.656 270.396 69.896 271.308 69.896C272.244 69.896 273.12 69.668 273.936 69.212C274.752 68.732 275.4 68.06 275.88 67.196C276.36 66.308 276.6 65.252 276.6 64.028ZM312.446 53.768C314.894 53.768 316.862 54.524 318.35 56.036C319.862 57.524 320.618 59.612 320.618 62.3V74H315.578V62.984C315.578 61.424 315.182 60.236 314.39 59.42C313.598 58.58 312.518 58.16 311.15 58.16C309.782 58.16 308.69 58.58 307.874 59.42C307.082 60.236 306.686 61.424 306.686 62.984V74H301.646V62.984C301.646 61.424 301.25 60.236 300.458 59.42C299.666 58.58 298.586 58.16 297.218 58.16C295.826 58.16 294.722 58.58 293.906 59.42C293.114 60.236 292.718 61.424 292.718 62.984V74H287.678V54.056H292.718V56.468C293.366 55.628 294.194 54.968 295.202 54.488C296.234 54.008 297.362 53.768 298.586 53.768C300.146 53.768 301.538 54.104 302.762 54.776C303.986 55.424 304.934 56.36 305.606 57.584C306.254 56.432 307.19 55.508 308.414 54.812C309.662 54.116 311.006 53.768 312.446 53.768ZM345.309 54.056V74H340.233V71.48C339.585 72.344 338.733 73.028 337.677 73.532C336.645 74.012 335.517 74.252 334.293 74.252C332.733 74.252 331.353 73.928 330.153 73.28C328.953 72.608 328.005 71.636 327.309 70.364C326.637 69.068 326.301 67.532 326.301 65.756V54.056H331.341V65.036C331.341 66.62 331.737 67.844 332.529 68.708C333.321 69.548 334.401 69.968 335.769 69.968C337.161 69.968 338.253 69.548 339.045 68.708C339.837 67.844 340.233 66.62 340.233 65.036V54.056H345.309Z" fill="#2D2A2A"/>
<path d="M10.408 108L6.344 103.024V108H4.104V96.832H6.344V101.84L10.408 96.832H13.112L8.504 102.368L13.24 108H10.408ZM23.4334 103.376C23.4334 103.696 23.412 103.984 23.3694 104.24H16.8894C16.9427 104.88 17.1667 105.381 17.5614 105.744C17.956 106.107 18.4414 106.288 19.0174 106.288C19.8494 106.288 20.4414 105.931 20.7934 105.216H23.2094C22.9534 106.069 22.4627 106.773 21.7374 107.328C21.012 107.872 20.1214 108.144 19.0654 108.144C18.212 108.144 17.444 107.957 16.7614 107.584C16.0894 107.2 15.5614 106.661 15.1774 105.968C14.804 105.275 14.6174 104.475 14.6174 103.568C14.6174 102.651 14.804 101.845 15.1774 101.152C15.5507 100.459 16.0734 99.9253 16.7454 99.552C17.4174 99.1787 18.1907 98.992 19.0654 98.992C19.908 98.992 20.66 99.1733 21.3214 99.536C21.9934 99.8987 22.5107 100.416 22.8734 101.088C23.2467 101.749 23.4334 102.512 23.4334 103.376ZM21.1134 102.736C21.1027 102.16 20.8947 101.701 20.4894 101.36C20.084 101.008 19.588 100.832 19.0014 100.832C18.4467 100.832 17.9774 101.003 17.5934 101.344C17.22 101.675 16.9907 102.139 16.9054 102.736H21.1134ZM27.7884 96.16V108H25.5484V96.16H27.7884ZM34.4175 108.144C33.5642 108.144 32.7962 107.957 32.1135 107.584C31.4308 107.2 30.8922 106.661 30.4975 105.968C30.1135 105.275 29.9215 104.475 29.9215 103.568C29.9215 102.661 30.1188 101.861 30.5135 101.168C30.9188 100.475 31.4682 99.9413 32.1615 99.568C32.8548 99.184 33.6282 98.992 34.4815 98.992C35.3348 98.992 36.1082 99.184 36.8015 99.568C37.4948 99.9413 38.0388 100.475 38.4335 101.168C38.8388 101.861 39.0415 102.661 39.0415 103.568C39.0415 104.475 38.8335 105.275 38.4175 105.968C38.0122 106.661 37.4575 107.2 36.7535 107.584C36.0602 107.957 35.2815 108.144 34.4175 108.144ZM34.4175 106.192C34.8228 106.192 35.2015 106.096 35.5535 105.904C35.9162 105.701 36.2042 105.403 36.4175 105.008C36.6308 104.613 36.7375 104.133 36.7375 103.568C36.7375 102.725 36.5135 102.08 36.0655 101.632C35.6282 101.173 35.0895 100.944 34.4495 100.944C33.8095 100.944 33.2708 101.173 32.8335 101.632C32.4068 102.08 32.1935 102.725 32.1935 103.568C32.1935 104.411 32.4015 105.061 32.8175 105.52C33.2442 105.968 33.7775 106.192 34.4175 106.192ZM43.4046 96.16V108H41.1646V96.16H43.4046ZM45.5218 103.536C45.5218 102.64 45.6978 101.845 46.0498 101.152C46.4124 100.459 46.8978 99.9253 47.5058 99.552C48.1244 99.1787 48.8124 98.992 49.5698 98.992C50.2311 98.992 50.8071 99.1253 51.2978 99.392C51.7991 99.6587 52.1991 99.9947 52.4978 100.4V99.136H54.7538V108H52.4978V106.704C52.2098 107.12 51.8098 107.467 51.2978 107.744C50.7964 108.011 50.2151 108.144 49.5538 108.144C48.8071 108.144 48.1244 107.952 47.5058 107.568C46.8978 107.184 46.4124 106.645 46.0498 105.952C45.6978 105.248 45.5218 104.443 45.5218 103.536ZM52.4978 103.568C52.4978 103.024 52.3911 102.56 52.1778 102.176C51.9644 101.781 51.6764 101.483 51.3138 101.28C50.9511 101.067 50.5618 100.96 50.1458 100.96C49.7298 100.96 49.3458 101.061 48.9938 101.264C48.6418 101.467 48.3538 101.765 48.1298 102.16C47.9164 102.544 47.8098 103.003 47.8098 103.536C47.8098 104.069 47.9164 104.539 48.1298 104.944C48.3538 105.339 48.6418 105.643 48.9938 105.856C49.3564 106.069 49.7404 106.176 50.1458 106.176C50.5618 106.176 50.9511 106.075 51.3138 105.872C51.6764 105.659 51.9644 105.36 52.1778 104.976C52.3911 104.581 52.4978 104.112 52.4978 103.568ZM61.138 103.536C61.138 102.64 61.314 101.845 61.666 101.152C62.0287 100.459 62.5193 99.9253 63.138 99.552C63.7567 99.1787 64.4447 98.992 65.202 98.992C65.778 98.992 66.3273 99.12 66.85 99.376C67.3727 99.6213 67.7887 99.952 68.098 100.368V96.16H70.37V108H68.098V106.688C67.8207 107.125 67.4313 107.477 66.93 107.744C66.4287 108.011 65.8473 108.144 65.186 108.144C64.4393 108.144 63.7567 107.952 63.138 107.568C62.5193 107.184 62.0287 106.645 61.666 105.952C61.314 105.248 61.138 104.443 61.138 103.536ZM68.114 103.568C68.114 103.024 68.0073 102.56 67.794 102.176C67.5807 101.781 67.2927 101.483 66.93 101.28C66.5673 101.067 66.178 100.96 65.762 100.96C65.346 100.96 64.962 101.061 64.61 101.264C64.258 101.467 63.97 101.765 63.746 102.16C63.5327 102.544 63.426 103.003 63.426 103.536C63.426 104.069 63.5327 104.539 63.746 104.944C63.97 105.339 64.258 105.643 64.61 105.856C64.9727 106.069 65.3567 106.176 65.762 106.176C66.178 106.176 66.5673 106.075 66.93 105.872C67.2927 105.659 67.5807 105.36 67.794 104.976C68.0073 104.581 68.114 104.112 68.114 103.568ZM72.4617 103.536C72.4617 102.64 72.6377 101.845 72.9897 101.152C73.3524 100.459 73.8377 99.9253 74.4457 99.552C75.0644 99.1787 75.7524 98.992 76.5097 98.992C77.1711 98.992 77.7471 99.1253 78.2377 99.392C78.7391 99.6587 79.1391 99.9947 79.4377 100.4V99.136H81.6937V108H79.4377V106.704C79.1497 107.12 78.7497 107.467 78.2377 107.744C77.7364 108.011 77.1551 108.144 76.4937 108.144C75.7471 108.144 75.0644 107.952 74.4457 107.568C73.8377 107.184 73.3524 106.645 72.9897 105.952C72.6377 105.248 72.4617 104.443 72.4617 103.536ZM79.4377 103.568C79.4377 103.024 79.3311 102.56 79.1177 102.176C78.9044 101.781 78.6164 101.483 78.2537 101.28C77.8911 101.067 77.5017 100.96 77.0857 100.96C76.6697 100.96 76.2857 101.061 75.9337 101.264C75.5817 101.467 75.2937 101.765 75.0697 102.16C74.8564 102.544 74.7497 103.003 74.7497 103.536C74.7497 104.069 74.8564 104.539 75.0697 104.944C75.2937 105.339 75.5817 105.643 75.9337 105.856C76.2964 106.069 76.6804 106.176 77.0857 106.176C77.5017 106.176 77.8911 106.075 78.2537 105.872C78.6164 105.659 78.9044 105.36 79.1177 104.976C79.3311 104.581 79.4377 104.112 79.4377 103.568ZM89.2735 99.008C90.3295 99.008 91.1828 99.344 91.8335 100.016C92.4842 100.677 92.8095 101.605 92.8095 102.8V108H90.5695V103.104C90.5695 102.4 90.3935 101.861 90.0415 101.488C89.6895 101.104 89.2095 100.912 88.6015 100.912C87.9828 100.912 87.4922 101.104 87.1295 101.488C86.7775 101.861 86.6015 102.4 86.6015 103.104V108H84.3615V99.136H86.6015V100.24C86.9002 99.856 87.2788 99.5573 87.7375 99.344C88.2068 99.12 88.7188 99.008 89.2735 99.008ZM111.888 96.832V108H109.648V100.736L106.656 108H104.96L101.952 100.736V108H99.7121V96.832H102.256L105.808 105.136L109.36 96.832H111.888ZM118.519 108.144C117.665 108.144 116.897 107.957 116.215 107.584C115.532 107.2 114.993 106.661 114.599 105.968C114.215 105.275 114.023 104.475 114.023 103.568C114.023 102.661 114.22 101.861 114.615 101.168C115.02 100.475 115.569 99.9413 116.263 99.568C116.956 99.184 117.729 98.992 118.583 98.992C119.436 98.992 120.209 99.184 120.903 99.568C121.596 99.9413 122.14 100.475 122.535 101.168C122.94 101.861 123.143 102.661 123.143 103.568C123.143 104.475 122.935 105.275 122.519 105.968C122.113 106.661 121.559 107.2 120.855 107.584C120.161 107.957 119.383 108.144 118.519 108.144ZM118.519 106.192C118.924 106.192 119.303 106.096 119.655 105.904C120.017 105.701 120.305 105.403 120.519 105.008C120.732 104.613 120.839 104.133 120.839 103.568C120.839 102.725 120.615 102.08 120.167 101.632C119.729 101.173 119.191 100.944 118.551 100.944C117.911 100.944 117.372 101.173 116.935 101.632C116.508 102.08 116.295 102.725 116.295 103.568C116.295 104.411 116.503 105.061 116.919 105.52C117.345 105.968 117.879 106.192 118.519 106.192ZM130.178 99.008C131.234 99.008 132.087 99.344 132.738 100.016C133.389 100.677 133.714 101.605 133.714 102.8V108H131.474V103.104C131.474 102.4 131.298 101.861 130.946 101.488C130.594 101.104 130.114 100.912 129.506 100.912C128.887 100.912 128.397 101.104 128.034 101.488C127.682 101.861 127.506 102.4 127.506 103.104V108H125.266V99.136H127.506V100.24C127.805 99.856 128.183 99.5573 128.642 99.344C129.111 99.12 129.623 99.008 130.178 99.008ZM137.46 98.08C137.065 98.08 136.735 97.9573 136.468 97.712C136.212 97.456 136.084 97.1413 136.084 96.768C136.084 96.3947 136.212 96.0853 136.468 95.84C136.735 95.584 137.065 95.456 137.46 95.456C137.855 95.456 138.18 95.584 138.436 95.84C138.703 96.0853 138.836 96.3947 138.836 96.768C138.836 97.1413 138.703 97.456 138.436 97.712C138.18 97.9573 137.855 98.08 137.46 98.08ZM138.564 99.136V108H136.324V99.136H138.564ZM143.865 100.976V105.264C143.865 105.563 143.934 105.781 144.073 105.92C144.222 106.048 144.468 106.112 144.809 106.112H145.849V108H144.441C142.553 108 141.609 107.083 141.609 105.248V100.976H140.553V99.136H141.609V96.944H143.865V99.136H145.849V100.976H143.865ZM151.876 108.144C151.023 108.144 150.255 107.957 149.572 107.584C148.89 107.2 148.351 106.661 147.956 105.968C147.572 105.275 147.38 104.475 147.38 103.568C147.38 102.661 147.578 101.861 147.972 101.168C148.378 100.475 148.927 99.9413 149.62 99.568C150.314 99.184 151.087 98.992 151.94 98.992C152.794 98.992 153.567 99.184 154.26 99.568C154.954 99.9413 155.498 100.475 155.892 101.168C156.298 101.861 156.5 102.661 156.5 103.568C156.5 104.475 156.292 105.275 155.876 105.968C155.471 106.661 154.916 107.2 154.212 107.584C153.519 107.957 152.74 108.144 151.876 108.144ZM151.876 106.192C152.282 106.192 152.66 106.096 153.012 105.904C153.375 105.701 153.663 105.403 153.876 105.008C154.09 104.613 154.196 104.133 154.196 103.568C154.196 102.725 153.972 102.08 153.524 101.632C153.087 101.173 152.548 100.944 151.908 100.944C151.268 100.944 150.73 101.173 150.292 101.632C149.866 102.08 149.652 102.725 149.652 103.568C149.652 104.411 149.86 105.061 150.276 105.52C150.703 105.968 151.236 106.192 151.876 106.192ZM160.863 100.512C161.151 100.043 161.525 99.6747 161.983 99.408C162.453 99.1413 162.986 99.008 163.583 99.008V101.36H162.991C162.287 101.36 161.754 101.525 161.391 101.856C161.039 102.187 160.863 102.763 160.863 103.584V108H158.623V99.136H160.863V100.512ZM172.473 100.976V105.264C172.473 105.563 172.542 105.781 172.681 105.92C172.83 106.048 173.075 106.112 173.417 106.112H174.457V108H173.049C171.161 108 170.217 107.083 170.217 105.248V100.976H169.161V99.136H170.217V96.944H172.473V99.136H174.457V100.976H172.473ZM175.972 103.536C175.972 102.64 176.148 101.845 176.5 101.152C176.862 100.459 177.348 99.9253 177.956 99.552C178.574 99.1787 179.262 98.992 180.02 98.992C180.681 98.992 181.257 99.1253 181.748 99.392C182.249 99.6587 182.649 99.9947 182.948 100.4V99.136H185.204V108H182.948V106.704C182.66 107.12 182.26 107.467 181.748 107.744C181.246 108.011 180.665 108.144 180.004 108.144C179.257 108.144 178.574 107.952 177.956 107.568C177.348 107.184 176.862 106.645 176.5 105.952C176.148 105.248 175.972 104.443 175.972 103.536ZM182.948 103.568C182.948 103.024 182.841 102.56 182.628 102.176C182.414 101.781 182.126 101.483 181.764 101.28C181.401 101.067 181.012 100.96 180.596 100.96C180.18 100.96 179.796 101.061 179.444 101.264C179.092 101.467 178.804 101.765 178.58 102.16C178.366 102.544 178.26 103.003 178.26 103.536C178.26 104.069 178.366 104.539 178.58 104.944C178.804 105.339 179.092 105.643 179.444 105.856C179.806 106.069 180.19 106.176 180.596 106.176C181.012 106.176 181.401 106.075 181.764 105.872C182.126 105.659 182.414 105.36 182.628 104.976C182.841 104.581 182.948 104.112 182.948 103.568ZM198.88 99.008C199.968 99.008 200.842 99.344 201.504 100.016C202.176 100.677 202.512 101.605 202.512 102.8V108H200.272V103.104C200.272 102.411 200.096 101.883 199.744 101.52C199.392 101.147 198.912 100.96 198.304 100.96C197.696 100.96 197.21 101.147 196.848 101.52C196.496 101.883 196.32 102.411 196.32 103.104V108H194.08V103.104C194.08 102.411 193.904 101.883 193.552 101.52C193.2 101.147 192.72 100.96 192.112 100.96C191.493 100.96 191.002 101.147 190.64 101.52C190.288 101.883 190.112 102.411 190.112 103.104V108H187.872V99.136H190.112V100.208C190.4 99.8347 190.768 99.5413 191.216 99.328C191.674 99.1147 192.176 99.008 192.72 99.008C193.413 99.008 194.032 99.1573 194.576 99.456C195.12 99.744 195.541 100.16 195.84 100.704C196.128 100.192 196.544 99.7813 197.088 99.472C197.642 99.1627 198.24 99.008 198.88 99.008ZM213.485 99.136V108H211.229V106.88C210.941 107.264 210.562 107.568 210.093 107.792C209.634 108.005 209.133 108.112 208.589 108.112C207.896 108.112 207.282 107.968 206.749 107.68C206.216 107.381 205.794 106.949 205.485 106.384C205.186 105.808 205.037 105.125 205.037 104.336V99.136H207.277V104.016C207.277 104.72 207.453 105.264 207.805 105.648C208.157 106.021 208.637 106.208 209.245 106.208C209.864 106.208 210.349 106.021 210.701 105.648C211.053 105.264 211.229 104.72 211.229 104.016V99.136H213.485ZM219.892 103.536C219.892 102.64 220.068 101.845 220.42 101.152C220.782 100.459 221.273 99.9253 221.892 99.552C222.51 99.1787 223.198 98.992 223.956 98.992C224.532 98.992 225.081 99.12 225.604 99.376C226.126 99.6213 226.542 99.952 226.852 100.368V96.16H229.124V108H226.852V106.688C226.574 107.125 226.185 107.477 225.684 107.744C225.182 108.011 224.601 108.144 223.94 108.144C223.193 108.144 222.51 107.952 221.892 107.568C221.273 107.184 220.782 106.645 220.42 105.952C220.068 105.248 219.892 104.443 219.892 103.536ZM226.868 103.568C226.868 103.024 226.761 102.56 226.548 102.176C226.334 101.781 226.046 101.483 225.684 101.28C225.321 101.067 224.932 100.96 224.516 100.96C224.1 100.96 223.716 101.061 223.364 101.264C223.012 101.467 222.724 101.765 222.5 102.16C222.286 102.544 222.18 103.003 222.18 103.536C222.18 104.069 222.286 104.539 222.5 104.944C222.724 105.339 223.012 105.643 223.364 105.856C223.726 106.069 224.11 106.176 224.516 106.176C224.932 106.176 225.321 106.075 225.684 105.872C226.046 105.659 226.334 105.36 226.548 104.976C226.761 104.581 226.868 104.112 226.868 103.568ZM240.032 103.376C240.032 103.696 240.01 103.984 239.968 104.24H233.488C233.541 104.88 233.765 105.381 234.16 105.744C234.554 106.107 235.04 106.288 235.616 106.288C236.448 106.288 237.04 105.931 237.392 105.216H239.808C239.552 106.069 239.061 106.773 238.336 107.328C237.61 107.872 236.72 108.144 235.664 108.144C234.81 108.144 234.042 107.957 233.36 107.584C232.688 107.2 232.16 106.661 231.776 105.968C231.402 105.275 231.215 104.475 231.215 103.568C231.215 102.651 231.402 101.845 231.776 101.152C232.149 100.459 232.672 99.9253 233.344 99.552C234.016 99.1787 234.789 98.992 235.664 98.992C236.506 98.992 237.258 99.1733 237.92 99.536C238.592 99.8987 239.109 100.416 239.472 101.088C239.845 101.749 240.032 102.512 240.032 103.376ZM237.712 102.736C237.701 102.16 237.493 101.701 237.088 101.36C236.682 101.008 236.186 100.832 235.6 100.832C235.045 100.832 234.576 101.003 234.192 101.344C233.818 101.675 233.589 102.139 233.504 102.736H237.712ZM247.058 99.008C248.114 99.008 248.968 99.344 249.618 100.016C250.269 100.677 250.594 101.605 250.594 102.8V108H248.354V103.104C248.354 102.4 248.178 101.861 247.826 101.488C247.474 101.104 246.994 100.912 246.386 100.912C245.768 100.912 245.277 101.104 244.914 101.488C244.562 101.861 244.386 102.4 244.386 103.104V108H242.146V99.136H244.386V100.24C244.685 99.856 245.064 99.5573 245.522 99.344C245.992 99.12 246.504 99.008 247.058 99.008ZM256.677 98.992C257.338 98.992 257.919 99.1253 258.421 99.392C258.922 99.648 259.317 99.984 259.605 100.4V99.136H261.861V108.064C261.861 108.885 261.695 109.616 261.365 110.256C261.034 110.907 260.538 111.419 259.877 111.792C259.215 112.176 258.415 112.368 257.477 112.368C256.218 112.368 255.183 112.075 254.373 111.488C253.573 110.901 253.119 110.101 253.013 109.088H255.237C255.354 109.493 255.605 109.813 255.989 110.048C256.383 110.293 256.858 110.416 257.413 110.416C258.063 110.416 258.591 110.219 258.997 109.824C259.402 109.44 259.605 108.853 259.605 108.064V106.688C259.317 107.104 258.917 107.451 258.405 107.728C257.903 108.005 257.327 108.144 256.677 108.144C255.93 108.144 255.247 107.952 254.629 107.568C254.01 107.184 253.519 106.645 253.157 105.952C252.805 105.248 252.629 104.443 252.629 103.536C252.629 102.64 252.805 101.845 253.157 101.152C253.519 100.459 254.005 99.9253 254.613 99.552C255.231 99.1787 255.919 98.992 256.677 98.992ZM259.605 103.568C259.605 103.024 259.498 102.56 259.285 102.176C259.071 101.781 258.783 101.483 258.421 101.28C258.058 101.067 257.669 100.96 257.253 100.96C256.837 100.96 256.453 101.061 256.101 101.264C255.749 101.467 255.461 101.765 255.237 102.16C255.023 102.544 254.917 103.003 254.917 103.536C254.917 104.069 255.023 104.539 255.237 104.944C255.461 105.339 255.749 105.643 256.101 105.856C256.463 106.069 256.847 106.176 257.253 106.176C257.669 106.176 258.058 106.075 258.421 105.872C258.783 105.659 259.071 105.36 259.285 104.976C259.498 104.581 259.605 104.112 259.605 103.568ZM263.952 103.536C263.952 102.64 264.128 101.845 264.48 101.152C264.843 100.459 265.328 99.9253 265.936 99.552C266.555 99.1787 267.243 98.992 268 98.992C268.662 98.992 269.238 99.1253 269.728 99.392C270.23 99.6587 270.63 99.9947 270.928 100.4V99.136H273.184V108H270.928V106.704C270.64 107.12 270.24 107.467 269.728 107.744C269.227 108.011 268.646 108.144 267.984 108.144C267.238 108.144 266.555 107.952 265.936 107.568C265.328 107.184 264.843 106.645 264.48 105.952C264.128 105.248 263.952 104.443 263.952 103.536ZM270.928 103.568C270.928 103.024 270.822 102.56 270.608 102.176C270.395 101.781 270.107 101.483 269.744 101.28C269.382 101.067 268.992 100.96 268.576 100.96C268.16 100.96 267.776 101.061 267.424 101.264C267.072 101.467 266.784 101.765 266.56 102.16C266.347 102.544 266.24 103.003 266.24 103.536C266.24 104.069 266.347 104.539 266.56 104.944C266.784 105.339 267.072 105.643 267.424 105.856C267.787 106.069 268.171 106.176 268.576 106.176C268.992 106.176 269.382 106.075 269.744 105.872C270.107 105.659 270.395 105.36 270.608 104.976C270.822 104.581 270.928 104.112 270.928 103.568ZM280.764 99.008C281.82 99.008 282.673 99.344 283.324 100.016C283.975 100.677 284.3 101.605 284.3 102.8V108H282.06V103.104C282.06 102.4 281.884 101.861 281.532 101.488C281.18 101.104 280.7 100.912 280.092 100.912C279.473 100.912 278.983 101.104 278.62 101.488C278.268 101.861 278.092 102.4 278.092 103.104V108H275.852V99.136H278.092V100.24C278.391 99.856 278.769 99.5573 279.228 99.344C279.697 99.12 280.209 99.008 280.764 99.008ZM302.211 99.008C303.299 99.008 304.173 99.344 304.835 100.016C305.507 100.677 305.843 101.605 305.843 102.8V108H303.603V103.104C303.603 102.411 303.427 101.883 303.075 101.52C302.723 101.147 302.243 100.96 301.635 100.96C301.027 100.96 300.541 101.147 300.179 101.52C299.827 101.883 299.651 102.411 299.651 103.104V108H297.411V103.104C297.411 102.411 297.235 101.883 296.883 101.52C296.531 101.147 296.051 100.96 295.443 100.96C294.824 100.96 294.333 101.147 293.971 101.52C293.619 101.883 293.443 102.411 293.443 103.104V108H291.203V99.136H293.443V100.208C293.731 99.8347 294.099 99.5413 294.547 99.328C295.005 99.1147 295.507 99.008 296.051 99.008C296.744 99.008 297.363 99.1573 297.907 99.456C298.451 99.744 298.872 100.16 299.171 100.704C299.459 100.192 299.875 99.7813 300.419 99.472C300.973 99.1627 301.571 99.008 302.211 99.008ZM316.816 99.136V108H314.56V106.88C314.272 107.264 313.894 107.568 313.424 107.792C312.966 108.005 312.464 108.112 311.92 108.112C311.227 108.112 310.614 107.968 310.08 107.68C309.547 107.381 309.126 106.949 308.816 106.384C308.518 105.808 308.368 105.125 308.368 104.336V99.136H310.608V104.016C310.608 104.72 310.784 105.264 311.136 105.648C311.488 106.021 311.968 106.208 312.576 106.208C313.195 106.208 313.68 106.021 314.032 105.648C314.384 105.264 314.56 104.72 314.56 104.016V99.136H316.816ZM318.93 103.536C318.93 102.64 319.106 101.845 319.458 101.152C319.821 100.459 320.312 99.9253 320.93 99.552C321.549 99.1787 322.237 98.992 322.994 98.992C323.57 98.992 324.12 99.12 324.642 99.376C325.165 99.6213 325.581 99.952 325.89 100.368V96.16H328.162V108H325.89V106.688C325.613 107.125 325.224 107.477 324.722 107.744C324.221 108.011 323.64 108.144 322.978 108.144C322.232 108.144 321.549 107.952 320.93 107.568C320.312 107.184 319.821 106.645 319.458 105.952C319.106 105.248 318.93 104.443 318.93 103.536ZM325.906 103.568C325.906 103.024 325.8 102.56 325.586 102.176C325.373 101.781 325.085 101.483 324.722 101.28C324.36 101.067 323.97 100.96 323.554 100.96C323.138 100.96 322.754 101.061 322.402 101.264C322.05 101.467 321.762 101.765 321.538 102.16C321.325 102.544 321.218 103.003 321.218 103.536C321.218 104.069 321.325 104.539 321.538 104.944C321.762 105.339 322.05 105.643 322.402 105.856C322.765 106.069 323.149 106.176 323.554 106.176C323.97 106.176 324.36 106.075 324.722 105.872C325.085 105.659 325.373 105.36 325.586 104.976C325.8 104.581 325.906 104.112 325.906 103.568ZM330.254 103.536C330.254 102.64 330.43 101.845 330.782 101.152C331.145 100.459 331.63 99.9253 332.238 99.552C332.857 99.1787 333.545 98.992 334.302 98.992C334.964 98.992 335.54 99.1253 336.03 99.392C336.532 99.6587 336.932 99.9947 337.23 100.4V99.136H339.486V108H337.23V106.704C336.942 107.12 336.542 107.467 336.03 107.744C335.529 108.011 334.948 108.144 334.286 108.144C333.54 108.144 332.857 107.952 332.238 107.568C331.63 107.184 331.145 106.645 330.782 105.952C330.43 105.248 330.254 104.443 330.254 103.536ZM337.23 103.568C337.23 103.024 337.124 102.56 336.91 102.176C336.697 101.781 336.409 101.483 336.046 101.28C335.684 101.067 335.294 100.96 334.878 100.96C334.462 100.96 334.078 101.061 333.726 101.264C333.374 101.467 333.086 101.765 332.862 102.16C332.649 102.544 332.542 103.003 332.542 103.536C332.542 104.069 332.649 104.539 332.862 104.944C333.086 105.339 333.374 105.643 333.726 105.856C334.089 106.069 334.473 106.176 334.878 106.176C335.294 106.176 335.684 106.075 336.046 105.872C336.409 105.659 336.697 105.36 336.91 104.976C337.124 104.581 337.23 104.112 337.23 103.568ZM347.146 99.008C347.818 99.008 348.415 99.1573 348.938 99.456C349.461 99.744 349.866 100.176 350.154 100.752C350.453 101.317 350.602 102 350.602 102.8V108H348.362V103.104C348.362 102.4 348.186 101.861 347.834 101.488C347.482 101.104 347.002 100.912 346.394 100.912C345.775 100.912 345.285 101.104 344.922 101.488C344.57 101.861 344.394 102.4 344.394 103.104V108H342.154V96.16H344.394V100.24C344.682 99.856 345.066 99.5573 345.546 99.344C346.026 99.12 346.559 99.008 347.146 99.008ZM356.929 103.536C356.929 102.64 357.105 101.845 357.457 101.152C357.819 100.459 358.31 99.9253 358.929 99.552C359.547 99.1787 360.235 98.992 360.993 98.992C361.569 98.992 362.118 99.12 362.641 99.376C363.163 99.6213 363.579 99.952 363.889 100.368V96.16H366.161V108H363.889V106.688C363.611 107.125 363.222 107.477 362.721 107.744C362.219 108.011 361.638 108.144 360.977 108.144C360.23 108.144 359.547 107.952 358.929 107.568C358.31 107.184 357.819 106.645 357.457 105.952C357.105 105.248 356.929 104.443 356.929 103.536ZM363.905 103.568C363.905 103.024 363.798 102.56 363.585 102.176C363.371 101.781 363.083 101.483 362.721 101.28C362.358 101.067 361.969 100.96 361.553 100.96C361.137 100.96 360.753 101.061 360.401 101.264C360.049 101.467 359.761 101.765 359.537 102.16C359.323 102.544 359.217 103.003 359.217 103.536C359.217 104.069 359.323 104.539 359.537 104.944C359.761 105.339 360.049 105.643 360.401 105.856C360.763 106.069 361.147 106.176 361.553 106.176C361.969 106.176 362.358 106.075 362.721 105.872C363.083 105.659 363.371 105.36 363.585 104.976C363.798 104.581 363.905 104.112 363.905 103.568ZM368.252 103.536C368.252 102.64 368.428 101.845 368.78 101.152C369.143 100.459 369.628 99.9253 370.236 99.552C370.855 99.1787 371.543 98.992 372.3 98.992C372.962 98.992 373.538 99.1253 374.028 99.392C374.53 99.6587 374.93 99.9947 375.228 100.4V99.136H377.484V108H375.228V106.704C374.94 107.12 374.54 107.467 374.028 107.744C373.527 108.011 372.946 108.144 372.284 108.144C371.538 108.144 370.855 107.952 370.236 107.568C369.628 107.184 369.143 106.645 368.78 105.952C368.428 105.248 368.252 104.443 368.252 103.536ZM375.228 103.568C375.228 103.024 375.122 102.56 374.908 102.176C374.695 101.781 374.407 101.483 374.044 101.28C373.682 101.067 373.292 100.96 372.876 100.96C372.46 100.96 372.076 101.061 371.724 101.264C371.372 101.467 371.084 101.765 370.86 102.16C370.647 102.544 370.54 103.003 370.54 103.536C370.54 104.069 370.647 104.539 370.86 104.944C371.084 105.339 371.372 105.643 371.724 105.856C372.087 106.069 372.471 106.176 372.876 106.176C373.292 106.176 373.682 106.075 374.044 105.872C374.407 105.659 374.695 105.36 374.908 104.976C375.122 104.581 375.228 104.112 375.228 103.568ZM385.064 99.008C386.12 99.008 386.973 99.344 387.624 100.016C388.275 100.677 388.6 101.605 388.6 102.8V108H386.36V103.104C386.36 102.4 386.184 101.861 385.832 101.488C385.48 101.104 385 100.912 384.392 100.912C383.773 100.912 383.283 101.104 382.92 101.488C382.568 101.861 382.392 102.4 382.392 103.104V108H380.152V99.136H382.392V100.24C382.691 99.856 383.069 99.5573 383.528 99.344C383.997 99.12 384.509 99.008 385.064 99.008ZM403.743 103.376C403.743 103.696 403.721 103.984 403.679 104.24H397.199C397.252 104.88 397.476 105.381 397.871 105.744C398.265 106.107 398.751 106.288 399.327 106.288C400.159 106.288 400.751 105.931 401.103 105.216H403.519C403.263 106.069 402.772 106.773 402.047 107.328C401.321 107.872 400.431 108.144 399.375 108.144C398.521 108.144 397.753 107.957 397.071 107.584C396.399 107.2 395.871 106.661 395.487 105.968C395.113 105.275 394.927 104.475 394.927 103.568C394.927 102.651 395.113 101.845 395.487 101.152C395.86 100.459 396.383 99.9253 397.055 99.552C397.727 99.1787 398.5 98.992 399.375 98.992C400.217 98.992 400.969 99.1733 401.631 99.536C402.303 99.8987 402.82 100.416 403.183 101.088C403.556 101.749 403.743 102.512 403.743 103.376ZM401.423 102.736C401.412 102.16 401.204 101.701 400.799 101.36C400.393 101.008 399.897 100.832 399.311 100.832C398.756 100.832 398.287 101.003 397.903 101.344C397.529 101.675 397.3 102.139 397.215 102.736H401.423ZM409.922 100.976H408.37V108H406.098V100.976H405.09V99.136H406.098V98.688C406.098 97.6 406.407 96.8 407.026 96.288C407.644 95.776 408.578 95.536 409.826 95.568V97.456C409.282 97.4453 408.903 97.536 408.69 97.728C408.476 97.92 408.37 98.2667 408.37 98.768V99.136H409.922V100.976ZM412.989 98.08C412.595 98.08 412.264 97.9573 411.997 97.712C411.741 97.456 411.613 97.1413 411.613 96.768C411.613 96.3947 411.741 96.0853 411.997 95.84C412.264 95.584 412.595 95.456 412.989 95.456C413.384 95.456 413.709 95.584 413.965 95.84C414.232 96.0853 414.365 96.3947 414.365 96.768C414.365 97.1413 414.232 97.456 413.965 97.712C413.709 97.9573 413.384 98.08 412.989 98.08ZM414.093 99.136V108H411.853V99.136H414.093ZM420.178 108.144C419.453 108.144 418.802 108.016 418.226 107.76C417.65 107.493 417.192 107.136 416.85 106.688C416.52 106.24 416.338 105.744 416.306 105.2H418.562C418.605 105.541 418.77 105.824 419.058 106.048C419.357 106.272 419.725 106.384 420.162 106.384C420.589 106.384 420.92 106.299 421.154 106.128C421.4 105.957 421.522 105.739 421.522 105.472C421.522 105.184 421.373 104.971 421.074 104.832C420.786 104.683 420.322 104.523 419.682 104.352C419.021 104.192 418.477 104.027 418.05 103.856C417.634 103.685 417.272 103.424 416.962 103.072C416.664 102.72 416.514 102.245 416.514 101.648C416.514 101.157 416.653 100.709 416.93 100.304C417.218 99.8987 417.624 99.5787 418.146 99.344C418.68 99.1093 419.304 98.992 420.018 98.992C421.074 98.992 421.917 99.2587 422.546 99.792C423.176 100.315 423.522 101.024 423.586 101.92H421.442C421.41 101.568 421.261 101.291 420.994 101.088C420.738 100.875 420.392 100.768 419.954 100.768C419.549 100.768 419.234 100.843 419.01 100.992C418.797 101.141 418.69 101.349 418.69 101.616C418.69 101.915 418.84 102.144 419.138 102.304C419.437 102.453 419.901 102.608 420.53 102.768C421.17 102.928 421.698 103.093 422.114 103.264C422.53 103.435 422.888 103.701 423.186 104.064C423.496 104.416 423.656 104.885 423.666 105.472C423.666 105.984 423.522 106.443 423.234 106.848C422.957 107.253 422.552 107.573 422.018 107.808C421.496 108.032 420.882 108.144 420.178 108.144ZM427.121 98.08C426.727 98.08 426.396 97.9573 426.129 97.712C425.873 97.456 425.745 97.1413 425.745 96.768C425.745 96.3947 425.873 96.0853 426.129 95.84C426.396 95.584 426.727 95.456 427.121 95.456C427.516 95.456 427.841 95.584 428.097 95.84C428.364 96.0853 428.497 96.3947 428.497 96.768C428.497 97.1413 428.364 97.456 428.097 97.712C427.841 97.9573 427.516 98.08 427.121 98.08ZM428.225 99.136V108H425.985V99.136H428.225ZM439.158 103.376C439.158 103.696 439.137 103.984 439.094 104.24H432.614C432.668 104.88 432.892 105.381 433.286 105.744C433.681 106.107 434.166 106.288 434.742 106.288C435.574 106.288 436.166 105.931 436.518 105.216H438.934C438.678 106.069 438.188 106.773 437.462 107.328C436.737 107.872 435.846 108.144 434.79 108.144C433.937 108.144 433.169 107.957 432.486 107.584C431.814 107.2 431.286 106.661 430.902 105.968C430.529 105.275 430.342 104.475 430.342 103.568C430.342 102.651 430.529 101.845 430.902 101.152C431.276 100.459 431.798 99.9253 432.47 99.552C433.142 99.1787 433.916 98.992 434.79 98.992C435.633 98.992 436.385 99.1733 437.046 99.536C437.718 99.8987 438.236 100.416 438.598 101.088C438.972 101.749 439.158 102.512 439.158 103.376ZM436.838 102.736C436.828 102.16 436.62 101.701 436.214 101.36C435.809 101.008 435.313 100.832 434.726 100.832C434.172 100.832 433.702 101.003 433.318 101.344C432.945 101.675 432.716 102.139 432.63 102.736H436.838ZM446.185 99.008C447.241 99.008 448.095 99.344 448.745 100.016C449.396 100.677 449.721 101.605 449.721 102.8V108H447.481V103.104C447.481 102.4 447.305 101.861 446.953 101.488C446.601 101.104 446.121 100.912 445.513 100.912C444.895 100.912 444.404 101.104 444.041 101.488C443.689 101.861 443.513 102.4 443.513 103.104V108H441.273V99.136H443.513V100.24C443.812 99.856 444.191 99.5573 444.649 99.344C445.119 99.12 445.631 99.008 446.185 99.008Z" fill="#2D2A2A" fill-opacity="0.7"/>
</svg>
