<svg width="1280" height="41" viewBox="0 0 1280 41" fill="none" xmlns="http://www.w3.org/2000/svg">
<rect width="1282" height="41" transform="matrix(1 0 0 -1 -2 41)" fill="#BBBAC2"/>
<path d="M82.016 15.134V27H79.636V21.951H74.553V27H72.173V15.134H74.553V20.013H79.636V15.134H82.016ZM84.2565 22.257C84.2565 21.305 84.4435 20.4607 84.8175 19.724C85.2029 18.9873 85.7185 18.4207 86.3645 18.024C87.0219 17.6273 87.7529 17.429 88.5575 17.429C89.2602 17.429 89.8722 17.5707 90.3935 17.854C90.9262 18.1373 91.3512 18.4943 91.6685 18.925V17.582H94.0655V27H91.6685V25.623C91.3625 26.065 90.9375 26.4333 90.3935 26.728C89.8609 27.0113 89.2432 27.153 88.5405 27.153C87.7472 27.153 87.0219 26.949 86.3645 26.541C85.7185 26.133 85.2029 25.5607 84.8175 24.824C84.4435 24.076 84.2565 23.2203 84.2565 22.257ZM91.6685 22.291C91.6685 21.713 91.5552 21.22 91.3285 20.812C91.1019 20.3927 90.7959 20.0753 90.4105 19.86C90.0252 19.6333 89.6115 19.52 89.1695 19.52C88.7275 19.52 88.3195 19.6277 87.9455 19.843C87.5715 20.0583 87.2655 20.3757 87.0275 20.795C86.8009 21.203 86.6875 21.6903 86.6875 22.257C86.6875 22.8237 86.8009 23.3223 87.0275 23.753C87.2655 24.1723 87.5715 24.4953 87.9455 24.722C88.3309 24.9487 88.7389 25.062 89.1695 25.062C89.6115 25.062 90.0252 24.9543 90.4105 24.739C90.7959 24.5123 91.1019 24.195 91.3285 23.787C91.5552 23.3677 91.6685 22.869 91.6685 22.291ZM99.28 19.044C99.586 18.5453 99.9827 18.1543 100.47 17.871C100.969 17.5877 101.535 17.446 102.17 17.446V19.945H101.541C100.793 19.945 100.226 20.1207 99.841 20.472C99.467 20.8233 99.28 21.4353 99.28 22.308V27H96.9V17.582H99.28V19.044ZM105.49 16.46C105.071 16.46 104.719 16.3297 104.436 16.069C104.164 15.797 104.028 15.4627 104.028 15.066C104.028 14.6693 104.164 14.3407 104.436 14.08C104.719 13.808 105.071 13.672 105.49 13.672C105.909 13.672 106.255 13.808 106.527 14.08C106.81 14.3407 106.952 14.6693 106.952 15.066C106.952 15.4627 106.81 15.797 106.527 16.069C106.255 16.3297 105.909 16.46 105.49 16.46ZM106.663 17.582V27H104.283V17.582H106.663ZM127.014 19.214V24.399C127.014 24.7503 127.094 25.0053 127.252 25.164C127.422 25.3113 127.706 25.385 128.102 25.385H129.292V27H127.762C126.89 27 126.221 26.796 125.756 26.388C125.292 25.98 125.059 25.317 125.059 24.399V19.214H123.954V17.633H125.059V15.304H127.014V17.633H129.292V19.214H127.014ZM135.362 17.48C136.088 17.48 136.728 17.6273 137.283 17.922C137.85 18.2053 138.292 18.5623 138.609 18.993V17.633H140.564V27.153C140.564 28.0143 140.383 28.7793 140.02 29.448C139.658 30.128 139.131 30.6607 138.439 31.046C137.759 31.4313 136.943 31.624 135.991 31.624C134.722 31.624 133.668 31.3237 132.829 30.723C131.991 30.1337 131.515 29.329 131.401 28.309H133.322C133.47 28.7963 133.781 29.1873 134.257 29.482C134.745 29.788 135.323 29.941 135.991 29.941C136.773 29.941 137.402 29.703 137.878 29.227C138.366 28.751 138.609 28.0597 138.609 27.153V25.589C138.281 26.031 137.833 26.405 137.266 26.711C136.711 27.0057 136.076 27.153 135.362 27.153C134.546 27.153 133.798 26.949 133.118 26.541C132.45 26.1217 131.917 25.5437 131.52 24.807C131.135 24.059 130.942 23.2147 130.942 22.274C130.942 21.3333 131.135 20.5003 131.52 19.775C131.917 19.0497 132.45 18.4887 133.118 18.092C133.798 17.684 134.546 17.48 135.362 17.48ZM138.609 22.308C138.609 21.662 138.473 21.101 138.201 20.625C137.941 20.149 137.595 19.7863 137.164 19.537C136.734 19.2877 136.269 19.163 135.77 19.163C135.272 19.163 134.807 19.2877 134.376 19.537C133.946 19.775 133.594 20.132 133.322 20.608C133.062 21.0727 132.931 21.628 132.931 22.274C132.931 22.92 133.062 23.4867 133.322 23.974C133.594 24.4613 133.946 24.8353 134.376 25.096C134.818 25.3453 135.283 25.47 135.77 25.47C136.269 25.47 136.734 25.3453 137.164 25.096C137.595 24.8467 137.941 24.484 138.201 24.008C138.473 23.5207 138.609 22.954 138.609 22.308ZM145.558 14.42V27H143.62V14.42H145.558ZM150.737 24.671L148.68 29.363H147.422L148.629 24.671H150.737ZM164.191 20.931C164.825 21.0443 165.364 21.3787 165.806 21.934C166.248 22.4893 166.469 23.1183 166.469 23.821C166.469 24.4217 166.31 24.9657 165.993 25.453C165.687 25.929 165.239 26.3087 164.65 26.592C164.06 26.864 163.375 27 162.593 27H157.867V15.185H162.372C163.176 15.185 163.868 15.321 164.446 15.593C165.024 15.865 165.46 16.2333 165.755 16.698C166.049 17.1513 166.197 17.6613 166.197 18.228C166.197 18.908 166.015 19.4747 165.653 19.928C165.29 20.3813 164.803 20.7157 164.191 20.931ZM159.805 20.149H162.202C162.836 20.149 163.329 20.0073 163.681 19.724C164.043 19.4293 164.225 19.01 164.225 18.466C164.225 17.9333 164.043 17.5197 163.681 17.225C163.329 16.919 162.836 16.766 162.202 16.766H159.805V20.149ZM162.423 25.419C163.08 25.419 163.596 25.2603 163.97 24.943C164.344 24.6257 164.531 24.1837 164.531 23.617C164.531 23.039 164.332 22.58 163.936 22.24C163.539 21.9 163.012 21.73 162.355 21.73H159.805V25.419H162.423ZM177.568 17.633V27H175.63V25.895C175.324 26.2803 174.921 26.5863 174.423 26.813C173.935 27.0283 173.414 27.136 172.859 27.136C172.122 27.136 171.459 26.983 170.87 26.677C170.292 26.371 169.833 25.9177 169.493 25.317C169.164 24.7163 169 23.991 169 23.141V17.633H170.921V22.852C170.921 23.6907 171.13 24.3367 171.55 24.79C171.969 25.232 172.541 25.453 173.267 25.453C173.992 25.453 174.564 25.232 174.984 24.79C175.414 24.3367 175.63 23.6907 175.63 22.852V17.633H177.568ZM182.573 14.42V27H180.635V14.42H182.573ZM184.981 22.274C184.981 21.3333 185.174 20.5003 185.559 19.775C185.956 19.0497 186.488 18.4887 187.157 18.092C187.837 17.684 188.585 17.48 189.401 17.48C190.138 17.48 190.778 17.6273 191.322 17.922C191.877 18.2053 192.319 18.5623 192.648 18.993V17.633H194.603V27H192.648V25.606C192.319 26.048 191.872 26.4163 191.305 26.711C190.738 27.0057 190.092 27.153 189.367 27.153C188.562 27.153 187.826 26.949 187.157 26.541C186.488 26.1217 185.956 25.5437 185.559 24.807C185.174 24.059 184.981 23.2147 184.981 22.274ZM192.648 22.308C192.648 21.662 192.512 21.101 192.24 20.625C191.979 20.149 191.634 19.7863 191.203 19.537C190.772 19.2877 190.308 19.163 189.809 19.163C189.31 19.163 188.846 19.2877 188.415 19.537C187.984 19.775 187.633 20.132 187.361 20.608C187.1 21.0727 186.97 21.628 186.97 22.274C186.97 22.92 187.1 23.4867 187.361 23.974C187.633 24.4613 187.984 24.8353 188.415 25.096C188.857 25.3453 189.322 25.47 189.809 25.47C190.308 25.47 190.772 25.3453 191.203 25.096C191.634 24.8467 191.979 24.484 192.24 24.008C192.512 23.5207 192.648 22.954 192.648 22.308ZM202.385 17.48C203.121 17.48 203.779 17.633 204.357 17.939C204.946 18.245 205.405 18.6983 205.734 19.299C206.062 19.8997 206.227 20.625 206.227 21.475V27H204.306V21.764C204.306 20.9253 204.096 20.285 203.677 19.843C203.257 19.3897 202.685 19.163 201.96 19.163C201.234 19.163 200.656 19.3897 200.226 19.843C199.806 20.285 199.597 20.9253 199.597 21.764V27H197.659V17.633H199.597V18.704C199.914 18.3187 200.316 18.0183 200.804 17.803C201.302 17.5877 201.829 17.48 202.385 17.48ZM211.334 24.671L209.277 29.363H208.019L209.226 24.671H211.334ZM220.724 19.214V24.399C220.724 24.7503 220.803 25.0053 220.962 25.164C221.132 25.3113 221.415 25.385 221.812 25.385H223.002V27H221.472C220.599 27 219.931 26.796 219.466 26.388C219.001 25.98 218.769 25.317 218.769 24.399V19.214H217.664V17.633H218.769V15.304H220.724V17.633H223.002V19.214H220.724ZM224.652 22.274C224.652 21.3333 224.845 20.5003 225.23 19.775C225.627 19.0497 226.16 18.4887 226.828 18.092C227.508 17.684 228.256 17.48 229.072 17.48C229.809 17.48 230.449 17.6273 230.993 17.922C231.549 18.2053 231.991 18.5623 232.319 18.993V17.633H234.274V27H232.319V25.606C231.991 26.048 231.543 26.4163 230.976 26.711C230.41 27.0057 229.764 27.153 229.038 27.153C228.234 27.153 227.497 26.949 226.828 26.541C226.16 26.1217 225.627 25.5437 225.23 24.807C224.845 24.059 224.652 23.2147 224.652 22.274ZM232.319 22.308C232.319 21.662 232.183 21.101 231.911 20.625C231.651 20.149 231.305 19.7863 230.874 19.537C230.444 19.2877 229.979 19.163 229.48 19.163C228.982 19.163 228.517 19.2877 228.086 19.537C227.656 19.775 227.304 20.132 227.032 20.608C226.772 21.0727 226.641 21.628 226.641 22.274C226.641 22.92 226.772 23.4867 227.032 23.974C227.304 24.4613 227.656 24.8353 228.086 25.096C228.528 25.3453 228.993 25.47 229.48 25.47C229.979 25.47 230.444 25.3453 230.874 25.096C231.305 24.8467 231.651 24.484 231.911 24.008C232.183 23.5207 232.319 22.954 232.319 22.308ZM242.175 17.48C242.889 17.48 243.523 17.633 244.079 17.939C244.645 18.245 245.087 18.6983 245.405 19.299C245.733 19.8997 245.898 20.625 245.898 21.475V27H243.977V21.764C243.977 20.9253 243.767 20.285 243.348 19.843C242.928 19.3897 242.356 19.163 241.631 19.163C240.905 19.163 240.327 19.3897 239.897 19.843C239.477 20.285 239.268 20.9253 239.268 21.764V27H237.33V14.42H239.268V18.721C239.596 18.3243 240.01 18.0183 240.509 17.803C241.019 17.5877 241.574 17.48 242.175 17.48ZM257.363 17.633V27H255.425V25.895C255.119 26.2803 254.716 26.5863 254.218 26.813C253.73 27.0283 253.209 27.136 252.654 27.136C251.917 27.136 251.254 26.983 250.665 26.677C250.087 26.371 249.628 25.9177 249.288 25.317C248.959 24.7163 248.795 23.991 248.795 23.141V17.633H250.716V22.852C250.716 23.6907 250.925 24.3367 251.345 24.79C251.764 25.232 252.336 25.453 253.062 25.453C253.787 25.453 254.359 25.232 254.779 24.79C255.209 24.3367 255.425 23.6907 255.425 22.852V17.633H257.363ZM265.156 17.48C265.892 17.48 266.55 17.633 267.128 17.939C267.717 18.245 268.176 18.6983 268.505 19.299C268.833 19.8997 268.998 20.625 268.998 21.475V27H267.077V21.764C267.077 20.9253 266.867 20.285 266.448 19.843C266.028 19.3897 265.456 19.163 264.731 19.163C264.005 19.163 263.427 19.3897 262.997 19.843C262.577 20.285 262.368 20.9253 262.368 21.764V27H260.43V17.633H262.368V18.704C262.685 18.3187 263.087 18.0183 263.575 17.803C264.073 17.5877 264.6 17.48 265.156 17.48Z" fill="black"/>
<path d="M1143.68 28.153C1142.94 28.153 1142.28 28.0227 1141.69 27.762C1141.11 27.49 1140.65 27.1273 1140.31 26.674C1139.97 26.2093 1139.79 25.6937 1139.77 25.127H1141.77C1141.81 25.5237 1141.99 25.858 1142.33 26.13C1142.68 26.3907 1143.12 26.521 1143.64 26.521C1144.19 26.521 1144.6 26.419 1144.9 26.215C1145.21 25.9997 1145.36 25.7277 1145.36 25.399C1145.36 25.0477 1145.19 24.787 1144.85 24.617C1144.52 24.447 1143.99 24.26 1143.27 24.056C1142.56 23.8633 1141.99 23.6763 1141.55 23.495C1141.11 23.3137 1140.72 23.036 1140.39 22.662C1140.08 22.288 1139.92 21.795 1139.92 21.183C1139.92 20.6843 1140.07 20.231 1140.36 19.823C1140.65 19.4037 1141.07 19.075 1141.62 18.837C1142.17 18.599 1142.81 18.48 1143.52 18.48C1144.59 18.48 1145.44 18.752 1146.09 19.296C1146.75 19.8287 1147.1 20.5597 1147.14 21.489H1145.21C1145.17 21.0697 1145 20.7353 1144.7 20.486C1144.39 20.2367 1143.98 20.112 1143.45 20.112C1142.94 20.112 1142.55 20.2083 1142.28 20.401C1142.01 20.5937 1141.87 20.8487 1141.87 21.166C1141.87 21.4153 1141.96 21.625 1142.15 21.795C1142.33 21.965 1142.55 22.101 1142.81 22.203C1143.07 22.2937 1143.45 22.4127 1143.96 22.56C1144.64 22.7413 1145.2 22.9283 1145.63 23.121C1146.07 23.3023 1146.45 23.5743 1146.77 23.937C1147.09 24.2997 1147.25 24.7813 1147.26 25.382C1147.26 25.9147 1147.11 26.3907 1146.82 26.81C1146.53 27.2293 1146.11 27.558 1145.56 27.796C1145.03 28.034 1144.4 28.153 1143.68 28.153ZM1152.13 20.214V25.399C1152.13 25.7503 1152.21 26.0053 1152.37 26.164C1152.54 26.3113 1152.82 26.385 1153.22 26.385H1154.41V28H1152.88C1152 28 1151.33 27.796 1150.87 27.388C1150.4 26.98 1150.17 26.317 1150.17 25.399V20.214H1149.07V18.633H1150.17V16.304H1152.13V18.633H1154.41V20.214H1152.13ZM1156.06 23.274C1156.06 22.3333 1156.25 21.5003 1156.63 20.775C1157.03 20.0497 1157.56 19.4887 1158.23 19.092C1158.91 18.684 1159.66 18.48 1160.48 18.48C1161.21 18.48 1161.85 18.6273 1162.4 18.922C1162.95 19.2053 1163.39 19.5623 1163.72 19.993V18.633H1165.68V28H1163.72V26.606C1163.39 27.048 1162.95 27.4163 1162.38 27.711C1161.81 28.0057 1161.17 28.153 1160.44 28.153C1159.64 28.153 1158.9 27.949 1158.23 27.541C1157.56 27.1217 1157.03 26.5437 1156.63 25.807C1156.25 25.059 1156.06 24.2147 1156.06 23.274ZM1163.72 23.308C1163.72 22.662 1163.59 22.101 1163.31 21.625C1163.05 21.149 1162.71 20.7863 1162.28 20.537C1161.85 20.2877 1161.38 20.163 1160.88 20.163C1160.38 20.163 1159.92 20.2877 1159.49 20.537C1159.06 20.775 1158.71 21.132 1158.44 21.608C1158.17 22.0727 1158.04 22.628 1158.04 23.274C1158.04 23.92 1158.17 24.4867 1158.44 24.974C1158.71 25.4613 1159.06 25.8353 1159.49 26.096C1159.93 26.3453 1160.4 26.47 1160.88 26.47C1161.38 26.47 1161.85 26.3453 1162.28 26.096C1162.71 25.8467 1163.05 25.484 1163.31 25.008C1163.59 24.5207 1163.72 23.954 1163.72 23.308ZM1170.99 20.214V25.399C1170.99 25.7503 1171.07 26.0053 1171.23 26.164C1171.4 26.3113 1171.69 26.385 1172.08 26.385H1173.27V28H1171.74C1170.87 28 1170.2 27.796 1169.74 27.388C1169.27 26.98 1169.04 26.317 1169.04 25.399V20.214H1167.93V18.633H1169.04V16.304H1170.99V18.633H1173.27V20.214H1170.99ZM1184.05 18.633V28H1182.11V26.895C1181.81 27.2803 1181.4 27.5863 1180.91 27.813C1180.42 28.0283 1179.9 28.136 1179.34 28.136C1178.61 28.136 1177.94 27.983 1177.35 27.677C1176.77 27.371 1176.32 26.9177 1175.98 26.317C1175.65 25.7163 1175.48 24.991 1175.48 24.141V18.633H1177.4V23.852C1177.4 24.6907 1177.61 25.3367 1178.03 25.79C1178.45 26.232 1179.02 26.453 1179.75 26.453C1180.48 26.453 1181.05 26.232 1181.47 25.79C1181.9 25.3367 1182.11 24.6907 1182.11 23.852V18.633H1184.05ZM1190.52 28.153C1189.78 28.153 1189.12 28.0227 1188.53 27.762C1187.95 27.49 1187.49 27.1273 1187.15 26.674C1186.81 26.2093 1186.63 25.6937 1186.61 25.127H1188.61C1188.65 25.5237 1188.83 25.858 1189.17 26.13C1189.53 26.3907 1189.96 26.521 1190.48 26.521C1191.03 26.521 1191.45 26.419 1191.74 26.215C1192.05 25.9997 1192.2 25.7277 1192.2 25.399C1192.2 25.0477 1192.03 24.787 1191.69 24.617C1191.36 24.447 1190.84 24.26 1190.11 24.056C1189.41 23.8633 1188.83 23.6763 1188.39 23.495C1187.95 23.3137 1187.57 23.036 1187.24 22.662C1186.92 22.288 1186.76 21.795 1186.76 21.183C1186.76 20.6843 1186.91 20.231 1187.2 19.823C1187.5 19.4037 1187.92 19.075 1188.46 18.837C1189.02 18.599 1189.65 18.48 1190.36 18.48C1191.43 18.48 1192.29 18.752 1192.93 19.296C1193.59 19.8287 1193.94 20.5597 1193.99 21.489H1192.05C1192.01 21.0697 1191.84 20.7353 1191.54 20.486C1191.23 20.2367 1190.82 20.112 1190.3 20.112C1189.79 20.112 1189.4 20.2083 1189.12 20.401C1188.85 20.5937 1188.72 20.8487 1188.72 21.166C1188.72 21.4153 1188.81 21.625 1188.99 21.795C1189.17 21.965 1189.39 22.101 1189.65 22.203C1189.91 22.2937 1190.3 22.4127 1190.81 22.56C1191.49 22.7413 1192.04 22.9283 1192.47 23.121C1192.91 23.3023 1193.29 23.5743 1193.61 23.937C1193.93 24.2997 1194.09 24.7813 1194.1 25.382C1194.1 25.9147 1193.96 26.3907 1193.66 26.81C1193.37 27.2293 1192.95 27.558 1192.4 27.796C1191.87 28.034 1191.24 28.153 1190.52 28.153Z" fill="black"/>
</svg>
