<svg width="196" height="49" viewBox="0 0 196 49" fill="none" xmlns="http://www.w3.org/2000/svg">
<path d="M42.496 26.144C41.7707 26.144 41.12 26.016 40.544 25.76C39.968 25.4933 39.5093 25.136 39.168 24.688C38.8373 24.24 38.656 23.744 38.624 23.2H40.88C40.9227 23.5413 41.088 23.824 41.376 24.048C41.6747 24.272 42.0427 24.384 42.48 24.384C42.9067 24.384 43.2373 24.2987 43.472 24.128C43.7173 23.9573 43.84 23.7387 43.84 23.472C43.84 23.184 43.6907 22.9707 43.392 22.832C43.104 22.6827 42.64 22.5227 42 22.352C41.3387 22.192 40.7947 22.0267 40.368 21.856C39.952 21.6853 39.5893 21.424 39.28 21.072C38.9813 20.72 38.832 20.2453 38.832 19.648C38.832 19.1573 38.9707 18.7093 39.248 18.304C39.536 17.8987 39.9413 17.5787 40.464 17.344C40.9973 17.1093 41.6213 16.992 42.336 16.992C43.392 16.992 44.2347 17.2587 44.864 17.792C45.4933 18.3147 45.84 19.024 45.904 19.92H43.76C43.728 19.568 43.5787 19.2907 43.312 19.088C43.056 18.8747 42.7093 18.768 42.272 18.768C41.8667 18.768 41.552 18.8427 41.328 18.992C41.1147 19.1413 41.008 19.3493 41.008 19.616C41.008 19.9147 41.1573 20.144 41.456 20.304C41.7547 20.4533 42.2187 20.608 42.848 20.768C43.488 20.928 44.016 21.0933 44.432 21.264C44.848 21.4347 45.2053 21.7013 45.504 22.064C45.8133 22.416 45.9733 22.8853 45.984 23.472C45.984 23.984 45.84 24.4427 45.552 24.848C45.2747 25.2533 44.8693 25.5733 44.336 25.808C43.8133 26.032 43.2 26.144 42.496 26.144ZM50.7507 18.976V23.264C50.7507 23.5627 50.8201 23.7813 50.9587 23.92C51.1081 24.048 51.3534 24.112 51.6947 24.112H52.7347V26H51.3267C49.4387 26 48.4947 25.0827 48.4947 23.248V18.976H47.4387V17.136H48.4947V14.944H50.7507V17.136H52.7347V18.976H50.7507ZM54.0899 21.536C54.0899 20.64 54.2659 19.8453 54.6179 19.152C54.9805 18.4587 55.4659 17.9253 56.0739 17.552C56.6925 17.1787 57.3805 16.992 58.1379 16.992C58.7992 16.992 59.3752 17.1253 59.8659 17.392C60.3672 17.6587 60.7672 17.9947 61.0659 18.4V17.136H63.3219V26H61.0659V24.704C60.7779 25.12 60.3779 25.4667 59.8659 25.744C59.3645 26.0107 58.7832 26.144 58.1219 26.144C57.3752 26.144 56.6925 25.952 56.0739 25.568C55.4659 25.184 54.9805 24.6453 54.6179 23.952C54.2659 23.248 54.0899 22.4427 54.0899 21.536ZM61.0659 21.568C61.0659 21.024 60.9592 20.56 60.7459 20.176C60.5325 19.7813 60.2445 19.4827 59.8819 19.28C59.5192 19.0667 59.1299 18.96 58.7139 18.96C58.2979 18.96 57.9139 19.0613 57.5619 19.264C57.2099 19.4667 56.9219 19.7653 56.6979 20.16C56.4845 20.544 56.3779 21.0027 56.3779 21.536C56.3779 22.0693 56.4845 22.5387 56.6979 22.944C56.9219 23.3387 57.2099 23.6427 57.5619 23.856C57.9245 24.0693 58.3085 24.176 58.7139 24.176C59.1299 24.176 59.5192 24.0747 59.8819 23.872C60.2445 23.6587 60.5325 23.36 60.7459 22.976C60.9592 22.5813 61.0659 22.112 61.0659 21.568ZM68.4376 18.976V23.264C68.4376 23.5627 68.507 23.7813 68.6456 23.92C68.795 24.048 69.0403 24.112 69.3816 24.112H70.4216V26H69.0136C67.1256 26 66.1816 25.0827 66.1816 23.248V18.976H65.1256V17.136H66.1816V14.944H68.4376V17.136H70.4216V18.976H68.4376ZM73.4887 16.08C73.0941 16.08 72.7634 15.9573 72.4967 15.712C72.2407 15.456 72.1127 15.1413 72.1127 14.768C72.1127 14.3947 72.2407 14.0853 72.4967 13.84C72.7634 13.584 73.0941 13.456 73.4887 13.456C73.8834 13.456 74.2087 13.584 74.4647 13.84C74.7314 14.0853 74.8647 14.3947 74.8647 14.768C74.8647 15.1413 74.7314 15.456 74.4647 15.712C74.2087 15.9573 73.8834 16.08 73.4887 16.08ZM74.5927 17.136V26H72.3527V17.136H74.5927ZM80.5179 26.144C79.7925 26.144 79.1419 26.016 78.5659 25.76C77.9899 25.4933 77.5312 25.136 77.1899 24.688C76.8592 24.24 76.6779 23.744 76.6459 23.2H78.9019C78.9445 23.5413 79.1099 23.824 79.3979 24.048C79.6965 24.272 80.0645 24.384 80.5019 24.384C80.9285 24.384 81.2592 24.2987 81.4939 24.128C81.7392 23.9573 81.8619 23.7387 81.8619 23.472C81.8619 23.184 81.7125 22.9707 81.4139 22.832C81.1259 22.6827 80.6619 22.5227 80.0219 22.352C79.3605 22.192 78.8165 22.0267 78.3899 21.856C77.9739 21.6853 77.6112 21.424 77.3019 21.072C77.0032 20.72 76.8539 20.2453 76.8539 19.648C76.8539 19.1573 76.9925 18.7093 77.2699 18.304C77.5579 17.8987 77.9632 17.5787 78.4859 17.344C79.0192 17.1093 79.6432 16.992 80.3579 16.992C81.4139 16.992 82.2565 17.2587 82.8859 17.792C83.5152 18.3147 83.8619 19.024 83.9259 19.92H81.7819C81.7499 19.568 81.6005 19.2907 81.3339 19.088C81.0779 18.8747 80.7312 18.768 80.2939 18.768C79.8885 18.768 79.5739 18.8427 79.3499 18.992C79.1365 19.1413 79.0299 19.3493 79.0299 19.616C79.0299 19.9147 79.1792 20.144 79.4779 20.304C79.7765 20.4533 80.2405 20.608 80.8699 20.768C81.5099 20.928 82.0379 21.0933 82.4539 21.264C82.8699 21.4347 83.2272 21.7013 83.5259 22.064C83.8352 22.416 83.9952 22.8853 84.0059 23.472C84.0059 23.984 83.8619 24.4427 83.5739 24.848C83.2965 25.2533 82.8912 25.5733 82.3579 25.808C81.8352 26.032 81.2219 26.144 80.5179 26.144ZM88.7726 18.976V23.264C88.7726 23.5627 88.842 23.7813 88.9806 23.92C89.13 24.048 89.3753 24.112 89.7166 24.112H90.7566V26H89.3486C87.4606 26 86.5166 25.0827 86.5166 23.248V18.976H85.4606V17.136H86.5166V14.944H88.7726V17.136H90.7566V18.976H88.7726ZM93.8238 16.08C93.4291 16.08 93.0984 15.9573 92.8318 15.712C92.5758 15.456 92.4478 15.1413 92.4478 14.768C92.4478 14.3947 92.5758 14.0853 92.8318 13.84C93.0984 13.584 93.4291 13.456 93.8238 13.456C94.2184 13.456 94.5438 13.584 94.7998 13.84C95.0664 14.0853 95.1998 14.3947 95.1998 14.768C95.1998 15.1413 95.0664 15.456 94.7998 15.712C94.5438 15.9573 94.2184 16.08 93.8238 16.08ZM94.9278 17.136V26H92.6878V17.136H94.9278ZM96.8849 21.568C96.8849 20.6507 97.0715 19.8507 97.4449 19.168C97.8182 18.4747 98.3355 17.9413 98.9969 17.568C99.6582 17.184 100.416 16.992 101.269 16.992C102.368 16.992 103.274 17.2693 103.989 17.824C104.714 18.368 105.2 19.136 105.445 20.128H103.029C102.901 19.744 102.682 19.4453 102.373 19.232C102.074 19.008 101.701 18.896 101.253 18.896C100.613 18.896 100.106 19.1307 99.7329 19.6C99.3595 20.0587 99.1729 20.7147 99.1729 21.568C99.1729 22.4107 99.3595 23.0667 99.7329 23.536C100.106 23.9947 100.613 24.224 101.253 24.224C102.16 24.224 102.752 23.8187 103.029 23.008H105.445C105.2 23.968 104.714 24.7307 103.989 25.296C103.264 25.8613 102.357 26.144 101.269 26.144C100.416 26.144 99.6582 25.9573 98.9969 25.584C98.3355 25.2 97.8182 24.6667 97.4449 23.984C97.0715 23.2907 96.8849 22.4853 96.8849 21.568ZM110.798 26.144C110.073 26.144 109.422 26.016 108.846 25.76C108.27 25.4933 107.811 25.136 107.47 24.688C107.139 24.24 106.958 23.744 106.926 23.2H109.182C109.225 23.5413 109.39 23.824 109.678 24.048C109.977 24.272 110.345 24.384 110.782 24.384C111.209 24.384 111.539 24.2987 111.774 24.128C112.019 23.9573 112.142 23.7387 112.142 23.472C112.142 23.184 111.993 22.9707 111.694 22.832C111.406 22.6827 110.942 22.5227 110.302 22.352C109.641 22.192 109.097 22.0267 108.67 21.856C108.254 21.6853 107.891 21.424 107.582 21.072C107.283 20.72 107.134 20.2453 107.134 19.648C107.134 19.1573 107.273 18.7093 107.55 18.304C107.838 17.8987 108.243 17.5787 108.766 17.344C109.299 17.1093 109.923 16.992 110.638 16.992C111.694 16.992 112.537 17.2587 113.166 17.792C113.795 18.3147 114.142 19.024 114.206 19.92H112.062C112.03 19.568 111.881 19.2907 111.614 19.088C111.358 18.8747 111.011 18.768 110.574 18.768C110.169 18.768 109.854 18.8427 109.63 18.992C109.417 19.1413 109.31 19.3493 109.31 19.616C109.31 19.9147 109.459 20.144 109.758 20.304C110.057 20.4533 110.521 20.608 111.15 20.768C111.79 20.928 112.318 21.0933 112.734 21.264C113.15 21.4347 113.507 21.7013 113.806 22.064C114.115 22.416 114.275 22.8853 114.286 23.472C114.286 23.984 114.142 24.4427 113.854 24.848C113.577 25.2533 113.171 25.5733 112.638 25.808C112.115 26.032 111.502 26.144 110.798 26.144ZM122.817 18.512C123.105 18.0427 123.478 17.6747 123.937 17.408C124.406 17.1413 124.94 17.008 125.537 17.008V19.36H124.945C124.241 19.36 123.708 19.5253 123.345 19.856C122.993 20.1867 122.817 20.7627 122.817 21.584V26H120.577V17.136H122.817V18.512ZM135.606 21.376C135.606 21.696 135.585 21.984 135.542 22.24H129.062C129.115 22.88 129.339 23.3813 129.734 23.744C130.129 24.1067 130.614 24.288 131.19 24.288C132.022 24.288 132.614 23.9307 132.966 23.216H135.382C135.126 24.0693 134.635 24.7733 133.91 25.328C133.185 25.872 132.294 26.144 131.238 26.144C130.385 26.144 129.617 25.9573 128.934 25.584C128.262 25.2 127.734 24.6613 127.35 23.968C126.977 23.2747 126.79 22.4747 126.79 21.568C126.79 20.6507 126.977 19.8453 127.35 19.152C127.723 18.4587 128.246 17.9253 128.918 17.552C129.59 17.1787 130.363 16.992 131.238 16.992C132.081 16.992 132.833 17.1733 133.494 17.536C134.166 17.8987 134.683 18.416 135.046 19.088C135.419 19.7493 135.606 20.512 135.606 21.376ZM133.286 20.736C133.275 20.16 133.067 19.7013 132.662 19.36C132.257 19.008 131.761 18.832 131.174 18.832C130.619 18.832 130.15 19.0027 129.766 19.344C129.393 19.6747 129.163 20.1387 129.078 20.736H133.286ZM139.801 18.416C140.089 18.0107 140.484 17.6747 140.985 17.408C141.497 17.1307 142.078 16.992 142.729 16.992C143.486 16.992 144.169 17.1787 144.777 17.552C145.396 17.9253 145.881 18.4587 146.233 19.152C146.596 19.8347 146.777 20.6293 146.777 21.536C146.777 22.4427 146.596 23.248 146.233 23.952C145.881 24.6453 145.396 25.184 144.777 25.568C144.169 25.952 143.486 26.144 142.729 26.144C142.078 26.144 141.502 26.0107 141.001 25.744C140.51 25.4773 140.11 25.1413 139.801 24.736V30.224H137.561V17.136H139.801V18.416ZM144.489 21.536C144.489 21.0027 144.377 20.544 144.153 20.16C143.94 19.7653 143.652 19.4667 143.289 19.264C142.937 19.0613 142.553 18.96 142.137 18.96C141.732 18.96 141.348 19.0667 140.985 19.28C140.633 19.4827 140.345 19.7813 140.121 20.176C139.908 20.5707 139.801 21.0347 139.801 21.568C139.801 22.1013 139.908 22.5653 140.121 22.96C140.345 23.3547 140.633 23.6587 140.985 23.872C141.348 24.0747 141.732 24.176 142.137 24.176C142.553 24.176 142.937 24.0693 143.289 23.856C143.652 23.6427 143.94 23.3387 144.153 22.944C144.377 22.5493 144.489 22.08 144.489 21.536ZM152.661 26.144C151.807 26.144 151.039 25.9573 150.357 25.584C149.674 25.2 149.135 24.6613 148.741 23.968C148.357 23.2747 148.165 22.4747 148.165 21.568C148.165 20.6613 148.362 19.8613 148.757 19.168C149.162 18.4747 149.711 17.9413 150.405 17.568C151.098 17.184 151.871 16.992 152.725 16.992C153.578 16.992 154.351 17.184 155.045 17.568C155.738 17.9413 156.282 18.4747 156.677 19.168C157.082 19.8613 157.285 20.6613 157.285 21.568C157.285 22.4747 157.077 23.2747 156.661 23.968C156.255 24.6613 155.701 25.2 154.997 25.584C154.303 25.9573 153.525 26.144 152.661 26.144ZM152.661 24.192C153.066 24.192 153.445 24.096 153.797 23.904C154.159 23.7013 154.447 23.4027 154.661 23.008C154.874 22.6133 154.981 22.1333 154.981 21.568C154.981 20.7253 154.757 20.08 154.309 19.632C153.871 19.1733 153.333 18.944 152.693 18.944C152.053 18.944 151.514 19.1733 151.077 19.632C150.65 20.08 150.437 20.7253 150.437 21.568C150.437 22.4107 150.645 23.0613 151.061 23.52C151.487 23.968 152.021 24.192 152.661 24.192ZM161.488 18.512C161.776 18.0427 162.149 17.6747 162.608 17.408C163.077 17.1413 163.61 17.008 164.208 17.008V19.36H163.616C162.912 19.36 162.378 19.5253 162.016 19.856C161.664 20.1867 161.488 20.7627 161.488 21.584V26H159.248V17.136H161.488V18.512ZM168.645 18.976V23.264C168.645 23.5627 168.714 23.7813 168.853 23.92C169.002 24.048 169.247 24.112 169.589 24.112H170.629V26H169.221C167.333 26 166.389 25.0827 166.389 23.248V18.976H165.333V17.136H166.389V14.944H168.645V17.136H170.629V18.976H168.645Z" fill="white"/>
<g clip-path="url(#clip0_783_282)">
<g clip-path="url(#clip1_783_282)">
<path d="M25.4696 14.684L20.1707 19.4031L25.4164 24.17L23.781 25.6264L16.9164 19.3883L23.8507 13.2128L25.4696 14.684Z" fill="white"/>
</g>
</g>
<defs>
<clipPath id="clip0_783_282">
<rect width="38.4426" height="42.7324" fill="white" transform="matrix(-0.00560893 0.999984 -0.99999 -0.0045393 42.9476 10.2959)"/>
</clipPath>
<clipPath id="clip1_783_282">
<rect width="24.8275" height="27.598" fill="white" transform="matrix(-0.00560893 0.999984 -0.99999 -0.0045393 34.9533 7.05615)"/>
</clipPath>
</defs>
</svg>
