<svg width="32" height="11" viewBox="0 0 32 11" fill="none" xmlns="http://www.w3.org/2000/svg">
<path d="M3.228 0.269999C4.264 0.269999 5.16933 0.470666 5.944 0.872C6.728 1.264 7.33 1.83333 7.75 2.58C8.17933 3.31733 8.394 4.18067 8.394 5.17C8.394 6.15933 8.17933 7.018 7.75 7.746C7.33 8.474 6.728 9.034 5.944 9.426C5.16933 9.80867 4.264 10 3.228 10H0.05V0.269999H3.228ZM3.228 8.698C4.36667 8.698 5.23933 8.39 5.846 7.774C6.45267 7.158 6.756 6.29 6.756 5.17C6.756 4.04067 6.45267 3.15867 5.846 2.524C5.23933 1.88933 4.36667 1.572 3.228 1.572H1.646V8.698H3.228ZM9.44378 6.108C9.44378 5.33333 9.60245 4.64733 9.91978 4.05C10.2464 3.45267 10.6851 2.99067 11.2358 2.664C11.7958 2.328 12.4118 2.16 13.0838 2.16C13.6904 2.16 14.2178 2.28133 14.6658 2.524C15.1231 2.75733 15.4871 3.05133 15.7578 3.406V2.286H17.3678V10H15.7578V8.852C15.4871 9.216 15.1184 9.51933 14.6518 9.762C14.1851 10.0047 13.6531 10.126 13.0558 10.126C12.3931 10.126 11.7864 9.958 11.2358 9.622C10.6851 9.27667 10.2464 8.80067 9.91978 8.194C9.60245 7.578 9.44378 6.88267 9.44378 6.108ZM15.7578 6.136C15.7578 5.604 15.6458 5.142 15.4218 4.75C15.2071 4.358 14.9224 4.05933 14.5678 3.854C14.2131 3.64867 13.8304 3.546 13.4198 3.546C13.0091 3.546 12.6264 3.64867 12.2718 3.854C11.9171 4.05 11.6278 4.344 11.4038 4.736C11.1891 5.11867 11.0818 5.576 11.0818 6.108C11.0818 6.64 11.1891 7.10667 11.4038 7.508C11.6278 7.90933 11.9171 8.21733 12.2718 8.432C12.6358 8.63733 13.0184 8.74 13.4198 8.74C13.8304 8.74 14.2131 8.63733 14.5678 8.432C14.9224 8.22667 15.2071 7.928 15.4218 7.536C15.6458 7.13467 15.7578 6.668 15.7578 6.136ZM21.3261 3.588V7.858C21.3261 8.14733 21.3914 8.35733 21.5221 8.488C21.6621 8.60933 21.8954 8.67 22.2221 8.67H23.2021V10H21.9421C21.2234 10 20.6727 9.832 20.2901 9.496C19.9074 9.16 19.7161 8.614 19.7161 7.858V3.588H18.8061V2.286H19.7161V0.368H21.3261V2.286H23.2021V3.588H21.3261ZM31.743 5.954C31.743 6.24333 31.7244 6.50467 31.687 6.738H25.793C25.8397 7.354 26.0684 7.84867 26.479 8.222C26.8897 8.59533 27.3937 8.782 27.991 8.782C28.8497 8.782 29.4564 8.42267 29.811 7.704H31.533C31.2997 8.41333 30.875 8.99667 30.259 9.454C29.6524 9.902 28.8964 10.126 27.991 10.126C27.2537 10.126 26.591 9.96267 26.003 9.636C25.4244 9.3 24.967 8.83333 24.631 8.236C24.3044 7.62933 24.141 6.92933 24.141 6.136C24.141 5.34267 24.2997 4.64733 24.617 4.05C24.9437 3.44333 25.3964 2.97667 25.975 2.65C26.563 2.32333 27.235 2.16 27.991 2.16C28.719 2.16 29.3677 2.31867 29.937 2.636C30.5064 2.95333 30.9497 3.40133 31.267 3.98C31.5844 4.54933 31.743 5.20733 31.743 5.954ZM30.077 5.45C30.0677 4.862 29.8577 4.39067 29.447 4.036C29.0364 3.68133 28.5277 3.504 27.921 3.504C27.3704 3.504 26.899 3.68133 26.507 4.036C26.115 4.38133 25.8817 4.85267 25.807 5.45H30.077Z" fill="black"/>
</svg>
