<svg width="71" height="15" viewBox="0 0 71 15" fill="none" xmlns="http://www.w3.org/2000/svg">
<path d="M5.412 11L1.646 6.646V11H0.05V1.27H1.646V5.708L5.426 1.27H7.428L3.2 6.142L7.498 11H5.412ZM15.9794 6.954C15.9794 7.24333 15.9607 7.50467 15.9234 7.738H10.0294C10.076 8.354 10.3047 8.84867 10.7154 9.222C11.126 9.59533 11.63 9.782 12.2274 9.782C13.086 9.782 13.6927 9.42267 14.0474 8.704H15.7694C15.536 9.41333 15.1114 9.99667 14.4954 10.454C13.8887 10.902 13.1327 11.126 12.2274 11.126C11.49 11.126 10.8274 10.9627 10.2394 10.636C9.66071 10.3 9.20338 9.83333 8.86738 9.236C8.54071 8.62933 8.37738 7.92933 8.37738 7.136C8.37738 6.34267 8.53604 5.64733 8.85338 5.05C9.18004 4.44333 9.63271 3.97667 10.2114 3.65C10.7994 3.32333 11.4714 3.16 12.2274 3.16C12.9554 3.16 13.604 3.31867 14.1734 3.636C14.7427 3.95333 15.186 4.40133 15.5034 4.98C15.8207 5.54933 15.9794 6.20733 15.9794 6.954ZM14.3134 6.45C14.304 5.862 14.094 5.39067 13.6834 5.036C13.2727 4.68133 12.764 4.504 12.1574 4.504C11.6067 4.504 11.1354 4.68133 10.7434 5.036C10.3514 5.38133 10.118 5.85267 10.0434 6.45H14.3134ZM19.146 4.42C19.4167 4.06533 19.7853 3.76667 20.252 3.524C20.7187 3.28133 21.246 3.16 21.834 3.16C22.506 3.16 23.1173 3.328 23.668 3.664C24.228 3.99067 24.6667 4.45267 24.984 5.05C25.3013 5.64733 25.46 6.33333 25.46 7.108C25.46 7.88267 25.3013 8.578 24.984 9.194C24.6667 9.80067 24.228 10.2767 23.668 10.622C23.1173 10.958 22.506 11.126 21.834 11.126C21.246 11.126 20.7233 11.0093 20.266 10.776C19.8087 10.5333 19.4353 10.2347 19.146 9.88V14.668H17.55V3.286H19.146V4.42ZM23.836 7.108C23.836 6.576 23.724 6.11867 23.5 5.736C23.2853 5.344 22.996 5.05 22.632 4.854C22.2773 4.64867 21.8947 4.546 21.484 4.546C21.0827 4.546 20.7 4.64867 20.336 4.854C19.9813 5.05933 19.692 5.358 19.468 5.75C19.2533 6.142 19.146 6.604 19.146 7.136C19.146 7.668 19.2533 8.13467 19.468 8.536C19.692 8.928 19.9813 9.22667 20.336 9.432C20.7 9.63733 21.0827 9.74 21.484 9.74C21.8947 9.74 22.2773 9.63733 22.632 9.432C22.996 9.21733 23.2853 8.90933 23.5 8.508C23.724 8.10667 23.836 7.64 23.836 7.108ZM34.1083 6.954C34.1083 7.24333 34.0896 7.50467 34.0523 7.738H28.1583C28.2049 8.354 28.4336 8.84867 28.8443 9.222C29.2549 9.59533 29.7589 9.782 30.3563 9.782C31.2149 9.782 31.8216 9.42267 32.1763 8.704H33.8983C33.6649 9.41333 33.2403 9.99667 32.6243 10.454C32.0176 10.902 31.2616 11.126 30.3563 11.126C29.6189 11.126 28.9563 10.9627 28.3683 10.636C27.7896 10.3 27.3323 9.83333 26.9963 9.236C26.6696 8.62933 26.5063 7.92933 26.5063 7.136C26.5063 6.34267 26.6649 5.64733 26.9823 5.05C27.3089 4.44333 27.7616 3.97667 28.3403 3.65C28.9283 3.32333 29.6003 3.16 30.3563 3.16C31.0843 3.16 31.7329 3.31867 32.3023 3.636C32.8716 3.95333 33.3149 4.40133 33.6323 4.98C33.9496 5.54933 34.1083 6.20733 34.1083 6.954ZM32.4423 6.45C32.4329 5.862 32.2229 5.39067 31.8123 5.036C31.4016 4.68133 30.8929 4.504 30.2863 4.504C29.7356 4.504 29.2643 4.68133 28.8723 5.036C28.4803 5.38133 28.2469 5.85267 28.1723 6.45H32.4423ZM37.2749 4.406C37.5082 4.014 37.8162 3.71067 38.1989 3.496C38.5909 3.272 39.0529 3.16 39.5849 3.16V4.812H39.1789C38.5536 4.812 38.0776 4.97067 37.7509 5.288C37.4336 5.60533 37.2749 6.156 37.2749 6.94V11H35.6789V3.286H37.2749V4.406ZM42.648 0.64V11H41.052V0.64H42.648ZM51.7294 3.286V11H50.1334V10.09C49.8814 10.4073 49.55 10.6593 49.1394 10.846C48.738 11.0233 48.3087 11.112 47.8514 11.112C47.2447 11.112 46.6987 10.986 46.2134 10.734C45.7374 10.482 45.3594 10.1087 45.0794 9.614C44.8087 9.11933 44.6734 8.522 44.6734 7.822V3.286H46.2554V7.584C46.2554 8.27467 46.428 8.80667 46.7734 9.18C47.1187 9.544 47.59 9.726 48.1874 9.726C48.7847 9.726 49.256 9.544 49.6014 9.18C49.956 8.80667 50.1334 8.27467 50.1334 7.584V3.286H51.7294ZM53.3032 7.108C53.3032 6.33333 53.4618 5.64733 53.7792 5.05C54.1058 4.45267 54.5445 3.99067 55.0952 3.664C55.6552 3.328 56.2712 3.16 56.9432 3.16C57.5498 3.16 58.0772 3.28133 58.5252 3.524C58.9825 3.75733 59.3465 4.05133 59.6172 4.406V3.286H61.2272V11H59.6172V9.852C59.3465 10.216 58.9778 10.5193 58.5112 10.762C58.0445 11.0047 57.5125 11.126 56.9152 11.126C56.2525 11.126 55.6458 10.958 55.0952 10.622C54.5445 10.2767 54.1058 9.80067 53.7792 9.194C53.4618 8.578 53.3032 7.88267 53.3032 7.108ZM59.6172 7.136C59.6172 6.604 59.5052 6.142 59.2812 5.75C59.0665 5.358 58.7818 5.05933 58.4272 4.854C58.0725 4.64867 57.6898 4.546 57.2792 4.546C56.8685 4.546 56.4858 4.64867 56.1312 4.854C55.7765 5.05 55.4872 5.344 55.2632 5.736C55.0485 6.11867 54.9412 6.576 54.9412 7.108C54.9412 7.64 55.0485 8.10667 55.2632 8.508C55.4872 8.90933 55.7765 9.21733 56.1312 9.432C56.4952 9.63733 56.8778 9.74 57.2792 9.74C57.6898 9.74 58.0725 9.63733 58.4272 9.432C58.7818 9.22667 59.0665 8.928 59.2812 8.536C59.5052 8.13467 59.6172 7.668 59.6172 7.136ZM67.2154 3.16C67.8221 3.16 68.3634 3.286 68.8394 3.538C69.3248 3.79 69.7028 4.16333 69.9734 4.658C70.2441 5.15267 70.3794 5.75 70.3794 6.45V11H68.7974V6.688C68.7974 5.99733 68.6248 5.47 68.2794 5.106C67.9341 4.73267 67.4628 4.546 66.8654 4.546C66.2681 4.546 65.7921 4.73267 65.4374 5.106C65.0921 5.47 64.9194 5.99733 64.9194 6.688V11H63.3234V3.286H64.9194V4.168C65.1808 3.85067 65.5121 3.60333 65.9134 3.426C66.3241 3.24867 66.7581 3.16 67.2154 3.16Z" fill="black"/>
</svg>
