<svg width="1144" height="36" viewBox="0 0 1144 36" fill="none" xmlns="http://www.w3.org/2000/svg">
<path d="M6.412 26L2.646 21.646V26H1.05V16.27H2.646V20.708L6.426 16.27H8.428L4.2 21.142L8.498 26H6.412ZM17.3994 21.954C17.3994 22.2433 17.3807 22.5047 17.3434 22.738H11.4494C11.496 23.354 11.7247 23.8487 12.1354 24.222C12.546 24.5953 13.05 24.782 13.6474 24.782C14.506 24.782 15.1127 24.4227 15.4674 23.704H17.1894C16.956 24.4133 16.5314 24.9967 15.9154 25.454C15.3087 25.902 14.5527 26.126 13.6474 26.126C12.91 26.126 12.2474 25.9627 11.6594 25.636C11.0807 25.3 10.6234 24.8333 10.2874 24.236C9.96071 23.6293 9.79738 22.9293 9.79738 22.136C9.79738 21.3427 9.95604 20.6473 10.2734 20.05C10.6 19.4433 11.0527 18.9767 11.6314 18.65C12.2194 18.3233 12.8914 18.16 13.6474 18.16C14.3754 18.16 15.024 18.3187 15.5934 18.636C16.1627 18.9533 16.606 19.4013 16.9234 19.98C17.2407 20.5493 17.3994 21.2073 17.3994 21.954ZM15.7334 21.45C15.724 20.862 15.514 20.3907 15.1034 20.036C14.6927 19.6813 14.184 19.504 13.5774 19.504C13.0267 19.504 12.5554 19.6813 12.1634 20.036C11.7714 20.3813 11.538 20.8527 11.4634 21.45H15.7334ZM20.986 19.42C21.2567 19.0653 21.6253 18.7667 22.092 18.524C22.5587 18.2813 23.086 18.16 23.674 18.16C24.346 18.16 24.9573 18.328 25.508 18.664C26.068 18.9907 26.5067 19.4527 26.824 20.05C27.1413 20.6473 27.3 21.3333 27.3 22.108C27.3 22.8827 27.1413 23.578 26.824 24.194C26.5067 24.8007 26.068 25.2767 25.508 25.622C24.9573 25.958 24.346 26.126 23.674 26.126C23.086 26.126 22.5633 26.0093 22.106 25.776C21.6487 25.5333 21.2753 25.2347 20.986 24.88V29.668H19.39V18.286H20.986V19.42ZM25.676 22.108C25.676 21.576 25.564 21.1187 25.34 20.736C25.1253 20.344 24.836 20.05 24.472 19.854C24.1173 19.6487 23.7347 19.546 23.324 19.546C22.9227 19.546 22.54 19.6487 22.176 19.854C21.8213 20.0593 21.532 20.358 21.308 20.75C21.0933 21.142 20.986 21.604 20.986 22.136C20.986 22.668 21.0933 23.1347 21.308 23.536C21.532 23.928 21.8213 24.2267 22.176 24.432C22.54 24.6373 22.9227 24.74 23.324 24.74C23.7347 24.74 24.1173 24.6373 24.472 24.432C24.836 24.2173 25.1253 23.9093 25.34 23.508C25.564 23.1067 25.676 22.64 25.676 22.108ZM28.7663 22.108C28.7663 21.3333 28.9249 20.6473 29.2423 20.05C29.5689 19.4527 30.0076 18.9907 30.5583 18.664C31.1183 18.328 31.7343 18.16 32.4063 18.16C33.0129 18.16 33.5403 18.2813 33.9883 18.524C34.4456 18.7573 34.8096 19.0513 35.0803 19.406V18.286H36.6903V26H35.0803V24.852C34.8096 25.216 34.4409 25.5193 33.9743 25.762C33.5076 26.0047 32.9756 26.126 32.3783 26.126C31.7156 26.126 31.1089 25.958 30.5583 25.622C30.0076 25.2767 29.5689 24.8007 29.2423 24.194C28.9249 23.578 28.7663 22.8827 28.7663 22.108ZM35.0803 22.136C35.0803 21.604 34.9683 21.142 34.7443 20.75C34.5296 20.358 34.2449 20.0593 33.8903 19.854C33.5356 19.6487 33.1529 19.546 32.7423 19.546C32.3316 19.546 31.9489 19.6487 31.5943 19.854C31.2396 20.05 30.9503 20.344 30.7263 20.736C30.5116 21.1187 30.4043 21.576 30.4043 22.108C30.4043 22.64 30.5116 23.1067 30.7263 23.508C30.9503 23.9093 31.2396 24.2173 31.5943 24.432C31.9583 24.6373 32.3409 24.74 32.7423 24.74C33.1529 24.74 33.5356 24.6373 33.8903 24.432C34.2449 24.2267 34.5296 23.928 34.7443 23.536C34.9683 23.1347 35.0803 22.668 35.0803 22.136ZM40.8026 15.64V26H39.2066V15.64H40.8026ZM42.786 22.108C42.786 21.3333 42.9446 20.6473 43.262 20.05C43.5886 19.4527 44.0273 18.9907 44.578 18.664C45.138 18.328 45.754 18.16 46.426 18.16C47.0326 18.16 47.56 18.2813 48.008 18.524C48.4653 18.7573 48.8293 19.0513 49.1 19.406V18.286H50.71V26H49.1V24.852C48.8293 25.216 48.4606 25.5193 47.994 25.762C47.5273 26.0047 46.9953 26.126 46.398 26.126C45.7353 26.126 45.1286 25.958 44.578 25.622C44.0273 25.2767 43.5886 24.8007 43.262 24.194C42.9446 23.578 42.786 22.8827 42.786 22.108ZM49.1 22.136C49.1 21.604 48.988 21.142 48.764 20.75C48.5493 20.358 48.2646 20.0593 47.91 19.854C47.5553 19.6487 47.1726 19.546 46.762 19.546C46.3513 19.546 45.9686 19.6487 45.614 19.854C45.2593 20.05 44.97 20.344 44.746 20.736C44.5313 21.1187 44.424 21.576 44.424 22.108C44.424 22.64 44.5313 23.1067 44.746 23.508C44.97 23.9093 45.2593 24.2173 45.614 24.432C45.978 24.6373 46.3606 24.74 46.762 24.74C47.1726 24.74 47.5553 24.6373 47.91 24.432C48.2646 24.2267 48.5493 23.928 48.764 23.536C48.988 23.1347 49.1 22.668 49.1 22.136ZM60.489 26.098C59.8356 26.098 59.2476 25.986 58.725 25.762C58.2023 25.5287 57.7916 25.202 57.493 24.782C57.1943 24.362 57.045 23.872 57.045 23.312H58.753C58.7903 23.732 58.9536 24.0773 59.243 24.348C59.5416 24.6187 59.957 24.754 60.489 24.754C61.0396 24.754 61.469 24.6233 61.777 24.362C62.085 24.0913 62.239 23.746 62.239 23.326C62.239 22.9993 62.141 22.7333 61.945 22.528C61.7583 22.3227 61.5203 22.164 61.231 22.052C60.951 21.94 60.559 21.8187 60.055 21.688C59.4203 21.52 58.9023 21.352 58.501 21.184C58.109 21.0067 57.773 20.736 57.493 20.372C57.213 20.008 57.073 19.5227 57.073 18.916C57.073 18.356 57.213 17.866 57.493 17.446C57.773 17.026 58.165 16.704 58.669 16.48C59.173 16.256 59.7563 16.144 60.419 16.144C61.3616 16.144 62.1316 16.382 62.729 16.858C63.3356 17.3247 63.6716 17.9687 63.737 18.79H61.973C61.945 18.4353 61.777 18.132 61.469 17.88C61.161 17.628 60.755 17.502 60.251 17.502C59.7936 17.502 59.4203 17.6187 59.131 17.852C58.8416 18.0853 58.697 18.4213 58.697 18.86C58.697 19.1587 58.7856 19.406 58.963 19.602C59.1496 19.7887 59.383 19.938 59.663 20.05C59.943 20.162 60.3256 20.2833 60.811 20.414C61.455 20.5913 61.9776 20.7687 62.379 20.946C62.7896 21.1233 63.135 21.3987 63.415 21.772C63.7043 22.136 63.849 22.626 63.849 23.242C63.849 23.7367 63.7136 24.2033 63.443 24.642C63.1816 25.0807 62.7943 25.4353 62.281 25.706C61.777 25.9673 61.1796 26.098 60.489 26.098ZM73.2222 21.954C73.2222 22.2433 73.2035 22.5047 73.1662 22.738H67.2722C67.3189 23.354 67.5475 23.8487 67.9582 24.222C68.3689 24.5953 68.8729 24.782 69.4702 24.782C70.3289 24.782 70.9355 24.4227 71.2902 23.704H73.0122C72.7789 24.4133 72.3542 24.9967 71.7382 25.454C71.1315 25.902 70.3755 26.126 69.4702 26.126C68.7329 26.126 68.0702 25.9627 67.4822 25.636C66.9035 25.3 66.4462 24.8333 66.1102 24.236C65.7835 23.6293 65.6202 22.9293 65.6202 22.136C65.6202 21.3427 65.7789 20.6473 66.0962 20.05C66.4229 19.4433 66.8755 18.9767 67.4542 18.65C68.0422 18.3233 68.7142 18.16 69.4702 18.16C70.1982 18.16 70.8469 18.3187 71.4162 18.636C71.9855 18.9533 72.4289 19.4013 72.7462 19.98C73.0635 20.5493 73.2222 21.2073 73.2222 21.954ZM71.5562 21.45C71.5469 20.862 71.3369 20.3907 70.9262 20.036C70.5155 19.6813 70.0069 19.504 69.4002 19.504C68.8495 19.504 68.3782 19.6813 67.9862 20.036C67.5942 20.3813 67.3609 20.8527 67.2862 21.45H71.5562ZM78.2648 22.15L81.8208 26H79.6648L76.8088 22.682V26H75.2128V15.64H76.8088V21.66L79.6088 18.286H81.8208L78.2648 22.15ZM86.7308 26.126C86.0028 26.126 85.3448 25.9627 84.7568 25.636C84.1688 25.3 83.7068 24.8333 83.3708 24.236C83.0348 23.6293 82.8668 22.9293 82.8668 22.136C82.8668 21.352 83.0394 20.6567 83.3848 20.05C83.7301 19.4433 84.2014 18.9767 84.7988 18.65C85.3961 18.3233 86.0634 18.16 86.8008 18.16C87.5381 18.16 88.2054 18.3233 88.8028 18.65C89.4001 18.9767 89.8714 19.4433 90.2168 20.05C90.5621 20.6567 90.7348 21.352 90.7348 22.136C90.7348 22.92 90.5574 23.6153 90.2028 24.222C89.8481 24.8287 89.3628 25.3 88.7468 25.636C88.1401 25.9627 87.4681 26.126 86.7308 26.126ZM86.7308 24.74C87.1414 24.74 87.5241 24.642 87.8788 24.446C88.2428 24.25 88.5368 23.956 88.7608 23.564C88.9848 23.172 89.0968 22.696 89.0968 22.136C89.0968 21.576 88.9894 21.1047 88.7748 20.722C88.5601 20.33 88.2754 20.036 87.9208 19.84C87.5661 19.644 87.1834 19.546 86.7728 19.546C86.3621 19.546 85.9794 19.644 85.6248 19.84C85.2794 20.036 85.0041 20.33 84.7988 20.722C84.5934 21.1047 84.4908 21.576 84.4908 22.136C84.4908 22.9667 84.7008 23.6107 85.1208 24.068C85.5501 24.516 86.0868 24.74 86.7308 24.74ZM94.3285 15.64V26H92.7325V15.64H94.3285ZM96.3119 22.108C96.3119 21.3333 96.4706 20.6473 96.7879 20.05C97.1146 19.4527 97.5532 18.9907 98.1039 18.664C98.6639 18.328 99.2799 18.16 99.9519 18.16C100.559 18.16 101.086 18.2813 101.534 18.524C101.991 18.7573 102.355 19.0513 102.626 19.406V18.286H104.236V26H102.626V24.852C102.355 25.216 101.987 25.5193 101.52 25.762C101.053 26.0047 100.521 26.126 99.9239 26.126C99.2612 26.126 98.6546 25.958 98.1039 25.622C97.5532 25.2767 97.1146 24.8007 96.7879 24.194C96.4706 23.578 96.3119 22.8827 96.3119 22.108ZM102.626 22.136C102.626 21.604 102.514 21.142 102.29 20.75C102.075 20.358 101.791 20.0593 101.436 19.854C101.081 19.6487 100.699 19.546 100.288 19.546C99.8772 19.546 99.4946 19.6487 99.1399 19.854C98.7852 20.05 98.4959 20.344 98.2719 20.736C98.0572 21.1187 97.9499 21.576 97.9499 22.108C97.9499 22.64 98.0572 23.1067 98.2719 23.508C98.4959 23.9093 98.7852 24.2173 99.1399 24.432C99.5039 24.6373 99.8866 24.74 100.288 24.74C100.699 24.74 101.081 24.6373 101.436 24.432C101.791 24.2267 102.075 23.928 102.29 23.536C102.514 23.1347 102.626 22.668 102.626 22.136ZM110.742 18.16C111.33 18.16 111.853 18.286 112.31 18.538C112.777 18.79 113.141 19.1633 113.402 19.658C113.673 20.1527 113.808 20.75 113.808 21.45V26H112.226V21.688C112.226 20.9973 112.054 20.47 111.708 20.106C111.363 19.7327 110.892 19.546 110.294 19.546C109.697 19.546 109.221 19.7327 108.866 20.106C108.521 20.47 108.348 20.9973 108.348 21.688V26H106.752V15.64H108.348V19.182C108.619 18.8553 108.96 18.6033 109.37 18.426C109.79 18.2487 110.248 18.16 110.742 18.16Z" fill="black"/>
<path d="M191.256 26.098C190.603 26.098 190.015 25.986 189.492 25.762C188.969 25.5287 188.559 25.202 188.26 24.782C187.961 24.362 187.812 23.872 187.812 23.312H189.52C189.557 23.732 189.721 24.0773 190.01 24.348C190.309 24.6187 190.724 24.754 191.256 24.754C191.807 24.754 192.236 24.6233 192.544 24.362C192.852 24.0913 193.006 23.746 193.006 23.326C193.006 22.9993 192.908 22.7333 192.712 22.528C192.525 22.3227 192.287 22.164 191.998 22.052C191.718 21.94 191.326 21.8187 190.822 21.688C190.187 21.52 189.669 21.352 189.268 21.184C188.876 21.0067 188.54 20.736 188.26 20.372C187.98 20.008 187.84 19.5227 187.84 18.916C187.84 18.356 187.98 17.866 188.26 17.446C188.54 17.026 188.932 16.704 189.436 16.48C189.94 16.256 190.523 16.144 191.186 16.144C192.129 16.144 192.899 16.382 193.496 16.858C194.103 17.3247 194.439 17.9687 194.504 18.79H192.74C192.712 18.4353 192.544 18.132 192.236 17.88C191.928 17.628 191.522 17.502 191.018 17.502C190.561 17.502 190.187 17.6187 189.898 17.852C189.609 18.0853 189.464 18.4213 189.464 18.86C189.464 19.1587 189.553 19.406 189.73 19.602C189.917 19.7887 190.15 19.938 190.43 20.05C190.71 20.162 191.093 20.2833 191.578 20.414C192.222 20.5913 192.745 20.7687 193.146 20.946C193.557 21.1233 193.902 21.3987 194.182 21.772C194.471 22.136 194.616 22.626 194.616 23.242C194.616 23.7367 194.481 24.2033 194.21 24.642C193.949 25.0807 193.561 25.4353 193.048 25.706C192.544 25.9673 191.947 26.098 191.256 26.098ZM200.097 16.27C201.133 16.27 202.039 16.4707 202.813 16.872C203.597 17.264 204.199 17.8333 204.619 18.58C205.049 19.3173 205.263 20.1807 205.263 21.17C205.263 22.1593 205.049 23.018 204.619 23.746C204.199 24.474 203.597 25.034 202.813 25.426C202.039 25.8087 201.133 26 200.097 26H196.919V16.27H200.097ZM200.097 24.698C201.236 24.698 202.109 24.39 202.715 23.774C203.322 23.158 203.625 22.29 203.625 21.17C203.625 20.0407 203.322 19.1587 202.715 18.524C202.109 17.8893 201.236 17.572 200.097 17.572H198.515V24.698H200.097ZM217.513 16.27V26H215.917V19.336L212.949 26H211.843L208.861 19.336V26H207.265V16.27H208.987L212.403 23.9L215.805 16.27H217.513Z" fill="black"/>
<path d="M299.412 26L295.646 21.646V26H294.05V16.27H295.646V20.708L299.426 16.27H301.428L297.2 21.142L301.498 26H299.412ZM310.399 21.954C310.399 22.2433 310.381 22.5047 310.343 22.738H304.449C304.496 23.354 304.725 23.8487 305.135 24.222C305.546 24.5953 306.05 24.782 306.647 24.782C307.506 24.782 308.113 24.4227 308.467 23.704H310.189C309.956 24.4133 309.531 24.9967 308.915 25.454C308.309 25.902 307.553 26.126 306.647 26.126C305.91 26.126 305.247 25.9627 304.659 25.636C304.081 25.3 303.623 24.8333 303.287 24.236C302.961 23.6293 302.797 22.9293 302.797 22.136C302.797 21.3427 302.956 20.6473 303.273 20.05C303.6 19.4433 304.053 18.9767 304.631 18.65C305.219 18.3233 305.891 18.16 306.647 18.16C307.375 18.16 308.024 18.3187 308.593 18.636C309.163 18.9533 309.606 19.4013 309.923 19.98C310.241 20.5493 310.399 21.2073 310.399 21.954ZM308.733 21.45C308.724 20.862 308.514 20.3907 308.103 20.036C307.693 19.6813 307.184 19.504 306.577 19.504C306.027 19.504 305.555 19.6813 305.163 20.036C304.771 20.3813 304.538 20.8527 304.463 21.45H308.733ZM319.376 18.286V26H317.78V25.09C317.528 25.4073 317.197 25.6593 316.786 25.846C316.385 26.0233 315.955 26.112 315.498 26.112C314.891 26.112 314.345 25.986 313.86 25.734C313.384 25.482 313.006 25.1087 312.726 24.614C312.455 24.1193 312.32 23.522 312.32 22.822V18.286H313.902V22.584C313.902 23.2747 314.075 23.8067 314.42 24.18C314.765 24.544 315.237 24.726 315.834 24.726C316.431 24.726 316.903 24.544 317.248 24.18C317.603 23.8067 317.78 23.2747 317.78 22.584V18.286H319.376ZM321.37 22.108C321.37 21.3333 321.528 20.6473 321.846 20.05C322.172 19.4527 322.611 18.9907 323.162 18.664C323.722 18.328 324.338 18.16 325.01 18.16C325.616 18.16 326.144 18.2813 326.592 18.524C327.049 18.7573 327.413 19.0513 327.684 19.406V18.286H329.294V26H327.684V24.852C327.413 25.216 327.044 25.5193 326.578 25.762C326.111 26.0047 325.579 26.126 324.982 26.126C324.319 26.126 323.712 25.958 323.162 25.622C322.611 25.2767 322.172 24.8007 321.846 24.194C321.528 23.578 321.37 22.8827 321.37 22.108ZM327.684 22.136C327.684 21.604 327.572 21.142 327.348 20.75C327.133 20.358 326.848 20.0593 326.494 19.854C326.139 19.6487 325.756 19.546 325.346 19.546C324.935 19.546 324.552 19.6487 324.198 19.854C323.843 20.05 323.554 20.344 323.33 20.736C323.115 21.1187 323.008 21.576 323.008 22.108C323.008 22.64 323.115 23.1067 323.33 23.508C323.554 23.9093 323.843 24.2173 324.198 24.432C324.562 24.6373 324.944 24.74 325.346 24.74C325.756 24.74 326.139 24.6373 326.494 24.432C326.848 24.2267 327.133 23.928 327.348 23.536C327.572 23.1347 327.684 22.668 327.684 22.136ZM335.702 18.16C336.309 18.16 336.85 18.286 337.326 18.538C337.811 18.79 338.189 19.1633 338.46 19.658C338.731 20.1527 338.866 20.75 338.866 21.45V26H337.284V21.688C337.284 20.9973 337.111 20.47 336.766 20.106C336.421 19.7327 335.949 19.546 335.352 19.546C334.755 19.546 334.279 19.7327 333.924 20.106C333.579 20.47 333.406 20.9973 333.406 21.688V26H331.81V18.286H333.406V19.168C333.667 18.8507 333.999 18.6033 334.4 18.426C334.811 18.2487 335.245 18.16 335.702 18.16ZM344.43 18.16C345.027 18.16 345.555 18.2813 346.012 18.524C346.479 18.7573 346.843 19.0513 347.104 19.406V18.286H348.714V26.126C348.714 26.8353 348.565 27.4653 348.266 28.016C347.967 28.576 347.533 29.0147 346.964 29.332C346.404 29.6493 345.732 29.808 344.948 29.808C343.903 29.808 343.035 29.5607 342.344 29.066C341.653 28.5807 341.261 27.918 341.168 27.078H342.75C342.871 27.4793 343.128 27.8013 343.52 28.044C343.921 28.296 344.397 28.422 344.948 28.422C345.592 28.422 346.11 28.226 346.502 27.834C346.903 27.442 347.104 26.8727 347.104 26.126V24.838C346.833 25.202 346.465 25.51 345.998 25.762C345.541 26.0047 345.018 26.126 344.43 26.126C343.758 26.126 343.142 25.958 342.582 25.622C342.031 25.2767 341.593 24.8007 341.266 24.194C340.949 23.578 340.79 22.8827 340.79 22.108C340.79 21.3333 340.949 20.6473 341.266 20.05C341.593 19.4527 342.031 18.9907 342.582 18.664C343.142 18.328 343.758 18.16 344.43 18.16ZM347.104 22.136C347.104 21.604 346.992 21.142 346.768 20.75C346.553 20.358 346.269 20.0593 345.914 19.854C345.559 19.6487 345.177 19.546 344.766 19.546C344.355 19.546 343.973 19.6487 343.618 19.854C343.263 20.05 342.974 20.344 342.75 20.736C342.535 21.1187 342.428 21.576 342.428 22.108C342.428 22.64 342.535 23.1067 342.75 23.508C342.974 23.9093 343.263 24.2173 343.618 24.432C343.982 24.6373 344.365 24.74 344.766 24.74C345.177 24.74 345.559 24.6373 345.914 24.432C346.269 24.2267 346.553 23.928 346.768 23.536C346.992 23.1347 347.104 22.668 347.104 22.136ZM350.698 22.108C350.698 21.3333 350.857 20.6473 351.174 20.05C351.501 19.4527 351.939 18.9907 352.49 18.664C353.05 18.328 353.666 18.16 354.338 18.16C354.945 18.16 355.472 18.2813 355.92 18.524C356.377 18.7573 356.741 19.0513 357.012 19.406V18.286H358.622V26H357.012V24.852C356.741 25.216 356.373 25.5193 355.906 25.762C355.439 26.0047 354.907 26.126 354.31 26.126C353.647 26.126 353.041 25.958 352.49 25.622C351.939 25.2767 351.501 24.8007 351.174 24.194C350.857 23.578 350.698 22.8827 350.698 22.108ZM357.012 22.136C357.012 21.604 356.9 21.142 356.676 20.75C356.461 20.358 356.177 20.0593 355.822 19.854C355.467 19.6487 355.085 19.546 354.674 19.546C354.263 19.546 353.881 19.6487 353.526 19.854C353.171 20.05 352.882 20.344 352.658 20.736C352.443 21.1187 352.336 21.576 352.336 22.108C352.336 22.64 352.443 23.1067 352.658 23.508C352.882 23.9093 353.171 24.2173 353.526 24.432C353.89 24.6373 354.273 24.74 354.674 24.74C355.085 24.74 355.467 24.6373 355.822 24.432C356.177 24.2267 356.461 23.928 356.676 23.536C356.9 23.1347 357.012 22.668 357.012 22.136ZM365.03 18.16C365.637 18.16 366.178 18.286 366.654 18.538C367.14 18.79 367.518 19.1633 367.788 19.658C368.059 20.1527 368.194 20.75 368.194 21.45V26H366.612V21.688C366.612 20.9973 366.44 20.47 366.094 20.106C365.749 19.7327 365.278 19.546 364.68 19.546C364.083 19.546 363.607 19.7327 363.252 20.106C362.907 20.47 362.734 20.9973 362.734 21.688V26H361.138V18.286H362.734V19.168C362.996 18.8507 363.327 18.6033 363.728 18.426C364.139 18.2487 364.573 18.16 365.03 18.16ZM379.887 12.784L376.079 28.45H374.511L378.305 12.784H379.887ZM392.241 24.012H388.167L387.467 26H385.801L389.287 16.256H391.135L394.621 26H392.941L392.241 24.012ZM391.793 22.71L390.211 18.188L388.615 22.71H391.793ZM396.025 22.108C396.025 21.3333 396.183 20.6473 396.501 20.05C396.827 19.4527 397.266 18.9907 397.817 18.664C398.377 18.328 398.997 18.16 399.679 18.16C400.183 18.16 400.677 18.272 401.163 18.496C401.657 18.7107 402.049 19 402.339 19.364V15.64H403.949V26H402.339V24.838C402.077 25.2113 401.713 25.5193 401.247 25.762C400.789 26.0047 400.262 26.126 399.665 26.126C398.993 26.126 398.377 25.958 397.817 25.622C397.266 25.2767 396.827 24.8007 396.501 24.194C396.183 23.578 396.025 22.8827 396.025 22.108ZM402.339 22.136C402.339 21.604 402.227 21.142 402.003 20.75C401.788 20.358 401.503 20.0593 401.149 19.854C400.794 19.6487 400.411 19.546 400.001 19.546C399.59 19.546 399.207 19.6487 398.853 19.854C398.498 20.05 398.209 20.344 397.985 20.736C397.77 21.1187 397.663 21.576 397.663 22.108C397.663 22.64 397.77 23.1067 397.985 23.508C398.209 23.9093 398.498 24.2173 398.853 24.432C399.217 24.6373 399.599 24.74 400.001 24.74C400.411 24.74 400.794 24.6373 401.149 24.432C401.503 24.2267 401.788 23.928 402.003 23.536C402.227 23.1347 402.339 22.668 402.339 22.136ZM415.803 18.16C416.41 18.16 416.951 18.286 417.427 18.538C417.912 18.79 418.29 19.1633 418.561 19.658C418.841 20.1527 418.981 20.75 418.981 21.45V26H417.399V21.688C417.399 20.9973 417.226 20.47 416.881 20.106C416.536 19.7327 416.064 19.546 415.467 19.546C414.87 19.546 414.394 19.7327 414.039 20.106C413.694 20.47 413.521 20.9973 413.521 21.688V26H411.939V21.688C411.939 20.9973 411.766 20.47 411.421 20.106C411.076 19.7327 410.604 19.546 410.007 19.546C409.41 19.546 408.934 19.7327 408.579 20.106C408.234 20.47 408.061 20.9973 408.061 21.688V26H406.465V18.286H408.061V19.168C408.322 18.8507 408.654 18.6033 409.055 18.426C409.456 18.2487 409.886 18.16 410.343 18.16C410.959 18.16 411.51 18.2907 411.995 18.552C412.48 18.8133 412.854 19.1913 413.115 19.686C413.348 19.2193 413.712 18.8507 414.207 18.58C414.702 18.3 415.234 18.16 415.803 18.16ZM422.244 17.264C421.955 17.264 421.712 17.166 421.516 16.97C421.32 16.774 421.222 16.5313 421.222 16.242C421.222 15.9527 421.32 15.71 421.516 15.514C421.712 15.318 421.955 15.22 422.244 15.22C422.524 15.22 422.762 15.318 422.958 15.514C423.154 15.71 423.252 15.9527 423.252 16.242C423.252 16.5313 423.154 16.774 422.958 16.97C422.762 17.166 422.524 17.264 422.244 17.264ZM423.028 18.286V26H421.432V18.286H423.028ZM429.435 18.16C430.042 18.16 430.583 18.286 431.059 18.538C431.545 18.79 431.923 19.1633 432.193 19.658C432.464 20.1527 432.599 20.75 432.599 21.45V26H431.017V21.688C431.017 20.9973 430.845 20.47 430.499 20.106C430.154 19.7327 429.683 19.546 429.085 19.546C428.488 19.546 428.012 19.7327 427.657 20.106C427.312 20.47 427.139 20.9973 427.139 21.688V26H425.543V18.286H427.139V19.168C427.401 18.8507 427.732 18.6033 428.133 18.426C428.544 18.2487 428.978 18.16 429.435 18.16ZM435.867 17.264C435.578 17.264 435.335 17.166 435.139 16.97C434.943 16.774 434.845 16.5313 434.845 16.242C434.845 15.9527 434.943 15.71 435.139 15.514C435.335 15.318 435.578 15.22 435.867 15.22C436.147 15.22 436.385 15.318 436.581 15.514C436.777 15.71 436.875 15.9527 436.875 16.242C436.875 16.5313 436.777 16.774 436.581 16.97C436.385 17.166 436.147 17.264 435.867 17.264ZM436.651 18.286V26H435.055V18.286H436.651ZM441.967 26.126C441.36 26.126 440.814 26.0187 440.329 25.804C439.853 25.58 439.475 25.2813 439.195 24.908C438.915 24.5253 438.765 24.1007 438.747 23.634H440.399C440.427 23.9607 440.581 24.236 440.861 24.46C441.15 24.6747 441.509 24.782 441.939 24.782C442.387 24.782 442.732 24.698 442.975 24.53C443.227 24.3527 443.353 24.1287 443.353 23.858C443.353 23.5687 443.213 23.354 442.933 23.214C442.662 23.074 442.228 22.92 441.631 22.752C441.052 22.5933 440.581 22.4393 440.217 22.29C439.853 22.1407 439.535 21.912 439.265 21.604C439.003 21.296 438.873 20.89 438.873 20.386C438.873 19.9753 438.994 19.602 439.237 19.266C439.479 18.9207 439.825 18.65 440.273 18.454C440.73 18.258 441.253 18.16 441.841 18.16C442.718 18.16 443.423 18.384 443.955 18.832C444.496 19.2707 444.785 19.8727 444.823 20.638H443.227C443.199 20.2927 443.059 20.0173 442.807 19.812C442.555 19.6067 442.214 19.504 441.785 19.504C441.365 19.504 441.043 19.5833 440.819 19.742C440.595 19.9007 440.483 20.1107 440.483 20.372C440.483 20.5773 440.557 20.75 440.707 20.89C440.856 21.03 441.038 21.142 441.253 21.226C441.467 21.3007 441.785 21.3987 442.205 21.52C442.765 21.6693 443.222 21.8233 443.577 21.982C443.941 22.1313 444.253 22.3553 444.515 22.654C444.776 22.9527 444.911 23.3493 444.921 23.844C444.921 24.2827 444.799 24.6747 444.557 25.02C444.314 25.3653 443.969 25.636 443.521 25.832C443.082 26.028 442.564 26.126 441.967 26.126ZM448.927 19.588V23.858C448.927 24.1473 448.992 24.3573 449.123 24.488C449.263 24.6093 449.496 24.67 449.823 24.67H450.803V26H449.543C448.824 26 448.274 25.832 447.891 25.496C447.508 25.16 447.317 24.614 447.317 23.858V19.588H446.407V18.286H447.317V16.368H448.927V18.286H450.803V19.588H448.927ZM454.29 19.406C454.523 19.014 454.831 18.7107 455.214 18.496C455.606 18.272 456.068 18.16 456.6 18.16V19.812H456.194C455.569 19.812 455.093 19.9707 454.766 20.288C454.449 20.6053 454.29 21.156 454.29 21.94V26H452.694V18.286H454.29V19.406ZM457.955 22.108C457.955 21.3333 458.114 20.6473 458.431 20.05C458.758 19.4527 459.196 18.9907 459.747 18.664C460.307 18.328 460.923 18.16 461.595 18.16C462.202 18.16 462.729 18.2813 463.177 18.524C463.634 18.7573 463.998 19.0513 464.269 19.406V18.286H465.879V26H464.269V24.852C463.998 25.216 463.63 25.5193 463.163 25.762C462.696 26.0047 462.164 26.126 461.567 26.126C460.904 26.126 460.298 25.958 459.747 25.622C459.196 25.2767 458.758 24.8007 458.431 24.194C458.114 23.578 457.955 22.8827 457.955 22.108ZM464.269 22.136C464.269 21.604 464.157 21.142 463.933 20.75C463.718 20.358 463.434 20.0593 463.079 19.854C462.724 19.6487 462.342 19.546 461.931 19.546C461.52 19.546 461.138 19.6487 460.783 19.854C460.428 20.05 460.139 20.344 459.915 20.736C459.7 21.1187 459.593 21.576 459.593 22.108C459.593 22.64 459.7 23.1067 459.915 23.508C460.139 23.9093 460.428 24.2173 460.783 24.432C461.147 24.6373 461.53 24.74 461.931 24.74C462.342 24.74 462.724 24.6373 463.079 24.432C463.434 24.2267 463.718 23.928 463.933 23.536C464.157 23.1347 464.269 22.668 464.269 22.136ZM471.195 26.126C470.589 26.126 470.043 26.0187 469.557 25.804C469.081 25.58 468.703 25.2813 468.423 24.908C468.143 24.5253 467.994 24.1007 467.975 23.634H469.627C469.655 23.9607 469.809 24.236 470.089 24.46C470.379 24.6747 470.738 24.782 471.167 24.782C471.615 24.782 471.961 24.698 472.203 24.53C472.455 24.3527 472.581 24.1287 472.581 23.858C472.581 23.5687 472.441 23.354 472.161 23.214C471.891 23.074 471.457 22.92 470.859 22.752C470.281 22.5933 469.809 22.4393 469.445 22.29C469.081 22.1407 468.764 21.912 468.493 21.604C468.232 21.296 468.101 20.89 468.101 20.386C468.101 19.9753 468.223 19.602 468.465 19.266C468.708 18.9207 469.053 18.65 469.501 18.454C469.959 18.258 470.481 18.16 471.069 18.16C471.947 18.16 472.651 18.384 473.183 18.832C473.725 19.2707 474.014 19.8727 474.051 20.638H472.455C472.427 20.2927 472.287 20.0173 472.035 19.812C471.783 19.6067 471.443 19.504 471.013 19.504C470.593 19.504 470.271 19.5833 470.047 19.742C469.823 19.9007 469.711 20.1107 469.711 20.372C469.711 20.5773 469.786 20.75 469.935 20.89C470.085 21.03 470.267 21.142 470.481 21.226C470.696 21.3007 471.013 21.3987 471.433 21.52C471.993 21.6693 472.451 21.8233 472.805 21.982C473.169 22.1313 473.482 22.3553 473.743 22.654C474.005 22.9527 474.14 23.3493 474.149 23.844C474.149 24.2827 474.028 24.6747 473.785 25.02C473.543 25.3653 473.197 25.636 472.749 25.832C472.311 26.028 471.793 26.126 471.195 26.126ZM477.106 17.264C476.817 17.264 476.574 17.166 476.378 16.97C476.182 16.774 476.084 16.5313 476.084 16.242C476.084 15.9527 476.182 15.71 476.378 15.514C476.574 15.318 476.817 15.22 477.106 15.22C477.386 15.22 477.624 15.318 477.82 15.514C478.016 15.71 478.114 15.9527 478.114 16.242C478.114 16.5313 478.016 16.774 477.82 16.97C477.624 17.166 477.386 17.264 477.106 17.264ZM477.89 18.286V26H476.294V18.286H477.89Z" fill="black"/>
<path d="M560.412 25L556.646 20.646V25H555.05V15.27H556.646V19.708L560.426 15.27H562.428L558.2 20.142L562.498 25H560.412ZM571.315 17.286V25H569.719V24.09C569.467 24.4073 569.136 24.6593 568.725 24.846C568.324 25.0233 567.895 25.112 567.437 25.112C566.831 25.112 566.285 24.986 565.799 24.734C565.323 24.482 564.945 24.1087 564.665 23.614C564.395 23.1193 564.259 22.522 564.259 21.822V17.286H565.841V21.584C565.841 22.2747 566.014 22.8067 566.359 23.18C566.705 23.544 567.176 23.726 567.773 23.726C568.371 23.726 568.842 23.544 569.187 23.18C569.542 22.8067 569.719 22.2747 569.719 21.584V17.286H571.315ZM575.437 18.406C575.671 18.014 575.979 17.7107 576.361 17.496C576.753 17.272 577.215 17.16 577.747 17.16V18.812H577.341C576.716 18.812 576.24 18.9707 575.913 19.288C575.596 19.6053 575.437 20.156 575.437 20.94V25H573.841V17.286H575.437V18.406ZM580.446 16.264C580.157 16.264 579.914 16.166 579.718 15.97C579.522 15.774 579.424 15.5313 579.424 15.242C579.424 14.9527 579.522 14.71 579.718 14.514C579.914 14.318 580.157 14.22 580.446 14.22C580.726 14.22 580.964 14.318 581.16 14.514C581.356 14.71 581.454 14.9527 581.454 15.242C581.454 15.5313 581.356 15.774 581.16 15.97C580.964 16.166 580.726 16.264 580.446 16.264ZM581.23 17.286V25H579.634V17.286H581.23ZM586.798 21.15L590.354 25H588.198L585.342 21.682V25H583.746V14.64H585.342V20.66L588.142 17.286H590.354L586.798 21.15ZM598.904 17.286V25H597.308V24.09C597.056 24.4073 596.724 24.6593 596.314 24.846C595.912 25.0233 595.483 25.112 595.026 25.112C594.419 25.112 593.873 24.986 593.388 24.734C592.912 24.482 592.534 24.1087 592.254 23.614C591.983 23.1193 591.848 22.522 591.848 21.822V17.286H593.43V21.584C593.43 22.2747 593.602 22.8067 593.948 23.18C594.293 23.544 594.764 23.726 595.362 23.726C595.959 23.726 596.43 23.544 596.776 23.18C597.13 22.8067 597.308 22.2747 597.308 21.584V17.286H598.904ZM603.025 14.64V25H601.429V14.64H603.025ZM612.527 17.286V25H610.931V24.09C610.679 24.4073 610.347 24.6593 609.937 24.846C609.535 25.0233 609.106 25.112 608.649 25.112C608.042 25.112 607.496 24.986 607.011 24.734C606.535 24.482 606.157 24.1087 605.877 23.614C605.606 23.1193 605.471 22.522 605.471 21.822V17.286H607.053V21.584C607.053 22.2747 607.225 22.8067 607.571 23.18C607.916 23.544 608.387 23.726 608.985 23.726C609.582 23.726 610.053 23.544 610.399 23.18C610.753 22.8067 610.931 22.2747 610.931 21.584V17.286H612.527ZM624.391 17.16C624.997 17.16 625.539 17.286 626.015 17.538C626.5 17.79 626.878 18.1633 627.149 18.658C627.429 19.1527 627.569 19.75 627.569 20.45V25H625.987V20.688C625.987 19.9973 625.814 19.47 625.469 19.106C625.123 18.7327 624.652 18.546 624.055 18.546C623.457 18.546 622.981 18.7327 622.627 19.106C622.281 19.47 622.109 19.9973 622.109 20.688V25H620.527V20.688C620.527 19.9973 620.354 19.47 620.009 19.106C619.663 18.7327 619.192 18.546 618.595 18.546C617.997 18.546 617.521 18.7327 617.167 19.106C616.821 19.47 616.649 19.9973 616.649 20.688V25H615.053V17.286H616.649V18.168C616.91 17.8507 617.241 17.6033 617.643 17.426C618.044 17.2487 618.473 17.16 618.931 17.16C619.547 17.16 620.097 17.2907 620.583 17.552C621.068 17.8133 621.441 18.1913 621.703 18.686C621.936 18.2193 622.3 17.8507 622.795 17.58C623.289 17.3 623.821 17.16 624.391 17.16Z" fill="black"/>
<path d="M713.412 26L709.646 21.646V26H708.05V16.27H709.646V20.708L713.426 16.27H715.428L711.2 21.142L715.498 26H713.412ZM724.399 21.954C724.399 22.2433 724.381 22.5047 724.343 22.738H718.449C718.496 23.354 718.725 23.8487 719.135 24.222C719.546 24.5953 720.05 24.782 720.647 24.782C721.506 24.782 722.113 24.4227 722.467 23.704H724.189C723.956 24.4133 723.531 24.9967 722.915 25.454C722.309 25.902 721.553 26.126 720.647 26.126C719.91 26.126 719.247 25.9627 718.659 25.636C718.081 25.3 717.623 24.8333 717.287 24.236C716.961 23.6293 716.797 22.9293 716.797 22.136C716.797 21.3427 716.956 20.6473 717.273 20.05C717.6 19.4433 718.053 18.9767 718.631 18.65C719.219 18.3233 719.891 18.16 720.647 18.16C721.375 18.16 722.024 18.3187 722.593 18.636C723.163 18.9533 723.606 19.4013 723.923 19.98C724.241 20.5493 724.399 21.2073 724.399 21.954ZM722.733 21.45C722.724 20.862 722.514 20.3907 722.103 20.036C721.693 19.6813 721.184 19.504 720.577 19.504C720.027 19.504 719.555 19.6813 719.163 20.036C718.771 20.3813 718.538 20.8527 718.463 21.45H722.733ZM729.19 26.126C728.583 26.126 728.037 26.0187 727.552 25.804C727.076 25.58 726.698 25.2813 726.418 24.908C726.138 24.5253 725.989 24.1007 725.97 23.634H727.622C727.65 23.9607 727.804 24.236 728.084 24.46C728.373 24.6747 728.733 24.782 729.162 24.782C729.61 24.782 729.955 24.698 730.198 24.53C730.45 24.3527 730.576 24.1287 730.576 23.858C730.576 23.5687 730.436 23.354 730.156 23.214C729.885 23.074 729.451 22.92 728.854 22.752C728.275 22.5933 727.804 22.4393 727.44 22.29C727.076 22.1407 726.759 21.912 726.488 21.604C726.227 21.296 726.096 20.89 726.096 20.386C726.096 19.9753 726.217 19.602 726.46 19.266C726.703 18.9207 727.048 18.65 727.496 18.454C727.953 18.258 728.476 18.16 729.064 18.16C729.941 18.16 730.646 18.384 731.178 18.832C731.719 19.2707 732.009 19.8727 732.046 20.638H730.45C730.422 20.2927 730.282 20.0173 730.03 19.812C729.778 19.6067 729.437 19.504 729.008 19.504C728.588 19.504 728.266 19.5833 728.042 19.742C727.818 19.9007 727.706 20.1107 727.706 20.372C727.706 20.5773 727.781 20.75 727.93 20.89C728.079 21.03 728.261 21.142 728.476 21.226C728.691 21.3007 729.008 21.3987 729.428 21.52C729.988 21.6693 730.445 21.8233 730.8 21.982C731.164 22.1313 731.477 22.3553 731.738 22.654C731.999 22.9527 732.135 23.3493 732.144 23.844C732.144 24.2827 732.023 24.6747 731.78 25.02C731.537 25.3653 731.192 25.636 730.744 25.832C730.305 26.028 729.787 26.126 729.19 26.126ZM735.101 17.264C734.811 17.264 734.569 17.166 734.373 16.97C734.177 16.774 734.079 16.5313 734.079 16.242C734.079 15.9527 734.177 15.71 734.373 15.514C734.569 15.318 734.811 15.22 735.101 15.22C735.381 15.22 735.619 15.318 735.815 15.514C736.011 15.71 736.109 15.9527 736.109 16.242C736.109 16.5313 736.011 16.774 735.815 16.97C735.619 17.166 735.381 17.264 735.101 17.264ZM735.885 18.286V26H734.289V18.286H735.885ZM741.2 26.126C740.593 26.126 740.047 26.0187 739.562 25.804C739.086 25.58 738.708 25.2813 738.428 24.908C738.148 24.5253 737.999 24.1007 737.98 23.634H739.632C739.66 23.9607 739.814 24.236 740.094 24.46C740.383 24.6747 740.743 24.782 741.172 24.782C741.62 24.782 741.965 24.698 742.208 24.53C742.46 24.3527 742.586 24.1287 742.586 23.858C742.586 23.5687 742.446 23.354 742.166 23.214C741.895 23.074 741.461 22.92 740.864 22.752C740.285 22.5933 739.814 22.4393 739.45 22.29C739.086 22.1407 738.769 21.912 738.498 21.604C738.237 21.296 738.106 20.89 738.106 20.386C738.106 19.9753 738.227 19.602 738.47 19.266C738.713 18.9207 739.058 18.65 739.506 18.454C739.963 18.258 740.486 18.16 741.074 18.16C741.951 18.16 742.656 18.384 743.188 18.832C743.729 19.2707 744.019 19.8727 744.056 20.638H742.46C742.432 20.2927 742.292 20.0173 742.04 19.812C741.788 19.6067 741.447 19.504 741.018 19.504C740.598 19.504 740.276 19.5833 740.052 19.742C739.828 19.9007 739.716 20.1107 739.716 20.372C739.716 20.5773 739.791 20.75 739.94 20.89C740.089 21.03 740.271 21.142 740.486 21.226C740.701 21.3007 741.018 21.3987 741.438 21.52C741.998 21.6693 742.455 21.8233 742.81 21.982C743.174 22.1313 743.487 22.3553 743.748 22.654C744.009 22.9527 744.145 23.3493 744.154 23.844C744.154 24.2827 744.033 24.6747 743.79 25.02C743.547 25.3653 743.202 25.636 742.754 25.832C742.315 26.028 741.797 26.126 741.2 26.126ZM756.658 18.286L754.264 26H752.584L751.03 20.302L749.476 26H747.796L745.388 18.286H747.012L748.622 24.488L750.26 18.286H751.926L753.494 24.46L755.09 18.286H756.658ZM757.739 22.108C757.739 21.3333 757.898 20.6473 758.215 20.05C758.542 19.4527 758.981 18.9907 759.531 18.664C760.091 18.328 760.707 18.16 761.379 18.16C761.986 18.16 762.513 18.2813 762.961 18.524C763.419 18.7573 763.783 19.0513 764.053 19.406V18.286H765.663V26H764.053V24.852C763.783 25.216 763.414 25.5193 762.947 25.762C762.481 26.0047 761.949 26.126 761.351 26.126C760.689 26.126 760.082 25.958 759.531 25.622C758.981 25.2767 758.542 24.8007 758.215 24.194C757.898 23.578 757.739 22.8827 757.739 22.108ZM764.053 22.136C764.053 21.604 763.941 21.142 763.717 20.75C763.503 20.358 763.218 20.0593 762.863 19.854C762.509 19.6487 762.126 19.546 761.715 19.546C761.305 19.546 760.922 19.6487 760.567 19.854C760.213 20.05 759.923 20.344 759.699 20.736C759.485 21.1187 759.377 21.576 759.377 22.108C759.377 22.64 759.485 23.1067 759.699 23.508C759.923 23.9093 760.213 24.2173 760.567 24.432C760.931 24.6373 761.314 24.74 761.715 24.74C762.126 24.74 762.509 24.6373 762.863 24.432C763.218 24.2267 763.503 23.928 763.717 23.536C763.941 23.1347 764.053 22.668 764.053 22.136ZM767.647 22.108C767.647 21.3333 767.806 20.6473 768.123 20.05C768.45 19.4527 768.889 18.9907 769.439 18.664C769.999 18.328 770.615 18.16 771.287 18.16C771.894 18.16 772.421 18.2813 772.869 18.524C773.327 18.7573 773.691 19.0513 773.961 19.406V18.286H775.571V26H773.961V24.852C773.691 25.216 773.322 25.5193 772.855 25.762C772.389 26.0047 771.857 26.126 771.259 26.126C770.597 26.126 769.99 25.958 769.439 25.622C768.889 25.2767 768.45 24.8007 768.123 24.194C767.806 23.578 767.647 22.8827 767.647 22.108ZM773.961 22.136C773.961 21.604 773.849 21.142 773.625 20.75C773.411 20.358 773.126 20.0593 772.771 19.854C772.417 19.6487 772.034 19.546 771.623 19.546C771.213 19.546 770.83 19.6487 770.475 19.854C770.121 20.05 769.831 20.344 769.607 20.736C769.393 21.1187 769.285 21.576 769.285 22.108C769.285 22.64 769.393 23.1067 769.607 23.508C769.831 23.9093 770.121 24.2173 770.475 24.432C770.839 24.6373 771.222 24.74 771.623 24.74C772.034 24.74 772.417 24.6373 772.771 24.432C773.126 24.2267 773.411 23.928 773.625 23.536C773.849 23.1347 773.961 22.668 773.961 22.136ZM781.98 18.16C782.586 18.16 783.128 18.286 783.604 18.538C784.089 18.79 784.467 19.1633 784.738 19.658C785.008 20.1527 785.144 20.75 785.144 21.45V26H783.562V21.688C783.562 20.9973 783.389 20.47 783.044 20.106C782.698 19.7327 782.227 19.546 781.63 19.546C781.032 19.546 780.556 19.7327 780.202 20.106C779.856 20.47 779.684 20.9973 779.684 21.688V26H778.088V18.286H779.684V19.168C779.945 18.8507 780.276 18.6033 780.678 18.426C781.088 18.2487 781.522 18.16 781.98 18.16Z" fill="black"/>
<path d="M866.256 25.098C865.603 25.098 865.015 24.986 864.492 24.762C863.969 24.5287 863.559 24.202 863.26 23.782C862.961 23.362 862.812 22.872 862.812 22.312H864.52C864.557 22.732 864.721 23.0773 865.01 23.348C865.309 23.6187 865.724 23.754 866.256 23.754C866.807 23.754 867.236 23.6233 867.544 23.362C867.852 23.0913 868.006 22.746 868.006 22.326C868.006 21.9993 867.908 21.7333 867.712 21.528C867.525 21.3227 867.287 21.164 866.998 21.052C866.718 20.94 866.326 20.8187 865.822 20.688C865.187 20.52 864.669 20.352 864.268 20.184C863.876 20.0067 863.54 19.736 863.26 19.372C862.98 19.008 862.84 18.5227 862.84 17.916C862.84 17.356 862.98 16.866 863.26 16.446C863.54 16.026 863.932 15.704 864.436 15.48C864.94 15.256 865.523 15.144 866.186 15.144C867.129 15.144 867.899 15.382 868.496 15.858C869.103 16.3247 869.439 16.9687 869.504 17.79H867.74C867.712 17.4353 867.544 17.132 867.236 16.88C866.928 16.628 866.522 16.502 866.018 16.502C865.561 16.502 865.187 16.6187 864.898 16.852C864.609 17.0853 864.464 17.4213 864.464 17.86C864.464 18.1587 864.553 18.406 864.73 18.602C864.917 18.7887 865.15 18.938 865.43 19.05C865.71 19.162 866.093 19.2833 866.578 19.414C867.222 19.5913 867.745 19.7687 868.146 19.946C868.557 20.1233 868.902 20.3987 869.182 20.772C869.471 21.136 869.616 21.626 869.616 22.242C869.616 22.7367 869.481 23.2033 869.21 23.642C868.949 24.0807 868.561 24.4353 868.048 24.706C867.544 24.9673 866.947 25.098 866.256 25.098ZM871.387 21.108C871.387 20.3333 871.546 19.6473 871.863 19.05C872.19 18.4527 872.629 17.9907 873.179 17.664C873.739 17.328 874.355 17.16 875.027 17.16C875.634 17.16 876.161 17.2813 876.609 17.524C877.067 17.7573 877.431 18.0513 877.701 18.406V17.286H879.311V25H877.701V23.852C877.431 24.216 877.062 24.5193 876.595 24.762C876.129 25.0047 875.597 25.126 874.999 25.126C874.337 25.126 873.73 24.958 873.179 24.622C872.629 24.2767 872.19 23.8007 871.863 23.194C871.546 22.578 871.387 21.8827 871.387 21.108ZM877.701 21.136C877.701 20.604 877.589 20.142 877.365 19.75C877.151 19.358 876.866 19.0593 876.511 18.854C876.157 18.6487 875.774 18.546 875.363 18.546C874.953 18.546 874.57 18.6487 874.215 18.854C873.861 19.05 873.571 19.344 873.347 19.736C873.133 20.1187 873.025 20.576 873.025 21.108C873.025 21.64 873.133 22.1067 873.347 22.508C873.571 22.9093 873.861 23.2173 874.215 23.432C874.579 23.6373 874.962 23.74 875.363 23.74C875.774 23.74 876.157 23.6373 876.511 23.432C876.866 23.2267 877.151 22.928 877.365 22.536C877.589 22.1347 877.701 21.668 877.701 21.136ZM883.424 18.406C883.657 18.014 883.965 17.7107 884.348 17.496C884.74 17.272 885.202 17.16 885.734 17.16V18.812H885.328C884.702 18.812 884.226 18.9707 883.9 19.288C883.582 19.6053 883.424 20.156 883.424 20.94V25H881.828V17.286H883.424V18.406ZM889.217 18.42C889.487 18.0653 889.856 17.7667 890.323 17.524C890.789 17.2813 891.317 17.16 891.905 17.16C892.577 17.16 893.188 17.328 893.739 17.664C894.299 17.9907 894.737 18.4527 895.055 19.05C895.372 19.6473 895.531 20.3333 895.531 21.108C895.531 21.8827 895.372 22.578 895.055 23.194C894.737 23.8007 894.299 24.2767 893.739 24.622C893.188 24.958 892.577 25.126 891.905 25.126C891.317 25.126 890.794 25.0093 890.337 24.776C889.879 24.5333 889.506 24.2347 889.217 23.88V28.668H887.621V17.286H889.217V18.42ZM893.907 21.108C893.907 20.576 893.795 20.1187 893.571 19.736C893.356 19.344 893.067 19.05 892.703 18.854C892.348 18.6487 891.965 18.546 891.555 18.546C891.153 18.546 890.771 18.6487 890.407 18.854C890.052 19.0593 889.763 19.358 889.539 19.75C889.324 20.142 889.217 20.604 889.217 21.136C889.217 21.668 889.324 22.1347 889.539 22.536C889.763 22.928 890.052 23.2267 890.407 23.432C890.771 23.6373 891.153 23.74 891.555 23.74C891.965 23.74 892.348 23.6373 892.703 23.432C893.067 23.2173 893.356 22.9093 893.571 22.508C893.795 22.1067 893.907 21.64 893.907 21.108ZM899.125 18.406C899.358 18.014 899.666 17.7107 900.049 17.496C900.441 17.272 900.903 17.16 901.435 17.16V18.812H901.029C900.403 18.812 899.927 18.9707 899.601 19.288C899.283 19.6053 899.125 20.156 899.125 20.94V25H897.529V17.286H899.125V18.406ZM902.79 21.108C902.79 20.3333 902.949 19.6473 903.266 19.05C903.593 18.4527 904.031 17.9907 904.582 17.664C905.142 17.328 905.758 17.16 906.43 17.16C907.037 17.16 907.564 17.2813 908.012 17.524C908.469 17.7573 908.833 18.0513 909.104 18.406V17.286H910.714V25H909.104V23.852C908.833 24.216 908.465 24.5193 907.998 24.762C907.531 25.0047 906.999 25.126 906.402 25.126C905.739 25.126 905.133 24.958 904.582 24.622C904.031 24.2767 903.593 23.8007 903.266 23.194C902.949 22.578 902.79 21.8827 902.79 21.108ZM909.104 21.136C909.104 20.604 908.992 20.142 908.768 19.75C908.553 19.358 908.269 19.0593 907.914 18.854C907.559 18.6487 907.177 18.546 906.766 18.546C906.355 18.546 905.973 18.6487 905.618 18.854C905.263 19.05 904.974 19.344 904.75 19.736C904.535 20.1187 904.428 20.576 904.428 21.108C904.428 21.64 904.535 22.1067 904.75 22.508C904.974 22.9093 905.263 23.2173 905.618 23.432C905.982 23.6373 906.365 23.74 906.766 23.74C907.177 23.74 907.559 23.6373 907.914 23.432C908.269 23.2267 908.553 22.928 908.768 22.536C908.992 22.1347 909.104 21.668 909.104 21.136Z" fill="black"/>
<path d="M996.82 15.27V25H995.224V20.744H990.646V25H989.05V15.27H990.646V19.442H995.224V15.27H996.82ZM1006.33 17.286V25H1004.73V24.09C1004.48 24.4073 1004.15 24.6593 1003.74 24.846C1003.34 25.0233 1002.91 25.112 1002.45 25.112C1001.84 25.112 1001.3 24.986 1000.81 24.734C1000.34 24.482 999.957 24.1087 999.677 23.614C999.406 23.1193 999.271 22.522 999.271 21.822V17.286H1000.85V21.584C1000.85 22.2747 1001.03 22.8067 1001.37 23.18C1001.72 23.544 1002.19 23.726 1002.79 23.726C1003.38 23.726 1003.85 23.544 1004.2 23.18C1004.55 22.8067 1004.73 22.2747 1004.73 21.584V17.286H1006.33ZM1010.45 18.434C1010.72 18.0607 1011.09 17.7573 1011.55 17.524C1012.03 17.2813 1012.56 17.16 1013.14 17.16C1013.82 17.16 1014.43 17.3233 1014.98 17.65C1015.54 17.9767 1015.97 18.4433 1016.29 19.05C1016.6 19.6473 1016.76 20.3333 1016.76 21.108C1016.76 21.8827 1016.6 22.578 1016.29 23.194C1015.97 23.8007 1015.53 24.2767 1014.97 24.622C1014.42 24.958 1013.81 25.126 1013.14 25.126C1012.54 25.126 1012.01 25.0093 1011.54 24.776C1011.08 24.5427 1010.72 24.244 1010.45 23.88V25H1008.85V14.64H1010.45V18.434ZM1015.14 21.108C1015.14 20.576 1015.03 20.1187 1014.8 19.736C1014.59 19.344 1014.3 19.05 1013.93 18.854C1013.58 18.6487 1013.2 18.546 1012.79 18.546C1012.39 18.546 1012 18.6487 1011.64 18.854C1011.28 19.0593 1010.99 19.358 1010.77 19.75C1010.56 20.142 1010.45 20.604 1010.45 21.136C1010.45 21.668 1010.56 22.1347 1010.77 22.536C1010.99 22.928 1011.28 23.2267 1011.64 23.432C1012 23.6373 1012.39 23.74 1012.79 23.74C1013.2 23.74 1013.58 23.6373 1013.93 23.432C1014.3 23.2173 1014.59 22.9093 1014.8 22.508C1015.03 22.1067 1015.14 21.64 1015.14 21.108ZM1019.57 16.264C1019.28 16.264 1019.04 16.166 1018.85 15.97C1018.65 15.774 1018.55 15.5313 1018.55 15.242C1018.55 14.9527 1018.65 14.71 1018.85 14.514C1019.04 14.318 1019.28 14.22 1019.57 14.22C1019.85 14.22 1020.09 14.318 1020.29 14.514C1020.48 14.71 1020.58 14.9527 1020.58 15.242C1020.58 15.5313 1020.48 15.774 1020.29 15.97C1020.09 16.166 1019.85 16.264 1019.57 16.264ZM1020.36 17.286V25H1018.76V17.286H1020.36ZM1026.76 17.16C1027.37 17.16 1027.91 17.286 1028.39 17.538C1028.87 17.79 1029.25 18.1633 1029.52 18.658C1029.79 19.1527 1029.93 19.75 1029.93 20.45V25H1028.35V20.688C1028.35 19.9973 1028.17 19.47 1027.83 19.106C1027.48 18.7327 1027.01 18.546 1026.41 18.546C1025.82 18.546 1025.34 18.7327 1024.99 19.106C1024.64 19.47 1024.47 19.9973 1024.47 20.688V25H1022.87V17.286H1024.47V18.168C1024.73 17.8507 1025.06 17.6033 1025.46 17.426C1025.87 17.2487 1026.31 17.16 1026.76 17.16Z" fill="black"/>
<path d="M1111.85 19.168C1111.85 19.6627 1111.74 20.1293 1111.5 20.568C1111.27 21.0067 1110.9 21.366 1110.38 21.646C1109.87 21.9167 1109.21 22.052 1108.41 22.052H1106.65V26H1105.05V16.27H1108.41C1109.16 16.27 1109.79 16.4007 1110.3 16.662C1110.82 16.914 1111.21 17.2593 1111.46 17.698C1111.72 18.1367 1111.85 18.6267 1111.85 19.168ZM1108.41 20.75C1109.02 20.75 1109.47 20.6147 1109.77 20.344C1110.07 20.064 1110.22 19.672 1110.22 19.168C1110.22 18.104 1109.61 17.572 1108.41 17.572H1106.65V20.75H1108.41ZM1120.6 19.168C1120.6 19.6627 1120.48 20.1293 1120.25 20.568C1120.02 21.0067 1119.64 21.366 1119.13 21.646C1118.62 21.9167 1117.96 22.052 1117.16 22.052H1115.39V26H1113.8V16.27H1117.16C1117.9 16.27 1118.53 16.4007 1119.05 16.662C1119.57 16.914 1119.96 17.2593 1120.21 17.698C1120.47 18.1367 1120.6 18.6267 1120.6 19.168ZM1117.16 20.75C1117.76 20.75 1118.22 20.6147 1118.51 20.344C1118.81 20.064 1118.96 19.672 1118.96 19.168C1118.96 18.104 1118.36 17.572 1117.16 17.572H1115.39V20.75H1117.16ZM1125.72 16.27C1126.76 16.27 1127.66 16.4707 1128.44 16.872C1129.22 17.264 1129.82 17.8333 1130.24 18.58C1130.67 19.3173 1130.89 20.1807 1130.89 21.17C1130.89 22.1593 1130.67 23.018 1130.24 23.746C1129.82 24.474 1129.22 25.034 1128.44 25.426C1127.66 25.8087 1126.76 26 1125.72 26H1122.54V16.27H1125.72ZM1125.72 24.698C1126.86 24.698 1127.73 24.39 1128.34 23.774C1128.95 23.158 1129.25 22.29 1129.25 21.17C1129.25 20.0407 1128.95 19.1587 1128.34 18.524C1127.73 17.8893 1126.86 17.572 1125.72 17.572H1124.14V24.698H1125.72ZM1138.1 21.002C1138.62 21.0953 1139.06 21.3707 1139.43 21.828C1139.79 22.2853 1139.97 22.8033 1139.97 23.382C1139.97 23.8767 1139.84 24.3247 1139.58 24.726C1139.33 25.118 1138.96 25.4307 1138.47 25.664C1137.99 25.888 1137.42 26 1136.78 26H1132.89V16.27H1136.6C1137.26 16.27 1137.83 16.382 1138.31 16.606C1138.78 16.83 1139.14 17.1333 1139.38 17.516C1139.63 17.8893 1139.75 18.3093 1139.75 18.776C1139.75 19.336 1139.6 19.8027 1139.3 20.176C1139 20.5493 1138.6 20.8247 1138.1 21.002ZM1134.48 20.358H1136.46C1136.98 20.358 1137.39 20.2413 1137.68 20.008C1137.97 19.7653 1138.12 19.42 1138.12 18.972C1138.12 18.5333 1137.97 18.1927 1137.68 17.95C1137.39 17.698 1136.98 17.572 1136.46 17.572H1134.48V20.358ZM1136.64 24.698C1137.18 24.698 1137.61 24.5673 1137.91 24.306C1138.22 24.0447 1138.38 23.6807 1138.38 23.214C1138.38 22.738 1138.21 22.36 1137.89 22.08C1137.56 21.8 1137.13 21.66 1136.58 21.66H1134.48V24.698H1136.64Z" fill="black"/>
</svg>
