<svg width="58" height="12" viewBox="0 0 58 12" fill="none" xmlns="http://www.w3.org/2000/svg">
<path d="M7.61164 1.57981V2.88181H5.02163V11.3098H3.42563V2.88181H0.821635V1.57981H7.61164ZM16.718 7.26381C16.718 7.55315 16.6993 7.81448 16.662 8.04781H10.768C10.8146 8.66381 11.0433 9.15848 11.454 9.53181C11.8646 9.90515 12.3686 10.0918 12.966 10.0918C13.8246 10.0918 14.4313 9.73248 14.786 9.01381H16.508C16.2746 9.72315 15.85 10.3065 15.234 10.7638C14.6273 11.2118 13.8713 11.4358 12.966 11.4358C12.2286 11.4358 11.566 11.2725 10.978 10.9458C10.3993 10.6098 9.94198 10.1431 9.60598 9.54581C9.27931 8.93915 9.11598 8.23915 9.11598 7.44581C9.11598 6.65248 9.27465 5.95715 9.59198 5.35981C9.91865 4.75315 10.3713 4.28648 10.95 3.95981C11.538 3.63315 12.21 3.46981 12.966 3.46981C13.694 3.46981 14.3426 3.62848 14.912 3.94581C15.4813 4.26315 15.9246 4.71115 16.242 5.28981C16.5593 5.85915 16.718 6.51715 16.718 7.26381ZM15.052 6.75981C15.0426 6.17181 14.8326 5.70048 14.422 5.34581C14.0113 4.99115 13.5026 4.81381 12.896 4.81381C12.3453 4.81381 11.874 4.99115 11.482 5.34581C11.09 5.69115 10.8566 6.16248 10.782 6.75981H15.052ZM20.3046 4.71581C20.5379 4.32381 20.8459 4.02048 21.2286 3.80581C21.6206 3.58181 22.0826 3.46981 22.6146 3.46981V5.12181H22.2086C21.5833 5.12181 21.1073 5.28048 20.7806 5.59781C20.4633 5.91515 20.3046 6.46581 20.3046 7.24981V11.3098H18.7086V3.59581H20.3046V4.71581ZM26.0977 4.74381C26.3683 4.37048 26.737 4.06715 27.2037 3.83381C27.6797 3.59115 28.207 3.46981 28.7857 3.46981C29.467 3.46981 30.083 3.63315 30.6337 3.95981C31.1843 4.28648 31.6183 4.75315 31.9357 5.35981C32.253 5.95715 32.4117 6.64315 32.4117 7.41781C32.4117 8.19248 32.253 8.88781 31.9357 9.50381C31.6183 10.1105 31.1797 10.5865 30.6197 10.9318C30.069 11.2678 29.4577 11.4358 28.7857 11.4358C28.1883 11.4358 27.6563 11.3191 27.1897 11.0858C26.7323 10.8525 26.3683 10.5538 26.0977 10.1898V11.3098H24.5017V0.949814H26.0977V4.74381ZM30.7877 7.41781C30.7877 6.88581 30.6757 6.42848 30.4517 6.04581C30.237 5.65381 29.9477 5.35981 29.5837 5.16381C29.229 4.95848 28.8463 4.85581 28.4357 4.85581C28.0343 4.85581 27.6517 4.95848 27.2877 5.16381C26.933 5.36915 26.6437 5.66781 26.4197 6.05981C26.205 6.45181 26.0977 6.91381 26.0977 7.44581C26.0977 7.97781 26.205 8.44448 26.4197 8.84581C26.6437 9.23781 26.933 9.53648 27.2877 9.74181C27.6517 9.94715 28.0343 10.0498 28.4357 10.0498C28.8463 10.0498 29.229 9.94715 29.5837 9.74181C29.9477 9.52715 30.237 9.21915 30.4517 8.81781C30.6757 8.41648 30.7877 7.94981 30.7877 7.41781ZM33.8779 7.41781C33.8779 6.64315 34.0366 5.95715 34.3539 5.35981C34.6806 4.76248 35.1193 4.30048 35.6699 3.97381C36.2299 3.63781 36.8459 3.46981 37.5179 3.46981C38.1246 3.46981 38.6519 3.59115 39.0999 3.83381C39.5573 4.06715 39.9213 4.36115 40.1919 4.71581V3.59581H41.8019V11.3098H40.1919V10.1618C39.9213 10.5258 39.5526 10.8291 39.0859 11.0718C38.6193 11.3145 38.0873 11.4358 37.4899 11.4358C36.8273 11.4358 36.2206 11.2678 35.6699 10.9318C35.1193 10.5865 34.6806 10.1105 34.3539 9.50381C34.0366 8.88781 33.8779 8.19248 33.8779 7.41781ZM40.1919 7.44581C40.1919 6.91381 40.0799 6.45181 39.8559 6.05981C39.6413 5.66781 39.3566 5.36915 39.0019 5.16381C38.6473 4.95848 38.2646 4.85581 37.8539 4.85581C37.4433 4.85581 37.0606 4.95848 36.7059 5.16381C36.3513 5.35981 36.0619 5.65381 35.8379 6.04581C35.6233 6.42848 35.5159 6.88581 35.5159 7.41781C35.5159 7.94981 35.6233 8.41648 35.8379 8.81781C36.0619 9.21915 36.3513 9.52715 36.7059 9.74181C37.0699 9.94715 37.4526 10.0498 37.8539 10.0498C38.2646 10.0498 38.6473 9.94715 39.0019 9.74181C39.3566 9.53648 39.6413 9.23781 39.8559 8.84581C40.0799 8.44448 40.1919 7.97781 40.1919 7.44581ZM45.9142 4.71581C46.1475 4.32381 46.4555 4.02048 46.8382 3.80581C47.2302 3.58181 47.6922 3.46981 48.2242 3.46981V5.12181H47.8182C47.1929 5.12181 46.7169 5.28048 46.3902 5.59781C46.0729 5.91515 45.9142 6.46581 45.9142 7.24981V11.3098H44.3182V3.59581H45.9142V4.71581ZM57.0973 3.59581V11.3098H55.5013V10.3998C55.2493 10.7171 54.9179 10.9691 54.5073 11.1558C54.1059 11.3331 53.6766 11.4218 53.2193 11.4218C52.6126 11.4218 52.0666 11.2958 51.5813 11.0438C51.1053 10.7918 50.7273 10.4185 50.4473 9.92381C50.1766 9.42915 50.0413 8.83181 50.0413 8.13181V3.59581H51.6233V7.89381C51.6233 8.58448 51.7959 9.11648 52.1413 9.48981C52.4866 9.85381 52.9579 10.0358 53.5553 10.0358C54.1526 10.0358 54.6239 9.85381 54.9693 9.48981C55.3239 9.11648 55.5013 8.58448 55.5013 7.89381V3.59581H57.0973Z" fill="black"/>
</svg>
