<svg width="547" height="158" viewBox="0 0 547 158" fill="none" xmlns="http://www.w3.org/2000/svg">
<path d="M18.995 16.606C20.6863 16.9213 22.0767 17.767 23.166 19.143C24.2553 20.519 24.8 22.0957 24.8 23.873C24.8 25.4783 24.3987 26.8973 23.596 28.13C22.822 29.334 21.6897 30.28 20.199 30.968C18.7083 31.656 16.9453 32 14.91 32H1.967V1.986H14.351C16.3863 1.986 18.135 2.31567 19.597 2.975C21.0877 3.63433 22.2057 4.55167 22.951 5.727C23.725 6.90233 24.112 8.23533 24.112 9.726C24.112 11.4747 23.639 12.9367 22.693 14.112C21.7757 15.2873 20.543 16.1187 18.995 16.606ZM7.987 14.37H13.491C14.9243 14.37 16.028 14.0547 16.802 13.424C17.576 12.7647 17.963 11.833 17.963 10.629C17.963 9.425 17.576 8.49333 16.802 7.834C16.028 7.17467 14.9243 6.845 13.491 6.845H7.987V14.37ZM14.05 27.098C15.512 27.098 16.6443 26.754 17.447 26.066C18.2783 25.378 18.694 24.4033 18.694 23.142C18.694 21.852 18.264 20.8487 17.404 20.132C16.544 19.3867 15.383 19.014 13.921 19.014H7.987V27.098H14.05ZM36.8219 1.986V20.562C36.8219 22.5973 37.3522 24.1597 38.4129 25.249C39.4735 26.3097 40.9642 26.84 42.8849 26.84C44.8342 26.84 46.3392 26.3097 47.3999 25.249C48.4605 24.1597 48.9909 22.5973 48.9909 20.562V1.986H55.0539V20.519C55.0539 23.0703 54.4949 25.2347 53.3769 27.012C52.2875 28.7607 50.8112 30.0793 48.9479 30.968C47.1132 31.8567 45.0635 32.301 42.7989 32.301C40.5629 32.301 38.5275 31.8567 36.6929 30.968C34.8869 30.0793 33.4535 28.7607 32.3929 27.012C31.3322 25.2347 30.8019 23.0703 30.8019 20.519V1.986H36.8219ZM79.1023 32L68.1803 18.627V32H62.1603V1.986H68.1803V15.445L79.1023 1.986H86.3693L73.9853 16.864L86.7133 32H79.1023ZM97.897 1.986V20.562C97.897 22.5973 98.4273 24.1597 99.488 25.249C100.549 26.3097 102.039 26.84 103.96 26.84C105.909 26.84 107.414 26.3097 108.475 25.249C109.536 24.1597 110.066 22.5973 110.066 20.562V1.986H116.129V20.519C116.129 23.0703 115.57 25.2347 114.452 27.012C113.363 28.7607 111.886 30.0793 110.023 30.968C108.188 31.8567 106.139 32.301 103.874 32.301C101.638 32.301 99.6026 31.8567 97.768 30.968C95.962 30.0793 94.5286 28.7607 93.468 27.012C92.4073 25.2347 91.877 23.0703 91.877 20.519V1.986H97.897ZM155.196 1.986V6.845H147.198V32H141.178V6.845H133.18V1.986H155.196ZM179.283 26.281H167.329L165.351 32H159.03L169.823 1.943H176.832L187.625 32H181.261L179.283 26.281ZM177.649 21.465L173.306 8.909L168.963 21.465H177.649ZM225.672 1.986V32H219.652V12.478L211.611 32H207.053L198.969 12.478V32H192.949V1.986H199.786L209.332 24.303L218.878 1.986H225.672ZM238.848 1.986V20.562C238.848 22.5973 239.378 24.1597 240.439 25.249C241.5 26.3097 242.99 26.84 244.911 26.84C246.86 26.84 248.365 26.3097 249.426 25.249C250.487 24.1597 251.017 22.5973 251.017 20.562V1.986H257.08V20.519C257.08 23.0703 256.521 25.2347 255.403 27.012C254.314 28.7607 252.837 30.0793 250.974 30.968C249.139 31.8567 247.09 32.301 244.825 32.301C242.589 32.301 240.554 31.8567 238.719 30.968C236.913 30.0793 235.48 28.7607 234.419 27.012C233.358 25.2347 232.828 23.0703 232.828 20.519V1.986H238.848ZM286.085 32.301C283.993 32.301 282.101 31.9427 280.409 31.226C278.747 30.5093 277.428 29.4773 276.453 28.13C275.479 26.7827 274.977 25.1917 274.948 23.357H281.398C281.484 24.5897 281.914 25.5643 282.688 26.281C283.491 26.9977 284.58 27.356 285.956 27.356C287.361 27.356 288.465 27.0263 289.267 26.367C290.07 25.679 290.471 24.7903 290.471 23.701C290.471 22.8123 290.199 22.0813 289.654 21.508C289.11 20.9347 288.422 20.4903 287.59 20.175C286.788 19.831 285.67 19.4583 284.236 19.057C282.287 18.4837 280.696 17.9247 279.463 17.38C278.259 16.8067 277.213 15.961 276.324 14.843C275.464 13.6963 275.034 12.177 275.034 10.285C275.034 8.50767 275.479 6.95967 276.367 5.641C277.256 4.32233 278.503 3.319 280.108 2.631C281.714 1.91433 283.548 1.556 285.612 1.556C288.708 1.556 291.217 2.31567 293.137 3.835C295.087 5.32566 296.162 7.41833 296.362 10.113H289.74C289.683 9.081 289.239 8.23533 288.407 7.576C287.605 6.888 286.53 6.544 285.182 6.544C284.007 6.544 283.061 6.845 282.344 7.447C281.656 8.049 281.312 8.92333 281.312 10.07C281.312 10.8727 281.57 11.5463 282.086 12.091C282.631 12.607 283.29 13.037 284.064 13.381C284.867 13.6963 285.985 14.069 287.418 14.499C289.368 15.0723 290.959 15.6457 292.191 16.219C293.424 16.7923 294.485 17.6523 295.373 18.799C296.262 19.9457 296.706 21.4507 296.706 23.314C296.706 24.9193 296.291 26.41 295.459 27.786C294.628 29.162 293.41 30.2657 291.804 31.097C290.199 31.8997 288.293 32.301 286.085 32.301ZM335.939 1.986V32H329.919V12.478L321.878 32H317.32L309.236 12.478V32H303.216V1.986H310.053L319.599 24.303L329.145 1.986H335.939ZM360.122 32L349.2 18.627V32H343.18V1.986H349.2V15.445L360.122 1.986H367.389L355.005 16.864L367.733 32H360.122ZM404.944 1.986V6.845H396.946V32H390.926V6.845H382.928V1.986H404.944ZM432.772 19.573C432.772 20.433 432.714 21.207 432.6 21.895H415.185C415.328 23.615 415.93 24.9623 416.991 25.937C418.051 26.9117 419.356 27.399 420.904 27.399C423.14 27.399 424.731 26.4387 425.677 24.518H432.17C431.482 26.8113 430.163 28.7033 428.214 30.194C426.264 31.656 423.871 32.387 421.033 32.387C418.739 32.387 416.675 31.8853 414.841 30.882C413.035 29.85 411.616 28.4023 410.584 26.539C409.58 24.6757 409.079 22.5257 409.079 20.089C409.079 17.6237 409.58 15.4593 410.584 13.596C411.587 11.7327 412.992 10.2993 414.798 9.296C416.604 8.29267 418.682 7.791 421.033 7.791C423.297 7.791 425.318 8.27833 427.096 9.253C428.902 10.2277 430.292 11.618 431.267 13.424C432.27 15.2013 432.772 17.251 432.772 19.573ZM426.537 17.853C426.508 16.305 425.949 15.0723 424.86 14.155C423.77 13.209 422.437 12.736 420.861 12.736C419.37 12.736 418.109 13.1947 417.077 14.112C416.073 15.0007 415.457 16.2477 415.228 17.853H426.537ZM444.476 0.18V32H438.456V0.18H444.476ZM465.817 32L457.733 21.852V32H451.713V0.18H457.733V18.283L465.731 8.178H473.557L463.065 20.132L473.643 32H465.817ZM488.693 32.387C486.399 32.387 484.335 31.8853 482.501 30.882C480.666 29.85 479.218 28.4023 478.158 26.539C477.126 24.6757 476.61 22.5257 476.61 20.089C476.61 17.6523 477.14 15.5023 478.201 13.639C479.29 11.7757 480.766 10.3423 482.63 9.339C484.493 8.307 486.571 7.791 488.865 7.791C491.158 7.791 493.236 8.307 495.1 9.339C496.963 10.3423 498.425 11.7757 499.486 13.639C500.575 15.5023 501.12 17.6523 501.12 20.089C501.12 22.5257 500.561 24.6757 499.443 26.539C498.353 28.4023 496.863 29.85 494.971 30.882C493.107 31.8853 491.015 32.387 488.693 32.387ZM488.693 27.141C489.782 27.141 490.8 26.883 491.746 26.367C492.72 25.8223 493.494 25.0197 494.068 23.959C494.641 22.8983 494.928 21.6083 494.928 20.089C494.928 17.8243 494.326 16.09 493.122 14.886C491.946 13.6533 490.499 13.037 488.779 13.037C487.059 13.037 485.611 13.6533 484.436 14.886C483.289 16.09 482.716 17.8243 482.716 20.089C482.716 22.3537 483.275 24.1023 484.393 25.335C485.539 26.539 486.973 27.141 488.693 27.141ZM536.41 7.834C539.334 7.834 541.684 8.737 543.462 10.543C545.268 12.3203 546.171 14.8143 546.171 18.025V32H540.151V18.842C540.151 16.9787 539.678 15.5597 538.732 14.585C537.786 13.5817 536.496 13.08 534.862 13.08C533.228 13.08 531.923 13.5817 530.949 14.585C530.003 15.5597 529.53 16.9787 529.53 18.842V32H523.51V18.842C523.51 16.9787 523.037 15.5597 522.091 14.585C521.145 13.5817 519.855 13.08 518.221 13.08C516.558 13.08 515.239 13.5817 514.265 14.585C513.319 15.5597 512.846 16.9787 512.846 18.842V32H506.826V8.178H512.846V11.059C513.62 10.0557 514.609 9.26733 515.813 8.694C517.045 8.12066 518.393 7.834 519.855 7.834C521.718 7.834 523.381 8.23533 524.843 9.038C526.305 9.812 527.437 10.93 528.24 12.392C529.014 11.016 530.132 9.91233 531.594 9.081C533.084 8.24966 534.69 7.834 536.41 7.834ZM34.69 51.986V82H28.67V62.478L20.629 82H16.071L7.987 62.478V82H1.967V51.986H8.804L18.35 74.303L27.896 51.986H34.69ZM40.3838 70.003C40.3838 67.595 40.8568 65.4593 41.8028 63.596C42.7775 61.7327 44.0818 60.2993 45.7158 59.296C47.3785 58.2927 49.2275 57.791 51.2628 57.791C53.0401 57.791 54.5881 58.1493 55.9068 58.866C57.2541 59.5827 58.3291 60.4857 59.1318 61.575V58.178H65.1948V82H59.1318V78.517C58.3578 79.635 57.2828 80.5667 55.9068 81.312C54.5595 82.0287 52.9971 82.387 51.2198 82.387C49.2131 82.387 47.3785 81.871 45.7158 80.839C44.0818 79.807 42.7775 78.3593 41.8028 76.496C40.8568 74.604 40.3838 72.4397 40.3838 70.003ZM59.1318 70.089C59.1318 68.627 58.8451 67.38 58.2718 66.348C57.6985 65.2873 56.9245 64.4847 55.9498 63.94C54.9751 63.3667 53.9288 63.08 52.8108 63.08C51.6928 63.08 50.6608 63.3523 49.7148 63.897C48.7688 64.4417 47.9948 65.2443 47.3928 66.305C46.8195 67.337 46.5328 68.5697 46.5328 70.003C46.5328 71.4363 46.8195 72.6977 47.3928 73.787C47.9948 74.8477 48.7688 75.6647 49.7148 76.238C50.6895 76.8113 51.7215 77.098 52.8108 77.098C53.9288 77.098 54.9751 76.8257 55.9498 76.281C56.9245 75.7077 57.6985 74.905 58.2718 73.873C58.8451 72.8123 59.1318 71.551 59.1318 70.089ZM86.4684 82L78.3844 71.852V82H72.3644V50.18H78.3844V68.283L86.3824 58.178H94.2084L83.7164 70.132L94.2944 82H86.4684ZM97.2177 70.003C97.2177 67.595 97.6907 65.4593 98.6367 63.596C99.6114 61.7327 100.916 60.2993 102.55 59.296C104.212 58.2927 106.061 57.791 108.097 57.791C109.874 57.791 111.422 58.1493 112.741 58.866C114.088 59.5827 115.163 60.4857 115.966 61.575V58.178H122.029V82H115.966V78.517C115.192 79.635 114.117 80.5667 112.741 81.312C111.393 82.0287 109.831 82.387 108.054 82.387C106.047 82.387 104.212 81.871 102.55 80.839C100.916 79.807 99.6114 78.3593 98.6367 76.496C97.6907 74.604 97.2177 72.4397 97.2177 70.003ZM115.966 70.089C115.966 68.627 115.679 67.38 115.106 66.348C114.532 65.2873 113.758 64.4847 112.784 63.94C111.809 63.3667 110.763 63.08 109.645 63.08C108.527 63.08 107.495 63.3523 106.549 63.897C105.603 64.4417 104.829 65.2443 104.227 66.305C103.653 67.337 103.367 68.5697 103.367 70.003C103.367 71.4363 103.653 72.6977 104.227 73.787C104.829 74.8477 105.603 75.6647 106.549 76.238C107.523 76.8113 108.555 77.098 109.645 77.098C110.763 77.098 111.809 76.8257 112.784 76.281C113.758 75.7077 114.532 74.905 115.106 73.873C115.679 72.8123 115.966 71.551 115.966 70.089ZM138.314 82.387C136.365 82.387 134.616 82.043 133.068 81.355C131.52 80.6383 130.288 79.678 129.37 78.474C128.482 77.27 127.994 75.937 127.908 74.475H133.971C134.086 75.3923 134.53 76.152 135.304 76.754C136.107 77.356 137.096 77.657 138.271 77.657C139.418 77.657 140.307 77.4277 140.937 76.969C141.597 76.5103 141.926 75.9227 141.926 75.206C141.926 74.432 141.525 73.8587 140.722 73.486C139.948 73.0847 138.701 72.6547 136.981 72.196C135.204 71.766 133.742 71.3217 132.595 70.863C131.477 70.4043 130.503 69.702 129.671 68.756C128.869 67.81 128.467 66.5343 128.467 64.929C128.467 63.6103 128.84 62.4063 129.585 61.317C130.359 60.2277 131.449 59.3677 132.853 58.737C134.287 58.1063 135.964 57.791 137.884 57.791C140.722 57.791 142.987 58.5077 144.678 59.941C146.37 61.3457 147.301 63.252 147.473 65.66H141.711C141.625 64.714 141.224 63.9687 140.507 63.424C139.819 62.8507 138.888 62.564 137.712 62.564C136.623 62.564 135.777 62.7647 135.175 63.166C134.602 63.5673 134.315 64.1263 134.315 64.843C134.315 65.6457 134.717 66.262 135.519 66.692C136.322 67.0933 137.569 67.509 139.26 67.939C140.98 68.369 142.399 68.8133 143.517 69.272C144.635 69.7307 145.596 70.4473 146.398 71.422C147.23 72.368 147.66 73.6293 147.688 75.206C147.688 76.582 147.301 77.8147 146.527 78.904C145.782 79.9933 144.693 80.8533 143.259 81.484C141.855 82.086 140.206 82.387 138.314 82.387ZM163.036 82.387C161.087 82.387 159.338 82.043 157.79 81.355C156.242 80.6383 155.009 79.678 154.092 78.474C153.203 77.27 152.716 75.937 152.63 74.475H158.693C158.808 75.3923 159.252 76.152 160.026 76.754C160.829 77.356 161.818 77.657 162.993 77.657C164.14 77.657 165.028 77.4277 165.659 76.969C166.318 76.5103 166.648 75.9227 166.648 75.206C166.648 74.432 166.247 73.8587 165.444 73.486C164.67 73.0847 163.423 72.6547 161.703 72.196C159.926 71.766 158.464 71.3217 157.317 70.863C156.199 70.4043 155.224 69.702 154.393 68.756C153.59 67.81 153.189 66.5343 153.189 64.929C153.189 63.6103 153.562 62.4063 154.307 61.317C155.081 60.2277 156.17 59.3677 157.575 58.737C159.008 58.1063 160.685 57.791 162.606 57.791C165.444 57.791 167.709 58.5077 169.4 59.941C171.091 61.3457 172.023 63.252 172.195 65.66H166.433C166.347 64.714 165.946 63.9687 165.229 63.424C164.541 62.8507 163.609 62.564 162.434 62.564C161.345 62.564 160.499 62.7647 159.897 63.166C159.324 63.5673 159.037 64.1263 159.037 64.843C159.037 65.6457 159.438 66.262 160.241 66.692C161.044 67.0933 162.291 67.509 163.982 67.939C165.702 68.369 167.121 68.8133 168.239 69.272C169.357 69.7307 170.317 70.4473 171.12 71.422C171.951 72.368 172.381 73.6293 172.41 75.206C172.41 76.582 172.023 77.8147 171.249 78.904C170.504 79.9933 169.414 80.8533 167.981 81.484C166.576 82.086 164.928 82.387 163.036 82.387ZM177.094 70.003C177.094 67.595 177.567 65.4593 178.513 63.596C179.487 61.7327 180.792 60.2993 182.426 59.296C184.088 58.2927 185.937 57.791 187.973 57.791C189.75 57.791 191.298 58.1493 192.617 58.866C193.964 59.5827 195.039 60.4857 195.842 61.575V58.178H201.905V82H195.842V78.517C195.068 79.635 193.993 80.5667 192.617 81.312C191.269 82.0287 189.707 82.387 187.93 82.387C185.923 82.387 184.088 81.871 182.426 80.839C180.792 79.807 179.487 78.3593 178.513 76.496C177.567 74.604 177.094 72.4397 177.094 70.003ZM195.842 70.089C195.842 68.627 195.555 67.38 194.982 66.348C194.408 65.2873 193.634 64.4847 192.66 63.94C191.685 63.3667 190.639 63.08 189.521 63.08C188.403 63.08 187.371 63.3523 186.425 63.897C185.479 64.4417 184.705 65.2443 184.103 66.305C183.529 67.337 183.243 68.5697 183.243 70.003C183.243 71.4363 183.529 72.6977 184.103 73.787C184.705 74.8477 185.479 75.6647 186.425 76.238C187.399 76.8113 188.431 77.098 189.521 77.098C190.639 77.098 191.685 76.8257 192.66 76.281C193.634 75.7077 194.408 74.905 194.982 73.873C195.555 72.8123 195.842 71.551 195.842 70.089ZM215.094 61.876C215.868 60.6147 216.871 59.6257 218.104 58.909C219.365 58.1923 220.799 57.834 222.404 57.834V64.155H220.813C218.921 64.155 217.488 64.5993 216.513 65.488C215.567 66.3767 215.094 67.9247 215.094 70.132V82H209.074V58.178H215.094V61.876Z" fill="white"/>
<path d="M11.6 113.1V127H9.32V120.92H2.78V127H0.5V113.1H2.78V119.06H9.32V113.1H11.6ZM14.4416 121.44C14.4416 120.333 14.6682 119.353 15.1216 118.5C15.5882 117.647 16.2149 116.987 17.0016 116.52C17.8016 116.04 18.6816 115.8 19.6416 115.8C20.5082 115.8 21.2616 115.973 21.9016 116.32C22.5549 116.653 23.0749 117.073 23.4616 117.58V115.98H25.7616V127H23.4616V125.36C23.0749 125.88 22.5482 126.313 21.8816 126.66C21.2149 127.007 20.4549 127.18 19.6016 127.18C18.6549 127.18 17.7882 126.94 17.0016 126.46C16.2149 125.967 15.5882 125.287 15.1216 124.42C14.6682 123.54 14.4416 122.547 14.4416 121.44ZM23.4616 121.48C23.4616 120.72 23.3016 120.06 22.9816 119.5C22.6749 118.94 22.2682 118.513 21.7616 118.22C21.2549 117.927 20.7082 117.78 20.1216 117.78C19.5349 117.78 18.9882 117.927 18.4816 118.22C17.9749 118.5 17.5616 118.92 17.2416 119.48C16.9349 120.027 16.7816 120.68 16.7816 121.44C16.7816 122.2 16.9349 122.867 17.2416 123.44C17.5616 124.013 17.9749 124.453 18.4816 124.76C19.0016 125.053 19.5482 125.2 20.1216 125.2C20.7082 125.2 21.2549 125.053 21.7616 124.76C22.2682 124.467 22.6749 124.04 22.9816 123.48C23.3016 122.907 23.4616 122.24 23.4616 121.48ZM28.5963 121.44C28.5963 120.333 28.8229 119.353 29.2763 118.5C29.7429 117.647 30.3696 116.987 31.1563 116.52C31.9563 116.04 32.8429 115.8 33.8163 115.8C34.5363 115.8 35.2429 115.96 35.9363 116.28C36.6429 116.587 37.2029 117 37.6163 117.52V112.2H39.9163V127H37.6163V125.34C37.2429 125.873 36.7229 126.313 36.0563 126.66C35.4029 127.007 34.6496 127.18 33.7963 127.18C32.8363 127.18 31.9563 126.94 31.1563 126.46C30.3696 125.967 29.7429 125.287 29.2763 124.42C28.8229 123.54 28.5963 122.547 28.5963 121.44ZM37.6163 121.48C37.6163 120.72 37.4563 120.06 37.1363 119.5C36.8296 118.94 36.4229 118.513 35.9163 118.22C35.4096 117.927 34.8629 117.78 34.2763 117.78C33.6896 117.78 33.1429 117.927 32.6363 118.22C32.1296 118.5 31.7163 118.92 31.3963 119.48C31.0896 120.027 30.9363 120.68 30.9363 121.44C30.9363 122.2 31.0896 122.867 31.3963 123.44C31.7163 124.013 32.1296 124.453 32.6363 124.76C33.1563 125.053 33.7029 125.2 34.2763 125.2C34.8629 125.2 35.4096 125.053 35.9163 124.76C36.4229 124.467 36.8296 124.04 37.1363 123.48C37.4563 122.907 37.6163 122.24 37.6163 121.48ZM44.6709 114.52C44.2576 114.52 43.9109 114.38 43.6309 114.1C43.3509 113.82 43.2109 113.473 43.2109 113.06C43.2109 112.647 43.3509 112.3 43.6309 112.02C43.9109 111.74 44.2576 111.6 44.6709 111.6C45.0709 111.6 45.4109 111.74 45.6909 112.02C45.9709 112.3 46.1109 112.647 46.1109 113.06C46.1109 113.473 45.9709 113.82 45.6909 114.1C45.4109 114.38 45.0709 114.52 44.6709 114.52ZM45.7909 115.98V127H43.5109V115.98H45.7909ZM51.6644 117.58C51.9977 117.02 52.4377 116.587 52.9844 116.28C53.5444 115.96 54.2044 115.8 54.9644 115.8V118.16H54.3844C53.491 118.16 52.811 118.387 52.3444 118.84C51.891 119.293 51.6644 120.08 51.6644 121.2V127H49.3844V115.98H51.6644V117.58ZM73.4355 115.98V127H71.1555V125.7C70.7955 126.153 70.3221 126.513 69.7355 126.78C69.1621 127.033 68.5488 127.16 67.8955 127.16C67.0288 127.16 66.2488 126.98 65.5555 126.62C64.8755 126.26 64.3355 125.727 63.9355 125.02C63.5488 124.313 63.3555 123.46 63.3555 122.46V115.98H65.6155V122.12C65.6155 123.107 65.8621 123.867 66.3555 124.4C66.8488 124.92 67.5221 125.18 68.3755 125.18C69.2288 125.18 69.9021 124.92 70.3955 124.4C70.9021 123.867 71.1555 123.107 71.1555 122.12V115.98H73.4355ZM82.6037 115.8C83.4704 115.8 84.2437 115.98 84.9237 116.34C85.6171 116.7 86.1571 117.233 86.5437 117.94C86.9304 118.647 87.1237 119.5 87.1237 120.5V127H84.8637V120.84C84.8637 119.853 84.6171 119.1 84.1237 118.58C83.6304 118.047 82.9571 117.78 82.1037 117.78C81.2504 117.78 80.5704 118.047 80.0637 118.58C79.5704 119.1 79.3237 119.853 79.3237 120.84V127H77.0437V115.98H79.3237V117.24C79.6971 116.787 80.1704 116.433 80.7437 116.18C81.3304 115.927 81.9504 115.8 82.6037 115.8ZM93.292 117.84V123.94C93.292 124.353 93.3854 124.653 93.572 124.84C93.772 125.013 94.1054 125.1 94.572 125.1H95.972V127H94.172C93.1454 127 92.3587 126.76 91.812 126.28C91.2654 125.8 90.992 125.02 90.992 123.94V117.84H89.692V115.98H90.992V113.24H93.292V115.98H95.972V117.84H93.292ZM108.653 115.98V127H106.373V125.7C106.013 126.153 105.54 126.513 104.953 126.78C104.38 127.033 103.767 127.16 103.113 127.16C102.247 127.16 101.467 126.98 100.773 126.62C100.093 126.26 99.5534 125.727 99.1534 125.02C98.7668 124.313 98.5734 123.46 98.5734 122.46V115.98H100.833V122.12C100.833 123.107 101.08 123.867 101.573 124.4C102.067 124.92 102.74 125.18 103.593 125.18C104.447 125.18 105.12 124.92 105.613 124.4C106.12 123.867 106.373 123.107 106.373 122.12V115.98H108.653ZM116.622 121.5L121.702 127H118.622L114.542 122.26V127H112.262V112.2H114.542V120.8L118.542 115.98H121.702L116.622 121.5ZM143.071 115.8C143.938 115.8 144.711 115.98 145.391 116.34C146.085 116.7 146.625 117.233 147.011 117.94C147.411 118.647 147.611 119.5 147.611 120.5V127H145.351V120.84C145.351 119.853 145.105 119.1 144.611 118.58C144.118 118.047 143.445 117.78 142.591 117.78C141.738 117.78 141.058 118.047 140.551 118.58C140.058 119.1 139.811 119.853 139.811 120.84V127H137.551V120.84C137.551 119.853 137.305 119.1 136.811 118.58C136.318 118.047 135.645 117.78 134.791 117.78C133.938 117.78 133.258 118.047 132.751 118.58C132.258 119.1 132.011 119.853 132.011 120.84V127H129.731V115.98H132.011V117.24C132.385 116.787 132.858 116.433 133.431 116.18C134.005 115.927 134.618 115.8 135.271 115.8C136.151 115.8 136.938 115.987 137.631 116.36C138.325 116.733 138.858 117.273 139.231 117.98C139.565 117.313 140.085 116.787 140.791 116.4C141.498 116 142.258 115.8 143.071 115.8ZM161.213 121.22C161.213 121.633 161.186 122.007 161.133 122.34H152.713C152.779 123.22 153.106 123.927 153.693 124.46C154.279 124.993 154.999 125.26 155.853 125.26C157.079 125.26 157.946 124.747 158.453 123.72H160.913C160.579 124.733 159.973 125.567 159.093 126.22C158.226 126.86 157.146 127.18 155.853 127.18C154.799 127.18 153.853 126.947 153.013 126.48C152.186 126 151.533 125.333 151.053 124.48C150.586 123.613 150.353 122.613 150.353 121.48C150.353 120.347 150.579 119.353 151.033 118.5C151.499 117.633 152.146 116.967 152.973 116.5C153.813 116.033 154.773 115.8 155.853 115.8C156.893 115.8 157.819 116.027 158.633 116.48C159.446 116.933 160.079 117.573 160.533 118.4C160.986 119.213 161.213 120.153 161.213 121.22ZM158.833 120.5C158.819 119.66 158.519 118.987 157.933 118.48C157.346 117.973 156.619 117.72 155.753 117.72C154.966 117.72 154.293 117.973 153.733 118.48C153.173 118.973 152.839 119.647 152.733 120.5H158.833ZM177.396 115.8C178.263 115.8 179.036 115.98 179.716 116.34C180.41 116.7 180.95 117.233 181.336 117.94C181.736 118.647 181.936 119.5 181.936 120.5V127H179.676V120.84C179.676 119.853 179.43 119.1 178.936 118.58C178.443 118.047 177.77 117.78 176.916 117.78C176.063 117.78 175.383 118.047 174.876 118.58C174.383 119.1 174.136 119.853 174.136 120.84V127H171.876V120.84C171.876 119.853 171.63 119.1 171.136 118.58C170.643 118.047 169.97 117.78 169.116 117.78C168.263 117.78 167.583 118.047 167.076 118.58C166.583 119.1 166.336 119.853 166.336 120.84V127H164.056V115.98H166.336V117.24C166.71 116.787 167.183 116.433 167.756 116.18C168.33 115.927 168.943 115.8 169.596 115.8C170.476 115.8 171.263 115.987 171.956 116.36C172.65 116.733 173.183 117.273 173.556 117.98C173.89 117.313 174.41 116.787 175.116 116.4C175.823 116 176.583 115.8 177.396 115.8ZM187.718 117.6C188.104 117.093 188.631 116.667 189.298 116.32C189.964 115.973 190.718 115.8 191.558 115.8C192.518 115.8 193.391 116.04 194.178 116.52C194.978 116.987 195.604 117.647 196.058 118.5C196.511 119.353 196.738 120.333 196.738 121.44C196.738 122.547 196.511 123.54 196.058 124.42C195.604 125.287 194.978 125.967 194.178 126.46C193.391 126.94 192.518 127.18 191.558 127.18C190.718 127.18 189.971 127.013 189.318 126.68C188.664 126.333 188.131 125.907 187.718 125.4V132.24H185.438V115.98H187.718V117.6ZM194.418 121.44C194.418 120.68 194.258 120.027 193.938 119.48C193.631 118.92 193.218 118.5 192.698 118.22C192.191 117.927 191.644 117.78 191.058 117.78C190.484 117.78 189.938 117.927 189.418 118.22C188.911 118.513 188.498 118.94 188.178 119.5C187.871 120.06 187.718 120.72 187.718 121.48C187.718 122.24 187.871 122.907 188.178 123.48C188.498 124.04 188.911 124.467 189.418 124.76C189.938 125.053 190.484 125.2 191.058 125.2C191.644 125.2 192.191 125.053 192.698 124.76C193.218 124.453 193.631 124.013 193.938 123.44C194.258 122.867 194.418 122.2 194.418 121.44ZM209.692 121.22C209.692 121.633 209.666 122.007 209.612 122.34H201.192C201.259 123.22 201.586 123.927 202.172 124.46C202.759 124.993 203.479 125.26 204.332 125.26C205.559 125.26 206.426 124.747 206.932 123.72H209.392C209.059 124.733 208.452 125.567 207.572 126.22C206.706 126.86 205.626 127.18 204.332 127.18C203.279 127.18 202.332 126.947 201.492 126.48C200.666 126 200.012 125.333 199.532 124.48C199.066 123.613 198.832 122.613 198.832 121.48C198.832 120.347 199.059 119.353 199.512 118.5C199.979 117.633 200.626 116.967 201.452 116.5C202.292 116.033 203.252 115.8 204.332 115.8C205.372 115.8 206.299 116.027 207.112 116.48C207.926 116.933 208.559 117.573 209.012 118.4C209.466 119.213 209.692 120.153 209.692 121.22ZM207.312 120.5C207.299 119.66 206.999 118.987 206.412 118.48C205.826 117.973 205.099 117.72 204.232 117.72C203.446 117.72 202.772 117.973 202.212 118.48C201.652 118.973 201.319 119.647 201.212 120.5H207.312ZM214.816 117.58C215.149 117.02 215.589 116.587 216.136 116.28C216.696 115.96 217.356 115.8 218.116 115.8V118.16H217.536C216.643 118.16 215.963 118.387 215.496 118.84C215.043 119.293 214.816 120.08 214.816 121.2V127H212.536V115.98H214.816V117.58ZM234.152 115.8C235.018 115.8 235.792 115.98 236.472 116.34C237.165 116.7 237.705 117.233 238.092 117.94C238.492 118.647 238.692 119.5 238.692 120.5V127H236.432V120.84C236.432 119.853 236.185 119.1 235.692 118.58C235.198 118.047 234.525 117.78 233.672 117.78C232.818 117.78 232.138 118.047 231.632 118.58C231.138 119.1 230.892 119.853 230.892 120.84V127H228.632V120.84C228.632 119.853 228.385 119.1 227.892 118.58C227.398 118.047 226.725 117.78 225.872 117.78C225.018 117.78 224.338 118.047 223.832 118.58C223.338 119.1 223.092 119.853 223.092 120.84V127H220.812V115.98H223.092V117.24C223.465 116.787 223.938 116.433 224.512 116.18C225.085 115.927 225.698 115.8 226.352 115.8C227.232 115.8 228.018 115.987 228.712 116.36C229.405 116.733 229.938 117.273 230.312 117.98C230.645 117.313 231.165 116.787 231.872 116.4C232.578 116 233.338 115.8 234.152 115.8ZM252.173 115.98V127H249.893V125.7C249.533 126.153 249.06 126.513 248.473 126.78C247.9 127.033 247.286 127.16 246.633 127.16C245.766 127.16 244.986 126.98 244.293 126.62C243.613 126.26 243.073 125.727 242.673 125.02C242.286 124.313 242.093 123.46 242.093 122.46V115.98H244.353V122.12C244.353 123.107 244.6 123.867 245.093 124.4C245.586 124.92 246.26 125.18 247.113 125.18C247.966 125.18 248.64 124.92 249.133 124.4C249.64 123.867 249.893 123.107 249.893 122.12V115.98H252.173ZM255.021 121.44C255.021 120.333 255.248 119.353 255.701 118.5C256.168 117.647 256.795 116.987 257.581 116.52C258.381 116.04 259.268 115.8 260.241 115.8C260.961 115.8 261.668 115.96 262.361 116.28C263.068 116.587 263.628 117 264.041 117.52V112.2H266.341V127H264.041V125.34C263.668 125.873 263.148 126.313 262.481 126.66C261.828 127.007 261.075 127.18 260.221 127.18C259.261 127.18 258.381 126.94 257.581 126.46C256.795 125.967 256.168 125.287 255.701 124.42C255.248 123.54 255.021 122.547 255.021 121.44ZM264.041 121.48C264.041 120.72 263.881 120.06 263.561 119.5C263.255 118.94 262.848 118.513 262.341 118.22C261.835 117.927 261.288 117.78 260.701 117.78C260.115 117.78 259.568 117.927 259.061 118.22C258.555 118.5 258.141 118.92 257.821 119.48C257.515 120.027 257.361 120.68 257.361 121.44C257.361 122.2 257.515 122.867 257.821 123.44C258.141 124.013 258.555 124.453 259.061 124.76C259.581 125.053 260.128 125.2 260.701 125.2C261.288 125.2 261.835 125.053 262.341 124.76C262.848 124.467 263.255 124.04 263.561 123.48C263.881 122.907 264.041 122.24 264.041 121.48ZM269.176 121.44C269.176 120.333 269.403 119.353 269.856 118.5C270.323 117.647 270.949 116.987 271.736 116.52C272.536 116.04 273.416 115.8 274.376 115.8C275.243 115.8 275.996 115.973 276.636 116.32C277.289 116.653 277.809 117.073 278.196 117.58V115.98H280.496V127H278.196V125.36C277.809 125.88 277.283 126.313 276.616 126.66C275.949 127.007 275.189 127.18 274.336 127.18C273.389 127.18 272.523 126.94 271.736 126.46C270.949 125.967 270.323 125.287 269.856 124.42C269.403 123.54 269.176 122.547 269.176 121.44ZM278.196 121.48C278.196 120.72 278.036 120.06 277.716 119.5C277.409 118.94 277.003 118.513 276.496 118.22C275.989 117.927 275.443 117.78 274.856 117.78C274.269 117.78 273.723 117.927 273.216 118.22C272.709 118.5 272.296 118.92 271.976 119.48C271.669 120.027 271.516 120.68 271.516 121.44C271.516 122.2 271.669 122.867 271.976 123.44C272.296 124.013 272.709 124.453 273.216 124.76C273.736 125.053 274.283 125.2 274.856 125.2C275.443 125.2 275.989 125.053 276.496 124.76C277.003 124.467 277.409 124.04 277.716 123.48C278.036 122.907 278.196 122.24 278.196 121.48ZM289.791 115.8C290.631 115.8 291.377 115.98 292.031 116.34C292.697 116.7 293.217 117.233 293.591 117.94C293.977 118.647 294.171 119.5 294.171 120.5V127H291.911V120.84C291.911 119.853 291.664 119.1 291.171 118.58C290.677 118.047 290.004 117.78 289.151 117.78C288.297 117.78 287.617 118.047 287.111 118.58C286.617 119.1 286.371 119.853 286.371 120.84V127H284.091V112.2H286.371V117.26C286.757 116.793 287.244 116.433 287.831 116.18C288.431 115.927 289.084 115.8 289.791 115.8ZM305.754 117.6C306.141 117.093 306.668 116.667 307.334 116.32C308.001 115.973 308.754 115.8 309.594 115.8C310.554 115.8 311.428 116.04 312.214 116.52C313.014 116.987 313.641 117.647 314.094 118.5C314.548 119.353 314.774 120.333 314.774 121.44C314.774 122.547 314.548 123.54 314.094 124.42C313.641 125.287 313.014 125.967 312.214 126.46C311.428 126.94 310.554 127.18 309.594 127.18C308.754 127.18 308.008 127.013 307.354 126.68C306.701 126.333 306.168 125.907 305.754 125.4V132.24H303.474V115.98H305.754V117.6ZM312.454 121.44C312.454 120.68 312.294 120.027 311.974 119.48C311.668 118.92 311.254 118.5 310.734 118.22C310.228 117.927 309.681 117.78 309.094 117.78C308.521 117.78 307.974 117.927 307.454 118.22C306.948 118.513 306.534 118.94 306.214 119.5C305.908 120.06 305.754 120.72 305.754 121.48C305.754 122.24 305.908 122.907 306.214 123.48C306.534 124.04 306.948 124.467 307.454 124.76C307.974 125.053 308.521 125.2 309.094 125.2C309.681 125.2 310.228 125.053 310.734 124.76C311.254 124.453 311.668 124.013 311.974 123.44C312.294 122.867 312.454 122.2 312.454 121.44ZM327.729 121.22C327.729 121.633 327.702 122.007 327.649 122.34H319.229C319.296 123.22 319.622 123.927 320.209 124.46C320.796 124.993 321.516 125.26 322.369 125.26C323.596 125.26 324.462 124.747 324.969 123.72H327.429C327.096 124.733 326.489 125.567 325.609 126.22C324.742 126.86 323.662 127.18 322.369 127.18C321.316 127.18 320.369 126.947 319.529 126.48C318.702 126 318.049 125.333 317.569 124.48C317.102 123.613 316.869 122.613 316.869 121.48C316.869 120.347 317.096 119.353 317.549 118.5C318.016 117.633 318.662 116.967 319.489 116.5C320.329 116.033 321.289 115.8 322.369 115.8C323.409 115.8 324.336 116.027 325.149 116.48C325.962 116.933 326.596 117.573 327.049 118.4C327.502 119.213 327.729 120.153 327.729 121.22ZM325.349 120.5C325.336 119.66 325.036 118.987 324.449 118.48C323.862 117.973 323.136 117.72 322.269 117.72C321.482 117.72 320.809 117.973 320.249 118.48C319.689 118.973 319.356 119.647 319.249 120.5H325.349ZM336.133 115.8C336.999 115.8 337.773 115.98 338.453 116.34C339.146 116.7 339.686 117.233 340.073 117.94C340.459 118.647 340.653 119.5 340.653 120.5V127H338.393V120.84C338.393 119.853 338.146 119.1 337.653 118.58C337.159 118.047 336.486 117.78 335.633 117.78C334.779 117.78 334.099 118.047 333.593 118.58C333.099 119.1 332.853 119.853 332.853 120.84V127H330.573V115.98H332.853V117.24C333.226 116.787 333.699 116.433 334.273 116.18C334.859 115.927 335.479 115.8 336.133 115.8ZM343.401 121.48C343.401 120.347 343.628 119.353 344.081 118.5C344.548 117.633 345.188 116.967 346.001 116.5C346.814 116.033 347.748 115.8 348.801 115.8C350.134 115.8 351.234 116.12 352.101 116.76C352.981 117.387 353.574 118.287 353.881 119.46H351.421C351.221 118.913 350.901 118.487 350.461 118.18C350.021 117.873 349.468 117.72 348.801 117.72C347.868 117.72 347.121 118.053 346.561 118.72C346.014 119.373 345.741 120.293 345.741 121.48C345.741 122.667 346.014 123.593 346.561 124.26C347.121 124.927 347.868 125.26 348.801 125.26C350.121 125.26 350.994 124.68 351.421 123.52H353.881C353.561 124.64 352.961 125.533 352.081 126.2C351.201 126.853 350.108 127.18 348.801 127.18C347.748 127.18 346.814 126.947 346.001 126.48C345.188 126 344.548 125.333 344.081 124.48C343.628 123.613 343.401 122.613 343.401 121.48ZM355.993 121.44C355.993 120.333 356.22 119.353 356.673 118.5C357.14 117.647 357.766 116.987 358.553 116.52C359.353 116.04 360.233 115.8 361.193 115.8C362.06 115.8 362.813 115.973 363.453 116.32C364.106 116.653 364.626 117.073 365.013 117.58V115.98H367.313V127H365.013V125.36C364.626 125.88 364.1 126.313 363.433 126.66C362.766 127.007 362.006 127.18 361.153 127.18C360.206 127.18 359.34 126.94 358.553 126.46C357.766 125.967 357.14 125.287 356.673 124.42C356.22 123.54 355.993 122.547 355.993 121.44ZM365.013 121.48C365.013 120.72 364.853 120.06 364.533 119.5C364.226 118.94 363.82 118.513 363.313 118.22C362.806 117.927 362.26 117.78 361.673 117.78C361.086 117.78 360.54 117.927 360.033 118.22C359.526 118.5 359.113 118.92 358.793 119.48C358.486 120.027 358.333 120.68 358.333 121.44C358.333 122.2 358.486 122.867 358.793 123.44C359.113 124.013 359.526 124.453 360.033 124.76C360.553 125.053 361.1 125.2 361.673 125.2C362.26 125.2 362.806 125.053 363.313 124.76C363.82 124.467 364.226 124.04 364.533 123.48C364.853 122.907 365.013 122.24 365.013 121.48ZM373.568 117.84V123.94C373.568 124.353 373.661 124.653 373.848 124.84C374.048 125.013 374.381 125.1 374.848 125.1H376.248V127H374.448C373.421 127 372.634 126.76 372.088 126.28C371.541 125.8 371.268 125.02 371.268 123.94V117.84H369.968V115.98H371.268V113.24H373.568V115.98H376.248V117.84H373.568ZM378.189 121.44C378.189 120.333 378.416 119.353 378.869 118.5C379.336 117.647 379.963 116.987 380.749 116.52C381.549 116.04 382.429 115.8 383.389 115.8C384.256 115.8 385.009 115.973 385.649 116.32C386.303 116.653 386.823 117.073 387.209 117.58V115.98H389.509V127H387.209V125.36C386.823 125.88 386.296 126.313 385.629 126.66C384.963 127.007 384.203 127.18 383.349 127.18C382.403 127.18 381.536 126.94 380.749 126.46C379.963 125.967 379.336 125.287 378.869 124.42C378.416 123.54 378.189 122.547 378.189 121.44ZM387.209 121.48C387.209 120.72 387.049 120.06 386.729 119.5C386.423 118.94 386.016 118.513 385.509 118.22C385.003 117.927 384.456 117.78 383.869 117.78C383.283 117.78 382.736 117.927 382.229 118.22C381.723 118.5 381.309 118.92 380.989 119.48C380.683 120.027 380.529 120.68 380.529 121.44C380.529 122.2 380.683 122.867 380.989 123.44C381.309 124.013 381.723 124.453 382.229 124.76C382.749 125.053 383.296 125.2 383.869 125.2C384.456 125.2 385.003 125.053 385.509 124.76C386.016 124.467 386.423 124.04 386.729 123.48C387.049 122.907 387.209 122.24 387.209 121.48ZM395.764 117.84V123.94C395.764 124.353 395.857 124.653 396.044 124.84C396.244 125.013 396.577 125.1 397.044 125.1H398.444V127H396.644C395.617 127 394.831 126.76 394.284 126.28C393.737 125.8 393.464 125.02 393.464 123.94V117.84H392.164V115.98H393.464V113.24H395.764V115.98H398.444V117.84H395.764ZM400.385 121.44C400.385 120.333 400.612 119.353 401.065 118.5C401.532 117.647 402.159 116.987 402.945 116.52C403.745 116.04 404.625 115.8 405.585 115.8C406.452 115.8 407.205 115.973 407.845 116.32C408.499 116.653 409.019 117.073 409.405 117.58V115.98H411.705V127H409.405V125.36C409.019 125.88 408.492 126.313 407.825 126.66C407.159 127.007 406.399 127.18 405.545 127.18C404.599 127.18 403.732 126.94 402.945 126.46C402.159 125.967 401.532 125.287 401.065 124.42C400.612 123.54 400.385 122.547 400.385 121.44ZM409.405 121.48C409.405 120.72 409.245 120.06 408.925 119.5C408.619 118.94 408.212 118.513 407.705 118.22C407.199 117.927 406.652 117.78 406.065 117.78C405.479 117.78 404.932 117.927 404.425 118.22C403.919 118.5 403.505 118.92 403.185 119.48C402.879 120.027 402.725 120.68 402.725 121.44C402.725 122.2 402.879 122.867 403.185 123.44C403.505 124.013 403.919 124.453 404.425 124.76C404.945 125.053 405.492 125.2 406.065 125.2C406.652 125.2 407.199 125.053 407.705 124.76C408.212 124.467 408.619 124.04 408.925 123.48C409.245 122.907 409.405 122.24 409.405 121.48ZM420.86 115.8C421.727 115.8 422.5 115.98 423.18 116.34C423.873 116.7 424.413 117.233 424.8 117.94C425.187 118.647 425.38 119.5 425.38 120.5V127H423.12V120.84C423.12 119.853 422.873 119.1 422.38 118.58C421.887 118.047 421.213 117.78 420.36 117.78C419.507 117.78 418.827 118.047 418.32 118.58C417.827 119.1 417.58 119.853 417.58 120.84V127H415.3V115.98H417.58V117.24C417.953 116.787 418.427 116.433 419 116.18C419.587 115.927 420.207 115.8 420.86 115.8ZM433.924 121.44C433.924 120.333 434.15 119.353 434.604 118.5C435.07 117.647 435.697 116.987 436.484 116.52C437.284 116.04 438.17 115.8 439.144 115.8C439.864 115.8 440.57 115.96 441.264 116.28C441.97 116.587 442.53 117 442.944 117.52V112.2H445.244V127H442.944V125.34C442.57 125.873 442.05 126.313 441.384 126.66C440.73 127.007 439.977 127.18 439.124 127.18C438.164 127.18 437.284 126.94 436.484 126.46C435.697 125.967 435.07 125.287 434.604 124.42C434.15 123.54 433.924 122.547 433.924 121.44ZM442.944 121.48C442.944 120.72 442.784 120.06 442.464 119.5C442.157 118.94 441.75 118.513 441.244 118.22C440.737 117.927 440.19 117.78 439.604 117.78C439.017 117.78 438.47 117.927 437.964 118.22C437.457 118.5 437.044 118.92 436.724 119.48C436.417 120.027 436.264 120.68 436.264 121.44C436.264 122.2 436.417 122.867 436.724 123.44C437.044 124.013 437.457 124.453 437.964 124.76C438.484 125.053 439.03 125.2 439.604 125.2C440.19 125.2 440.737 125.053 441.244 124.76C441.75 124.467 442.157 124.04 442.464 123.48C442.784 122.907 442.944 122.24 442.944 121.48ZM448.078 121.44C448.078 120.333 448.305 119.353 448.758 118.5C449.225 117.647 449.852 116.987 450.638 116.52C451.438 116.04 452.318 115.8 453.278 115.8C454.145 115.8 454.898 115.973 455.538 116.32C456.192 116.653 456.712 117.073 457.098 117.58V115.98H459.398V127H457.098V125.36C456.712 125.88 456.185 126.313 455.518 126.66C454.852 127.007 454.092 127.18 453.238 127.18C452.292 127.18 451.425 126.94 450.638 126.46C449.852 125.967 449.225 125.287 448.758 124.42C448.305 123.54 448.078 122.547 448.078 121.44ZM457.098 121.48C457.098 120.72 456.938 120.06 456.618 119.5C456.312 118.94 455.905 118.513 455.398 118.22C454.892 117.927 454.345 117.78 453.758 117.78C453.172 117.78 452.625 117.927 452.118 118.22C451.612 118.5 451.198 118.92 450.878 119.48C450.572 120.027 450.418 120.68 450.418 121.44C450.418 122.2 450.572 122.867 450.878 123.44C451.198 124.013 451.612 124.453 452.118 124.76C452.638 125.053 453.185 125.2 453.758 125.2C454.345 125.2 454.892 125.053 455.398 124.76C455.905 124.467 456.312 124.04 456.618 123.48C456.938 122.907 457.098 122.24 457.098 121.48ZM468.553 115.8C469.42 115.8 470.193 115.98 470.873 116.34C471.566 116.7 472.106 117.233 472.493 117.94C472.88 118.647 473.073 119.5 473.073 120.5V127H470.813V120.84C470.813 119.853 470.566 119.1 470.073 118.58C469.58 118.047 468.906 117.78 468.053 117.78C467.2 117.78 466.52 118.047 466.013 118.58C465.52 119.1 465.273 119.853 465.273 120.84V127H462.993V115.98H465.273V117.24C465.646 116.787 466.12 116.433 466.693 116.18C467.28 115.927 467.9 115.8 468.553 115.8ZM2.78 142.6C3.16667 142.093 3.69333 141.667 4.36 141.32C5.02667 140.973 5.78 140.8 6.62 140.8C7.58 140.8 8.45333 141.04 9.24 141.52C10.04 141.987 10.6667 142.647 11.12 143.5C11.5733 144.353 11.8 145.333 11.8 146.44C11.8 147.547 11.5733 148.54 11.12 149.42C10.6667 150.287 10.04 150.967 9.24 151.46C8.45333 151.94 7.58 152.18 6.62 152.18C5.78 152.18 5.03333 152.013 4.38 151.68C3.72667 151.333 3.19333 150.907 2.78 150.4V157.24H0.5V140.98H2.78V142.6ZM9.48 146.44C9.48 145.68 9.32 145.027 9 144.48C8.69333 143.92 8.28 143.5 7.76 143.22C7.25333 142.927 6.70667 142.78 6.12 142.78C5.54667 142.78 5 142.927 4.48 143.22C3.97333 143.513 3.56 143.94 3.24 144.5C2.93333 145.06 2.78 145.72 2.78 146.48C2.78 147.24 2.93333 147.907 3.24 148.48C3.56 149.04 3.97333 149.467 4.48 149.76C5 150.053 5.54667 150.2 6.12 150.2C6.70667 150.2 7.25333 150.053 7.76 149.76C8.28 149.453 8.69333 149.013 9 148.44C9.32 147.867 9.48 147.2 9.48 146.44ZM24.7547 146.22C24.7547 146.633 24.728 147.007 24.6747 147.34H16.2547C16.3214 148.22 16.648 148.927 17.2347 149.46C17.8214 149.993 18.5414 150.26 19.3947 150.26C20.6214 150.26 21.488 149.747 21.9947 148.72H24.4547C24.1214 149.733 23.5147 150.567 22.6347 151.22C21.768 151.86 20.688 152.18 19.3947 152.18C18.3414 152.18 17.3947 151.947 16.5547 151.48C15.728 151 15.0747 150.333 14.5947 149.48C14.128 148.613 13.8947 147.613 13.8947 146.48C13.8947 145.347 14.1214 144.353 14.5747 143.5C15.0414 142.633 15.688 141.967 16.5147 141.5C17.3547 141.033 18.3147 140.8 19.3947 140.8C20.4347 140.8 21.3614 141.027 22.1747 141.48C22.988 141.933 23.6214 142.573 24.0747 143.4C24.528 144.213 24.7547 145.153 24.7547 146.22ZM22.3747 145.5C22.3614 144.66 22.0614 143.987 21.4747 143.48C20.888 142.973 20.1614 142.72 19.2947 142.72C18.508 142.72 17.8347 142.973 17.2747 143.48C16.7147 143.973 16.3814 144.647 16.2747 145.5H22.3747ZM33.1584 140.8C34.0251 140.8 34.7984 140.98 35.4784 141.34C36.1718 141.7 36.7118 142.233 37.0984 142.94C37.4851 143.647 37.6784 144.5 37.6784 145.5V152H35.4184V145.84C35.4184 144.853 35.1718 144.1 34.6784 143.58C34.1851 143.047 33.5118 142.78 32.6584 142.78C31.8051 142.78 31.1251 143.047 30.6184 143.58C30.1251 144.1 29.8784 144.853 29.8784 145.84V152H27.5984V140.98H29.8784V142.24C30.2518 141.787 30.7251 141.433 31.2984 141.18C31.8851 140.927 32.5051 140.8 33.1584 140.8ZM45.6267 140.8C46.4801 140.8 47.2334 140.973 47.8867 141.32C48.5534 141.653 49.0734 142.073 49.4467 142.58V140.98H51.7467V152.18C51.7467 153.193 51.5334 154.093 51.1067 154.88C50.6801 155.68 50.0601 156.307 49.2467 156.76C48.4467 157.213 47.4867 157.44 46.3667 157.44C44.8734 157.44 43.6334 157.087 42.6467 156.38C41.6601 155.687 41.1001 154.74 40.9667 153.54H43.2267C43.4001 154.113 43.7667 154.573 44.3267 154.92C44.9001 155.28 45.5801 155.46 46.3667 155.46C47.2867 155.46 48.0267 155.18 48.5867 154.62C49.1601 154.06 49.4467 153.247 49.4467 152.18V150.34C49.0601 150.86 48.5334 151.3 47.8667 151.66C47.2134 152.007 46.4667 152.18 45.6267 152.18C44.6667 152.18 43.7867 151.94 42.9867 151.46C42.2001 150.967 41.5734 150.287 41.1067 149.42C40.6534 148.54 40.4267 147.547 40.4267 146.44C40.4267 145.333 40.6534 144.353 41.1067 143.5C41.5734 142.647 42.2001 141.987 42.9867 141.52C43.7867 141.04 44.6667 140.8 45.6267 140.8ZM49.4467 146.48C49.4467 145.72 49.2867 145.06 48.9667 144.5C48.6601 143.94 48.2534 143.513 47.7467 143.22C47.2401 142.927 46.6934 142.78 46.1067 142.78C45.5201 142.78 44.9734 142.927 44.4667 143.22C43.9601 143.5 43.5467 143.92 43.2267 144.48C42.9201 145.027 42.7667 145.68 42.7667 146.44C42.7667 147.2 42.9201 147.867 43.2267 148.44C43.5467 149.013 43.9601 149.453 44.4667 149.76C44.9867 150.053 45.5334 150.2 46.1067 150.2C46.6934 150.2 47.2401 150.053 47.7467 149.76C48.2534 149.467 48.6601 149.04 48.9667 148.48C49.2867 147.907 49.4467 147.24 49.4467 146.48ZM65.4414 146.22C65.4414 146.633 65.4147 147.007 65.3614 147.34H56.9414C57.0081 148.22 57.3347 148.927 57.9214 149.46C58.5081 149.993 59.2281 150.26 60.0814 150.26C61.3081 150.26 62.1747 149.747 62.6814 148.72H65.1414C64.8081 149.733 64.2014 150.567 63.3214 151.22C62.4547 151.86 61.3747 152.18 60.0814 152.18C59.0281 152.18 58.0814 151.947 57.2414 151.48C56.4147 151 55.7614 150.333 55.2814 149.48C54.8147 148.613 54.5814 147.613 54.5814 146.48C54.5814 145.347 54.8081 144.353 55.2614 143.5C55.7281 142.633 56.3747 141.967 57.2014 141.5C58.0414 141.033 59.0014 140.8 60.0814 140.8C61.1214 140.8 62.0481 141.027 62.8614 141.48C63.6747 141.933 64.3081 142.573 64.7614 143.4C65.2147 144.213 65.4414 145.153 65.4414 146.22ZM63.0614 145.5C63.0481 144.66 62.7481 143.987 62.1614 143.48C61.5747 142.973 60.8481 142.72 59.9814 142.72C59.1947 142.72 58.5214 142.973 57.9614 143.48C57.4014 143.973 57.0681 144.647 56.9614 145.5H63.0614ZM70.5652 137.2V152H68.2852V137.2H70.5652ZM78.9386 152.18C77.8986 152.18 76.9586 151.947 76.1186 151.48C75.2786 151 74.6186 150.333 74.1386 149.48C73.6586 148.613 73.4186 147.613 73.4186 146.48C73.4186 145.36 73.6653 144.367 74.1586 143.5C74.6519 142.633 75.3253 141.967 76.1786 141.5C77.0319 141.033 77.9853 140.8 79.0386 140.8C80.0919 140.8 81.0453 141.033 81.8986 141.5C82.7519 141.967 83.4253 142.633 83.9186 143.5C84.4119 144.367 84.6586 145.36 84.6586 146.48C84.6586 147.6 84.4053 148.593 83.8986 149.46C83.3919 150.327 82.6986 151 81.8186 151.48C80.9519 151.947 79.9919 152.18 78.9386 152.18ZM78.9386 150.2C79.5253 150.2 80.0719 150.06 80.5786 149.78C81.0986 149.5 81.5186 149.08 81.8386 148.52C82.1586 147.96 82.3186 147.28 82.3186 146.48C82.3186 145.68 82.1653 145.007 81.8586 144.46C81.5519 143.9 81.1453 143.48 80.6386 143.2C80.1319 142.92 79.5853 142.78 78.9986 142.78C78.4119 142.78 77.8653 142.92 77.3586 143.2C76.8653 143.48 76.4719 143.9 76.1786 144.46C75.8853 145.007 75.7386 145.68 75.7386 146.48C75.7386 147.667 76.0386 148.587 76.6386 149.24C77.2519 149.88 78.0186 150.2 78.9386 150.2ZM89.7925 137.2V152H87.5125V137.2H89.7925ZM92.6259 146.44C92.6259 145.333 92.8526 144.353 93.3059 143.5C93.7726 142.647 94.3993 141.987 95.1859 141.52C95.9859 141.04 96.8659 140.8 97.8259 140.8C98.6926 140.8 99.4459 140.973 100.086 141.32C100.739 141.653 101.259 142.073 101.646 142.58V140.98H103.946V152H101.646V150.36C101.259 150.88 100.733 151.313 100.066 151.66C99.3993 152.007 98.6393 152.18 97.7859 152.18C96.8393 152.18 95.9726 151.94 95.1859 151.46C94.3993 150.967 93.7726 150.287 93.3059 149.42C92.8526 148.54 92.6259 147.547 92.6259 146.44ZM101.646 146.48C101.646 145.72 101.486 145.06 101.166 144.5C100.859 143.94 100.453 143.513 99.9459 143.22C99.4393 142.927 98.8926 142.78 98.3059 142.78C97.7193 142.78 97.1726 142.927 96.6659 143.22C96.1593 143.5 95.7459 143.92 95.4259 144.48C95.1193 145.027 94.9659 145.68 94.9659 146.44C94.9659 147.2 95.1193 147.867 95.4259 148.44C95.7459 149.013 96.1593 149.453 96.6659 149.76C97.1859 150.053 97.7326 150.2 98.3059 150.2C98.8926 150.2 99.4393 150.053 99.9459 149.76C100.453 149.467 100.859 149.04 101.166 148.48C101.486 147.907 101.646 147.24 101.646 146.48ZM106.781 146.44C106.781 145.333 107.007 144.353 107.461 143.5C107.927 142.647 108.554 141.987 109.341 141.52C110.141 141.04 111.021 140.8 111.981 140.8C112.847 140.8 113.601 140.973 114.241 141.32C114.894 141.653 115.414 142.073 115.801 142.58V140.98H118.101V152H115.801V150.36C115.414 150.88 114.887 151.313 114.221 151.66C113.554 152.007 112.794 152.18 111.941 152.18C110.994 152.18 110.127 151.94 109.341 151.46C108.554 150.967 107.927 150.287 107.461 149.42C107.007 148.54 106.781 147.547 106.781 146.44ZM115.801 146.48C115.801 145.72 115.641 145.06 115.321 144.5C115.014 143.94 114.607 143.513 114.101 143.22C113.594 142.927 113.047 142.78 112.461 142.78C111.874 142.78 111.327 142.927 110.821 143.22C110.314 143.5 109.901 143.92 109.581 144.48C109.274 145.027 109.121 145.68 109.121 146.44C109.121 147.2 109.274 147.867 109.581 148.44C109.901 149.013 110.314 149.453 110.821 149.76C111.341 150.053 111.887 150.2 112.461 150.2C113.047 150.2 113.594 150.053 114.101 149.76C114.607 149.467 115.014 149.04 115.321 148.48C115.641 147.907 115.801 147.24 115.801 146.48ZM127.255 140.8C128.122 140.8 128.895 140.98 129.575 141.34C130.269 141.7 130.809 142.233 131.195 142.94C131.582 143.647 131.775 144.5 131.775 145.5V152H129.515V145.84C129.515 144.853 129.269 144.1 128.775 143.58C128.282 143.047 127.609 142.78 126.755 142.78C125.902 142.78 125.222 143.047 124.715 143.58C124.222 144.1 123.975 144.853 123.975 145.84V152H121.695V140.98H123.975V142.24C124.349 141.787 124.822 141.433 125.395 141.18C125.982 140.927 126.602 140.8 127.255 140.8ZM140.319 146.44C140.319 145.333 140.546 144.353 140.999 143.5C141.466 142.647 142.092 141.987 142.879 141.52C143.679 141.04 144.566 140.8 145.539 140.8C146.259 140.8 146.966 140.96 147.659 141.28C148.366 141.587 148.926 142 149.339 142.52V137.2H151.639V152H149.339V150.34C148.966 150.873 148.446 151.313 147.779 151.66C147.126 152.007 146.372 152.18 145.519 152.18C144.559 152.18 143.679 151.94 142.879 151.46C142.092 150.967 141.466 150.287 140.999 149.42C140.546 148.54 140.319 147.547 140.319 146.44ZM149.339 146.48C149.339 145.72 149.179 145.06 148.859 144.5C148.552 143.94 148.146 143.513 147.639 143.22C147.132 142.927 146.586 142.78 145.999 142.78C145.412 142.78 144.866 142.927 144.359 143.22C143.852 143.5 143.439 143.92 143.119 144.48C142.812 145.027 142.659 145.68 142.659 146.44C142.659 147.2 142.812 147.867 143.119 148.44C143.439 149.013 143.852 149.453 144.359 149.76C144.879 150.053 145.426 150.2 145.999 150.2C146.586 150.2 147.132 150.053 147.639 149.76C148.146 149.467 148.552 149.04 148.859 148.48C149.179 147.907 149.339 147.24 149.339 146.48ZM154.474 146.44C154.474 145.333 154.7 144.353 155.154 143.5C155.62 142.647 156.247 141.987 157.034 141.52C157.834 141.04 158.714 140.8 159.674 140.8C160.54 140.8 161.294 140.973 161.934 141.32C162.587 141.653 163.107 142.073 163.494 142.58V140.98H165.794V152H163.494V150.36C163.107 150.88 162.58 151.313 161.914 151.66C161.247 152.007 160.487 152.18 159.634 152.18C158.687 152.18 157.82 151.94 157.034 151.46C156.247 150.967 155.62 150.287 155.154 149.42C154.7 148.54 154.474 147.547 154.474 146.44ZM163.494 146.48C163.494 145.72 163.334 145.06 163.014 144.5C162.707 143.94 162.3 143.513 161.794 143.22C161.287 142.927 160.74 142.78 160.154 142.78C159.567 142.78 159.02 142.927 158.514 143.22C158.007 143.5 157.594 143.92 157.274 144.48C156.967 145.027 156.814 145.68 156.814 146.44C156.814 147.2 156.967 147.867 157.274 148.44C157.594 149.013 158.007 149.453 158.514 149.76C159.034 150.053 159.58 150.2 160.154 150.2C160.74 150.2 161.287 150.053 161.794 149.76C162.3 149.467 162.707 149.04 163.014 148.48C163.334 147.907 163.494 147.24 163.494 146.48ZM172.048 142.84V148.94C172.048 149.353 172.142 149.653 172.328 149.84C172.528 150.013 172.862 150.1 173.328 150.1H174.728V152H172.928C171.902 152 171.115 151.76 170.568 151.28C170.022 150.8 169.748 150.02 169.748 148.94V142.84H168.448V140.98H169.748V138.24H172.048V140.98H174.728V142.84H172.048ZM176.67 146.44C176.67 145.333 176.896 144.353 177.35 143.5C177.816 142.647 178.443 141.987 179.23 141.52C180.03 141.04 180.91 140.8 181.87 140.8C182.736 140.8 183.49 140.973 184.13 141.32C184.783 141.653 185.303 142.073 185.69 142.58V140.98H187.99V152H185.69V150.36C185.303 150.88 184.776 151.313 184.11 151.66C183.443 152.007 182.683 152.18 181.83 152.18C180.883 152.18 180.016 151.94 179.23 151.46C178.443 150.967 177.816 150.287 177.35 149.42C176.896 148.54 176.67 147.547 176.67 146.44ZM185.69 146.48C185.69 145.72 185.53 145.06 185.21 144.5C184.903 143.94 184.496 143.513 183.99 143.22C183.483 142.927 182.936 142.78 182.35 142.78C181.763 142.78 181.216 142.927 180.71 143.22C180.203 143.5 179.79 143.92 179.47 144.48C179.163 145.027 179.01 145.68 179.01 146.44C179.01 147.2 179.163 147.867 179.47 148.44C179.79 149.013 180.203 149.453 180.71 149.76C181.23 150.053 181.776 150.2 182.35 150.2C182.936 150.2 183.483 150.053 183.99 149.76C184.496 149.467 184.903 149.04 185.21 148.48C185.53 147.907 185.69 147.24 185.69 146.48ZM201.74 146.5L206.82 152H203.74L199.66 147.26V152H197.38V137.2H199.66V145.8L203.66 140.98H206.82L201.74 146.5ZM219.034 140.98V152H216.754V150.7C216.394 151.153 215.921 151.513 215.334 151.78C214.761 152.033 214.147 152.16 213.494 152.16C212.627 152.16 211.847 151.98 211.154 151.62C210.474 151.26 209.934 150.727 209.534 150.02C209.147 149.313 208.954 148.46 208.954 147.46V140.98H211.214V147.12C211.214 148.107 211.461 148.867 211.954 149.4C212.447 149.92 213.121 150.18 213.974 150.18C214.827 150.18 215.501 149.92 215.994 149.4C216.501 148.867 216.754 148.107 216.754 147.12V140.98H219.034ZM228.202 140.8C229.069 140.8 229.842 140.98 230.522 141.34C231.216 141.7 231.756 142.233 232.142 142.94C232.529 143.647 232.722 144.5 232.722 145.5V152H230.462V145.84C230.462 144.853 230.216 144.1 229.722 143.58C229.229 143.047 228.556 142.78 227.702 142.78C226.849 142.78 226.169 143.047 225.662 143.58C225.169 144.1 224.922 144.853 224.922 145.84V152H222.642V140.98H224.922V142.24C225.296 141.787 225.769 141.433 226.342 141.18C226.929 140.927 227.549 140.8 228.202 140.8ZM237.39 139.52C236.977 139.52 236.63 139.38 236.35 139.1C236.07 138.82 235.93 138.473 235.93 138.06C235.93 137.647 236.07 137.3 236.35 137.02C236.63 136.74 236.977 136.6 237.39 136.6C237.79 136.6 238.13 136.74 238.41 137.02C238.69 137.3 238.83 137.647 238.83 138.06C238.83 138.473 238.69 138.82 238.41 139.1C238.13 139.38 237.79 139.52 237.39 139.52ZM238.51 154.16C238.51 155.24 238.237 156.02 237.69 156.5C237.157 156.993 236.377 157.24 235.35 157.24H234.17V155.32H234.95C235.417 155.32 235.744 155.227 235.93 155.04C236.13 154.867 236.23 154.573 236.23 154.16V140.98H238.51V154.16ZM252.084 140.98V152H249.804V150.7C249.444 151.153 248.971 151.513 248.384 151.78C247.811 152.033 247.197 152.16 246.544 152.16C245.677 152.16 244.897 151.98 244.204 151.62C243.524 151.26 242.984 150.727 242.584 150.02C242.197 149.313 242.004 148.46 242.004 147.46V140.98H244.264V147.12C244.264 148.107 244.511 148.867 245.004 149.4C245.497 149.92 246.171 150.18 247.024 150.18C247.877 150.18 248.551 149.92 249.044 149.4C249.551 148.867 249.804 148.107 249.804 147.12V140.98H252.084ZM261.252 140.8C262.119 140.8 262.892 140.98 263.572 141.34C264.266 141.7 264.806 142.233 265.192 142.94C265.579 143.647 265.772 144.5 265.772 145.5V152H263.512V145.84C263.512 144.853 263.266 144.1 262.772 143.58C262.279 143.047 261.606 142.78 260.752 142.78C259.899 142.78 259.219 143.047 258.712 143.58C258.219 144.1 257.972 144.853 257.972 145.84V152H255.692V140.98H257.972V142.24C258.346 141.787 258.819 141.433 259.392 141.18C259.979 140.927 260.599 140.8 261.252 140.8ZM273.72 140.8C274.574 140.8 275.327 140.973 275.98 141.32C276.647 141.653 277.167 142.073 277.54 142.58V140.98H279.84V152.18C279.84 153.193 279.627 154.093 279.2 154.88C278.774 155.68 278.154 156.307 277.34 156.76C276.54 157.213 275.58 157.44 274.46 157.44C272.967 157.44 271.727 157.087 270.74 156.38C269.754 155.687 269.194 154.74 269.06 153.54H271.32C271.494 154.113 271.86 154.573 272.42 154.92C272.994 155.28 273.674 155.46 274.46 155.46C275.38 155.46 276.12 155.18 276.68 154.62C277.254 154.06 277.54 153.247 277.54 152.18V150.34C277.154 150.86 276.627 151.3 275.96 151.66C275.307 152.007 274.56 152.18 273.72 152.18C272.76 152.18 271.88 151.94 271.08 151.46C270.294 150.967 269.667 150.287 269.2 149.42C268.747 148.54 268.52 147.547 268.52 146.44C268.52 145.333 268.747 144.353 269.2 143.5C269.667 142.647 270.294 141.987 271.08 141.52C271.88 141.04 272.76 140.8 273.72 140.8ZM277.54 146.48C277.54 145.72 277.38 145.06 277.06 144.5C276.754 143.94 276.347 143.513 275.84 143.22C275.334 142.927 274.787 142.78 274.2 142.78C273.614 142.78 273.067 142.927 272.56 143.22C272.054 143.5 271.64 143.92 271.32 144.48C271.014 145.027 270.86 145.68 270.86 146.44C270.86 147.2 271.014 147.867 271.32 148.44C271.64 149.013 272.054 149.453 272.56 149.76C273.08 150.053 273.627 150.2 274.2 150.2C274.787 150.2 275.334 150.053 275.84 149.76C276.347 149.467 276.754 149.04 277.06 148.48C277.38 147.907 277.54 147.24 277.54 146.48ZM282.675 146.44C282.675 145.333 282.902 144.353 283.355 143.5C283.822 142.647 284.448 141.987 285.235 141.52C286.035 141.04 286.915 140.8 287.875 140.8C288.742 140.8 289.495 140.973 290.135 141.32C290.788 141.653 291.308 142.073 291.695 142.58V140.98H293.995V152H291.695V150.36C291.308 150.88 290.782 151.313 290.115 151.66C289.448 152.007 288.688 152.18 287.835 152.18C286.888 152.18 286.022 151.94 285.235 151.46C284.448 150.967 283.822 150.287 283.355 149.42C282.902 148.54 282.675 147.547 282.675 146.44ZM291.695 146.48C291.695 145.72 291.535 145.06 291.215 144.5C290.908 143.94 290.502 143.513 289.995 143.22C289.488 142.927 288.942 142.78 288.355 142.78C287.768 142.78 287.222 142.927 286.715 143.22C286.208 143.5 285.795 143.92 285.475 144.48C285.168 145.027 285.015 145.68 285.015 146.44C285.015 147.2 285.168 147.867 285.475 148.44C285.795 149.013 286.208 149.453 286.715 149.76C287.235 150.053 287.782 150.2 288.355 150.2C288.942 150.2 289.488 150.053 289.995 149.76C290.502 149.467 290.908 149.04 291.215 148.48C291.535 147.907 291.695 147.24 291.695 146.48ZM303.15 140.8C304.017 140.8 304.79 140.98 305.47 141.34C306.163 141.7 306.703 142.233 307.09 142.94C307.477 143.647 307.67 144.5 307.67 145.5V152H305.41V145.84C305.41 144.853 305.163 144.1 304.67 143.58C304.177 143.047 303.503 142.78 302.65 142.78C301.797 142.78 301.117 143.047 300.61 143.58C300.117 144.1 299.87 144.853 299.87 145.84V152H297.59V140.98H299.87V142.24C300.243 141.787 300.717 141.433 301.29 141.18C301.877 140.927 302.497 140.8 303.15 140.8ZM316.213 146.44C316.213 145.333 316.44 144.353 316.893 143.5C317.36 142.647 317.987 141.987 318.773 141.52C319.573 141.04 320.46 140.8 321.433 140.8C322.153 140.8 322.86 140.96 323.553 141.28C324.26 141.587 324.82 142 325.233 142.52V137.2H327.533V152H325.233V150.34C324.86 150.873 324.34 151.313 323.673 151.66C323.02 152.007 322.267 152.18 321.413 152.18C320.453 152.18 319.573 151.94 318.773 151.46C317.987 150.967 317.36 150.287 316.893 149.42C316.44 148.54 316.213 147.547 316.213 146.44ZM325.233 146.48C325.233 145.72 325.073 145.06 324.753 144.5C324.447 143.94 324.04 143.513 323.533 143.22C323.027 142.927 322.48 142.78 321.893 142.78C321.307 142.78 320.76 142.927 320.253 143.22C319.747 143.5 319.333 143.92 319.013 144.48C318.707 145.027 318.553 145.68 318.553 146.44C318.553 147.2 318.707 147.867 319.013 148.44C319.333 149.013 319.747 149.453 320.253 149.76C320.773 150.053 321.32 150.2 321.893 150.2C322.48 150.2 323.027 150.053 323.533 149.76C324.04 149.467 324.447 149.04 324.753 148.48C325.073 147.907 325.233 147.24 325.233 146.48ZM332.288 139.52C331.875 139.52 331.528 139.38 331.248 139.1C330.968 138.82 330.828 138.473 330.828 138.06C330.828 137.647 330.968 137.3 331.248 137.02C331.528 136.74 331.875 136.6 332.288 136.6C332.688 136.6 333.028 136.74 333.308 137.02C333.588 137.3 333.728 137.647 333.728 138.06C333.728 138.473 333.588 138.82 333.308 139.1C333.028 139.38 332.688 139.52 332.288 139.52ZM333.408 140.98V152H331.128V140.98H333.408ZM346.797 152.18C345.93 152.18 345.15 152.027 344.457 151.72C343.777 151.4 343.237 150.973 342.837 150.44C342.437 149.893 342.224 149.287 342.197 148.62H344.557C344.597 149.087 344.817 149.48 345.217 149.8C345.63 150.107 346.144 150.26 346.757 150.26C347.397 150.26 347.89 150.14 348.237 149.9C348.597 149.647 348.777 149.327 348.777 148.94C348.777 148.527 348.577 148.22 348.177 148.02C347.79 147.82 347.17 147.6 346.317 147.36C345.49 147.133 344.817 146.913 344.297 146.7C343.777 146.487 343.324 146.16 342.937 145.72C342.564 145.28 342.377 144.7 342.377 143.98C342.377 143.393 342.55 142.86 342.897 142.38C343.244 141.887 343.737 141.5 344.377 141.22C345.03 140.94 345.777 140.8 346.617 140.8C347.87 140.8 348.877 141.12 349.637 141.76C350.41 142.387 350.824 143.247 350.877 144.34H348.597C348.557 143.847 348.357 143.453 347.997 143.16C347.637 142.867 347.15 142.72 346.537 142.72C345.937 142.72 345.477 142.833 345.157 143.06C344.837 143.287 344.677 143.587 344.677 143.96C344.677 144.253 344.784 144.5 344.997 144.7C345.21 144.9 345.47 145.06 345.777 145.18C346.084 145.287 346.537 145.427 347.137 145.6C347.937 145.813 348.59 146.033 349.097 146.26C349.617 146.473 350.064 146.793 350.437 147.22C350.81 147.647 351.004 148.213 351.017 148.92C351.017 149.547 350.844 150.107 350.497 150.6C350.15 151.093 349.657 151.48 349.017 151.76C348.39 152.04 347.65 152.18 346.797 152.18ZM364.18 146.22C364.18 146.633 364.154 147.007 364.1 147.34H355.68C355.747 148.22 356.074 148.927 356.66 149.46C357.247 149.993 357.967 150.26 358.82 150.26C360.047 150.26 360.914 149.747 361.42 148.72H363.88C363.547 149.733 362.94 150.567 362.06 151.22C361.194 151.86 360.114 152.18 358.82 152.18C357.767 152.18 356.82 151.947 355.98 151.48C355.154 151 354.5 150.333 354.02 149.48C353.554 148.613 353.32 147.613 353.32 146.48C353.32 145.347 353.547 144.353 354 143.5C354.467 142.633 355.114 141.967 355.94 141.5C356.78 141.033 357.74 140.8 358.82 140.8C359.86 140.8 360.787 141.027 361.6 141.48C362.414 141.933 363.047 142.573 363.5 143.4C363.954 144.213 364.18 145.153 364.18 146.22ZM361.8 145.5C361.787 144.66 361.487 143.987 360.9 143.48C360.314 142.973 359.587 142.72 358.72 142.72C357.934 142.72 357.26 142.973 356.7 143.48C356.14 143.973 355.807 144.647 355.7 145.5H361.8ZM371.384 146.5L376.464 152H373.384L369.304 147.26V152H367.024V137.2H369.304V145.8L373.304 140.98H376.464L371.384 146.5ZM383.478 152.18C382.438 152.18 381.498 151.947 380.658 151.48C379.818 151 379.158 150.333 378.678 149.48C378.198 148.613 377.958 147.613 377.958 146.48C377.958 145.36 378.205 144.367 378.698 143.5C379.192 142.633 379.865 141.967 380.718 141.5C381.572 141.033 382.525 140.8 383.578 140.8C384.632 140.8 385.585 141.033 386.438 141.5C387.292 141.967 387.965 142.633 388.458 143.5C388.952 144.367 389.198 145.36 389.198 146.48C389.198 147.6 388.945 148.593 388.438 149.46C387.932 150.327 387.238 151 386.358 151.48C385.492 151.947 384.532 152.18 383.478 152.18ZM383.478 150.2C384.065 150.2 384.612 150.06 385.118 149.78C385.638 149.5 386.058 149.08 386.378 148.52C386.698 147.96 386.858 147.28 386.858 146.48C386.858 145.68 386.705 145.007 386.398 144.46C386.092 143.9 385.685 143.48 385.178 143.2C384.672 142.92 384.125 142.78 383.538 142.78C382.952 142.78 382.405 142.92 381.898 143.2C381.405 143.48 381.012 143.9 380.718 144.46C380.425 145.007 380.278 145.68 380.278 146.48C380.278 147.667 380.578 148.587 381.178 149.24C381.792 149.88 382.558 150.2 383.478 150.2ZM394.332 137.2V152H392.052V137.2H394.332ZM397.166 146.44C397.166 145.333 397.392 144.353 397.846 143.5C398.312 142.647 398.939 141.987 399.726 141.52C400.526 141.04 401.406 140.8 402.366 140.8C403.232 140.8 403.986 140.973 404.626 141.32C405.279 141.653 405.799 142.073 406.186 142.58V140.98H408.486V152H406.186V150.36C405.799 150.88 405.272 151.313 404.606 151.66C403.939 152.007 403.179 152.18 402.326 152.18C401.379 152.18 400.512 151.94 399.726 151.46C398.939 150.967 398.312 150.287 397.846 149.42C397.392 148.54 397.166 147.547 397.166 146.44ZM406.186 146.48C406.186 145.72 406.026 145.06 405.706 144.5C405.399 143.94 404.992 143.513 404.486 143.22C403.979 142.927 403.432 142.78 402.846 142.78C402.259 142.78 401.712 142.927 401.206 143.22C400.699 143.5 400.286 143.92 399.966 144.48C399.659 145.027 399.506 145.68 399.506 146.44C399.506 147.2 399.659 147.867 399.966 148.44C400.286 149.013 400.699 149.453 401.206 149.76C401.726 150.053 402.272 150.2 402.846 150.2C403.432 150.2 403.979 150.053 404.486 149.76C404.992 149.467 405.399 149.04 405.706 148.48C406.026 147.907 406.186 147.24 406.186 146.48ZM417.78 140.8C418.62 140.8 419.367 140.98 420.02 141.34C420.687 141.7 421.207 142.233 421.58 142.94C421.967 143.647 422.16 144.5 422.16 145.5V152H419.9V145.84C419.9 144.853 419.654 144.1 419.16 143.58C418.667 143.047 417.994 142.78 417.14 142.78C416.287 142.78 415.607 143.047 415.1 143.58C414.607 144.1 414.36 144.853 414.36 145.84V152H412.08V137.2H414.36V142.26C414.747 141.793 415.234 141.433 415.82 141.18C416.42 140.927 417.074 140.8 417.78 140.8ZM426.589 152.14C426.175 152.14 425.829 152 425.549 151.72C425.269 151.44 425.129 151.093 425.129 150.68C425.129 150.267 425.269 149.92 425.549 149.64C425.829 149.36 426.175 149.22 426.589 149.22C426.989 149.22 427.329 149.36 427.609 149.64C427.889 149.92 428.029 150.267 428.029 150.68C428.029 151.093 427.889 151.44 427.609 151.72C427.329 152 426.989 152.14 426.589 152.14Z" fill="white"/>
</svg>
