<svg width="799" height="61" viewBox="0 0 799 61" fill="none" xmlns="http://www.w3.org/2000/svg">
<path d="M12.3952 2.32V4.552H7.95521V19H5.21921V4.552H0.755214V2.32H12.3952ZM22.4861 5.56C23.4941 5.56 24.3901 5.776 25.1741 6.208C25.9741 6.64 26.5981 7.28 27.0461 8.128C27.5101 8.976 27.7421 10 27.7421 11.2V19H25.0301V11.608C25.0301 10.424 24.7341 9.52 24.1421 8.896C23.5501 8.256 22.7421 7.936 21.7181 7.936C20.6941 7.936 19.8781 8.256 19.2701 8.896C18.6781 9.52 18.3821 10.424 18.3821 11.608V19H15.6461V1.24H18.3821V7.312C18.8461 6.752 19.4301 6.32 20.1341 6.016C20.8541 5.712 21.6381 5.56 22.4861 5.56ZM30.8 12.328C30.8 11 31.072 9.824 31.616 8.8C32.176 7.776 32.928 6.984 33.872 6.424C34.832 5.848 35.888 5.56 37.04 5.56C38.08 5.56 38.984 5.768 39.752 6.184C40.536 6.584 41.16 7.088 41.624 7.696V5.776H44.384V19H41.624V17.032C41.16 17.656 40.528 18.176 39.728 18.592C38.928 19.008 38.016 19.216 36.992 19.216C35.856 19.216 34.816 18.928 33.872 18.352C32.928 17.76 32.176 16.944 31.616 15.904C31.072 14.848 30.8 13.656 30.8 12.328ZM41.624 12.376C41.624 11.464 41.432 10.672 41.048 10C40.68 9.328 40.192 8.816 39.584 8.464C38.976 8.112 38.32 7.936 37.616 7.936C36.912 7.936 36.256 8.112 35.648 8.464C35.04 8.8 34.544 9.304 34.16 9.976C33.792 10.632 33.608 11.416 33.608 12.328C33.608 13.24 33.792 14.04 34.16 14.728C34.544 15.416 35.04 15.944 35.648 16.312C36.272 16.664 36.928 16.84 37.616 16.84C38.32 16.84 38.976 16.664 39.584 16.312C40.192 15.96 40.68 15.448 41.048 14.776C41.432 14.088 41.624 13.288 41.624 12.376ZM55.1297 5.56C56.1697 5.56 57.0977 5.776 57.9137 6.208C58.7457 6.64 59.3937 7.28 59.8577 8.128C60.3217 8.976 60.5537 10 60.5537 11.2V19H57.8417V11.608C57.8417 10.424 57.5457 9.52 56.9537 8.896C56.3617 8.256 55.5537 7.936 54.5297 7.936C53.5057 7.936 52.6897 8.256 52.0817 8.896C51.4897 9.52 51.1937 10.424 51.1937 11.608V19H48.4577V5.776H51.1937V7.288C51.6417 6.744 52.2097 6.32 52.8977 6.016C53.6017 5.712 54.3457 5.56 55.1297 5.56ZM69.7556 12.4L75.8516 19H72.1556L67.2596 13.312V19H64.5236V1.24H67.2596V11.56L72.0596 5.776H75.8516L69.7556 12.4ZM96.911 5.776L88.799 25.216H85.967L88.655 18.784L83.447 5.776H86.495L90.215 15.856L94.079 5.776H96.911ZM105.192 19.216C103.944 19.216 102.816 18.936 101.808 18.376C100.8 17.8 100.008 17 99.4318 15.976C98.8558 14.936 98.5678 13.736 98.5678 12.376C98.5678 11.032 98.8638 9.84 99.4558 8.8C100.048 7.76 100.856 6.96 101.88 6.4C102.904 5.84 104.048 5.56 105.312 5.56C106.576 5.56 107.72 5.84 108.744 6.4C109.768 6.96 110.576 7.76 111.168 8.8C111.76 9.84 112.056 11.032 112.056 12.376C112.056 13.72 111.752 14.912 111.144 15.952C110.536 16.992 109.704 17.8 108.648 18.376C107.608 18.936 106.456 19.216 105.192 19.216ZM105.192 16.84C105.896 16.84 106.552 16.672 107.16 16.336C107.784 16 108.288 15.496 108.672 14.824C109.056 14.152 109.248 13.336 109.248 12.376C109.248 11.416 109.064 10.608 108.696 9.952C108.328 9.28 107.84 8.776 107.232 8.44C106.624 8.104 105.968 7.936 105.264 7.936C104.56 7.936 103.904 8.104 103.296 8.44C102.704 8.776 102.232 9.28 101.88 9.952C101.528 10.608 101.352 11.416 101.352 12.376C101.352 13.8 101.712 14.904 102.432 15.688C103.168 16.456 104.088 16.84 105.192 16.84ZM127.216 5.776V19H124.48V17.44C124.048 17.984 123.48 18.416 122.776 18.736C122.088 19.04 121.352 19.192 120.568 19.192C119.528 19.192 118.592 18.976 117.76 18.544C116.944 18.112 116.296 17.472 115.816 16.624C115.352 15.776 115.12 14.752 115.12 13.552V5.776H117.832V13.144C117.832 14.328 118.128 15.24 118.72 15.88C119.312 16.504 120.12 16.816 121.144 16.816C122.168 16.816 122.976 16.504 123.568 15.88C124.176 15.24 124.48 14.328 124.48 13.144V5.776H127.216ZM143.565 8.008H141.117V19H138.357V8.008H136.797V5.776H138.357V4.84C138.357 3.32 138.757 2.216 139.557 1.528C140.373 0.823999 141.645 0.472 143.373 0.472V2.752C142.541 2.752 141.957 2.912 141.621 3.232C141.285 3.536 141.117 4.072 141.117 4.84V5.776H143.565V8.008ZM152.206 19.216C150.958 19.216 149.83 18.936 148.822 18.376C147.814 17.8 147.022 17 146.446 15.976C145.87 14.936 145.582 13.736 145.582 12.376C145.582 11.032 145.878 9.84 146.47 8.8C147.062 7.76 147.87 6.96 148.894 6.4C149.918 5.84 151.062 5.56 152.326 5.56C153.59 5.56 154.734 5.84 155.758 6.4C156.782 6.96 157.59 7.76 158.182 8.8C158.774 9.84 159.07 11.032 159.07 12.376C159.07 13.72 158.766 14.912 158.158 15.952C157.55 16.992 156.718 17.8 155.662 18.376C154.622 18.936 153.47 19.216 152.206 19.216ZM152.206 16.84C152.91 16.84 153.566 16.672 154.174 16.336C154.798 16 155.302 15.496 155.686 14.824C156.07 14.152 156.262 13.336 156.262 12.376C156.262 11.416 156.078 10.608 155.71 9.952C155.342 9.28 154.854 8.776 154.246 8.44C153.638 8.104 152.982 7.936 152.278 7.936C151.574 7.936 150.918 8.104 150.31 8.44C149.718 8.776 149.246 9.28 148.894 9.952C148.542 10.608 148.366 11.416 148.366 12.376C148.366 13.8 148.726 14.904 149.446 15.688C150.182 16.456 151.102 16.84 152.206 16.84ZM164.99 7.696C165.39 7.024 165.918 6.504 166.574 6.136C167.246 5.752 168.038 5.56 168.95 5.56V8.392H168.254C167.182 8.392 166.366 8.664 165.806 9.208C165.262 9.752 164.99 10.696 164.99 12.04V19H162.254V5.776H164.99V7.696ZM183.772 16.552L187.516 5.776H190.42L185.38 19H182.116L177.1 5.776H180.028L183.772 16.552ZM194.36 4.024C193.864 4.024 193.448 3.856 193.112 3.52C192.776 3.184 192.608 2.768 192.608 2.272C192.608 1.776 192.776 1.36 193.112 1.024C193.448 0.687999 193.864 0.519999 194.36 0.519999C194.84 0.519999 195.248 0.687999 195.584 1.024C195.92 1.36 196.088 1.776 196.088 2.272C196.088 2.768 195.92 3.184 195.584 3.52C195.248 3.856 194.84 4.024 194.36 4.024ZM195.704 5.776V19H192.968V5.776H195.704ZM204.576 19.216C203.536 19.216 202.6 19.032 201.768 18.664C200.952 18.28 200.304 17.768 199.824 17.128C199.344 16.472 199.088 15.744 199.056 14.944H201.888C201.936 15.504 202.2 15.976 202.68 16.36C203.176 16.728 203.792 16.912 204.528 16.912C205.296 16.912 205.888 16.768 206.304 16.48C206.736 16.176 206.952 15.792 206.952 15.328C206.952 14.832 206.712 14.464 206.232 14.224C205.768 13.984 205.024 13.72 204 13.432C203.008 13.16 202.2 12.896 201.576 12.64C200.952 12.384 200.408 11.992 199.944 11.464C199.496 10.936 199.272 10.24 199.272 9.376C199.272 8.672 199.48 8.032 199.896 7.456C200.312 6.864 200.904 6.4 201.672 6.064C202.456 5.728 203.352 5.56 204.36 5.56C205.864 5.56 207.072 5.944 207.984 6.712C208.912 7.464 209.408 8.496 209.472 9.808H206.736C206.688 9.216 206.448 8.744 206.016 8.392C205.584 8.04 205 7.864 204.264 7.864C203.544 7.864 202.992 8 202.608 8.272C202.224 8.544 202.032 8.904 202.032 9.352C202.032 9.704 202.16 10 202.416 10.24C202.672 10.48 202.984 10.672 203.352 10.816C203.72 10.944 204.264 11.112 204.984 11.32C205.944 11.576 206.728 11.84 207.336 12.112C207.96 12.368 208.496 12.752 208.944 13.264C209.392 13.776 209.624 14.456 209.64 15.304C209.64 16.056 209.432 16.728 209.016 17.32C208.6 17.912 208.008 18.376 207.24 18.712C206.488 19.048 205.6 19.216 204.576 19.216ZM214.468 4.024C213.972 4.024 213.556 3.856 213.22 3.52C212.884 3.184 212.716 2.768 212.716 2.272C212.716 1.776 212.884 1.36 213.22 1.024C213.556 0.687999 213.972 0.519999 214.468 0.519999C214.948 0.519999 215.356 0.687999 215.692 1.024C216.028 1.36 216.196 1.776 216.196 2.272C216.196 2.768 216.028 3.184 215.692 3.52C215.356 3.856 214.948 4.024 214.468 4.024ZM215.812 5.776V19H213.076V5.776H215.812ZM223.076 8.008V15.328C223.076 15.824 223.188 16.184 223.412 16.408C223.652 16.616 224.052 16.72 224.612 16.72H226.292V19H224.132C222.9 19 221.956 18.712 221.3 18.136C220.644 17.56 220.316 16.624 220.316 15.328V8.008H218.756V5.776H220.316V2.488H223.076V5.776H226.292V8.008H223.076ZM230.686 4.024C230.19 4.024 229.774 3.856 229.438 3.52C229.102 3.184 228.934 2.768 228.934 2.272C228.934 1.776 229.102 1.36 229.438 1.024C229.774 0.687999 230.19 0.519999 230.686 0.519999C231.166 0.519999 231.574 0.687999 231.91 1.024C232.246 1.36 232.414 1.776 232.414 2.272C232.414 2.768 232.246 3.184 231.91 3.52C231.574 3.856 231.166 4.024 230.686 4.024ZM232.03 5.776V19H229.294V5.776H232.03ZM242.774 5.56C243.814 5.56 244.742 5.776 245.558 6.208C246.39 6.64 247.038 7.28 247.502 8.128C247.966 8.976 248.198 10 248.198 11.2V19H245.486V11.608C245.486 10.424 245.19 9.52 244.598 8.896C244.006 8.256 243.198 7.936 242.174 7.936C241.15 7.936 240.334 8.256 239.726 8.896C239.134 9.52 238.838 10.424 238.838 11.608V19H236.102V5.776H238.838V7.288C239.286 6.744 239.854 6.32 240.542 6.016C241.246 5.712 241.99 5.56 242.774 5.56ZM257.496 5.56C258.52 5.56 259.424 5.768 260.208 6.184C261.008 6.584 261.632 7.088 262.08 7.696V5.776H264.84V19.216C264.84 20.432 264.584 21.512 264.072 22.456C263.56 23.416 262.816 24.168 261.84 24.712C260.88 25.256 259.728 25.528 258.384 25.528C256.592 25.528 255.104 25.104 253.92 24.256C252.736 23.424 252.064 22.288 251.904 20.848H254.616C254.824 21.536 255.264 22.088 255.936 22.504C256.624 22.936 257.44 23.152 258.384 23.152C259.488 23.152 260.376 22.816 261.048 22.144C261.736 21.472 262.08 20.496 262.08 19.216V17.008C261.616 17.632 260.984 18.16 260.184 18.592C259.4 19.008 258.504 19.216 257.496 19.216C256.344 19.216 255.288 18.928 254.328 18.352C253.384 17.76 252.632 16.944 252.072 15.904C251.528 14.848 251.256 13.656 251.256 12.328C251.256 11 251.528 9.824 252.072 8.8C252.632 7.776 253.384 6.984 254.328 6.424C255.288 5.848 256.344 5.56 257.496 5.56ZM262.08 12.376C262.08 11.464 261.888 10.672 261.504 10C261.136 9.328 260.648 8.816 260.04 8.464C259.432 8.112 258.776 7.936 258.072 7.936C257.368 7.936 256.712 8.112 256.104 8.464C255.496 8.8 255 9.304 254.616 9.976C254.248 10.632 254.064 11.416 254.064 12.328C254.064 13.24 254.248 14.04 254.616 14.728C255 15.416 255.496 15.944 256.104 16.312C256.728 16.664 257.384 16.84 258.072 16.84C258.776 16.84 259.432 16.664 260.04 16.312C260.648 15.96 261.136 15.448 261.504 14.776C261.888 14.088 262.08 13.288 262.08 12.376ZM281.124 19.168C280.004 19.168 278.996 18.976 278.1 18.592C277.204 18.192 276.5 17.632 275.988 16.912C275.476 16.192 275.22 15.352 275.22 14.392H278.148C278.212 15.112 278.492 15.704 278.988 16.168C279.5 16.632 280.212 16.864 281.124 16.864C282.068 16.864 282.804 16.64 283.332 16.192C283.86 15.728 284.124 15.136 284.124 14.416C284.124 13.856 283.956 13.4 283.62 13.048C283.3 12.696 282.892 12.424 282.396 12.232C281.916 12.04 281.244 11.832 280.38 11.608C279.292 11.32 278.404 11.032 277.716 10.744C277.044 10.44 276.468 9.976 275.988 9.352C275.508 8.728 275.268 7.896 275.268 6.856C275.268 5.896 275.508 5.056 275.988 4.336C276.468 3.616 277.14 3.064 278.004 2.68C278.868 2.296 279.868 2.104 281.004 2.104C282.62 2.104 283.94 2.512 284.964 3.328C286.004 4.128 286.58 5.232 286.692 6.64H283.668C283.62 6.032 283.332 5.512 282.804 5.08C282.276 4.648 281.58 4.432 280.716 4.432C279.932 4.432 279.292 4.632 278.796 5.032C278.3 5.432 278.052 6.008 278.052 6.76C278.052 7.272 278.204 7.696 278.508 8.032C278.828 8.352 279.228 8.608 279.708 8.8C280.188 8.992 280.844 9.2 281.676 9.424C282.78 9.728 283.676 10.032 284.364 10.336C285.068 10.64 285.66 11.112 286.14 11.752C286.636 12.376 286.884 13.216 286.884 14.272C286.884 15.12 286.652 15.92 286.188 16.672C285.74 17.424 285.076 18.032 284.196 18.496C283.332 18.944 282.308 19.168 281.124 19.168ZM308.16 2.32V19H305.424V7.576L300.336 19H298.44L293.328 7.576V19H290.592V2.32H293.544L299.4 15.4L305.232 2.32H308.16ZM321.428 19L314.972 11.536V19H312.236V2.32H314.972V9.928L321.452 2.32H324.884L317.636 10.672L325.004 19H321.428ZM345.394 2.32V4.552H340.954V19H338.218V4.552H333.754V2.32H345.394ZM360.765 12.064C360.765 12.56 360.733 13.008 360.669 13.408H350.565C350.645 14.464 351.037 15.312 351.741 15.952C352.445 16.592 353.309 16.912 354.333 16.912C355.805 16.912 356.845 16.296 357.453 15.064H360.405C360.005 16.28 359.277 17.28 358.221 18.064C357.181 18.832 355.885 19.216 354.333 19.216C353.069 19.216 351.933 18.936 350.925 18.376C349.933 17.8 349.149 17 348.573 15.976C348.013 14.936 347.733 13.736 347.733 12.376C347.733 11.016 348.005 9.824 348.549 8.8C349.109 7.76 349.885 6.96 350.877 6.4C351.885 5.84 353.037 5.56 354.333 5.56C355.581 5.56 356.693 5.832 357.669 6.376C358.645 6.92 359.405 7.688 359.949 8.68C360.493 9.656 360.765 10.784 360.765 12.064ZM357.909 11.2C357.893 10.192 357.533 9.384 356.829 8.776C356.125 8.168 355.253 7.864 354.213 7.864C353.269 7.864 352.461 8.168 351.789 8.776C351.117 9.368 350.717 10.176 350.589 11.2H357.909ZM366.674 1.24V19H363.938V1.24H366.674ZM375.978 12.4L382.074 19H378.378L373.482 13.312V19H370.746V1.24H373.482V11.56L378.282 5.776H382.074L375.978 12.4ZM390.251 19.216C389.003 19.216 387.875 18.936 386.867 18.376C385.859 17.8 385.067 17 384.491 15.976C383.915 14.936 383.627 13.736 383.627 12.376C383.627 11.032 383.923 9.84 384.515 8.8C385.107 7.76 385.915 6.96 386.939 6.4C387.963 5.84 389.107 5.56 390.371 5.56C391.635 5.56 392.779 5.84 393.803 6.4C394.827 6.96 395.635 7.76 396.227 8.8C396.819 9.84 397.115 11.032 397.115 12.376C397.115 13.72 396.811 14.912 396.203 15.952C395.595 16.992 394.763 17.8 393.707 18.376C392.667 18.936 391.515 19.216 390.251 19.216ZM390.251 16.84C390.955 16.84 391.611 16.672 392.219 16.336C392.843 16 393.347 15.496 393.731 14.824C394.115 14.152 394.307 13.336 394.307 12.376C394.307 11.416 394.123 10.608 393.755 9.952C393.387 9.28 392.899 8.776 392.291 8.44C391.683 8.104 391.027 7.936 390.323 7.936C389.619 7.936 388.963 8.104 388.355 8.44C387.763 8.776 387.291 9.28 386.939 9.952C386.587 10.608 386.411 11.416 386.411 12.376C386.411 13.8 386.771 14.904 387.491 15.688C388.227 16.456 389.147 16.84 390.251 16.84ZM416.308 5.56C417.348 5.56 418.276 5.776 419.092 6.208C419.924 6.64 420.572 7.28 421.036 8.128C421.516 8.976 421.756 10 421.756 11.2V19H419.044V11.608C419.044 10.424 418.748 9.52 418.156 8.896C417.564 8.256 416.756 7.936 415.732 7.936C414.708 7.936 413.892 8.256 413.284 8.896C412.692 9.52 412.396 10.424 412.396 11.608V19H409.684V11.608C409.684 10.424 409.388 9.52 408.796 8.896C408.204 8.256 407.396 7.936 406.372 7.936C405.348 7.936 404.532 8.256 403.924 8.896C403.332 9.52 403.036 10.424 403.036 11.608V19H400.3V5.776H403.036V7.288C403.484 6.744 404.052 6.32 404.74 6.016C405.428 5.712 406.164 5.56 406.948 5.56C408.004 5.56 408.948 5.784 409.78 6.232C410.612 6.68 411.252 7.328 411.7 8.176C412.1 7.376 412.724 6.744 413.572 6.28C414.42 5.8 415.332 5.56 416.308 5.56ZM449.999 2.32V19H447.263V7.576L442.175 19H440.279L435.167 7.576V19H432.431V2.32H435.383L441.239 15.4L447.071 2.32H449.999ZM453.163 12.328C453.163 11 453.435 9.824 453.979 8.8C454.539 7.776 455.291 6.984 456.235 6.424C457.195 5.848 458.251 5.56 459.403 5.56C460.443 5.56 461.347 5.768 462.115 6.184C462.899 6.584 463.523 7.088 463.987 7.696V5.776H466.747V19H463.987V17.032C463.523 17.656 462.891 18.176 462.091 18.592C461.291 19.008 460.379 19.216 459.355 19.216C458.219 19.216 457.179 18.928 456.235 18.352C455.291 17.76 454.539 16.944 453.979 15.904C453.435 14.848 453.163 13.656 453.163 12.328ZM463.987 12.376C463.987 11.464 463.795 10.672 463.411 10C463.043 9.328 462.555 8.816 461.947 8.464C461.339 8.112 460.683 7.936 459.979 7.936C459.275 7.936 458.619 8.112 458.011 8.464C457.403 8.8 456.907 9.304 456.523 9.976C456.155 10.632 455.971 11.416 455.971 12.328C455.971 13.24 456.155 14.04 456.523 14.728C456.907 15.416 457.403 15.944 458.011 16.312C458.635 16.664 459.291 16.84 459.979 16.84C460.683 16.84 461.339 16.664 461.947 16.312C462.555 15.96 463.043 15.448 463.411 14.776C463.795 14.088 463.987 13.288 463.987 12.376ZM476.053 12.4L482.149 19H478.453L473.557 13.312V19H470.821V1.24H473.557V11.56L478.357 5.776H482.149L476.053 12.4ZM483.678 12.328C483.678 11 483.95 9.824 484.494 8.8C485.054 7.776 485.806 6.984 486.75 6.424C487.71 5.848 488.766 5.56 489.918 5.56C490.958 5.56 491.862 5.768 492.63 6.184C493.414 6.584 494.038 7.088 494.502 7.696V5.776H497.262V19H494.502V17.032C494.038 17.656 493.406 18.176 492.606 18.592C491.806 19.008 490.894 19.216 489.87 19.216C488.734 19.216 487.694 18.928 486.75 18.352C485.806 17.76 485.054 16.944 484.494 15.904C483.95 14.848 483.678 13.656 483.678 12.328ZM494.502 12.376C494.502 11.464 494.31 10.672 493.926 10C493.558 9.328 493.07 8.816 492.462 8.464C491.854 8.112 491.198 7.936 490.494 7.936C489.79 7.936 489.134 8.112 488.526 8.464C487.918 8.8 487.422 9.304 487.038 9.976C486.67 10.632 486.486 11.416 486.486 12.328C486.486 13.24 486.67 14.04 487.038 14.728C487.422 15.416 487.918 15.944 488.526 16.312C489.15 16.664 489.806 16.84 490.494 16.84C491.198 16.84 491.854 16.664 492.462 16.312C493.07 15.96 493.558 15.448 493.926 14.776C494.31 14.088 494.502 13.288 494.502 12.376ZM506.136 19.216C505.096 19.216 504.16 19.032 503.328 18.664C502.512 18.28 501.864 17.768 501.384 17.128C500.904 16.472 500.648 15.744 500.616 14.944H503.448C503.496 15.504 503.76 15.976 504.24 16.36C504.736 16.728 505.352 16.912 506.088 16.912C506.856 16.912 507.448 16.768 507.864 16.48C508.296 16.176 508.512 15.792 508.512 15.328C508.512 14.832 508.272 14.464 507.792 14.224C507.328 13.984 506.584 13.72 505.56 13.432C504.568 13.16 503.76 12.896 503.136 12.64C502.512 12.384 501.968 11.992 501.504 11.464C501.056 10.936 500.832 10.24 500.832 9.376C500.832 8.672 501.04 8.032 501.456 7.456C501.872 6.864 502.464 6.4 503.232 6.064C504.016 5.728 504.912 5.56 505.92 5.56C507.424 5.56 508.632 5.944 509.544 6.712C510.472 7.464 510.968 8.496 511.032 9.808H508.296C508.248 9.216 508.008 8.744 507.576 8.392C507.144 8.04 506.56 7.864 505.824 7.864C505.104 7.864 504.552 8 504.168 8.272C503.784 8.544 503.592 8.904 503.592 9.352C503.592 9.704 503.72 10 503.976 10.24C504.232 10.48 504.544 10.672 504.912 10.816C505.28 10.944 505.824 11.112 506.544 11.32C507.504 11.576 508.288 11.84 508.896 12.112C509.52 12.368 510.056 12.752 510.504 13.264C510.952 13.776 511.184 14.456 511.2 15.304C511.2 16.056 510.992 16.728 510.576 17.32C510.16 17.912 509.568 18.376 508.8 18.712C508.048 19.048 507.16 19.216 506.136 19.216ZM519.436 19.216C518.396 19.216 517.46 19.032 516.628 18.664C515.812 18.28 515.164 17.768 514.684 17.128C514.204 16.472 513.948 15.744 513.916 14.944H516.748C516.796 15.504 517.06 15.976 517.54 16.36C518.036 16.728 518.652 16.912 519.388 16.912C520.156 16.912 520.748 16.768 521.164 16.48C521.596 16.176 521.812 15.792 521.812 15.328C521.812 14.832 521.572 14.464 521.092 14.224C520.628 13.984 519.884 13.72 518.86 13.432C517.868 13.16 517.06 12.896 516.436 12.64C515.812 12.384 515.268 11.992 514.804 11.464C514.356 10.936 514.132 10.24 514.132 9.376C514.132 8.672 514.34 8.032 514.756 7.456C515.172 6.864 515.764 6.4 516.532 6.064C517.316 5.728 518.212 5.56 519.22 5.56C520.724 5.56 521.932 5.944 522.844 6.712C523.772 7.464 524.268 8.496 524.332 9.808H521.596C521.548 9.216 521.308 8.744 520.876 8.392C520.444 8.04 519.86 7.864 519.124 7.864C518.404 7.864 517.852 8 517.468 8.272C517.084 8.544 516.892 8.904 516.892 9.352C516.892 9.704 517.02 10 517.276 10.24C517.532 10.48 517.844 10.672 518.212 10.816C518.58 10.944 519.124 11.112 519.844 11.32C520.804 11.576 521.588 11.84 522.196 12.112C522.82 12.368 523.356 12.752 523.804 13.264C524.252 13.776 524.484 14.456 524.5 15.304C524.5 16.056 524.292 16.728 523.876 17.32C523.46 17.912 522.868 18.376 522.1 18.712C521.348 19.048 520.46 19.216 519.436 19.216ZM527.024 12.328C527.024 11 527.296 9.824 527.84 8.8C528.4 7.776 529.152 6.984 530.096 6.424C531.056 5.848 532.112 5.56 533.264 5.56C534.304 5.56 535.208 5.768 535.976 6.184C536.76 6.584 537.384 7.088 537.848 7.696V5.776H540.608V19H537.848V17.032C537.384 17.656 536.752 18.176 535.952 18.592C535.152 19.008 534.24 19.216 533.216 19.216C532.08 19.216 531.04 18.928 530.096 18.352C529.152 17.76 528.4 16.944 527.84 15.904C527.296 14.848 527.024 13.656 527.024 12.328ZM537.848 12.376C537.848 11.464 537.656 10.672 537.272 10C536.904 9.328 536.416 8.816 535.808 8.464C535.2 8.112 534.544 7.936 533.84 7.936C533.136 7.936 532.48 8.112 531.872 8.464C531.264 8.8 530.768 9.304 530.384 9.976C530.016 10.632 529.832 11.416 529.832 12.328C529.832 13.24 530.016 14.04 530.384 14.728C530.768 15.416 531.264 15.944 531.872 16.312C532.496 16.664 533.152 16.84 533.84 16.84C534.544 16.84 535.2 16.664 535.808 16.312C536.416 15.96 536.904 15.448 537.272 14.776C537.656 14.088 537.848 13.288 537.848 12.376ZM547.418 7.696C547.818 7.024 548.346 6.504 549.002 6.136C549.674 5.752 550.466 5.56 551.378 5.56V8.392H550.682C549.61 8.392 548.794 8.664 548.234 9.208C547.69 9.752 547.418 10.696 547.418 12.04V19H544.682V5.776H547.418V7.696ZM555.477 19.168C554.981 19.168 554.565 19 554.229 18.664C553.893 18.328 553.725 17.912 553.725 17.416C553.725 16.92 553.893 16.504 554.229 16.168C554.565 15.832 554.981 15.664 555.477 15.664C555.957 15.664 556.365 15.832 556.701 16.168C557.037 16.504 557.205 16.92 557.205 17.416C557.205 17.912 557.037 18.328 556.701 18.664C556.365 19 555.957 19.168 555.477 19.168ZM589.076 2.32L584.132 19H581.036L577.532 6.376L573.812 19L570.74 19.024L566.012 2.32H568.916L572.372 15.904L576.116 2.32H579.188L582.668 15.832L586.148 2.32H589.076ZM603.933 12.064C603.933 12.56 603.901 13.008 603.837 13.408H593.733C593.813 14.464 594.205 15.312 594.909 15.952C595.613 16.592 596.477 16.912 597.501 16.912C598.973 16.912 600.013 16.296 600.621 15.064H603.573C603.173 16.28 602.445 17.28 601.389 18.064C600.349 18.832 599.053 19.216 597.501 19.216C596.237 19.216 595.101 18.936 594.093 18.376C593.101 17.8 592.317 17 591.741 15.976C591.181 14.936 590.901 13.736 590.901 12.376C590.901 11.016 591.173 9.824 591.717 8.8C592.277 7.76 593.053 6.96 594.045 6.4C595.053 5.84 596.205 5.56 597.501 5.56C598.749 5.56 599.861 5.832 600.837 6.376C601.813 6.92 602.573 7.688 603.117 8.68C603.661 9.656 603.933 10.784 603.933 12.064ZM601.077 11.2C601.061 10.192 600.701 9.384 599.997 8.776C599.293 8.168 598.421 7.864 597.381 7.864C596.437 7.864 595.629 8.168 594.957 8.776C594.285 9.368 593.885 10.176 593.757 11.2H601.077ZM616.556 1.24V19H613.82V1.24H616.556ZM626.364 19.216C625.116 19.216 623.988 18.936 622.98 18.376C621.972 17.8 621.18 17 620.604 15.976C620.028 14.936 619.74 13.736 619.74 12.376C619.74 11.032 620.036 9.84 620.628 8.8C621.22 7.76 622.028 6.96 623.052 6.4C624.076 5.84 625.22 5.56 626.484 5.56C627.748 5.56 628.892 5.84 629.916 6.4C630.94 6.96 631.748 7.76 632.34 8.8C632.932 9.84 633.228 11.032 633.228 12.376C633.228 13.72 632.924 14.912 632.316 15.952C631.708 16.992 630.876 17.8 629.82 18.376C628.78 18.936 627.628 19.216 626.364 19.216ZM626.364 16.84C627.068 16.84 627.724 16.672 628.332 16.336C628.956 16 629.46 15.496 629.844 14.824C630.228 14.152 630.42 13.336 630.42 12.376C630.42 11.416 630.236 10.608 629.868 9.952C629.5 9.28 629.012 8.776 628.404 8.44C627.796 8.104 627.14 7.936 626.436 7.936C625.732 7.936 625.076 8.104 624.468 8.44C623.876 8.776 623.404 9.28 623.052 9.952C622.7 10.608 622.524 11.416 622.524 12.376C622.524 13.8 622.884 14.904 623.604 15.688C624.34 16.456 625.26 16.84 626.364 16.84ZM642.149 19.216C640.901 19.216 639.773 18.936 638.765 18.376C637.757 17.8 636.965 17 636.389 15.976C635.813 14.936 635.525 13.736 635.525 12.376C635.525 11.032 635.821 9.84 636.413 8.8C637.005 7.76 637.813 6.96 638.837 6.4C639.861 5.84 641.005 5.56 642.269 5.56C643.533 5.56 644.677 5.84 645.701 6.4C646.725 6.96 647.533 7.76 648.125 8.8C648.717 9.84 649.013 11.032 649.013 12.376C649.013 13.72 648.709 14.912 648.101 15.952C647.493 16.992 646.661 17.8 645.605 18.376C644.565 18.936 643.413 19.216 642.149 19.216ZM642.149 16.84C642.853 16.84 643.509 16.672 644.117 16.336C644.741 16 645.245 15.496 645.629 14.824C646.013 14.152 646.205 13.336 646.205 12.376C646.205 11.416 646.021 10.608 645.653 9.952C645.285 9.28 644.797 8.776 644.189 8.44C643.581 8.104 642.925 7.936 642.221 7.936C641.517 7.936 640.861 8.104 640.253 8.44C639.661 8.776 639.189 9.28 638.837 9.952C638.485 10.608 638.309 11.416 638.309 12.376C638.309 13.8 638.669 14.904 639.389 15.688C640.125 16.456 641.045 16.84 642.149 16.84ZM657.429 12.4L663.525 19H659.829L654.933 13.312V19H652.197V1.24H654.933V11.56L659.733 5.776H663.525L657.429 12.4ZM678.225 8.008H675.777V19H673.017V8.008H671.457V5.776H673.017V4.84C673.017 3.32 673.417 2.216 674.217 1.528C675.033 0.823999 676.305 0.472 678.033 0.472V2.752C677.201 2.752 676.617 2.912 676.281 3.232C675.945 3.536 675.777 4.072 675.777 4.84V5.776H678.225V8.008ZM686.866 19.216C685.618 19.216 684.49 18.936 683.482 18.376C682.474 17.8 681.682 17 681.106 15.976C680.53 14.936 680.242 13.736 680.242 12.376C680.242 11.032 680.538 9.84 681.13 8.8C681.722 7.76 682.53 6.96 683.554 6.4C684.578 5.84 685.722 5.56 686.986 5.56C688.25 5.56 689.394 5.84 690.418 6.4C691.442 6.96 692.25 7.76 692.842 8.8C693.434 9.84 693.73 11.032 693.73 12.376C693.73 13.72 693.426 14.912 692.818 15.952C692.21 16.992 691.378 17.8 690.322 18.376C689.282 18.936 688.13 19.216 686.866 19.216ZM686.866 16.84C687.57 16.84 688.226 16.672 688.834 16.336C689.458 16 689.962 15.496 690.346 14.824C690.73 14.152 690.922 13.336 690.922 12.376C690.922 11.416 690.738 10.608 690.37 9.952C690.002 9.28 689.514 8.776 688.906 8.44C688.298 8.104 687.642 7.936 686.938 7.936C686.234 7.936 685.578 8.104 684.97 8.44C684.378 8.776 683.906 9.28 683.554 9.952C683.202 10.608 683.026 11.416 683.026 12.376C683.026 13.8 683.386 14.904 684.106 15.688C684.842 16.456 685.762 16.84 686.866 16.84ZM699.65 7.696C700.05 7.024 700.578 6.504 701.234 6.136C701.906 5.752 702.698 5.56 703.61 5.56V8.392H702.914C701.842 8.392 701.026 8.664 700.466 9.208C699.922 9.752 699.65 10.696 699.65 12.04V19H696.914V5.776H699.65V7.696ZM724.365 5.776L720.261 19H717.381L714.717 9.232L712.053 19H709.173L705.045 5.776H707.829L710.589 16.408L713.397 5.776H716.253L718.941 16.36L721.677 5.776H724.365ZM725.978 12.328C725.978 11 726.25 9.824 726.794 8.8C727.354 7.776 728.106 6.984 729.05 6.424C730.01 5.848 731.066 5.56 732.218 5.56C733.258 5.56 734.162 5.768 734.93 6.184C735.714 6.584 736.338 7.088 736.802 7.696V5.776H739.562V19H736.802V17.032C736.338 17.656 735.706 18.176 734.906 18.592C734.106 19.008 733.194 19.216 732.17 19.216C731.034 19.216 729.994 18.928 729.05 18.352C728.106 17.76 727.354 16.944 726.794 15.904C726.25 14.848 725.978 13.656 725.978 12.328ZM736.802 12.376C736.802 11.464 736.61 10.672 736.226 10C735.858 9.328 735.37 8.816 734.762 8.464C734.154 8.112 733.498 7.936 732.794 7.936C732.09 7.936 731.434 8.112 730.826 8.464C730.218 8.8 729.722 9.304 729.338 9.976C728.97 10.632 728.786 11.416 728.786 12.328C728.786 13.24 728.97 14.04 729.338 14.728C729.722 15.416 730.218 15.944 730.826 16.312C731.45 16.664 732.106 16.84 732.794 16.84C733.498 16.84 734.154 16.664 734.762 16.312C735.37 15.96 735.858 15.448 736.226 14.776C736.61 14.088 736.802 13.288 736.802 12.376ZM746.371 7.696C746.771 7.024 747.299 6.504 747.955 6.136C748.627 5.752 749.419 5.56 750.331 5.56V8.392H749.635C748.563 8.392 747.747 8.664 747.187 9.208C746.643 9.752 746.371 10.696 746.371 12.04V19H743.635V5.776H746.371V7.696ZM752.414 12.328C752.414 11 752.686 9.824 753.23 8.8C753.79 7.776 754.542 6.984 755.486 6.424C756.446 5.848 757.51 5.56 758.678 5.56C759.542 5.56 760.39 5.752 761.222 6.136C762.07 6.504 762.742 7 763.238 7.624V1.24H765.998V19H763.238V17.008C762.79 17.648 762.166 18.176 761.366 18.592C760.582 19.008 759.678 19.216 758.654 19.216C757.502 19.216 756.446 18.928 755.486 18.352C754.542 17.76 753.79 16.944 753.23 15.904C752.686 14.848 752.414 13.656 752.414 12.328ZM763.238 12.376C763.238 11.464 763.046 10.672 762.662 10C762.294 9.328 761.806 8.816 761.198 8.464C760.59 8.112 759.934 7.936 759.23 7.936C758.526 7.936 757.87 8.112 757.262 8.464C756.654 8.8 756.158 9.304 755.774 9.976C755.406 10.632 755.222 11.416 755.222 12.328C755.222 13.24 755.406 14.04 755.774 14.728C756.158 15.416 756.654 15.944 757.262 16.312C757.886 16.664 758.542 16.84 759.23 16.84C759.934 16.84 760.59 16.664 761.198 16.312C761.806 15.96 762.294 15.448 762.662 14.776C763.046 14.088 763.238 13.288 763.238 12.376ZM779.978 8.008V15.328C779.978 15.824 780.09 16.184 780.314 16.408C780.554 16.616 780.954 16.72 781.514 16.72H783.194V19H781.034C779.802 19 778.858 18.712 778.202 18.136C777.546 17.56 777.218 16.624 777.218 15.328V8.008H775.658V5.776H777.218V2.488H779.978V5.776H783.194V8.008H779.978ZM791.932 19.216C790.684 19.216 789.556 18.936 788.548 18.376C787.54 17.8 786.748 17 786.172 15.976C785.596 14.936 785.308 13.736 785.308 12.376C785.308 11.032 785.604 9.84 786.196 8.8C786.788 7.76 787.596 6.96 788.62 6.4C789.644 5.84 790.788 5.56 792.052 5.56C793.316 5.56 794.46 5.84 795.484 6.4C796.508 6.96 797.316 7.76 797.908 8.8C798.5 9.84 798.796 11.032 798.796 12.376C798.796 13.72 798.492 14.912 797.884 15.952C797.276 16.992 796.444 17.8 795.388 18.376C794.348 18.936 793.196 19.216 791.932 19.216ZM791.932 16.84C792.636 16.84 793.292 16.672 793.9 16.336C794.524 16 795.028 15.496 795.412 14.824C795.796 14.152 795.988 13.336 795.988 12.376C795.988 11.416 795.804 10.608 795.436 9.952C795.068 9.28 794.58 8.776 793.972 8.44C793.364 8.104 792.708 7.936 792.004 7.936C791.3 7.936 790.644 8.104 790.036 8.44C789.444 8.776 788.972 9.28 788.62 9.952C788.268 10.608 788.092 11.416 788.092 12.376C788.092 13.8 788.452 14.904 789.172 15.688C789.908 16.456 790.828 16.84 791.932 16.84ZM176.082 40.776L171.978 54H169.098L166.434 44.232L163.77 54H160.89L156.762 40.776H159.546L162.306 51.408L165.114 40.776H167.97L170.658 51.36L173.394 40.776H176.082ZM190.727 47.064C190.727 47.56 190.695 48.008 190.631 48.408H180.527C180.607 49.464 180.999 50.312 181.703 50.952C182.407 51.592 183.271 51.912 184.295 51.912C185.767 51.912 186.807 51.296 187.415 50.064H190.367C189.967 51.28 189.239 52.28 188.183 53.064C187.143 53.832 185.847 54.216 184.295 54.216C183.031 54.216 181.895 53.936 180.887 53.376C179.895 52.8 179.111 52 178.535 50.976C177.975 49.936 177.695 48.736 177.695 47.376C177.695 46.016 177.967 44.824 178.511 43.8C179.071 42.76 179.847 41.96 180.839 41.4C181.847 40.84 182.999 40.56 184.295 40.56C185.543 40.56 186.655 40.832 187.631 41.376C188.607 41.92 189.367 42.688 189.911 43.68C190.455 44.656 190.727 45.784 190.727 47.064ZM187.871 46.2C187.855 45.192 187.495 44.384 186.791 43.776C186.087 43.168 185.215 42.864 184.175 42.864C183.231 42.864 182.423 43.168 181.751 43.776C181.079 44.368 180.679 45.176 180.551 46.2H187.871ZM196.635 36.24V54H193.899V36.24H196.635ZM199.795 47.376C199.795 46.016 200.067 44.824 200.611 43.8C201.171 42.76 201.939 41.96 202.915 41.4C203.891 40.84 205.011 40.56 206.275 40.56C207.875 40.56 209.195 40.944 210.235 41.712C211.291 42.464 212.003 43.544 212.371 44.952H209.419C209.179 44.296 208.795 43.784 208.267 43.416C207.739 43.048 207.075 42.864 206.275 42.864C205.155 42.864 204.259 43.264 203.587 44.064C202.931 44.848 202.603 45.952 202.603 47.376C202.603 48.8 202.931 49.912 203.587 50.712C204.259 51.512 205.155 51.912 206.275 51.912C207.859 51.912 208.907 51.216 209.419 49.824H212.371C211.987 51.168 211.267 52.24 210.211 53.04C209.155 53.824 207.843 54.216 206.275 54.216C205.011 54.216 203.891 53.936 202.915 53.376C201.939 52.8 201.171 52 200.611 50.976C200.067 49.936 199.795 48.736 199.795 47.376ZM221.314 54.216C220.066 54.216 218.938 53.936 217.93 53.376C216.922 52.8 216.13 52 215.554 50.976C214.978 49.936 214.69 48.736 214.69 47.376C214.69 46.032 214.986 44.84 215.578 43.8C216.17 42.76 216.978 41.96 218.002 41.4C219.026 40.84 220.17 40.56 221.434 40.56C222.698 40.56 223.842 40.84 224.866 41.4C225.89 41.96 226.698 42.76 227.29 43.8C227.882 44.84 228.178 46.032 228.178 47.376C228.178 48.72 227.874 49.912 227.266 50.952C226.658 51.992 225.826 52.8 224.77 53.376C223.73 53.936 222.578 54.216 221.314 54.216ZM221.314 51.84C222.018 51.84 222.674 51.672 223.282 51.336C223.906 51 224.41 50.496 224.794 49.824C225.178 49.152 225.37 48.336 225.37 47.376C225.37 46.416 225.186 45.608 224.818 44.952C224.45 44.28 223.962 43.776 223.354 43.44C222.746 43.104 222.09 42.936 221.386 42.936C220.682 42.936 220.026 43.104 219.418 43.44C218.826 43.776 218.354 44.28 218.002 44.952C217.65 45.608 217.474 46.416 217.474 47.376C217.474 48.8 217.834 49.904 218.554 50.688C219.29 51.456 220.21 51.84 221.314 51.84ZM247.371 40.56C248.411 40.56 249.339 40.776 250.155 41.208C250.987 41.64 251.635 42.28 252.099 43.128C252.579 43.976 252.819 45 252.819 46.2V54H250.107V46.608C250.107 45.424 249.811 44.52 249.219 43.896C248.627 43.256 247.819 42.936 246.795 42.936C245.771 42.936 244.955 43.256 244.347 43.896C243.755 44.52 243.459 45.424 243.459 46.608V54H240.747V46.608C240.747 45.424 240.451 44.52 239.859 43.896C239.267 43.256 238.459 42.936 237.435 42.936C236.411 42.936 235.595 43.256 234.987 43.896C234.395 44.52 234.099 45.424 234.099 46.608V54H231.363V40.776H234.099V42.288C234.547 41.744 235.115 41.32 235.803 41.016C236.491 40.712 237.227 40.56 238.011 40.56C239.067 40.56 240.011 40.784 240.843 41.232C241.675 41.68 242.315 42.328 242.763 43.176C243.163 42.376 243.787 41.744 244.635 41.28C245.483 40.8 246.395 40.56 247.371 40.56ZM258.172 39.024C257.676 39.024 257.26 38.856 256.924 38.52C256.588 38.184 256.42 37.768 256.42 37.272C256.42 36.776 256.588 36.36 256.924 36.024C257.26 35.688 257.676 35.52 258.172 35.52C258.652 35.52 259.06 35.688 259.396 36.024C259.732 36.36 259.9 36.776 259.9 37.272C259.9 37.768 259.732 38.184 259.396 38.52C259.06 38.856 258.652 39.024 258.172 39.024ZM259.516 40.776V54H256.78V40.776H259.516ZM270.26 40.56C271.3 40.56 272.228 40.776 273.044 41.208C273.876 41.64 274.524 42.28 274.988 43.128C275.452 43.976 275.684 45 275.684 46.2V54H272.972V46.608C272.972 45.424 272.676 44.52 272.084 43.896C271.492 43.256 270.684 42.936 269.66 42.936C268.636 42.936 267.82 43.256 267.212 43.896C266.62 44.52 266.324 45.424 266.324 46.608V54H263.588V40.776H266.324V42.288C266.772 41.744 267.34 41.32 268.028 41.016C268.732 40.712 269.476 40.56 270.26 40.56ZM284.982 40.56C286.006 40.56 286.91 40.768 287.694 41.184C288.494 41.584 289.118 42.088 289.566 42.696V40.776H292.326V54.216C292.326 55.432 292.07 56.512 291.558 57.456C291.046 58.416 290.302 59.168 289.326 59.712C288.366 60.256 287.214 60.528 285.87 60.528C284.078 60.528 282.59 60.104 281.406 59.256C280.222 58.424 279.55 57.288 279.39 55.848H282.102C282.31 56.536 282.75 57.088 283.422 57.504C284.11 57.936 284.926 58.152 285.87 58.152C286.974 58.152 287.862 57.816 288.534 57.144C289.222 56.472 289.566 55.496 289.566 54.216V52.008C289.102 52.632 288.47 53.16 287.67 53.592C286.886 54.008 285.99 54.216 284.982 54.216C283.83 54.216 282.774 53.928 281.814 53.352C280.87 52.76 280.118 51.944 279.558 50.904C279.014 49.848 278.742 48.656 278.742 47.328C278.742 46 279.014 44.824 279.558 43.8C280.118 42.776 280.87 41.984 281.814 41.424C282.774 40.848 283.83 40.56 284.982 40.56ZM289.566 47.376C289.566 46.464 289.374 45.672 288.99 45C288.622 44.328 288.134 43.816 287.526 43.464C286.918 43.112 286.262 42.936 285.558 42.936C284.854 42.936 284.198 43.112 283.59 43.464C282.982 43.8 282.486 44.304 282.102 44.976C281.734 45.632 281.55 46.416 281.55 47.328C281.55 48.24 281.734 49.04 282.102 49.728C282.486 50.416 282.982 50.944 283.59 51.312C284.214 51.664 284.87 51.84 285.558 51.84C286.262 51.84 286.918 51.664 287.526 51.312C288.134 50.96 288.622 50.448 288.99 49.776C289.374 49.088 289.566 48.288 289.566 47.376ZM315.018 40.776L306.906 60.216H304.074L306.762 53.784L301.554 40.776H304.602L308.322 50.856L312.186 40.776H315.018ZM323.299 54.216C322.051 54.216 320.923 53.936 319.915 53.376C318.907 52.8 318.115 52 317.539 50.976C316.963 49.936 316.675 48.736 316.675 47.376C316.675 46.032 316.971 44.84 317.563 43.8C318.155 42.76 318.963 41.96 319.987 41.4C321.011 40.84 322.155 40.56 323.419 40.56C324.683 40.56 325.827 40.84 326.851 41.4C327.875 41.96 328.683 42.76 329.275 43.8C329.867 44.84 330.163 46.032 330.163 47.376C330.163 48.72 329.859 49.912 329.251 50.952C328.643 51.992 327.811 52.8 326.755 53.376C325.715 53.936 324.563 54.216 323.299 54.216ZM323.299 51.84C324.003 51.84 324.659 51.672 325.267 51.336C325.891 51 326.395 50.496 326.779 49.824C327.163 49.152 327.355 48.336 327.355 47.376C327.355 46.416 327.171 45.608 326.803 44.952C326.435 44.28 325.947 43.776 325.339 43.44C324.731 43.104 324.075 42.936 323.371 42.936C322.667 42.936 322.011 43.104 321.403 43.44C320.811 43.776 320.339 44.28 319.987 44.952C319.635 45.608 319.459 46.416 319.459 47.376C319.459 48.8 319.819 49.904 320.539 50.688C321.275 51.456 322.195 51.84 323.299 51.84ZM345.323 40.776V54H342.587V52.44C342.155 52.984 341.587 53.416 340.883 53.736C340.195 54.04 339.459 54.192 338.675 54.192C337.635 54.192 336.699 53.976 335.867 53.544C335.051 53.112 334.403 52.472 333.923 51.624C333.459 50.776 333.227 49.752 333.227 48.552V40.776H335.939V48.144C335.939 49.328 336.235 50.24 336.827 50.88C337.419 51.504 338.227 51.816 339.251 51.816C340.275 51.816 341.083 51.504 341.675 50.88C342.283 50.24 342.587 49.328 342.587 48.144V40.776H345.323ZM355.216 47.328C355.216 46 355.488 44.824 356.032 43.8C356.592 42.776 357.344 41.984 358.288 41.424C359.248 40.848 360.304 40.56 361.456 40.56C362.496 40.56 363.4 40.768 364.168 41.184C364.952 41.584 365.576 42.088 366.04 42.696V40.776H368.8V54H366.04V52.032C365.576 52.656 364.944 53.176 364.144 53.592C363.344 54.008 362.432 54.216 361.408 54.216C360.272 54.216 359.232 53.928 358.288 53.352C357.344 52.76 356.592 51.944 356.032 50.904C355.488 49.848 355.216 48.656 355.216 47.328ZM366.04 47.376C366.04 46.464 365.848 45.672 365.464 45C365.096 44.328 364.608 43.816 364 43.464C363.392 43.112 362.736 42.936 362.032 42.936C361.328 42.936 360.672 43.112 360.064 43.464C359.456 43.8 358.96 44.304 358.576 44.976C358.208 45.632 358.024 46.416 358.024 47.328C358.024 48.24 358.208 49.04 358.576 49.728C358.96 50.416 359.456 50.944 360.064 51.312C360.688 51.664 361.344 51.84 362.032 51.84C362.736 51.84 363.392 51.664 364 51.312C364.608 50.96 365.096 50.448 365.464 49.776C365.848 49.088 366.04 48.288 366.04 47.376ZM378.201 40.56C379.225 40.56 380.129 40.768 380.913 41.184C381.713 41.584 382.337 42.088 382.785 42.696V40.776H385.545V54.216C385.545 55.432 385.289 56.512 384.777 57.456C384.265 58.416 383.521 59.168 382.545 59.712C381.585 60.256 380.433 60.528 379.089 60.528C377.297 60.528 375.809 60.104 374.625 59.256C373.441 58.424 372.769 57.288 372.609 55.848H375.321C375.529 56.536 375.969 57.088 376.641 57.504C377.329 57.936 378.145 58.152 379.089 58.152C380.193 58.152 381.081 57.816 381.753 57.144C382.441 56.472 382.785 55.496 382.785 54.216V52.008C382.321 52.632 381.689 53.16 380.889 53.592C380.105 54.008 379.209 54.216 378.201 54.216C377.049 54.216 375.993 53.928 375.033 53.352C374.089 52.76 373.337 51.944 372.777 50.904C372.233 49.848 371.961 48.656 371.961 47.328C371.961 46 372.233 44.824 372.777 43.8C373.337 42.776 374.089 41.984 375.033 41.424C375.993 40.848 377.049 40.56 378.201 40.56ZM382.785 47.376C382.785 46.464 382.593 45.672 382.209 45C381.841 44.328 381.353 43.816 380.745 43.464C380.137 43.112 379.481 42.936 378.777 42.936C378.073 42.936 377.417 43.112 376.809 43.464C376.201 43.8 375.705 44.304 375.321 44.976C374.953 45.632 374.769 46.416 374.769 47.328C374.769 48.24 374.953 49.04 375.321 49.728C375.705 50.416 376.201 50.944 376.809 51.312C377.433 51.664 378.089 51.84 378.777 51.84C379.481 51.84 380.137 51.664 380.745 51.312C381.353 50.96 381.841 50.448 382.209 49.776C382.593 49.088 382.785 48.288 382.785 47.376ZM388.707 47.328C388.707 46 388.979 44.824 389.523 43.8C390.083 42.776 390.835 41.984 391.779 41.424C392.739 40.848 393.795 40.56 394.947 40.56C395.987 40.56 396.891 40.768 397.659 41.184C398.443 41.584 399.067 42.088 399.531 42.696V40.776H402.291V54H399.531V52.032C399.067 52.656 398.435 53.176 397.635 53.592C396.835 54.008 395.923 54.216 394.899 54.216C393.763 54.216 392.723 53.928 391.779 53.352C390.835 52.76 390.083 51.944 389.523 50.904C388.979 49.848 388.707 48.656 388.707 47.328ZM399.531 47.376C399.531 46.464 399.339 45.672 398.955 45C398.587 44.328 398.099 43.816 397.491 43.464C396.883 43.112 396.227 42.936 395.523 42.936C394.819 42.936 394.163 43.112 393.555 43.464C392.947 43.8 392.451 44.304 392.067 44.976C391.699 45.632 391.515 46.416 391.515 47.328C391.515 48.24 391.699 49.04 392.067 49.728C392.451 50.416 392.947 50.944 393.555 51.312C394.179 51.664 394.835 51.84 395.523 51.84C396.227 51.84 396.883 51.664 397.491 51.312C398.099 50.96 398.587 50.448 398.955 49.776C399.339 49.088 399.531 48.288 399.531 47.376ZM407.757 39.024C407.261 39.024 406.845 38.856 406.509 38.52C406.173 38.184 406.005 37.768 406.005 37.272C406.005 36.776 406.173 36.36 406.509 36.024C406.845 35.688 407.261 35.52 407.757 35.52C408.237 35.52 408.645 35.688 408.981 36.024C409.317 36.36 409.485 36.776 409.485 37.272C409.485 37.768 409.317 38.184 408.981 38.52C408.645 38.856 408.237 39.024 407.757 39.024ZM409.101 40.776V54H406.365V40.776H409.101ZM419.845 40.56C420.885 40.56 421.813 40.776 422.629 41.208C423.461 41.64 424.109 42.28 424.573 43.128C425.037 43.976 425.269 45 425.269 46.2V54H422.557V46.608C422.557 45.424 422.261 44.52 421.669 43.896C421.077 43.256 420.269 42.936 419.245 42.936C418.221 42.936 417.405 43.256 416.797 43.896C416.205 44.52 415.909 45.424 415.909 46.608V54H413.173V40.776H415.909V42.288C416.357 41.744 416.925 41.32 417.613 41.016C418.317 40.712 419.061 40.56 419.845 40.56ZM432.671 37.32L432.359 48.96H430.079L429.767 37.32H432.671ZM431.303 54.168C430.807 54.168 430.391 54 430.055 53.664C429.719 53.328 429.551 52.912 429.551 52.416C429.551 51.92 429.719 51.504 430.055 51.168C430.391 50.832 430.807 50.664 431.303 50.664C431.783 50.664 432.191 50.832 432.527 51.168C432.863 51.504 433.031 51.92 433.031 52.416C433.031 52.912 432.863 53.328 432.527 53.664C432.191 54 431.783 54.168 431.303 54.168ZM457.464 37.32V54H454.728V46.704H446.88V54H444.144V37.32H446.88V44.472H454.728V37.32H457.464ZM460.634 47.328C460.634 46 460.906 44.824 461.45 43.8C462.01 42.776 462.762 41.984 463.706 41.424C464.666 40.848 465.722 40.56 466.874 40.56C467.914 40.56 468.818 40.768 469.586 41.184C470.37 41.584 470.994 42.088 471.458 42.696V40.776H474.218V54H471.458V52.032C470.994 52.656 470.362 53.176 469.562 53.592C468.762 54.008 467.85 54.216 466.826 54.216C465.69 54.216 464.65 53.928 463.706 53.352C462.762 52.76 462.01 51.944 461.45 50.904C460.906 49.848 460.634 48.656 460.634 47.328ZM471.458 47.376C471.458 46.464 471.266 45.672 470.882 45C470.514 44.328 470.026 43.816 469.418 43.464C468.81 43.112 468.154 42.936 467.45 42.936C466.746 42.936 466.09 43.112 465.482 43.464C464.874 43.8 464.378 44.304 463.994 44.976C463.626 45.632 463.442 46.416 463.442 47.328C463.442 48.24 463.626 49.04 463.994 49.728C464.378 50.416 464.874 50.944 465.482 51.312C466.106 51.664 466.762 51.84 467.45 51.84C468.154 51.84 468.81 51.664 469.418 51.312C470.026 50.96 470.514 50.448 470.882 49.776C471.266 49.088 471.458 48.288 471.458 47.376ZM483.404 51.552L487.148 40.776H490.052L485.012 54H481.748L476.732 40.776H479.66L483.404 51.552ZM504.72 47.064C504.72 47.56 504.688 48.008 504.624 48.408H494.52C494.6 49.464 494.992 50.312 495.696 50.952C496.4 51.592 497.264 51.912 498.288 51.912C499.76 51.912 500.8 51.296 501.408 50.064H504.36C503.96 51.28 503.232 52.28 502.176 53.064C501.136 53.832 499.84 54.216 498.288 54.216C497.024 54.216 495.888 53.936 494.88 53.376C493.888 52.8 493.104 52 492.528 50.976C491.968 49.936 491.688 48.736 491.688 47.376C491.688 46.016 491.96 44.824 492.504 43.8C493.064 42.76 493.84 41.96 494.832 41.4C495.84 40.84 496.992 40.56 498.288 40.56C499.536 40.56 500.648 40.832 501.624 41.376C502.6 41.92 503.36 42.688 503.904 43.68C504.448 44.656 504.72 45.784 504.72 47.064ZM501.864 46.2C501.848 45.192 501.488 44.384 500.784 43.776C500.08 43.168 499.208 42.864 498.168 42.864C497.224 42.864 496.416 43.168 495.744 43.776C495.072 44.368 494.672 45.176 494.544 46.2H501.864ZM513.695 47.328C513.695 46 513.967 44.824 514.511 43.8C515.071 42.776 515.823 41.984 516.767 41.424C517.727 40.848 518.783 40.56 519.935 40.56C520.975 40.56 521.879 40.768 522.647 41.184C523.431 41.584 524.055 42.088 524.519 42.696V40.776H527.279V54H524.519V52.032C524.055 52.656 523.423 53.176 522.623 53.592C521.823 54.008 520.911 54.216 519.887 54.216C518.751 54.216 517.711 53.928 516.767 53.352C515.823 52.76 515.071 51.944 514.511 50.904C513.967 49.848 513.695 48.656 513.695 47.328ZM524.519 47.376C524.519 46.464 524.327 45.672 523.943 45C523.575 44.328 523.087 43.816 522.479 43.464C521.871 43.112 521.215 42.936 520.511 42.936C519.807 42.936 519.151 43.112 518.543 43.464C517.935 43.8 517.439 44.304 517.055 44.976C516.687 45.632 516.503 46.416 516.503 47.328C516.503 48.24 516.687 49.04 517.055 49.728C517.439 50.416 517.935 50.944 518.543 51.312C519.167 51.664 519.823 51.84 520.511 51.84C521.215 51.84 521.871 51.664 522.479 51.312C523.087 50.96 523.575 50.448 523.943 49.776C524.327 49.088 524.519 48.288 524.519 47.376ZM544.739 40.56C545.779 40.56 546.707 40.776 547.523 41.208C548.355 41.64 549.003 42.28 549.467 43.128C549.931 43.976 550.163 45 550.163 46.2V54H547.451V46.608C547.451 45.424 547.155 44.52 546.563 43.896C545.971 43.256 545.163 42.936 544.139 42.936C543.115 42.936 542.299 43.256 541.691 43.896C541.099 44.52 540.803 45.424 540.803 46.608V54H538.067V40.776H540.803V42.288C541.251 41.744 541.819 41.32 542.507 41.016C543.211 40.712 543.955 40.56 544.739 40.56ZM555.525 39.024C555.029 39.024 554.613 38.856 554.277 38.52C553.941 38.184 553.773 37.768 553.773 37.272C553.773 36.776 553.941 36.36 554.277 36.024C554.613 35.688 555.029 35.52 555.525 35.52C556.005 35.52 556.413 35.688 556.749 36.024C557.085 36.36 557.253 36.776 557.253 37.272C557.253 37.768 557.085 38.184 556.749 38.52C556.413 38.856 556.005 39.024 555.525 39.024ZM556.869 40.776V54H554.133V40.776H556.869ZM560.029 47.376C560.029 46.016 560.301 44.824 560.845 43.8C561.405 42.76 562.173 41.96 563.149 41.4C564.125 40.84 565.245 40.56 566.509 40.56C568.109 40.56 569.429 40.944 570.469 41.712C571.525 42.464 572.237 43.544 572.605 44.952H569.653C569.413 44.296 569.029 43.784 568.501 43.416C567.973 43.048 567.309 42.864 566.509 42.864C565.389 42.864 564.493 43.264 563.821 44.064C563.165 44.848 562.837 45.952 562.837 47.376C562.837 48.8 563.165 49.912 563.821 50.712C564.493 51.512 565.389 51.912 566.509 51.912C568.093 51.912 569.141 51.216 569.653 49.824H572.605C572.221 51.168 571.501 52.24 570.445 53.04C569.389 53.824 568.077 54.216 566.509 54.216C565.245 54.216 564.125 53.936 563.149 53.376C562.173 52.8 561.405 52 560.845 50.976C560.301 49.936 560.029 48.736 560.029 47.376ZM587.931 47.064C587.931 47.56 587.899 48.008 587.835 48.408H577.731C577.811 49.464 578.203 50.312 578.907 50.952C579.611 51.592 580.475 51.912 581.499 51.912C582.971 51.912 584.011 51.296 584.619 50.064H587.571C587.171 51.28 586.443 52.28 585.387 53.064C584.347 53.832 583.051 54.216 581.499 54.216C580.235 54.216 579.099 53.936 578.091 53.376C577.099 52.8 576.315 52 575.739 50.976C575.179 49.936 574.899 48.736 574.899 47.376C574.899 46.016 575.171 44.824 575.715 43.8C576.275 42.76 577.051 41.96 578.043 41.4C579.051 40.84 580.203 40.56 581.499 40.56C582.747 40.56 583.859 40.832 584.835 41.376C585.811 41.92 586.571 42.688 587.115 43.68C587.659 44.656 587.931 45.784 587.931 47.064ZM585.075 46.2C585.059 45.192 584.699 44.384 583.995 43.776C583.291 43.168 582.419 42.864 581.379 42.864C580.435 42.864 579.627 43.168 578.955 43.776C578.283 44.368 577.883 45.176 577.755 46.2H585.075ZM596.906 47.328C596.906 46 597.178 44.824 597.722 43.8C598.282 42.776 599.034 41.984 599.978 41.424C600.938 40.848 602.002 40.56 603.17 40.56C604.034 40.56 604.882 40.752 605.714 41.136C606.562 41.504 607.234 42 607.73 42.624V36.24H610.49V54H607.73V52.008C607.282 52.648 606.658 53.176 605.858 53.592C605.074 54.008 604.17 54.216 603.146 54.216C601.994 54.216 600.938 53.928 599.978 53.352C599.034 52.76 598.282 51.944 597.722 50.904C597.178 49.848 596.906 48.656 596.906 47.328ZM607.73 47.376C607.73 46.464 607.538 45.672 607.154 45C606.786 44.328 606.298 43.816 605.69 43.464C605.082 43.112 604.426 42.936 603.722 42.936C603.018 42.936 602.362 43.112 601.754 43.464C601.146 43.8 600.65 44.304 600.266 44.976C599.898 45.632 599.714 46.416 599.714 47.328C599.714 48.24 599.898 49.04 600.266 49.728C600.65 50.416 601.146 50.944 601.754 51.312C602.378 51.664 603.034 51.84 603.722 51.84C604.426 51.84 605.082 51.664 605.69 51.312C606.298 50.96 606.786 50.448 607.154 49.776C607.538 49.088 607.73 48.288 607.73 47.376ZM613.652 47.328C613.652 46 613.924 44.824 614.468 43.8C615.028 42.776 615.78 41.984 616.724 41.424C617.684 40.848 618.74 40.56 619.892 40.56C620.932 40.56 621.836 40.768 622.604 41.184C623.388 41.584 624.012 42.088 624.476 42.696V40.776H627.236V54H624.476V52.032C624.012 52.656 623.38 53.176 622.58 53.592C621.78 54.008 620.868 54.216 619.844 54.216C618.708 54.216 617.668 53.928 616.724 53.352C615.78 52.76 615.028 51.944 614.468 50.904C613.924 49.848 613.652 48.656 613.652 47.328ZM624.476 47.376C624.476 46.464 624.284 45.672 623.9 45C623.532 44.328 623.044 43.816 622.436 43.464C621.828 43.112 621.172 42.936 620.468 42.936C619.764 42.936 619.108 43.112 618.5 43.464C617.892 43.8 617.396 44.304 617.012 44.976C616.644 45.632 616.46 46.416 616.46 47.328C616.46 48.24 616.644 49.04 617.012 49.728C617.396 50.416 617.892 50.944 618.5 51.312C619.124 51.664 619.78 51.84 620.468 51.84C621.172 51.84 621.828 51.664 622.436 51.312C623.044 50.96 623.532 50.448 623.9 49.776C624.284 49.088 624.476 48.288 624.476 47.376ZM643.213 40.776L635.101 60.216H632.269L634.957 53.784L629.749 40.776H632.797L636.517 50.856L640.381 40.776H643.213Z" fill="#FFFDFD"/>
</svg>
