<svg width="102" height="12" viewBox="0 0 102 12" fill="none" xmlns="http://www.w3.org/2000/svg">
<path d="M5.412 11L1.646 6.646V11H0.05V1.27H1.646V5.708L5.426 1.27H7.428L3.2 6.142L7.498 11H5.412ZM8.37738 7.108C8.37738 6.33333 8.53604 5.64733 8.85338 5.05C9.18004 4.45267 9.61871 3.99067 10.1694 3.664C10.7294 3.328 11.3454 3.16 12.0174 3.16C12.624 3.16 13.1514 3.28133 13.5994 3.524C14.0567 3.75733 14.4207 4.05133 14.6914 4.406V3.286H16.3014V11H14.6914V9.852C14.4207 10.216 14.052 10.5193 13.5854 10.762C13.1187 11.0047 12.5867 11.126 11.9894 11.126C11.3267 11.126 10.72 10.958 10.1694 10.622C9.61871 10.2767 9.18004 9.80067 8.85338 9.194C8.53604 8.578 8.37738 7.88267 8.37738 7.108ZM14.6914 7.136C14.6914 6.604 14.5794 6.142 14.3554 5.75C14.1407 5.358 13.856 5.05933 13.5014 4.854C13.1467 4.64867 12.764 4.546 12.3534 4.546C11.9427 4.546 11.56 4.64867 11.2054 4.854C10.8507 5.05 10.5614 5.344 10.3374 5.736C10.1227 6.11867 10.0154 6.576 10.0154 7.108C10.0154 7.64 10.1227 8.10667 10.3374 8.508C10.5614 8.90933 10.8507 9.21733 11.2054 9.432C11.5694 9.63733 11.952 9.74 12.3534 9.74C12.764 9.74 13.1467 9.63733 13.5014 9.432C13.856 9.22667 14.1407 8.928 14.3554 8.536C14.5794 8.13467 14.6914 7.668 14.6914 7.136ZM19.9937 4.406C20.227 4.014 20.535 3.71067 20.9177 3.496C21.3097 3.272 21.7717 3.16 22.3037 3.16V4.812H21.8977C21.2723 4.812 20.7963 4.97067 20.4697 5.288C20.1523 5.60533 19.9937 6.156 19.9937 6.94V11H18.3977V3.286H19.9937V4.406ZM25.6327 4.588V8.858C25.6327 9.14733 25.698 9.35733 25.8287 9.488C25.9687 9.60933 26.202 9.67 26.5287 9.67H27.5087V11H26.2487C25.53 11 24.9794 10.832 24.5967 10.496C24.214 10.16 24.0227 9.614 24.0227 8.858V4.588H23.1127V3.286H24.0227V1.368H25.6327V3.286H27.5087V4.588H25.6327ZM35.9657 3.286V11H34.3697V10.09C34.1177 10.4073 33.7864 10.6593 33.3757 10.846C32.9744 11.0233 32.545 11.112 32.0877 11.112C31.481 11.112 30.935 10.986 30.4497 10.734C29.9737 10.482 29.5957 10.1087 29.3157 9.614C29.045 9.11933 28.9097 8.522 28.9097 7.822V3.286H30.4917V7.584C30.4917 8.27467 30.6644 8.80667 31.0097 9.18C31.355 9.544 31.8264 9.726 32.4237 9.726C33.021 9.726 33.4924 9.544 33.8377 9.18C34.1924 8.80667 34.3697 8.27467 34.3697 7.584V3.286H35.9657ZM43.3042 1.27V11H41.7082V1.27H43.3042ZM44.8676 7.108C44.8676 6.33333 45.0263 5.64733 45.3436 5.05C45.6703 4.45267 46.1089 3.99067 46.6596 3.664C47.2196 3.328 47.8403 3.16 48.5216 3.16C49.0256 3.16 49.5203 3.272 50.0056 3.496C50.5003 3.71067 50.8923 4 51.1816 4.364V0.64H52.7916V11H51.1816V9.838C50.9203 10.2113 50.5563 10.5193 50.0896 10.762C49.6323 11.0047 49.1049 11.126 48.5076 11.126C47.8356 11.126 47.2196 10.958 46.6596 10.622C46.1089 10.2767 45.6703 9.80067 45.3436 9.194C45.0263 8.578 44.8676 7.88267 44.8676 7.108ZM51.1816 7.136C51.1816 6.604 51.0696 6.142 50.8456 5.75C50.6309 5.358 50.3463 5.05933 49.9916 4.854C49.6369 4.64867 49.2543 4.546 48.8436 4.546C48.4329 4.546 48.0503 4.64867 47.6956 4.854C47.3409 5.05 47.0516 5.344 46.8276 5.736C46.6129 6.11867 46.5056 6.576 46.5056 7.108C46.5056 7.64 46.6129 8.10667 46.8276 8.508C47.0516 8.90933 47.3409 9.21733 47.6956 9.432C48.0596 9.63733 48.4423 9.74 48.8436 9.74C49.2543 9.74 49.6369 9.63733 49.9916 9.432C50.3463 9.22667 50.6309 8.928 50.8456 8.536C51.0696 8.13467 51.1816 7.668 51.1816 7.136ZM61.9579 6.954C61.9579 7.24333 61.9392 7.50467 61.9019 7.738H56.0079C56.0546 8.354 56.2832 8.84867 56.6939 9.222C57.1046 9.59533 57.6086 9.782 58.2059 9.782C59.0646 9.782 59.6712 9.42267 60.0259 8.704H61.7479C61.5146 9.41333 61.0899 9.99667 60.4739 10.454C59.8672 10.902 59.1112 11.126 58.2059 11.126C57.4686 11.126 56.8059 10.9627 56.2179 10.636C55.6392 10.3 55.1819 9.83333 54.8459 9.236C54.5192 8.62933 54.3559 7.92933 54.3559 7.136C54.3559 6.34267 54.5146 5.64733 54.8319 5.05C55.1586 4.44333 55.6112 3.97667 56.1899 3.65C56.7779 3.32333 57.4499 3.16 58.2059 3.16C58.9339 3.16 59.5826 3.31867 60.1519 3.636C60.7212 3.95333 61.1646 4.40133 61.4819 4.98C61.7992 5.54933 61.9579 6.20733 61.9579 6.954ZM60.2919 6.45C60.2826 5.862 60.0726 5.39067 59.6619 5.036C59.2512 4.68133 58.7426 4.504 58.1359 4.504C57.5852 4.504 57.1139 4.68133 56.7219 5.036C56.3299 5.38133 56.0966 5.85267 56.0219 6.45H60.2919ZM67.4205 3.16C68.0272 3.16 68.5685 3.286 69.0445 3.538C69.5298 3.79 69.9078 4.16333 70.1785 4.658C70.4492 5.15267 70.5845 5.75 70.5845 6.45V11H69.0025V6.688C69.0025 5.99733 68.8298 5.47 68.4845 5.106C68.1392 4.73267 67.6678 4.546 67.0705 4.546C66.4732 4.546 65.9972 4.73267 65.6425 5.106C65.2972 5.47 65.1245 5.99733 65.1245 6.688V11H63.5285V3.286H65.1245V4.168C65.3858 3.85067 65.7172 3.60333 66.1185 3.426C66.5292 3.24867 66.9632 3.16 67.4205 3.16ZM74.4823 4.588V8.858C74.4823 9.14733 74.5476 9.35733 74.6783 9.488C74.8183 9.60933 75.0516 9.67 75.3783 9.67H76.3583V11H75.0983C74.3796 11 73.829 10.832 73.4463 10.496C73.0636 10.16 72.8723 9.614 72.8723 8.858V4.588H71.9623V3.286H72.8723V1.368H74.4823V3.286H76.3583V4.588H74.4823ZM78.6413 2.264C78.352 2.264 78.1093 2.166 77.9133 1.97C77.7173 1.774 77.6193 1.53133 77.6193 1.242C77.6193 0.952666 77.7173 0.71 77.9133 0.514C78.1093 0.318 78.352 0.219999 78.6413 0.219999C78.9213 0.219999 79.1593 0.318 79.3553 0.514C79.5513 0.71 79.6493 0.952666 79.6493 1.242C79.6493 1.53133 79.5513 1.774 79.3553 1.97C79.1593 2.166 78.9213 2.264 78.6413 2.264ZM79.4253 3.286V11H77.8293V3.286H79.4253ZM83.3827 4.588V8.858C83.3827 9.14733 83.448 9.35733 83.5787 9.488C83.7187 9.60933 83.952 9.67 84.2787 9.67H85.2587V11H83.9987C83.28 11 82.7294 10.832 82.3467 10.496C81.964 10.16 81.7727 9.614 81.7727 8.858V4.588H80.8627V3.286H81.7727V1.368H83.3827V3.286H85.2587V4.588H83.3827ZM86.1977 7.108C86.1977 6.33333 86.3564 5.64733 86.6737 5.05C87.0004 4.45267 87.439 3.99067 87.9897 3.664C88.5497 3.328 89.1657 3.16 89.8377 3.16C90.4444 3.16 90.9717 3.28133 91.4197 3.524C91.877 3.75733 92.241 4.05133 92.5117 4.406V3.286H94.1217V11H92.5117V9.852C92.241 10.216 91.8724 10.5193 91.4057 10.762C90.939 11.0047 90.407 11.126 89.8097 11.126C89.147 11.126 88.5404 10.958 87.9897 10.622C87.439 10.2767 87.0004 9.80067 86.6737 9.194C86.3564 8.578 86.1977 7.88267 86.1977 7.108ZM92.5117 7.136C92.5117 6.604 92.3997 6.142 92.1757 5.75C91.961 5.358 91.6764 5.05933 91.3217 4.854C90.967 4.64867 90.5844 4.546 90.1737 4.546C89.763 4.546 89.3804 4.64867 89.0257 4.854C88.671 5.05 88.3817 5.344 88.1577 5.736C87.943 6.11867 87.8357 6.576 87.8357 7.108C87.8357 7.64 87.943 8.10667 88.1577 8.508C88.3817 8.90933 88.671 9.21733 89.0257 9.432C89.3897 9.63733 89.7724 9.74 90.1737 9.74C90.5844 9.74 90.967 9.63733 91.3217 9.432C91.6764 9.22667 91.961 8.928 92.1757 8.536C92.3997 8.13467 92.5117 7.668 92.5117 7.136ZM99.018 11.126C98.4113 11.126 97.8653 11.0187 97.38 10.804C96.904 10.58 96.526 10.2813 96.246 9.908C95.966 9.52533 95.8166 9.10067 95.798 8.634H97.45C97.478 8.96067 97.632 9.236 97.912 9.46C98.2013 9.67467 98.5606 9.782 98.99 9.782C99.438 9.782 99.7833 9.698 100.026 9.53C100.278 9.35267 100.404 9.12867 100.404 8.858C100.404 8.56867 100.264 8.354 99.984 8.214C99.7133 8.074 99.2793 7.92 98.682 7.752C98.1033 7.59333 97.632 7.43933 97.268 7.29C96.904 7.14067 96.5866 6.912 96.316 6.604C96.0546 6.296 95.924 5.89 95.924 5.386C95.924 4.97533 96.0453 4.602 96.288 4.266C96.5306 3.92067 96.876 3.65 97.324 3.454C97.7813 3.258 98.304 3.16 98.892 3.16C99.7693 3.16 100.474 3.384 101.006 3.832C101.547 4.27067 101.837 4.87267 101.874 5.638H100.278C100.25 5.29267 100.11 5.01733 99.858 4.812C99.606 4.60667 99.2653 4.504 98.836 4.504C98.416 4.504 98.094 4.58333 97.87 4.742C97.646 4.90067 97.534 5.11067 97.534 5.372C97.534 5.57733 97.6086 5.75 97.758 5.89C97.9073 6.03 98.0893 6.142 98.304 6.226C98.5186 6.30067 98.836 6.39867 99.256 6.52C99.816 6.66933 100.273 6.82333 100.628 6.982C100.992 7.13133 101.305 7.35533 101.566 7.654C101.827 7.95267 101.963 8.34933 101.972 8.844C101.972 9.28267 101.851 9.67467 101.608 10.02C101.365 10.3653 101.02 10.636 100.572 10.832C100.133 11.028 99.6153 11.126 99.018 11.126Z" fill="black"/>
</svg>
