<svg width="104" height="15" viewBox="0 0 104 15" fill="none" xmlns="http://www.w3.org/2000/svg">
<path d="M1.632 1.27V7.472C1.632 8.20933 1.82333 8.76467 2.206 9.138C2.598 9.51133 3.13933 9.698 3.83 9.698C4.53 9.698 5.07133 9.51133 5.454 9.138C5.846 8.76467 6.042 8.20933 6.042 7.472V1.27H7.638V7.444C7.638 8.23733 7.46533 8.90933 7.12 9.46C6.77467 10.0107 6.31267 10.4213 5.734 10.692C5.15533 10.9627 4.516 11.098 3.816 11.098C3.116 11.098 2.47667 10.9627 1.898 10.692C1.32867 10.4213 0.876 10.0107 0.54 9.46C0.204 8.90933 0.036 8.23733 0.036 7.444V1.27H1.632ZM13.608 3.16C14.2147 3.16 14.756 3.286 15.232 3.538C15.7173 3.79 16.0953 4.16333 16.366 4.658C16.6367 5.15267 16.772 5.75 16.772 6.45V11H15.19V6.688C15.19 5.99733 15.0173 5.47 14.672 5.106C14.3267 4.73267 13.8553 4.546 13.258 4.546C12.6607 4.546 12.1847 4.73267 11.83 5.106C11.4847 5.47 11.312 5.99733 11.312 6.688V11H9.71602V3.286H11.312V4.168C11.5733 3.85067 11.9047 3.60333 12.306 3.426C12.7167 3.24867 13.1507 3.16 13.608 3.16ZM19.6198 2.264C19.3305 2.264 19.0878 2.166 18.8918 1.97C18.6958 1.774 18.5978 1.53133 18.5978 1.242C18.5978 0.952666 18.6958 0.71 18.8918 0.514C19.0878 0.318 19.3305 0.219999 19.6198 0.219999C19.8998 0.219999 20.1378 0.318 20.3338 0.514C20.5298 0.71 20.6278 0.952666 20.6278 1.242C20.6278 1.53133 20.5298 1.774 20.3338 1.97C20.1378 2.166 19.8998 2.264 19.6198 2.264ZM20.4038 3.286V11H18.8078V3.286H20.4038ZM24.3612 4.588V8.858C24.3612 9.14733 24.4266 9.35733 24.5572 9.488C24.6972 9.60933 24.9306 9.67 25.2572 9.67H26.2372V11H24.9772C24.2586 11 23.7079 10.832 23.3252 10.496C22.9426 10.16 22.7512 9.614 22.7512 8.858V4.588H21.8412V3.286H22.7512V1.368H24.3612V3.286H26.2372V4.588H24.3612ZM35.7829 11.098C34.8776 11.098 34.0423 10.888 33.2769 10.468C32.5209 10.0387 31.9189 9.446 31.4709 8.69C31.0323 7.92467 30.8129 7.066 30.8129 6.114C30.8129 5.162 31.0323 4.308 31.4709 3.552C31.9189 2.796 32.5209 2.208 33.2769 1.788C34.0423 1.35867 34.8776 1.144 35.7829 1.144C36.6976 1.144 37.5329 1.35867 38.2889 1.788C39.0543 2.208 39.6563 2.796 40.0949 3.552C40.5336 4.308 40.7529 5.162 40.7529 6.114C40.7529 7.066 40.5336 7.92467 40.0949 8.69C39.6563 9.446 39.0543 10.0387 38.2889 10.468C37.5329 10.888 36.6976 11.098 35.7829 11.098ZM35.7829 9.712C36.4269 9.712 37.0009 9.56733 37.5049 9.278C38.0089 8.97933 38.4009 8.55933 38.6809 8.018C38.9703 7.46733 39.1149 6.83267 39.1149 6.114C39.1149 5.39533 38.9703 4.76533 38.6809 4.224C38.4009 3.68267 38.0089 3.26733 37.5049 2.978C37.0009 2.68867 36.4269 2.544 35.7829 2.544C35.1389 2.544 34.5649 2.68867 34.0609 2.978C33.5569 3.26733 33.1603 3.68267 32.8709 4.224C32.5909 4.76533 32.4509 5.39533 32.4509 6.114C32.4509 6.83267 32.5909 7.46733 32.8709 8.018C33.1603 8.55933 33.5569 8.97933 34.0609 9.278C34.5649 9.56733 35.1389 9.712 35.7829 9.712ZM43.9194 4.434C44.1901 4.06067 44.5588 3.75733 45.0254 3.524C45.5014 3.28133 46.0288 3.16 46.6074 3.16C47.2888 3.16 47.9048 3.32333 48.4554 3.65C49.0061 3.97667 49.4401 4.44333 49.7574 5.05C50.0748 5.64733 50.2334 6.33333 50.2334 7.108C50.2334 7.88267 50.0748 8.578 49.7574 9.194C49.4401 9.80067 49.0014 10.2767 48.4414 10.622C47.8908 10.958 47.2794 11.126 46.6074 11.126C46.0101 11.126 45.4781 11.0093 45.0114 10.776C44.5541 10.5427 44.1901 10.244 43.9194 9.88V11H42.3234V0.64H43.9194V4.434ZM48.6094 7.108C48.6094 6.576 48.4974 6.11867 48.2734 5.736C48.0588 5.344 47.7694 5.05 47.4054 4.854C47.0508 4.64867 46.6681 4.546 46.2574 4.546C45.8561 4.546 45.4734 4.64867 45.1094 4.854C44.7548 5.05933 44.4654 5.358 44.2414 5.75C44.0268 6.142 43.9194 6.604 43.9194 7.136C43.9194 7.668 44.0268 8.13467 44.2414 8.536C44.4654 8.928 44.7548 9.22667 45.1094 9.432C45.4734 9.63733 45.8561 9.74 46.2574 9.74C46.6681 9.74 47.0508 9.63733 47.4054 9.432C47.7694 9.21733 48.0588 8.90933 48.2734 8.508C48.4974 8.10667 48.6094 7.64 48.6094 7.108ZM52.6237 2.264C52.3344 2.264 52.0917 2.166 51.8957 1.97C51.6997 1.774 51.6017 1.53133 51.6017 1.242C51.6017 0.952666 51.6997 0.71 51.8957 0.514C52.0917 0.318 52.3344 0.219999 52.6237 0.219999C52.9037 0.219999 53.1417 0.318 53.3377 0.514C53.5337 0.71 53.6317 0.952666 53.6317 1.242C53.6317 1.53133 53.5337 1.774 53.3377 1.97C53.1417 2.166 52.9037 2.264 52.6237 2.264ZM53.4077 12.512C53.4077 13.268 53.2164 13.814 52.8337 14.15C52.4604 14.4953 51.9144 14.668 51.1957 14.668H50.3697V13.324H50.9157C51.2424 13.324 51.4711 13.2587 51.6017 13.128C51.7417 13.0067 51.8117 12.8013 51.8117 12.512V3.286H53.4077V12.512ZM62.5731 6.954C62.5731 7.24333 62.5545 7.50467 62.5171 7.738H56.6231C56.6698 8.354 56.8985 8.84867 57.3091 9.222C57.7198 9.59533 58.2238 9.782 58.8211 9.782C59.6798 9.782 60.2865 9.42267 60.6411 8.704H62.3631C62.1298 9.41333 61.7051 9.99667 61.0891 10.454C60.4825 10.902 59.7265 11.126 58.8211 11.126C58.0838 11.126 57.4211 10.9627 56.8331 10.636C56.2545 10.3 55.7971 9.83333 55.4611 9.236C55.1345 8.62933 54.9711 7.92933 54.9711 7.136C54.9711 6.34267 55.1298 5.64733 55.4471 5.05C55.7738 4.44333 56.2265 3.97667 56.8051 3.65C57.3931 3.32333 58.0651 3.16 58.8211 3.16C59.5491 3.16 60.1978 3.31867 60.7671 3.636C61.3365 3.95333 61.7798 4.40133 62.0971 4.98C62.4145 5.54933 62.5731 6.20733 62.5731 6.954ZM60.9071 6.45C60.8978 5.862 60.6878 5.39067 60.2771 5.036C59.8665 4.68133 59.3578 4.504 58.7511 4.504C58.2005 4.504 57.7291 4.68133 57.3371 5.036C56.9451 5.38133 56.7118 5.85267 56.6371 6.45H60.9071ZM63.6118 7.136C63.6118 6.34267 63.7704 5.64733 64.0878 5.05C64.4144 4.44333 64.8624 3.97667 65.4318 3.65C66.0011 3.32333 66.6544 3.16 67.3918 3.16C68.3251 3.16 69.0951 3.384 69.7018 3.832C70.3178 4.27067 70.7331 4.90067 70.9478 5.722H69.2258C69.0858 5.33933 68.8618 5.04067 68.5538 4.826C68.2458 4.61133 67.8584 4.504 67.3918 4.504C66.7384 4.504 66.2158 4.73733 65.8238 5.204C65.4411 5.66133 65.2498 6.30533 65.2498 7.136C65.2498 7.96667 65.4411 8.61533 65.8238 9.082C66.2158 9.54867 66.7384 9.782 67.3918 9.782C68.3158 9.782 68.9271 9.376 69.2258 8.564H70.9478C70.7238 9.348 70.3038 9.97333 69.6878 10.44C69.0718 10.8973 68.3064 11.126 67.3918 11.126C66.6544 11.126 66.0011 10.9627 65.4318 10.636C64.8624 10.3 64.4144 9.83333 64.0878 9.236C63.7704 8.62933 63.6118 7.92933 63.6118 7.136ZM74.4003 4.588V8.858C74.4003 9.14733 74.4656 9.35733 74.5963 9.488C74.7363 9.60933 74.9696 9.67 75.2963 9.67H76.2763V11H75.0163C74.2976 11 73.7469 10.832 73.3643 10.496C72.9816 10.16 72.7903 9.614 72.7903 8.858V4.588H71.8803V3.286H72.7903V1.368H74.4003V3.286H76.2763V4.588H74.4003ZM78.5593 2.264C78.2699 2.264 78.0273 2.166 77.8313 1.97C77.6353 1.774 77.5373 1.53133 77.5373 1.242C77.5373 0.952666 77.6353 0.71 77.8313 0.514C78.0273 0.318 78.2699 0.219999 78.5593 0.219999C78.8393 0.219999 79.0773 0.318 79.2733 0.514C79.4693 0.71 79.5673 0.952666 79.5673 1.242C79.5673 1.53133 79.4693 1.774 79.2733 1.97C79.0773 2.166 78.8393 2.264 78.5593 2.264ZM79.3433 3.286V11H77.7473V3.286H79.3433ZM84.4207 9.572L86.6047 3.286H88.2987L85.3587 11H83.4547L80.5287 3.286H82.2367L84.4207 9.572ZM96.5751 6.954C96.5751 7.24333 96.5564 7.50467 96.5191 7.738H90.6251C90.6717 8.354 90.9004 8.84867 91.3111 9.222C91.7217 9.59533 92.2257 9.782 92.8231 9.782C93.6817 9.782 94.2884 9.42267 94.6431 8.704H96.3651C96.1317 9.41333 95.7071 9.99667 95.0911 10.454C94.4844 10.902 93.7284 11.126 92.8231 11.126C92.0857 11.126 91.4231 10.9627 90.8351 10.636C90.2564 10.3 89.7991 9.83333 89.4631 9.236C89.1364 8.62933 88.9731 7.92933 88.9731 7.136C88.9731 6.34267 89.1317 5.64733 89.4491 5.05C89.7757 4.44333 90.2284 3.97667 90.8071 3.65C91.3951 3.32333 92.0671 3.16 92.8231 3.16C93.5511 3.16 94.1997 3.31867 94.7691 3.636C95.3384 3.95333 95.7817 4.40133 96.0991 4.98C96.4164 5.54933 96.5751 6.20733 96.5751 6.954ZM94.9091 6.45C94.8997 5.862 94.6897 5.39067 94.2791 5.036C93.8684 4.68133 93.3597 4.504 92.7531 4.504C92.2024 4.504 91.7311 4.68133 91.3391 5.036C90.9471 5.38133 90.7137 5.85267 90.6391 6.45H94.9091ZM100.946 11.126C100.339 11.126 99.793 11.0187 99.3077 10.804C98.8317 10.58 98.4537 10.2813 98.1737 9.908C97.8937 9.52533 97.7444 9.10067 97.7257 8.634H99.3777C99.4057 8.96067 99.5597 9.236 99.8397 9.46C100.129 9.67467 100.488 9.782 100.918 9.782C101.366 9.782 101.711 9.698 101.954 9.53C102.206 9.35267 102.332 9.12867 102.332 8.858C102.332 8.56867 102.192 8.354 101.912 8.214C101.641 8.074 101.207 7.92 100.61 7.752C100.031 7.59333 99.5597 7.43933 99.1957 7.29C98.8317 7.14067 98.5144 6.912 98.2437 6.604C97.9824 6.296 97.8517 5.89 97.8517 5.386C97.8517 4.97533 97.973 4.602 98.2157 4.266C98.4584 3.92067 98.8037 3.65 99.2517 3.454C99.709 3.258 100.232 3.16 100.82 3.16C101.697 3.16 102.402 3.384 102.934 3.832C103.475 4.27067 103.764 4.87267 103.802 5.638H102.206C102.178 5.29267 102.038 5.01733 101.786 4.812C101.534 4.60667 101.193 4.504 100.764 4.504C100.344 4.504 100.022 4.58333 99.7977 4.742C99.5737 4.90067 99.4617 5.11067 99.4617 5.372C99.4617 5.57733 99.5364 5.75 99.6857 5.89C99.835 6.03 100.017 6.142 100.232 6.226C100.446 6.30067 100.764 6.39867 101.184 6.52C101.744 6.66933 102.201 6.82333 102.556 6.982C102.92 7.13133 103.232 7.35533 103.494 7.654C103.755 7.95267 103.89 8.34933 103.9 8.844C103.9 9.28267 103.778 9.67467 103.536 10.02C103.293 10.3653 102.948 10.636 102.5 10.832C102.061 11.028 101.543 11.126 100.946 11.126Z" fill="black"/>
</svg>
