<svg width="90" height="12" viewBox="0 0 90 12" fill="none" xmlns="http://www.w3.org/2000/svg">
<path d="M7.336 1.27V2.572H4.746V11H3.15V2.572H0.546V1.27H7.336ZM12.2983 11.126C11.5703 11.126 10.9123 10.9627 10.3243 10.636C9.73634 10.3 9.27434 9.83333 8.93834 9.236C8.60234 8.62933 8.43434 7.92933 8.43434 7.136C8.43434 6.352 8.60701 5.65667 8.95234 5.05C9.29768 4.44333 9.76901 3.97667 10.3663 3.65C10.9637 3.32333 11.631 3.16 12.3683 3.16C13.1057 3.16 13.773 3.32333 14.3703 3.65C14.9677 3.97667 15.439 4.44333 15.7843 5.05C16.1297 5.65667 16.3023 6.352 16.3023 7.136C16.3023 7.92 16.125 8.61533 15.7703 9.222C15.4157 9.82867 14.9303 10.3 14.3143 10.636C13.7077 10.9627 13.0357 11.126 12.2983 11.126ZM12.2983 9.74C12.709 9.74 13.0917 9.642 13.4463 9.446C13.8103 9.25 14.1043 8.956 14.3283 8.564C14.5523 8.172 14.6643 7.696 14.6643 7.136C14.6643 6.576 14.557 6.10467 14.3423 5.722C14.1277 5.33 13.843 5.036 13.4883 4.84C13.1337 4.644 12.751 4.546 12.3403 4.546C11.9297 4.546 11.547 4.644 11.1923 4.84C10.847 5.036 10.5717 5.33 10.3663 5.722C10.161 6.10467 10.0583 6.576 10.0583 7.136C10.0583 7.96667 10.2683 8.61067 10.6883 9.068C11.1177 9.516 11.6543 9.74 12.2983 9.74ZM19.7421 4.588V8.858C19.7421 9.14733 19.8074 9.35733 19.9381 9.488C20.0781 9.60933 20.3114 9.67 20.6381 9.67H21.6181V11H20.3581C19.6394 11 19.0887 10.832 18.7061 10.496C18.3234 10.16 18.1321 9.614 18.1321 8.858V4.588H17.2221V3.286H18.1321V1.368H19.7421V3.286H21.6181V4.588H19.7421ZM22.5571 7.108C22.5571 6.33333 22.7157 5.64733 23.0331 5.05C23.3597 4.45267 23.7984 3.99067 24.3491 3.664C24.9091 3.328 25.5251 3.16 26.1971 3.16C26.8037 3.16 27.3311 3.28133 27.7791 3.524C28.2364 3.75733 28.6004 4.05133 28.8711 4.406V3.286H30.4811V11H28.8711V9.852C28.6004 10.216 28.2317 10.5193 27.7651 10.762C27.2984 11.0047 26.7664 11.126 26.1691 11.126C25.5064 11.126 24.8997 10.958 24.3491 10.622C23.7984 10.2767 23.3597 9.80067 23.0331 9.194C22.7157 8.578 22.5571 7.88267 22.5571 7.108ZM28.8711 7.136C28.8711 6.604 28.7591 6.142 28.5351 5.75C28.3204 5.358 28.0357 5.05933 27.6811 4.854C27.3264 4.64867 26.9437 4.546 26.5331 4.546C26.1224 4.546 25.7397 4.64867 25.3851 4.854C25.0304 5.05 24.7411 5.344 24.5171 5.736C24.3024 6.11867 24.1951 6.576 24.1951 7.108C24.1951 7.64 24.3024 8.10667 24.5171 8.508C24.7411 8.90933 25.0304 9.21733 25.3851 9.432C25.7491 9.63733 26.1317 9.74 26.5331 9.74C26.9437 9.74 27.3264 9.63733 27.6811 9.432C28.0357 9.22667 28.3204 8.928 28.5351 8.536C28.7591 8.13467 28.8711 7.668 28.8711 7.136ZM34.1733 0.64V11H32.5773V0.64H34.1733ZM48.2915 1.27L44.6375 11H42.7895L39.1215 1.27H40.8295L43.7135 9.362L46.6115 1.27H48.2915ZM51.2222 1.27V11H49.6262V1.27H51.2222ZM56.1176 11.126C55.5109 11.126 54.9649 11.0187 54.4796 10.804C54.0036 10.58 53.6256 10.2813 53.3456 9.908C53.0656 9.52533 52.9162 9.10067 52.8976 8.634H54.5496C54.5776 8.96067 54.7316 9.236 55.0116 9.46C55.3009 9.67467 55.6602 9.782 56.0896 9.782C56.5376 9.782 56.8829 9.698 57.1256 9.53C57.3776 9.35267 57.5036 9.12867 57.5036 8.858C57.5036 8.56867 57.3636 8.354 57.0836 8.214C56.8129 8.074 56.3789 7.92 55.7816 7.752C55.2029 7.59333 54.7316 7.43933 54.3676 7.29C54.0036 7.14067 53.6862 6.912 53.4156 6.604C53.1542 6.296 53.0236 5.89 53.0236 5.386C53.0236 4.97533 53.1449 4.602 53.3876 4.266C53.6302 3.92067 53.9756 3.65 54.4236 3.454C54.8809 3.258 55.4036 3.16 55.9916 3.16C56.8689 3.16 57.5736 3.384 58.1056 3.832C58.6469 4.27067 58.9362 4.87267 58.9736 5.638H57.3776C57.3496 5.29267 57.2096 5.01733 56.9576 4.812C56.7056 4.60667 56.3649 4.504 55.9356 4.504C55.5156 4.504 55.1936 4.58333 54.9696 4.742C54.7456 4.90067 54.6336 5.11067 54.6336 5.372C54.6336 5.57733 54.7082 5.75 54.8576 5.89C55.0069 6.03 55.1889 6.142 55.4036 6.226C55.6182 6.30067 55.9356 6.39867 56.3556 6.52C56.9156 6.66933 57.3729 6.82333 57.7276 6.982C58.0916 7.13133 58.4042 7.35533 58.6656 7.654C58.9269 7.95267 59.0622 8.34933 59.0716 8.844C59.0716 9.28267 58.9502 9.67467 58.7076 10.02C58.4649 10.3653 58.1196 10.636 57.6716 10.832C57.2329 11.028 56.7149 11.126 56.1176 11.126ZM61.6081 2.264C61.3188 2.264 61.0761 2.166 60.8801 1.97C60.6841 1.774 60.5861 1.53133 60.5861 1.242C60.5861 0.952666 60.6841 0.71 60.8801 0.514C61.0761 0.318 61.3188 0.219999 61.6081 0.219999C61.8881 0.219999 62.1261 0.318 62.3221 0.514C62.5181 0.71 62.6161 0.952666 62.6161 1.242C62.6161 1.53133 62.5181 1.774 62.3221 1.97C62.1261 2.166 61.8881 2.264 61.6081 2.264ZM62.3921 3.286V11H60.7961V3.286H62.3921ZM66.3495 4.588V8.858C66.3495 9.14733 66.4148 9.35733 66.5455 9.488C66.6855 9.60933 66.9188 9.67 67.2455 9.67H68.2255V11H66.9655C66.2468 11 65.6962 10.832 65.3135 10.496C64.9308 10.16 64.7395 9.614 64.7395 8.858V4.588H63.8295V3.286H64.7395V1.368H66.3495V3.286H68.2255V4.588H66.3495ZM73.0425 11.126C72.3145 11.126 71.6565 10.9627 71.0685 10.636C70.4805 10.3 70.0185 9.83333 69.6825 9.236C69.3465 8.62933 69.1785 7.92933 69.1785 7.136C69.1785 6.352 69.3512 5.65667 69.6965 5.05C70.0418 4.44333 70.5132 3.97667 71.1105 3.65C71.7078 3.32333 72.3752 3.16 73.1125 3.16C73.8498 3.16 74.5172 3.32333 75.1145 3.65C75.7118 3.97667 76.1832 4.44333 76.5285 5.05C76.8738 5.65667 77.0465 6.352 77.0465 7.136C77.0465 7.92 76.8692 8.61533 76.5145 9.222C76.1598 9.82867 75.6745 10.3 75.0585 10.636C74.4518 10.9627 73.7798 11.126 73.0425 11.126ZM73.0425 9.74C73.4532 9.74 73.8358 9.642 74.1905 9.446C74.5545 9.25 74.8485 8.956 75.0725 8.564C75.2965 8.172 75.4085 7.696 75.4085 7.136C75.4085 6.576 75.3012 6.10467 75.0865 5.722C74.8718 5.33 74.5872 5.036 74.2325 4.84C73.8778 4.644 73.4952 4.546 73.0845 4.546C72.6738 4.546 72.2912 4.644 71.9365 4.84C71.5912 5.036 71.3158 5.33 71.1105 5.722C70.9052 6.10467 70.8025 6.576 70.8025 7.136C70.8025 7.96667 71.0125 8.61067 71.4325 9.068C71.8618 9.516 72.3985 9.74 73.0425 9.74ZM80.2202 4.406C80.4536 4.014 80.7616 3.71067 81.1442 3.496C81.5362 3.272 81.9982 3.16 82.5302 3.16V4.812H82.1242C81.4989 4.812 81.0229 4.97067 80.6962 5.288C80.3789 5.60533 80.2202 6.156 80.2202 6.94V11H78.6242V3.286H80.2202V4.406ZM86.7973 11.126C86.1906 11.126 85.6446 11.0187 85.1593 10.804C84.6833 10.58 84.3053 10.2813 84.0253 9.908C83.7453 9.52533 83.5959 9.10067 83.5773 8.634H85.2293C85.2573 8.96067 85.4113 9.236 85.6913 9.46C85.9806 9.67467 86.3399 9.782 86.7693 9.782C87.2173 9.782 87.5626 9.698 87.8053 9.53C88.0573 9.35267 88.1833 9.12867 88.1833 8.858C88.1833 8.56867 88.0433 8.354 87.7633 8.214C87.4926 8.074 87.0586 7.92 86.4613 7.752C85.8826 7.59333 85.4113 7.43933 85.0473 7.29C84.6833 7.14067 84.3659 6.912 84.0953 6.604C83.8339 6.296 83.7033 5.89 83.7033 5.386C83.7033 4.97533 83.8246 4.602 84.0673 4.266C84.3099 3.92067 84.6553 3.65 85.1033 3.454C85.5606 3.258 86.0833 3.16 86.6713 3.16C87.5486 3.16 88.2533 3.384 88.7853 3.832C89.3266 4.27067 89.6159 4.87267 89.6533 5.638H88.0573C88.0293 5.29267 87.8893 5.01733 87.6373 4.812C87.3853 4.60667 87.0446 4.504 86.6153 4.504C86.1953 4.504 85.8733 4.58333 85.6493 4.742C85.4253 4.90067 85.3133 5.11067 85.3133 5.372C85.3133 5.57733 85.3879 5.75 85.5373 5.89C85.6866 6.03 85.8686 6.142 86.0833 6.226C86.2979 6.30067 86.6153 6.39867 87.0353 6.52C87.5953 6.66933 88.0526 6.82333 88.4073 6.982C88.7713 7.13133 89.0839 7.35533 89.3453 7.654C89.6066 7.95267 89.7419 8.34933 89.7513 8.844C89.7513 9.28267 89.6299 9.67467 89.3873 10.02C89.1446 10.3653 88.7993 10.636 88.3513 10.832C87.9126 11.028 87.3946 11.126 86.7973 11.126Z" fill="black"/>
</svg>
